<svg width="307" height="297" viewBox="0 0 307 297" fill="none" xmlns="http://www.w3.org/2000/svg">
<path fill-rule="evenodd" clip-rule="evenodd" d="M72.9376 3.45448C72.9376 1.721 73.087 0.434195 73.3147 0.20711C73.5679 -0.0454232 73.8839 -0.0669587 74.2754 0.142181C74.7258 0.382642 74.8171 0.710219 74.6761 1.57745C74.5754 2.1954 74.5953 3.5168 74.7203 4.51355L74.9473 6.32566H77.5507C79.5732 6.32566 80.1967 6.43594 80.3442 6.81931C80.739 7.84478 79.8313 8.28329 77.3136 8.28329H74.9002V11.0794C74.9002 13.7924 74.8783 13.8723 74.1642 13.7712C73.4972 13.6765 73.4011 13.4145 73.1377 10.975L72.8473 8.28329H70.3158C67.6764 8.28329 66.766 7.86011 67.1664 6.81931C67.3152 6.43203 67.9577 6.32566 70.147 6.32566H72.9376V3.45448ZM204.413 6.91393C207.53 5.57491 212.739 4.49528 218.827 3.92692C221.516 3.67569 227.772 3.7429 231.257 4.06036C243.686 5.1922 255.909 9.80142 260.951 15.2576C261.625 15.9869 262.116 16.4904 262.428 17.0871C263.269 18.6929 262.815 20.9731 261.147 30.1434L259.694 38.137L260.863 39.077C263.39 41.1077 267.062 46.9003 268.563 51.2208C269.589 54.1726 270.51 60.1783 270.504 63.8632C270.494 69.3735 269.435 74.943 267.539 79.4592C266.677 81.5121 266.315 82.2795 266.541 82.7849C266.7 83.1394 267.148 83.365 267.917 83.8149C269.895 84.9732 274.102 89.2421 275.966 91.9838C280.862 99.1829 283.048 108.657 281.487 115.916C280.969 118.328 278.857 122.757 277.183 124.945C276.547 125.777 276.072 126.5 276.13 126.551C276.187 126.603 278 127.819 280.159 129.255C290.676 136.248 296.441 144.393 300.586 158.12C304.218 170.142 306.167 182.634 306.836 198.173C307.43 211.973 306.443 220.528 303.383 228.097C300.662 234.827 294.693 240.704 287.867 243.376C286.596 243.873 285.557 244.469 285.557 244.699C285.557 244.93 286.064 249.642 286.683 255.17C287.303 260.698 287.911 266.432 288.034 267.913C288.25 270.505 288.232 270.605 287.568 270.605C286.704 270.605 286.681 270.5 286.04 263.59C285.501 257.776 284.38 247.688 284.076 245.909L283.898 244.867L282.356 245.342C274.877 247.642 267.74 248.721 258.34 248.974C249.654 249.208 239.409 248.627 238.037 247.822C236.302 246.804 234.316 243.12 233.98 240.295C233.876 239.417 233.699 238.556 233.587 238.382C233.462 238.189 232.683 238.167 231.584 238.325C230.595 238.467 229.086 238.593 228.231 238.606L226.677 238.63V254.093V269.555L225.941 269.736C225.537 269.835 224.418 270.018 223.456 270.143C221.722 270.369 221.709 270.379 221.904 271.352C222.601 274.827 223.151 280.452 222.826 280.776C222.215 281.385 221.444 280.814 221.444 279.752C221.444 277.028 216.953 249.377 216.425 248.85C216.34 248.765 214.88 249.214 213.183 249.848C211.485 250.482 208.491 251.32 206.529 251.71C204.567 252.099 202.926 252.447 202.882 252.483C202.838 252.519 203.244 256.06 203.785 260.353C204.994 269.948 206.01 281.266 205.707 281.756C205.191 282.588 204.483 281.703 204.308 280.005C204.104 278.034 203.587 272.714 203.108 267.668C202.392 260.118 199.305 240.062 197.869 233.633C197.516 232.051 196.493 228.537 195.597 225.825C194.7 223.112 193.967 220.699 193.967 220.463C193.967 220.226 194.247 220.033 194.59 220.033C195.076 220.033 195.439 220.654 196.237 222.854C198.625 229.439 199.843 234.542 201.659 245.579C202.103 248.274 202.531 250.544 202.611 250.623C203.142 251.153 214.523 248.085 215.755 247.079C216.016 246.867 215.831 245.535 215.097 242.346L214.076 237.908L212.117 237.02C211.04 236.532 209.686 235.595 209.109 234.939C208.103 233.794 207.246 231.6 207.447 230.683C207.499 230.443 207.057 229.839 206.464 229.34C205.051 228.151 204.017 226.081 204.02 224.445C204.022 223.466 203.786 222.862 203.088 222.066C202.574 221.48 202.069 220.599 201.966 220.109C201.863 219.618 201.722 218.94 201.653 218.602C201.584 218.264 201.748 217.34 202.018 216.549C202.493 215.153 202.484 215.084 201.691 214.145C201.235 213.604 200.78 212.54 200.658 211.728C200.467 210.459 200.169 210.041 198.266 208.37C191.825 202.713 185.193 198.972 177.668 196.75L175.926 196.235L176.732 197.612C178.734 201.031 183.561 211.097 184.902 214.649C188.624 224.512 191.629 236.182 193.64 248.582C195.645 260.939 197.881 281.513 197.285 282.107C196.347 283.044 196.065 282.056 195.483 275.78C193.701 256.579 191.077 240.691 187.594 228.027C185.625 220.864 181.954 210.571 181.369 210.571C181.272 210.571 180.203 211.066 178.994 211.672C169.689 216.329 156.63 217.728 146.568 215.147C145.291 214.819 144.247 214.647 144.247 214.764C144.247 214.88 144.607 216.297 145.046 217.912C146.19 222.114 147.155 227.511 147.437 231.289L147.681 234.552L149.769 234.782C153.411 235.182 155.692 237.317 155.694 240.328C155.695 241.172 155.532 242.22 155.332 242.658C155.028 243.322 155.09 243.616 155.705 244.447C156.151 245.047 156.505 246.094 156.601 247.095C156.736 248.499 156.628 248.95 155.885 250.068L155.01 251.387L155.844 252.375C157.139 253.911 156.997 255.584 155.425 257.316C154.266 258.593 154.205 258.757 154.602 259.512C155.488 261.195 154.887 263.76 153.275 265.171C152.897 265.502 151.971 266.135 151.216 266.578L149.845 267.382L150.041 275.999C150.224 284.024 150.198 284.631 149.662 284.836C149.318 284.967 148.971 284.873 148.798 284.6C148.639 284.35 148.506 281.282 148.501 277.783C148.497 274.284 148.402 270.661 148.29 269.732C148.09 268.069 148.074 268.048 147.23 268.37C145.949 268.86 140.631 269.941 139.478 269.947C138.537 269.952 138.374 270.147 136.965 272.97C133.727 279.456 129.635 284.647 125.927 286.973C118.605 291.566 111.236 291.023 106.091 285.512C101.236 280.311 99.2905 272.569 99.4917 259.25L99.5967 252.3L94.2053 250.033C91.2401 248.786 88.7744 247.766 88.7263 247.766C88.6782 247.766 88.6354 248.904 88.6314 250.294C88.6265 252.033 88.4381 253.231 88.0283 254.128C87.2896 255.746 85.1128 257.741 83.1328 258.614C81.2202 259.458 76.6453 259.754 74.2071 259.191C69.7604 258.164 65.5659 255.126 63.9143 251.735L62.9795 249.815L60.8441 250.769C59.6695 251.293 58.5943 251.834 58.4543 251.971C58.3146 252.108 58.6074 252.943 59.1049 253.827C59.8415 255.135 60.01 255.84 60.0129 257.627C60.0165 259.572 59.9174 259.92 59.1445 260.692C58.645 261.191 57.7366 261.649 57.0183 261.765C56.053 261.921 55.7406 262.133 55.6614 262.686C55.6048 263.081 55.0969 263.792 54.5326 264.266C53.6985 264.966 53.2745 265.095 52.2654 264.96C51.1807 264.815 50.8841 264.934 49.9106 265.905C48.2603 267.551 46.2244 267.413 43.3806 265.46C42.1385 264.608 42.1104 264.604 41.6286 265.234C39.5632 267.932 36.3599 276.867 35.4505 282.465C34.8814 285.969 34.4362 286.819 33.605 285.99C33.3394 285.725 33.3512 284.906 33.6488 282.929C34.5307 277.075 36.7033 270.62 39.3477 265.997L40.7703 263.51L40.1442 262.653C39.8001 262.181 39.4802 261.314 39.4334 260.726C39.3853 260.121 38.8292 258.935 38.1547 257.999C36.5558 255.778 35.9664 254.327 35.3249 251.029L34.7855 248.255L34.3724 250.702C33.7816 254.2 33.2655 254.911 31.6152 254.498C29.2149 253.897 26.5758 249.481 25.6223 244.47C24.8562 240.445 25.1601 233.906 26.2952 229.984C27.3612 226.301 30.8524 219.236 32.9871 216.444C33.8785 215.277 34.5726 214.287 34.5294 214.243C34.4859 214.199 33.064 213.871 31.3692 213.514C26.0999 212.405 16.7005 212.7 9.96962 214.186C9.07008 214.385 6.59617 215.051 4.47195 215.667C2.34772 216.282 0.471111 216.7 0.301342 216.596C-0.114409 216.339 -0.0947834 199.9 0.328165 194.094C1.335 180.275 3.37287 170.174 6.3371 164.311C10.2192 156.633 19.8489 148.382 33.0489 141.423C37.4014 139.129 37.4897 139.06 37.8548 137.699C38.4082 135.635 40.6705 132.485 43.0368 130.483C44.1882 129.508 45.372 128.576 45.6677 128.411C46.4851 127.955 46.0919 119.281 45.0439 114.653L44.2693 111.233L41.8392 111.33C39.6637 111.416 39.1959 111.319 37.371 110.404C34.0639 108.746 31.5707 105.294 30.4088 100.762C30.0516 99.3692 29.7608 97.5558 29.7628 96.732C29.7667 94.9277 30.9181 92.3407 32.2884 91.0578L33.2645 90.1442L32.5007 88.045C30.5518 82.6896 29.8613 75.1002 30.9165 70.6346C32.0267 65.9369 35.5925 61.3525 39.6921 59.3518C41.4323 58.5025 41.5125 58.4069 41.7035 56.9485C42.4863 50.967 47.4007 46.3431 55.4495 44.0148C64.9535 41.2653 77.3358 41.0085 85.3875 43.3936C92.3533 45.4569 97.4738 50.7164 97.4685 55.8023C97.4672 56.8532 97.2612 58.1058 97.0103 58.5857C96.5739 59.42 96.6164 59.5234 97.9765 60.9394C100.058 63.1062 100.796 65.6403 100.981 71.2535C101.126 75.6402 101.059 76.1897 99.5228 83.211C99.4073 83.7389 99.5996 84.0211 100.301 84.3533C101.923 85.1216 102.376 86.5742 102.374 90.9929C102.371 94.406 102.273 95.1173 101.608 96.5395C101.189 97.4367 100.602 98.3725 100.303 98.6185C99.8708 98.9751 99.7589 99.673 99.7544 102.044C99.74 109.178 97.8294 117.529 95.0797 122.478C92.9365 126.335 89.1807 130.401 85.7702 132.557L84.0471 133.647L85.4431 134.326C86.2112 134.699 87.8595 136.015 89.1058 137.249C91.3134 139.435 91.4511 139.513 94.432 140.286C96.115 140.722 98.3959 141.445 99.5002 141.893C100.605 142.34 101.536 142.707 101.569 142.707C101.603 142.707 101.647 141.348 101.668 139.689C101.747 133.34 104.287 128.215 108.437 126.031C109.88 125.272 109.944 125.17 110.888 122.152C111.989 118.63 113.142 116.479 115.134 114.231C116.678 112.487 119.697 110.248 122.167 109.015C124.412 107.894 128.839 106.538 131.093 106.28C132.795 106.086 133.143 105.898 134.996 104.178C138.624 100.811 143.129 98.5839 148.513 97.4958C151.803 96.8308 158.721 96.9989 161.694 97.8158C164.671 98.6338 168.249 100.418 169.83 101.87L171.27 103.195L172.56 102.736C174.475 102.056 179.111 102.124 181.507 102.867C186.827 104.519 191.386 109.462 192.962 115.287C193.714 118.068 194.018 123.59 193.541 125.832L193.279 127.066L198.775 124.326C201.797 122.819 205.227 121.24 206.397 120.818C207.566 120.396 209.553 119.475 210.813 118.772C214.571 116.674 215.475 116.279 216.521 116.279H217.518V113.506V110.732H216.502C215.129 110.732 211.893 109.872 209.522 108.876C203.607 106.393 198.566 101.526 195.732 95.5607C192.97 89.7498 192.138 84.9406 191.808 72.8849C191.59 64.9597 191.545 64.5186 190.847 63.5861C189.591 61.9098 188.063 58.5665 187.363 55.9658C186.441 52.5393 186.353 45.5868 187.193 42.5417C188.81 36.6793 192.593 31.4485 197.811 27.8595C198.448 27.4217 198.612 26.6644 199.375 20.6816C200.787 9.59913 201.276 8.26208 204.413 6.91393ZM178.146 10.2171C176.568 8.97922 177.198 6.32436 179.247 5.5772C181.035 4.92531 183.172 6.39385 183.172 8.27382C183.172 10.5287 180.071 11.7277 178.146 10.2171ZM259.878 16.473C255.043 11.3176 243.665 6.93905 231.842 5.68389C222.898 4.73444 211.002 5.9175 205.423 8.31102C203.458 9.15443 202.964 9.68755 202.484 11.4833C202.109 12.8892 200.222 26.2282 200.398 26.2282C200.45 26.2282 201.629 25.7776 203.019 25.2268C204.409 24.6761 207.246 23.7691 209.324 23.2111C212.993 22.2265 213.312 22.1961 220.299 22.1733C226.142 22.1544 228.01 22.2627 230.233 22.7501C239.853 24.8601 248.393 28.8892 255.715 34.7738C257.269 36.0225 258.148 36.5413 258.251 36.2695C258.491 35.6332 261 21.8134 261.23 19.8561C261.432 18.1464 261.42 18.1181 259.878 16.473ZM276.725 11.7313C276.725 10.1479 277.498 8.72669 278.785 7.94396C281.336 6.39255 284.606 7.96321 284.927 10.8934C285.1 12.4788 284.822 13.3225 283.79 14.3519C282.809 15.3301 282.476 15.4612 280.971 15.4612C279.425 15.4612 279.145 15.3421 277.994 14.1947C276.981 13.1835 276.725 12.6863 276.725 11.7313ZM280.814 13.9604C283.278 13.9604 284.431 11.0435 282.575 9.5068C280.242 7.57463 277.056 10.8461 278.972 13.2064C279.415 13.7522 279.924 13.9604 280.814 13.9604ZM12.0095 38.276C13.9459 36.3941 20.6679 29.8302 26.9474 23.6895C33.2269 17.549 38.5469 12.5248 38.77 12.5248C38.9931 12.5248 39.2531 12.7264 39.348 12.9728C39.5668 13.5411 10.0825 42.3786 9.2827 42.3786C8.07829 42.3786 8.60886 41.5805 12.0095 38.276ZM104.176 20.029C101.963 20.029 100.877 17.1513 102.585 15.8113C103.059 15.4394 103.775 15.135 104.176 15.135C105.42 15.135 106.629 16.3418 106.629 17.582C106.629 18.8222 105.42 20.029 104.176 20.029ZM6.67501 69.258C6.54155 69.0424 14.3672 60.9956 25.8722 49.5187C36.5548 38.8623 45.4708 30.1434 45.6857 30.1434C45.9006 30.1434 46.1777 30.3072 46.302 30.5075C46.5506 30.9092 7.94058 69.6221 7.29127 69.6221C7.07636 69.6221 6.79931 69.4584 6.67501 69.258ZM285.615 48.4488C285.673 48.1088 289.474 44.0089 294.061 39.3377C298.649 34.6668 302.591 30.8341 302.822 30.8204C304.351 30.7307 303.137 32.2498 295.157 40.4095C287.232 48.5141 285.334 50.1128 285.615 48.4488ZM236.454 44.4204C234.856 41.2591 233.22 37.1768 233.22 36.3533C233.22 36.0098 233.109 35.6717 232.974 35.6019C232.839 35.5324 231.11 37.1236 229.131 39.1377C224.246 44.1091 218.617 47.6615 209.23 51.6972C205.556 53.2766 206.647 53.2505 211.02 51.6544C220.301 48.2671 227.341 43.6438 231.382 38.2822C232.674 36.5677 232.843 36.4444 233.017 37.0904C233.466 38.7609 233.206 39.2995 230.684 41.9348C229.29 43.3916 227.311 45.2279 226.286 46.0152C218.945 51.6561 206.31 56.3172 196.108 57.1485L193.179 57.387L193.328 63.5861C193.409 66.9957 193.476 71.7419 193.476 74.1335V78.4817L195.766 78.2761C201.378 77.7724 206.31 76.9848 212.18 75.6555C212.738 75.5293 212.968 75.1237 213.242 73.7818C213.435 72.8398 213.63 71.7021 213.675 71.2535C213.738 70.6228 213.942 70.4378 214.574 70.4378C215.312 70.4378 215.391 70.5651 215.38 71.7429C215.373 72.4607 215.253 73.6568 215.112 74.4007L214.855 75.7537L216.432 75.9456C217.3 76.051 220.659 76.465 223.897 76.8654C230.901 77.731 238.293 77.82 240.089 77.0598C241.387 76.5104 247.332 71.5279 249.622 69.0708C250.457 68.1745 251.395 66.9405 251.706 66.3291C252.016 65.7177 252.507 64.9486 252.797 64.6198C253.282 64.069 253.278 63.9973 252.755 63.7049C251.7 63.116 247.458 59.574 246.102 58.1488C242.748 54.6254 238.703 48.8697 236.454 44.4204ZM223.733 60.3776C223.733 59.5733 225.115 58.1384 226.488 57.5162C227.222 57.1841 228.421 56.9087 229.153 56.9048C232.203 56.8885 237.592 59.3296 237.403 60.6416C237.266 61.5877 236.392 61.6168 234.961 60.7225C231.286 58.4265 227.825 58.3019 225.634 60.3867C224.735 61.2422 223.733 61.2373 223.733 60.3776ZM196.084 62.7561C195.491 61.7995 198.07 59.8399 200.749 59.2102C202.7 58.7518 205.479 58.8125 207.305 59.3531C209.23 59.9234 209.628 60.3404 208.919 61.0471C208.49 61.4748 208.18 61.4876 206.716 61.1372C204.124 60.5169 201.247 60.8683 199.007 62.0781C196.995 63.1649 196.42 63.2984 196.084 62.7561ZM96.7947 79.4103C95.8422 73.1309 94.3025 68.381 91.9257 64.3907C91.1812 63.1408 90.457 62.1179 90.3167 62.1179C90.176 62.1179 89.7168 62.4833 89.2958 62.9303C87.151 65.2077 81.9477 67.7177 76.6469 69.0326C74.1969 69.6401 72.8064 69.7523 67.5403 69.7673C60.8771 69.7866 58.331 69.4329 53.5781 67.8293C52.2801 67.3911 51.1713 67.0802 51.1134 67.1379C51.0551 67.1957 51.1781 68.0342 51.3858 69.0013C52.2527 73.0323 51.0947 82.0961 48.8848 88.5765C48.4409 89.8787 48.0775 91.0558 48.0775 91.1926C48.0775 91.3293 48.6293 91.3674 49.3041 91.2774C51.726 90.9541 52.0028 90.8376 52.0028 90.1387C52.0028 88.8839 53.0613 87.1752 54.1034 86.7474C55.474 86.1853 61.8127 85.6094 66.6329 85.6094C70.3982 85.6094 70.6472 85.6508 71.5824 86.4359C72.1237 86.8904 72.737 87.7768 72.9454 88.4059C73.2705 89.3889 73.4233 89.5136 74.0301 89.2927C74.4187 89.1511 76.0248 89.0424 77.5988 89.0512C80.161 89.0659 80.461 89.0049 80.461 88.4698C80.461 87.1556 81.421 85.585 82.4936 85.1445C83.8321 84.5947 90.0808 83.9781 94.3133 83.9781H97.5003L97.3331 82.9177C97.2412 82.3343 96.9988 80.7561 96.7947 79.4103ZM265.445 71.2943C265.094 69.2349 263.616 66.9546 262.005 65.9888C261.195 65.5033 259.944 65.0276 259.224 64.9317C257.086 64.6465 253.568 66.0635 252.913 67.4737C252.34 68.7083 248.57 72.5358 245.007 75.4999L241.501 78.4174L242.113 83.0407C242.694 87.4251 243.406 91.0399 244.371 94.4983C244.721 95.7515 244.724 96.1241 244.387 96.4559C244.052 96.7855 243.88 96.7437 243.51 96.2439C242.572 94.9773 240.988 87.8897 240.35 82.1092C240.006 78.9871 239.938 78.7809 239.299 78.9101C235.99 79.5789 230.662 79.3714 222.752 78.2654C214.73 77.144 212.873 77.1016 209.087 77.9548C204.596 78.9672 199.393 79.7117 196.08 79.8165L193.45 79.8997L193.868 83.1624C194.951 91.618 198.37 98.9046 203.156 102.955C210.4 109.088 219.169 110.805 228.435 107.907C234.12 106.129 240.363 102.039 243.796 97.8446C247.58 93.2213 250.429 88.2649 251.719 84.0596C251.894 83.49 252.682 83.551 253.2 84.1741C254.177 85.3481 259.088 83.8257 261.587 81.5744C264.075 79.332 265.959 74.312 265.445 71.2943ZM292.099 68.6978C292.099 67.2919 292.202 66.039 292.328 65.9131C292.454 65.7872 292.785 65.7278 293.064 65.7806C293.463 65.8567 293.591 66.4479 293.665 68.5654L293.761 71.2535H296.181C298.658 71.2535 299.328 71.5697 298.629 72.4098C298.353 72.7413 297.554 72.8849 295.984 72.8849H293.734V75.3048C293.734 76.9473 293.603 77.7701 293.325 77.8667C292.344 78.2083 292.099 77.6967 292.099 75.3107V72.9123L289.564 72.817C287.218 72.7289 287.021 72.6669 286.924 71.9876C286.823 71.2783 286.909 71.2535 289.459 71.2535H292.099V68.6978ZM223.468 71.3511C223.325 70.3569 224.272 69.0479 225.663 68.3141C227.396 67.4006 230.421 67.4508 232.269 68.4241C233.974 69.3223 234.869 70.6408 234.341 71.476C233.768 72.3814 233.288 72.3325 232.761 71.3148C231.456 68.7986 226.266 68.8668 225.102 71.4153C224.631 72.4457 223.619 72.4059 223.468 71.3511ZM197.959 72.3762C197.823 71.4271 199.079 69.9726 200.647 69.2619C202.246 68.5376 203.438 68.489 204.854 69.0907C206.426 69.7589 207.448 71.0114 207.321 72.1139C207.183 73.3146 206.185 73.556 205.778 72.4875C205.325 71.2998 204.529 70.8186 203.017 70.8186C201.483 70.8186 199.99 71.6176 199.676 72.6069C199.402 73.4682 198.091 73.292 197.959 72.3762ZM254.218 77.8938C254.062 76.803 255.889 73.1344 257.089 72.1266C257.799 71.5312 258.465 71.2529 259.025 71.3178C260.243 71.4587 260.109 72.3612 258.734 73.2731C257.97 73.7795 257.208 74.7929 256.444 76.3136C255.294 78.6047 254.409 79.2328 254.218 77.8938ZM83.7321 80.7656C83.7321 79.9891 84.3558 79.4605 85.9371 78.8977C87.4068 78.3747 89.9912 78.3114 91.6068 78.759C93.0062 79.1466 94.362 80.4746 94.0876 81.1881C93.8292 81.8599 93.2891 81.8263 91.7461 81.0416C90.0566 80.1825 87.5438 80.1845 85.8488 81.0465C84.4029 81.7816 83.7321 81.6925 83.7321 80.7656ZM56.0896 83.9751C55.3791 82.8286 57.6908 81.0759 61.0145 80.2409C63.4348 79.6331 67.0454 79.7714 68.184 80.5153C69.0842 81.1036 69.1523 81.2945 68.711 81.9898C68.4653 82.377 68.1831 82.3826 66.9064 82.026C64.2872 81.2945 59.1206 82.3369 57.8609 83.8508C57.4213 84.379 56.385 84.4518 56.0896 83.9751ZM97.829 97.5845C97.9206 95.4935 97.7417 87.584 97.5824 86.6698L97.3976 85.6094L94.0814 85.6352C92.2571 85.6492 90.6176 85.7122 90.4377 85.7748C90.2578 85.8375 88.6534 85.9879 86.8723 86.1093C84.0255 86.3034 83.5361 86.4277 82.8263 87.1357C82.0602 87.8998 82.0275 88.0861 82.1884 90.772C82.4102 94.4726 82.8891 95.9385 84.3522 97.3979C86.0071 99.0485 87.6554 99.4403 91.9097 99.1943C96.3292 98.9385 97.7872 98.5421 97.829 97.5845ZM100.242 95.7401C100.822 94.623 100.951 88.1599 100.423 86.7726C100.247 86.3122 99.8741 85.9357 99.5934 85.9357C99.176 85.9357 99.1185 86.2169 99.2765 87.4855C99.3828 88.338 99.4982 90.7589 99.5332 92.8657C99.5682 94.9724 99.6297 96.6974 99.67 96.6993C99.7105 96.701 99.968 96.2693 100.242 95.7401ZM71.5604 92.6265C71.652 89.7909 71.5781 89.2222 70.9981 88.3011L70.3302 87.2408L66.3186 87.2851C64.1119 87.3096 62.0122 87.3755 61.6524 87.4316C61.2926 87.4874 59.6884 87.6293 58.0876 87.7465C54.373 88.0189 53.6383 88.5948 53.6383 91.2356C53.6383 93.6699 54.4825 96.6576 55.5522 98.0077C56.0497 98.6358 57.1105 99.4919 57.9096 99.9102C59.2259 100.599 59.6662 100.656 62.586 100.51C65.4095 100.369 66.0785 100.214 67.9812 99.2602C70.9465 97.7728 71.4227 96.8905 71.5604 92.6265ZM86.1768 93.0869C85.8569 92.082 86.2933 90.2327 87.0214 89.5064C88.4708 88.0607 91.1067 89.2692 91.4701 91.5462C91.8459 93.9013 90.7658 95.7238 88.9949 95.7238C87.9936 95.7238 86.6014 94.421 86.1768 93.0869ZM44.5457 95.6497C43.778 94.1995 41.6341 92.1942 40.0634 91.4578C36.9248 89.9857 33.4146 91.2053 32.0104 94.2556C30.0147 98.5901 33.273 106.558 38.0023 108.909C39.8419 109.824 42.6488 110.055 43.8866 109.395C44.9085 108.849 45.5692 109.799 46.404 113.016C47.3847 116.794 49.0591 120.039 51.5023 122.895C55.9323 128.074 60.5451 131.082 66.9734 132.984C69.1163 133.618 70.2281 133.73 74.246 133.719C79.7669 133.703 81.6752 133.203 85.4166 130.788C93.0971 125.833 97.2965 116.825 98.0161 103.76C98.2206 100.052 98.2029 99.8958 97.6046 100.072C94.326 101.035 88.0253 101.243 86.1245 100.45C85.4732 100.179 84.9064 99.9953 84.8651 100.043C84.8239 100.09 85.0048 100.936 85.2668 101.923C85.5288 102.91 85.6777 104.442 85.5975 105.329C85.4768 106.663 85.2521 107.122 84.2911 108.001C82.3785 109.749 78.6923 110.227 77.361 108.899C76.4019 107.942 77.1052 107.487 79.2635 107.669C80.8188 107.8 81.5391 107.703 82.42 107.246C84.1969 106.324 84.3284 105.436 83.2659 101.526C82.7648 99.6808 82.0851 97.5835 81.756 96.8657C81.4269 96.1479 80.9091 94.5678 80.6049 93.3544C79.9638 90.7948 79.7535 90.6741 76.3241 90.8917C73.7681 91.0542 73.2656 91.5227 73.2627 93.7469C73.2584 97.3721 71.4512 99.8948 67.8674 101.279C65.2967 102.272 58.6842 102.431 57.0529 101.539C54.7184 100.262 52.9396 97.7225 52.3017 94.7558L51.9485 93.1136L50.0947 93.1185C49.0752 93.1215 48.0938 93.2314 47.9139 93.3632C47.734 93.495 47.2574 94.3003 46.8551 95.1528C45.9961 96.9721 45.3226 97.117 44.5457 95.6497ZM61.4888 94.4275C61.4888 93.005 62.1754 91.3276 62.8722 91.048C63.7704 90.6878 65.05 90.8585 65.7625 91.4337C66.3536 91.911 66.5403 92.4536 66.6542 94.0213C66.784 95.8148 66.7176 96.0846 65.9574 96.8429C64.8384 97.9591 63.6399 97.9196 62.445 96.7277C61.6972 95.9819 61.4888 95.4807 61.4888 94.4275ZM8.82311 99.8867C7.50193 97.7255 8.39624 94.9039 10.7939 93.6693C11.58 93.2647 12.3189 93.1407 13.1818 93.2693C15.659 93.6376 17.0034 95.2135 17.0011 97.7467C16.9972 102.375 11.2617 103.876 8.82311 99.8867ZM248.339 107.675C248.256 104.601 248.35 100.333 248.547 98.1914C248.745 96.0494 248.858 94.2477 248.798 94.188C248.738 94.128 248.298 94.6328 247.819 95.3094C243.087 102 236.422 107.06 229.294 109.373C226.956 110.132 221.986 111.059 220.256 111.059H219.154V117.87C219.154 123.575 219.073 124.749 218.655 125.095C217.93 125.695 217.702 125.279 217.518 123.022L217.355 121.01L216.648 122.839C215.97 124.595 215.96 124.777 216.416 127.406C217.095 131.318 218.014 134.852 219.016 137.4C219.913 139.682 224.73 148.576 225.071 148.578C225.259 148.58 230.876 142.318 237.36 134.876C241.205 130.465 248.329 121.671 249.845 119.466L250.907 117.922L249.698 115.593L248.49 113.263L248.339 107.675ZM15.3669 97.7323C15.3669 96.9933 15.1238 96.1522 14.7944 95.7499C14.4794 95.3659 13.6767 94.9642 13.0104 94.8579C11.963 94.6908 11.664 94.7991 10.8024 95.6585C9.25489 97.2021 9.49564 99.2593 11.3382 100.238C13.2937 101.277 15.3669 99.9872 15.3669 97.7323ZM115.834 99.7705C115.313 98.6319 115.363 98.2204 116.139 97.2361C117.925 94.9711 121.394 97.4429 120.021 100.003C119.21 101.514 116.563 101.368 115.834 99.7705ZM38.0899 98.6602C37.5273 98.6602 36.8574 97.7777 37.1106 97.3695C37.458 96.809 38.7716 96.9829 39.7013 97.7124C40.8815 98.6384 41.8579 100.646 42.0937 102.631C42.2691 104.11 42.2282 104.262 41.6806 104.157C41.2665 104.077 40.8475 103.388 40.3666 101.995C39.6427 99.8984 38.7975 98.6602 38.0899 98.6602ZM296.482 116.17C295.366 115.213 295.326 113.616 296.387 112.488C297.293 111.526 298.594 111.487 299.741 112.387C300.899 113.295 300.926 115.008 299.8 116.13C298.792 117.137 297.624 117.151 296.482 116.17ZM67.8543 119.495C65.5185 117.347 63.8319 114.05 64.651 113.234C64.9712 112.914 65.1498 112.943 68.1078 113.792C71.7305 114.832 76.2106 115.427 78.5631 115.182C79.6213 115.071 81.6785 114.678 83.1348 114.307C86.9419 113.337 87.3485 113.672 85.8785 116.565C83.9385 120.384 80.0498 122.907 76.0451 122.946C74.1253 122.964 73.4024 122.801 71.5702 121.935C70.3688 121.367 68.6963 120.269 67.8543 119.495ZM182.85 122.161C181.327 119.559 178.185 116.501 176.134 115.624C175.298 115.266 174.552 114.974 174.477 114.974C174.402 114.974 174.34 115.534 174.34 116.219C174.34 116.905 174.103 118.263 173.814 119.237C172.259 124.467 168.971 127.601 164.678 127.945C162.405 128.127 162.105 127.859 162.905 126.369C163.092 126.02 163.202 124.525 163.15 123.046C163.082 121.148 162.969 120.549 162.764 121.01C160.295 126.573 158.258 129.002 154.516 130.847C152.356 131.911 151.755 132.055 148.908 132.191C147.082 132.279 145.163 132.19 144.419 131.985C143.242 131.66 143.005 131.705 141.916 132.458C139.467 134.15 135.374 134.709 132.634 133.725C131.915 133.466 131.298 133.252 131.263 133.25C131.228 133.247 131.474 133.869 131.809 134.632C133.578 138.654 133.942 145.265 132.669 150.271C131.98 152.981 130.063 157.403 128.636 159.575L128.154 160.31L126.632 159.049C124.439 157.232 123.107 156.658 120.68 156.485C118.322 156.316 116.802 156.866 115.052 158.522C113.334 160.147 112.687 161.853 112.696 164.73C112.706 167.928 113.654 170.24 115.97 172.709C119.228 176.183 123.521 177.108 127.397 175.171C128.474 174.632 129.446 174.15 129.557 174.099C129.668 174.048 130.397 174.85 131.178 175.882C137.449 184.166 144.725 188.588 154.992 190.356C161.413 191.461 167.481 191.054 172.758 189.162C186.156 184.361 193.967 174.025 193.967 161.099C193.967 155.663 192.67 151.141 189.914 146.969C187.798 143.764 187.427 142.677 186.901 138.139C185.865 129.194 185.022 125.87 182.85 122.161ZM257.094 117.593C256.881 117.41 256.686 117.278 256.524 117.215C253.085 115.868 251.537 115.329 251.537 115.479C251.537 115.574 251.832 116.228 252.192 116.931C253.041 118.592 253.014 119.853 252.025 124.599C251.119 128.945 250.033 132.406 247.367 139.444C246.381 142.046 244.498 147.111 243.182 150.7C241.866 154.289 239.736 160.007 238.449 163.407C233.526 176.408 232.323 180.958 229.482 197.328C228.999 200.109 229.119 200.818 230.541 203.598C231.283 205.049 236.156 211.159 237.862 212.778C238.859 213.724 239.091 213.807 239.946 213.522C240.474 213.346 243.998 212.893 247.776 212.516C255.524 211.742 272.497 209.676 272.69 209.484C272.76 209.414 272.047 202.951 271.106 195.12C269.772 184.023 269.482 180.796 269.789 180.49C270.07 180.209 270.283 180.198 270.535 180.449C270.851 180.764 272.271 191.302 273.629 203.393C274.031 206.976 274.022 208.431 274.728 208.989C275.343 209.475 276.501 209.279 278.947 209.217C283.25 209.107 283.43 209.129 283.43 209.755C283.43 210.368 283.085 210.431 277.706 210.787C274.558 210.996 270.215 211.404 268.056 211.693C261.53 212.567 244.29 214.486 242.965 214.486C242.283 214.486 241.724 214.548 241.724 214.623C241.724 214.698 242.105 215.515 242.57 216.438C244.863 220.991 246.378 231.697 245.657 238.24C245.243 241.991 244.543 244.961 243.808 246.081C243.533 246.501 243.385 246.921 243.479 247.015C243.889 247.423 259.189 247.511 263.818 247.132C272.531 246.418 281.723 244.359 287.777 241.764C297.357 237.658 302.518 230.299 304.734 217.586C305.87 211.069 305.599 194.477 304.171 183.164C301.447 161.572 296.558 147.38 288.759 138.42C284.682 133.737 273.798 126.306 265.223 122.352L262.063 120.895L257.094 117.593ZM263.08 140.042L261.48 140.25C257.854 140.719 253.057 141.467 252.639 141.627C251.75 141.967 252.196 143.475 253.854 145.742L255.517 148.015L257.433 147.474L255.661 145.151L254.192 143.056L255.236 142.863C258.018 142.35 259.674 142.128 260.974 142.093L262.396 142.054L263.08 140.042ZM81.6059 116.436C78.7237 117.045 75.4801 117.044 72.1198 116.433C70.6805 116.171 68.924 115.859 68.2161 115.74L66.9293 115.524L67.5802 116.635C68.9756 119.019 72.984 121.173 76.0245 121.173C78.8925 121.173 82.3965 119.192 83.5855 116.899C83.8554 116.378 84.0353 115.953 83.9856 115.953C83.9358 115.953 82.8649 116.17 81.6059 116.436ZM214.692 121.989C215.949 119.893 216.864 118.099 216.864 117.732C216.864 117.44 216.342 117.616 214.344 118.582C210.355 120.513 205.414 126.05 202.51 131.844C201.438 133.984 199.855 138.398 199.855 139.248C199.855 139.589 200.603 139.978 202.17 140.453C203.443 140.839 204.567 141.366 204.666 141.625C204.946 142.351 204.38 143.309 201.846 146.401L199.508 149.254L199.712 150.956C200.749 159.624 202.904 169.425 205.486 177.228C206.219 179.44 206.394 180.362 206.131 180.624C205.432 181.321 204.763 180.169 203.459 176.025C201.126 168.612 199.45 160.908 198.393 152.742L197.897 148.91L200.038 146.143C201.216 144.621 202.319 143.29 202.489 143.185C203.162 142.771 202.711 142.405 200.71 141.741C199.562 141.359 198.357 140.755 198.032 140.396C197.462 139.768 197.466 139.659 198.17 137.229C199.447 132.825 202.106 127.856 205.32 123.868L206.435 122.485L202.61 124.277C200.507 125.263 197.433 126.799 195.78 127.691L192.774 129.312L191.415 132.012C190.045 134.736 189.682 135.473 189.337 135.465C189.201 135.462 189.069 135.345 188.879 135.188C188.369 134.766 188.338 134.81 188.518 135.698C188.625 136.233 188.877 137.914 189.076 139.433C189.503 142.696 189.835 143.565 191.675 146.254C194.857 150.904 196.119 155.816 195.833 162.434C195.623 167.295 195.013 169.763 192.972 174.008C191.318 177.448 189.05 180.522 186.153 183.248L183.91 185.358L183.541 189.488C183.338 191.759 183.172 194.343 183.172 195.229V196.841L186.69 198.635C191.845 201.266 197.179 204.986 199.949 207.884L200.861 208.838L202.075 207.637C202.743 206.976 204.025 206.162 204.925 205.828C205.824 205.494 206.669 205.067 206.801 204.878C206.933 204.689 207.043 202.386 207.046 199.759C207.057 189.683 208.505 161.521 209.687 148.416C211.147 132.217 212.342 125.906 214.692 121.989ZM145.691 124.756C146.615 123.061 147.09 120.484 146.736 119.08C146.517 118.21 145.634 117.922 145.406 118.644C145.335 118.869 145.216 119.807 145.14 120.73C144.972 122.794 143.967 124.806 142.175 126.665C140.357 128.551 138.828 129.286 135.977 129.647C133.311 129.984 131.742 129.736 129.975 128.695C129.091 128.175 128.682 128.086 128.416 128.356C127.895 128.885 129.391 130.08 131.719 130.996C134.554 132.111 138.026 132.061 140.056 130.875C141.862 129.819 144.477 126.979 145.691 124.756ZM67.2861 134.753C61.1617 133.178 54.6402 129.331 51.1588 125.239C50.2737 124.198 49.1491 122.895 48.6594 122.342L47.7697 121.336L47.77 123.457C47.7707 127.577 48.346 133.452 48.871 134.706C50.7028 139.079 57.7889 147.002 64.1057 151.74C66.7445 153.719 72.9474 157.715 73.3811 157.715C73.6928 157.715 78.9036 149.467 79.7011 147.712C80.6854 145.545 81.0377 141.61 80.6334 137.304C80.4325 135.167 80.3269 134.862 79.8585 135.067C79.5601 135.198 77.3289 135.365 74.9002 135.439C70.9759 135.559 70.1284 135.483 67.2861 134.753ZM171.778 130.829C171.627 130.06 172.316 129.328 173.85 128.632C176.26 127.539 179.633 128.026 181.45 129.728C182.305 130.529 182.413 131.676 181.691 132.274C181.277 132.617 181.064 132.57 180.46 132.003C178.551 130.215 175.887 129.956 173.899 131.368C172.865 132.103 171.986 131.879 171.778 130.829ZM17.3534 134.017C16.4538 132.876 16.497 131.762 17.4783 130.783C18.4593 129.804 19.5767 129.761 20.72 130.659C21.3451 131.149 21.5819 131.635 21.5819 132.429C21.5819 134.625 18.6893 135.711 17.3534 134.017ZM63.6284 153.423C56.9051 148.477 49.7617 140.66 47.6437 135.932C47.1403 134.808 46.6271 132.996 46.5034 131.905L46.2784 129.921L45.2971 130.658C42.1075 133.053 39.8818 135.941 39.2348 138.524C38.9257 139.759 38.9529 140.685 39.3778 143.36C39.9983 147.267 41.3973 153.08 42.8647 157.848L43.9183 161.27L46.2434 159.388C51.2573 155.329 54.4276 153.335 56.4766 152.952C57.7212 152.719 59.5638 153.267 60.3126 154.092C60.7882 154.616 60.7941 154.732 60.3629 155.089C59.9707 155.414 59.5831 155.382 58.3915 154.929L56.9084 154.363L54.8447 155.377C52.6295 156.464 49.4654 158.72 46.228 161.521C45.1211 162.478 43.9723 163.262 43.675 163.262C43.3371 163.262 42.8529 162.62 42.3819 161.549C40.9871 158.377 38.2721 147.458 37.7265 142.828C37.6117 141.854 37.3543 141.075 37.1469 141.075C36.702 141.075 28.4541 145.632 25.6854 147.408C22.3771 149.529 17.2978 153.497 14.5929 156.073C7.76034 162.579 5.26452 168.107 3.25446 181.19C2.193 188.098 1.61631 195.738 1.40205 205.736L1.20121 215.095L4.27699 214.129C9.37461 212.528 15.5389 211.523 21.4183 211.335C26.0416 211.186 27.2039 211.264 31.382 211.997C33.9835 212.453 36.1571 212.782 36.2124 212.726C36.268 212.671 36.074 211.54 35.7816 210.212C34.9978 206.652 35.0734 199.885 35.9441 195.672C37.8521 186.441 41.5658 179.236 47.4311 173.386C54.6304 166.205 63.2546 162.541 74.0824 162.062C80.6582 161.772 86.3162 163.331 90.1047 166.477C91.3533 167.513 92.0101 167.83 92.9156 167.83C94.344 167.83 97.2324 168.787 99.4731 170.004C105.464 173.256 109.596 183.205 107.78 190.01C107.327 191.71 107.343 191.924 108.111 194.35C108.555 195.753 108.919 197.114 108.919 197.374C108.919 197.634 109.018 197.846 109.138 197.846C109.258 197.846 111.311 197.227 113.699 196.47L118.041 195.093L116.319 193.289C113.61 190.449 112.873 188.937 112.476 185.397C112.288 183.721 112.211 181.871 112.305 181.286C112.452 180.378 112.349 180.158 111.598 179.77C110.261 179.08 107.171 175.681 106.38 174.029C104.063 169.194 104.146 163.258 106.593 158.72L107.194 157.604L106.043 156.11C104.097 153.585 102.05 148.329 102.05 145.856C102.05 145.139 101.712 144.861 99.6785 143.9C97.587 142.912 93.2839 141.402 92.56 141.402C92.4161 141.402 92.8092 142.436 93.4337 143.701C94.5498 145.96 96.6452 151.977 97.4924 155.353C98.1715 158.06 97.7852 158.113 93.6532 155.878C87.8346 152.732 85.9783 152.208 84.5305 153.3C83.4004 154.153 82.1894 153.809 82.5963 152.752C82.9202 151.91 84.6162 151.19 86.273 151.19C87.5935 151.19 88.6331 151.552 91.8649 153.139C94.0487 154.21 95.834 155.055 95.8327 155.015C95.8121 154.354 92.5263 145.445 91.5944 143.522C89.9965 140.226 87.3675 137.292 84.7762 135.915C83.7016 135.343 82.6945 134.876 82.5378 134.876C82.3811 134.876 82.2545 137.409 82.2565 140.504L82.2601 146.133L80.9166 148.933C78.5834 153.797 74.5924 159.347 73.4276 159.347C72.5198 159.347 67.8089 156.499 63.6284 153.423ZM141.366 141.024C141.182 139.448 143.993 136.927 146.97 135.998C150.054 135.036 153.77 135.78 154.001 137.406C154.146 138.421 153.269 138.677 151.893 138.022C149.441 136.856 147.053 137.543 144.494 140.152C142.448 142.238 141.537 142.491 141.366 141.024ZM172.105 146.785C171.963 145.075 172.723 143.705 174.425 142.604C176.768 141.089 179.508 141.594 181.553 143.917C182.303 144.769 182.53 145.313 182.455 146.083C182.319 147.482 181.776 147.375 180.568 145.713C178.336 142.639 174.921 143.074 173.901 146.561C173.572 147.688 173.291 148.09 172.834 148.09C172.347 148.09 172.191 147.811 172.105 146.785ZM145.555 152.773C145.555 150.477 147.163 148.164 149.483 147.124C151.051 146.421 154.105 146.613 155.291 147.489C157.266 148.948 158.399 151.906 157.163 152.378C156.473 152.643 155.81 152.005 155.58 150.856C155.342 149.674 153.705 148.583 152.166 148.581C149.861 148.578 147.726 150.331 147.3 152.578C146.874 154.817 145.555 154.965 145.555 152.773ZM165.896 153.566C165.963 152.989 166.387 152.419 167.111 151.934C169.395 150.404 172.897 151.187 174.342 153.552C176.466 157.027 173.444 161.803 169.273 161.562C168.059 161.491 167.615 161.328 167.537 160.924C167.43 160.359 167.774 160.197 169.819 159.854C170.481 159.743 171.475 159.231 172.027 158.716C172.856 157.944 173.03 157.531 173.022 156.361C173.01 154.847 172.694 154.263 171.405 153.377C170.265 152.593 168.99 152.686 167.858 153.637C166.537 154.746 165.761 154.718 165.896 153.566ZM119.028 163.714C118.654 163.263 118.693 163.104 119.303 162.612C119.892 162.135 120.282 162.086 121.563 162.324C124.077 162.793 125.774 164.966 126.159 168.207C126.347 169.784 126.325 169.841 125.587 169.735C124.99 169.649 124.655 169.198 124.072 167.694C123.072 165.113 122.215 164.241 120.678 164.241C119.962 164.241 119.288 164.025 119.028 163.714ZM149.207 167.204C149.299 165.581 149.509 164.75 149.949 164.264C150.773 163.356 152.289 163.397 155.478 164.413C161.931 166.468 168.667 166.712 173.989 165.084C177.113 164.128 179.292 163.998 179.901 164.729C180.585 165.551 180.156 168.787 179.083 170.902C177.278 174.46 172.984 177.669 168.845 178.553C166.414 179.072 161.742 179.013 159.52 178.436C155.404 177.367 151.523 174.448 149.948 171.238C149.202 169.716 149.097 169.147 149.207 167.204ZM29.6908 172.776C28.8384 170.506 28.7462 170.007 29.1328 169.76C29.8698 169.29 30.5403 170.392 31.9708 174.426C33.5324 178.83 34.0898 181.206 34.9661 187.201C35.6301 191.741 35.5274 193.18 34.5621 192.866C34.1588 192.735 34.1267 192.582 33.0159 185.491C32.2812 180.8 31.313 177.098 29.6908 172.776ZM170.682 174.6C169.977 173.49 166.317 171.8 163.435 171.253C159.274 170.463 155.813 170.711 154.243 171.911C153.624 172.385 153.631 172.419 154.525 173.349C155.932 174.814 158.939 176.254 161.509 176.694C164.065 177.131 167.74 176.754 169.965 175.827C171.088 175.36 171.125 175.296 170.682 174.6ZM100.188 187.21C97.2585 185.934 94.2348 183.799 91.9728 181.409C91.0183 180.4 90.2088 179.577 90.1738 179.579C90.1391 179.582 89.7812 180.091 89.3782 180.711C87.6501 183.372 81.1865 187.579 76.8851 188.842C75.908 189.129 74.331 189.363 73.3804 189.363C71.4276 189.363 71.147 189.083 70.7751 186.763L70.5539 185.385L69.5379 187.274C67.5243 191.017 64.1688 193.924 60.3482 195.235C58.2544 195.953 55.2876 196.094 54.2215 195.525C53.6223 195.205 53.5689 195.235 53.7825 195.769C54.2395 196.914 54.3923 204.185 54.0053 206.401C53.4355 209.665 51.8951 214.16 51.3466 214.16C51.2236 214.16 50.8425 213.845 50.4997 213.461C49.6146 212.469 46.8106 211.229 45.4606 211.234C44.1251 211.239 41.9416 212.164 41.1389 213.065C40.8311 213.412 40.2609 214.412 39.872 215.289C38.0307 219.441 40.6482 225.087 45.5463 227.528C47.7612 228.632 49.431 228.779 51.2354 228.027C51.8814 227.757 52.5817 227.537 52.7917 227.537C53.0021 227.537 53.7135 228.675 54.3733 230.066C55.0327 231.457 56.2515 233.436 57.0814 234.465C58.8017 236.599 63.2582 240.062 66.3954 241.703C72.9941 245.155 81.5123 246.202 88.3671 244.405C94.9453 242.68 100.605 239.479 104.551 235.254C108.967 230.525 110.865 226.023 111.129 219.65C111.326 214.921 110.789 212.912 107.741 206.982C105.803 203.211 105.595 202.597 104.977 198.825C103.491 189.749 103.283 188.703 102.919 188.473C102.711 188.342 101.482 187.774 100.188 187.21ZM181.878 192.525C181.886 190.697 182.013 188.576 182.161 187.814C182.309 187.051 182.413 186.427 182.392 186.428C182.372 186.428 181.471 186.963 180.392 187.617C178.027 189.049 175.439 190.244 173.096 190.985C172.142 191.287 171.369 191.633 171.379 191.754C171.389 191.875 171.396 192.331 171.396 192.767C171.396 193.853 173.092 195.075 173.957 194.614C174.413 194.37 175.454 194.53 177.96 195.227C179.823 195.745 181.464 196.097 181.606 196.01C181.748 195.922 181.87 194.354 181.878 192.525ZM225.696 189.349C225.696 188.086 225.55 187.667 224.969 187.261C224.057 186.624 223.521 186.631 222.163 187.299C220.633 188.051 218.957 190.135 218.534 191.811C217.862 194.472 218.155 198.036 219.357 201.813L219.841 203.333L221.869 203.563C224.149 203.823 225.042 204.184 225.042 204.846C225.042 205.54 224.572 205.567 221.363 205.054C218.916 204.664 217.776 204.647 214.967 204.96C206.244 205.932 201.593 208.471 202.269 211.891C202.392 212.511 202.704 213.297 202.962 213.637C203.422 214.243 203.528 214.238 207.777 213.393C213.025 212.348 215.987 212.24 215.821 213.098C215.734 213.546 215.018 213.786 212.444 214.227C205.96 215.337 203.999 215.901 203.492 216.801C202.89 217.872 203.231 219.74 204.246 220.916L205.009 221.801L209.219 221.236C215.634 220.375 217.609 220.539 216.525 221.842C216.296 222.117 215.563 222.316 214.78 222.316C212.164 222.315 205.686 223.39 205.507 223.854C205.215 224.614 206.394 227.15 207.454 228.04C208.456 228.881 208.503 228.887 213.478 228.807C216.237 228.763 218.586 228.82 218.7 228.934C219.229 229.46 218.449 230.15 217.283 230.187C216.603 230.209 214.501 230.319 212.612 230.432C209.484 230.618 209.169 230.696 209.082 231.302C208.956 232.177 210.227 234.026 211.578 234.934C213.687 236.352 215.689 236.725 222.145 236.906C226.348 237.023 229.296 236.937 231.631 236.63C235.413 236.132 240.027 236.052 242.624 236.439L244.341 236.695V234.946C244.341 231.406 243.634 225.961 242.659 221.991C242.107 219.747 241.523 217.661 241.359 217.355C241.195 217.048 240.542 216.551 239.908 216.251C238.161 215.424 235.724 213.089 232.505 209.157C229.24 205.168 228.677 204.205 227.701 200.93C226.839 198.037 225.696 191.435 225.696 189.349ZM167.308 192.457C162.716 193.427 155.694 192.889 149.807 191.116C148.278 190.655 145.976 189.796 144.692 189.207L142.357 188.134L142.143 191.441C142.018 193.369 142.065 195.2 142.255 195.835C144.019 201.721 151.601 206.099 159.084 205.553C164.631 205.148 168.353 202.154 169.394 197.26C169.711 195.766 169.916 191.974 169.679 191.974C169.634 191.974 168.567 192.191 167.308 192.457ZM90.8492 193.181C91.1626 192.834 91.7134 192.429 92.0733 192.282C94.7323 191.196 100.342 193.255 99.6468 195.061C99.369 195.782 98.6566 195.682 97.2396 194.721C95.8733 193.795 94.3424 193.764 92.2921 194.619C91.2964 195.034 91.1629 195.019 90.741 194.443C90.3376 193.893 90.351 193.734 90.8492 193.181ZM153.326 206.857C148.936 205.828 144.592 202.986 142.273 199.624C141.771 198.897 141.16 197.616 140.915 196.778L140.469 195.254L139.005 196.222C138.2 196.755 137.438 197.228 137.313 197.274C137.187 197.32 137.742 198.726 138.545 200.4C139.348 202.073 140.832 205.536 141.843 208.095L143.681 212.748L146.663 213.46C151.222 214.55 155.073 214.914 159.784 214.701C166.272 214.407 173.421 212.684 178.261 210.247C179.101 209.824 179.657 209.573 179.887 209.146C180.331 208.324 179.563 206.852 177.281 202.251C174.738 197.122 174.667 197.02 173.221 196.433C171.564 195.759 171.069 195.899 171.069 197.038C171.069 200.238 167.343 204.936 163.71 206.317C161.059 207.325 156.362 207.569 153.326 206.857ZM128.307 197.369C126.5 197.986 124.501 197.828 121.705 196.848C120.712 196.5 119.821 196.228 119.725 196.243C119.629 196.258 117.121 197.086 114.153 198.084L108.756 199.898L108.873 202.868C108.966 205.232 109.158 206.172 109.811 207.471C110.479 208.798 110.791 209.457 111.212 209.536C111.633 209.614 112.163 209.112 113.266 208.116C116.839 204.891 125.059 199.764 128.954 198.33C129.809 198.015 130.508 197.64 130.508 197.495C130.508 196.907 129.785 196.865 128.307 197.369ZM63.5293 201.672C64.4155 200.091 66.1743 198.616 67.909 197.999C69.6721 197.372 71.0989 197.415 71.9719 198.12C72.9627 198.92 72.5385 199.61 71.2179 199.347C69.026 198.909 66.4648 200.305 64.8891 202.795C63.4803 205.021 62.2307 203.989 63.5293 201.672ZM145.707 229.267C144.63 221.023 142.217 212.693 138.198 203.348C136.257 198.834 135.088 196.728 135.088 197.744C135.088 197.944 134.315 198.292 133.37 198.517C127.939 199.81 119.631 204.648 113.078 210.332L111.84 211.406L112.422 213.517C113.194 216.313 113.194 222 112.423 224.927C112.116 226.093 111.106 228.589 110.179 230.474C108.68 233.519 108.136 234.252 105.282 237.079L102.071 240.259L101.681 245.32C101.467 248.103 101.358 250.447 101.44 250.529C101.521 250.61 102.906 250.254 104.518 249.738C106.129 249.222 108.599 248.641 110.006 248.446C113.543 247.957 119.364 248.022 122.494 248.586C123.933 248.846 125.218 249.061 125.348 249.064C125.811 249.077 126.603 247.085 127.114 244.624C127.398 243.251 128.124 240.7 128.725 238.956C130.311 234.359 130.637 232.03 130.378 227.15C130.133 222.518 130.395 221.465 131.971 220.749C133.198 220.191 134.276 220.266 135.736 221.009C138.642 222.487 139.684 225.038 139.913 231.234C140.076 235.635 140.097 235.743 140.773 235.566C141.154 235.466 142.533 235.205 143.838 234.986C144.94 234.801 145.58 234.764 145.903 234.427C146.392 233.916 146.157 232.715 145.707 229.267ZM92.3114 206.819C92.1913 205.06 93.1766 203.528 94.9423 202.729C96.5615 201.996 96.6148 201.99 98.1744 202.422C99.7877 202.869 101.798 205.086 101.661 206.268C101.514 207.534 100.597 207.556 100.078 206.306C99.5803 205.108 98.0207 204.049 96.7528 204.047C95.4526 204.045 94.155 205.317 93.9073 206.838C93.7451 207.833 93.5508 208.124 93.049 208.124C92.5253 208.124 92.3833 207.873 92.3114 206.819ZM66.4743 212.366C66.3611 210.626 67.4971 208.68 69.1824 207.728C72.5375 205.833 77.1108 207.768 76.8036 210.953C76.6561 212.483 75.7304 212.581 75.2463 211.118C74.769 209.676 73.9552 208.958 72.5382 208.728C70.3986 208.382 68.4536 210.006 68.0512 212.475C67.9031 213.384 67.7009 213.671 67.2076 213.671C66.683 213.671 66.5426 213.421 66.4743 212.366ZM86.0218 212.916C86.0218 212.208 86.8268 211.398 87.9913 210.935C89.8519 210.195 92.0755 210.761 93.5452 212.35C94.6495 213.543 94.7192 216.572 93.6744 217.97C92.6712 219.312 91.1482 220.082 89.3772 220.143C88.0256 220.189 87.8209 220.111 87.8209 219.549C87.8209 219.063 88.1061 218.855 88.9658 218.712C91.2578 218.332 92.6948 217.015 92.6948 215.295C92.6948 212.552 89.0681 211.274 87.4594 213.451C86.9933 214.081 86.0218 213.72 86.0218 212.916ZM45.6242 218.132C44.4286 218.002 44.0014 217.633 44.2621 216.955C44.5428 216.225 46.5021 216.304 47.4972 217.084C48.4468 217.829 49.662 220.456 49.7889 222.037C49.8612 222.94 49.7631 223.132 49.2302 223.132C48.7929 223.132 48.4926 222.816 48.3016 222.154C48.1462 221.615 47.701 220.514 47.3121 219.707C46.7377 218.513 46.422 218.218 45.6242 218.132ZM76.746 223.969C83.1547 225.012 88.7325 224.623 93.0546 222.832C95.3044 221.899 97.1997 221.761 97.8028 222.486C98.3648 223.161 98.0357 226.09 97.1817 228.016C96.2076 230.213 93.1704 233.087 90.4377 234.397C88.4803 235.335 87.7159 235.514 85.1694 235.631C81.6451 235.793 79.2514 235.217 76.7261 233.601C72.0638 230.618 69.3296 224.68 72.1296 223.618C72.5996 223.44 74.2764 223.567 76.746 223.969ZM138.355 232.297C138.349 226.546 137.389 223.667 135.078 222.475C134.561 222.208 133.855 221.991 133.508 221.991C132.153 221.991 131.981 222.756 131.972 228.811L131.963 234.552L130.451 239.283C129.619 241.885 128.757 244.821 128.535 245.808C128.007 248.157 127.507 249.094 125.312 251.842C121.462 256.661 109.955 267.558 109.073 267.22C108.162 266.872 108.597 266.192 111.289 263.767C114.742 260.656 124.293 251.088 124.293 250.74C124.293 250.307 119.153 249.722 115.461 249.735C111.451 249.748 108.269 250.269 104.176 251.581L101.232 252.525L100.997 256.1C100.547 262.964 101.399 271.998 102.971 277.024C104.433 281.697 107.747 285.794 111.423 287.473C117.679 290.33 125.968 287.044 131.066 279.686C133.179 276.635 136.432 270.737 136.703 269.463C136.909 268.499 136.952 268.481 139.516 268.267C146.342 267.699 152.772 264.899 153.264 262.281C153.566 260.676 153.196 259.398 152.491 259.615C150.854 260.121 145.793 261.469 145.532 261.469C144.992 261.469 145.21 260.196 145.8 259.894C146.115 259.733 147.477 259.344 148.826 259.029C152.707 258.123 155.041 256.417 155.041 254.486C155.041 253.712 154.343 252.387 153.833 252.191C153.576 252.093 151.509 252.382 149.238 252.832C144.954 253.682 144.027 253.597 144.77 252.422C145.012 252.04 146.302 251.66 149.06 251.157C151.229 250.762 153.312 250.275 153.688 250.074C155.053 249.345 155.436 247.515 154.572 245.85C153.698 244.165 153.524 244.131 149.289 244.827C144.435 245.626 142.611 245.669 142.611 244.986C142.611 244.245 143.616 243.934 148.762 243.086C151.335 242.662 153.594 242.162 153.782 241.975C154.372 241.386 154.234 239.344 153.542 238.42C152.422 236.925 150.914 236.346 148.131 236.346C145.628 236.346 139.444 237.399 138.273 238.023C137.932 238.205 137.444 238.274 137.188 238.176C136.45 237.894 136.647 237.02 137.541 236.613C138.348 236.247 138.359 236.19 138.355 232.297ZM91.9097 231.113C91.9097 230.596 90.5012 229.899 88.7044 229.527C87.0859 229.192 84.9751 229.093 84.2227 229.317C84.0428 229.371 82.3837 229.753 80.5356 230.168C78.6011 230.601 77.2226 231.068 77.2861 231.268C77.3466 231.459 78.1961 232.056 79.1738 232.594C80.8166 233.499 81.2009 233.573 84.2276 233.573C87.2753 233.573 87.6577 233.498 89.7066 232.492C90.9183 231.898 91.9097 231.277 91.9097 231.113ZM243.854 240.179C244.065 238.501 244.033 238.384 243.31 238.172C241.987 237.783 236.026 237.594 235.544 237.925C234.56 238.599 236.166 243.768 237.944 245.648C240.601 248.458 243.108 246.139 243.854 240.179ZM10.0962 247.098C8.33311 246.37 7.94352 244.374 9.30069 243.02C10.687 241.637 12.734 242.073 13.3676 243.886C14.0921 245.959 12.0925 247.923 10.0962 247.098ZM81.4423 247.004C75.4756 246.886 73.2584 246.44 68.031 244.305C66.5017 243.681 65.0667 243.087 64.8417 242.986C64.5296 242.846 64.4328 243.568 64.4328 246.036C64.4328 248.859 64.5401 249.484 65.278 250.961C67.2436 254.896 72.8355 257.88 78.2403 257.88C82.0579 257.88 85.9704 255.6 86.6835 252.958C86.8749 252.249 86.9884 250.644 86.9354 249.39L86.8396 247.11L81.4423 247.004ZM57.7732 260.001C60.0378 258.521 57.207 251.611 53.7453 250.168C52.1503 249.504 50.8949 249.667 50.1219 250.639C49.347 251.614 49.7202 252.38 52.1078 254.719C53.4728 256.056 54.8012 257.713 55.1973 258.573C56.0036 260.323 56.6944 260.706 57.7732 260.001ZM53.9202 259.424C53.0096 257.643 49.5148 254.002 48.1697 253.432C47.5907 253.187 46.9585 252.986 46.7648 252.986C46.2306 252.986 44.8064 254.519 44.8064 255.093C44.8064 255.372 45.9546 256.736 47.3579 258.126C48.7611 259.516 50.3434 261.351 50.8742 262.203C51.9985 264.008 52.9023 264.211 53.9415 262.893C54.7985 261.807 54.7943 261.132 53.9202 259.424ZM297.332 256.738C297.332 256.273 297.694 255.533 298.135 255.092C299.726 253.506 302.239 254.451 302.239 256.636C302.239 257.979 301.121 259.185 299.877 259.185C298.694 259.185 297.332 257.876 297.332 256.738ZM49.713 263.356C49.713 262.959 48.5652 261.52 46.8734 259.796C45.0609 257.948 43.7819 256.901 43.3377 256.901C42.3433 256.901 41.3823 257.701 41.31 258.588C41.276 259.006 41.1546 259.719 41.0404 260.173C40.8746 260.831 41.1006 261.3 42.169 262.511C43.3848 263.888 46.3065 265.711 47.299 265.711C48.0052 265.711 49.713 264.045 49.713 263.356ZM247.171 273.367C244.026 271.841 243.902 267.023 246.968 265.475C247.412 265.251 248.365 265.068 249.084 265.068C250.777 265.068 251.829 265.618 252.754 266.987C255.287 270.736 251.251 275.347 247.171 273.367ZM247.79 272.034C250.706 273.149 253.226 269.65 251.062 267.491C250.507 266.938 249.895 266.69 249.084 266.69C247.661 266.69 246.304 267.884 246.304 269.138C246.304 270.215 247.102 271.77 247.79 272.034ZM16.6753 275.39C16.6753 273.895 16.7787 272.568 16.9046 272.442C17.0309 272.316 17.3619 272.257 17.6406 272.31C18.0429 272.387 18.1666 272.991 18.2415 275.246L18.336 278.085L21.349 278.179C24.113 278.264 24.3623 278.326 24.3623 278.925C24.3623 279.523 24.113 279.585 21.349 279.671L18.336 279.765L18.2415 282.607C18.1554 285.201 18.09 285.45 17.4931 285.45C16.8961 285.45 16.8307 285.201 16.7446 282.607L16.6501 279.765L13.6371 279.671C10.7943 279.582 10.6179 279.536 10.5192 278.843C10.4171 278.126 10.4858 278.109 13.5449 278.109H16.6753V275.39ZM261.351 293.089C261.351 292.894 265.656 288.346 270.919 282.983C276.181 277.619 280.634 273.276 280.813 273.332C281.874 273.657 280.605 275.177 271.961 283.94C263.398 292.621 261.351 294.386 261.351 293.089ZM55.0092 285.683C54.879 283.885 55.8286 277.48 56.3111 276.9C56.9879 276.087 57.4023 276.665 57.3199 278.307C57.2757 279.185 57.0543 281.519 56.8276 283.492C56.4566 286.724 56.3503 287.081 55.7628 287.081C55.228 287.081 55.0919 286.829 55.0092 285.683ZM279.917 296.759C279.547 296.389 280.876 294.871 287.174 288.467C290.785 284.795 291.608 284.222 291.608 285.374C291.608 285.968 281.439 296.81 280.721 296.982C280.464 297.044 280.102 296.943 279.917 296.759ZM86.0853 293.966C84.4573 293.126 84.1769 291.013 85.5164 289.677C86.6417 288.554 88.0979 288.613 89.318 289.83C90.4397 290.948 90.5362 292.045 89.616 293.211C88.7558 294.302 87.3286 294.607 86.0853 293.966Z" fill="#000100"/>
<path d="M258.614 119.425C261.282 123.585 262.582 128.458 262.882 135.42L263.08 140.042L262.396 142.054H265.283C266.01 136.917 265.614 132.651 264.343 127.654C263.812 125.566 263.082 123.192 262.72 122.377L262.063 120.895L257.094 117.593C257.569 118.004 258.133 118.675 258.614 119.425Z" fill="#000100"/>
<path d="M255.517 148.015L249.582 157.915C249.582 157.915 247.713 161.632 246.747 163.092C244.688 166.205 238.471 175.138 235.761 178.879C233.504 181.995 233.061 183.164 234.139 183.164C234.67 183.164 238.909 177.389 246.473 166.361L257.433 147.474L255.517 148.015Z" fill="#000100"/>
</svg>
