<svg width="37" height="37" viewBox="0 0 37 37" fill="none" xmlns="http://www.w3.org/2000/svg">
<path d="M10.5 28.2565H16.5L23.175 32.744C24.165 33.411 25.5 32.6985 25.5 31.4856V28.2565C30 28.2565 33 25.2244 33 20.6763V11.5802C33 7.03206 30 4 25.5 4H10.5C6 4 3 7.03206 3 11.5802V20.6763C3 25.2244 6 28.2565 10.5 28.2565Z" stroke="#BB0708" stroke-width="1.5" stroke-miterlimit="10" stroke-linecap="round" stroke-linejoin="round"/>
<path d="M24.6772 14.754C24.4528 15.4058 24.1531 15.9588 23.7782 16.413C23.4032 16.8671 22.9612 17.2214 22.4521 17.4759C21.9454 17.7235 21.375 17.8724 20.7411 17.9228C20.1165 17.9686 19.4388 17.9079 18.708 17.7407L17.978 19.8608L15.9265 19.1544L17.3439 15.0378L18.3278 15.3766C19.3466 15.7274 20.2061 15.7816 20.9062 15.5392C21.6156 15.2923 22.118 14.74 22.4133 13.8824C22.5432 13.5051 22.5881 13.1253 22.548 12.7431C22.5172 12.3565 22.4048 11.9916 22.2107 11.6485C22.0236 11.3078 21.7595 10.9981 21.4183 10.7195C21.0841 10.4433 20.6798 10.2235 20.2053 10.0601C19.661 9.87269 19.1606 9.77328 18.704 9.76187C18.2567 9.74601 17.8441 9.81112 17.4659 9.9572C17.0902 10.0964 16.7467 10.312 16.4354 10.6039C16.1242 10.8958 15.8371 11.2535 15.5741 11.6772L13.4302 10.5591C13.8647 9.81847 14.3626 9.22248 14.9239 8.77111C15.4852 8.31973 16.0844 7.9965 16.7213 7.80141C17.3653 7.60872 18.0343 7.53594 18.7283 7.58306C19.4317 7.62573 20.1428 7.7708 20.8615 8.01828C21.664 8.29459 22.3612 8.66129 22.9531 9.11836C23.5474 9.56857 24.0132 10.0858 24.3506 10.6701C24.6973 11.25 24.9028 11.8886 24.9671 12.5861C25.0337 13.2767 24.9371 13.9993 24.6772 14.754ZM14.6685 22.8078L15.3879 20.7187L17.4394 21.4251L16.7201 23.5142L14.6685 22.8078Z" fill="#BB0708"/>
</svg>
