<svg width="188" height="141" viewBox="0 0 188 141" fill="none" xmlns="http://www.w3.org/2000/svg">
<path fill-rule="evenodd" clip-rule="evenodd" d="M73.7683 0.208668C68.2458 0.967672 64.1934 2.91426 60.4358 6.61213C55.8815 11.0939 54.0869 16.3484 55.2184 21.8877C57.2382 31.7732 66.1817 38.2668 77.7609 38.2547C81.3728 38.251 84.7175 37.5834 87.3673 36.3373C88.3503 35.8751 89.2731 35.497 89.4182 35.497C89.5632 35.497 91.3315 36.1141 93.3476 36.8684C96.7951 38.1579 97.7122 38.2839 97.7122 37.4674C97.7122 37.2792 97.0849 35.7827 96.3183 34.1423L94.924 31.1598L95.9277 29.8831C98.6039 26.478 99.7411 23.24 99.7411 19.0261C99.7411 13.936 98.2447 10.4821 94.3373 6.55264C92.3267 4.53008 91.1833 3.7015 88.8748 2.59291C84.4797 0.482286 78.5667 -0.450838 73.7683 0.208668ZM132.373 0.777417C127.183 1.26112 122.776 2.56703 121.463 4.01108C120.658 4.8958 120.163 6.82491 119.702 10.8724L119.354 13.9286L117.146 16.0358C113.471 19.5441 112.064 23.4675 112.892 27.8982C113.359 30.3974 114.636 33.1874 116.154 35.0294C117.315 36.4378 117.338 36.5282 117.828 41.6077C118.354 47.0548 118.904 49.4232 120.266 52.0966C121.315 54.1561 123.786 56.8056 125.695 57.9175C127.427 58.9266 130.85 60.0352 132.234 60.0352C133.099 60.0352 133.219 60.1559 133.219 61.0258C133.219 61.8846 132.982 62.1344 131.443 62.9011C130.467 63.3878 129.44 63.97 129.161 64.1953C128.882 64.4205 127.74 64.9596 126.625 65.3936C121.61 67.3435 118.3 69.6004 115.694 72.8472C114.304 74.5783 114.078 74.7393 113.821 74.1776C113.66 73.8263 113.266 73.471 112.945 73.3877C112.441 73.2566 112.332 72.583 112.14 68.4004C111.73 59.5068 110.839 57.2677 106.298 53.7195L103.446 51.4919L106.133 49.797C107.611 48.8649 109.521 47.6874 110.377 47.1802C112.266 46.0619 112.575 45.4161 111.658 44.5049L110.97 43.8205L106.793 45.5919C100.137 48.4145 94.1422 51.5043 93.33 52.5309C92.9245 53.0435 92.5049 53.8996 92.3973 54.4338C92.2533 55.1501 91.882 55.5349 90.9835 55.9C90.3136 56.1719 88.6742 56.9114 87.3402 57.5427C85.6903 58.3236 84.427 58.6906 83.3882 58.6906C81.9131 58.6906 81.858 58.6537 81.7555 57.5982C81.6527 56.537 81.6 56.5027 79.9214 56.4059L78.1927 56.3057L77.9807 57.5824C77.556 60.136 77.6923 60.9535 78.5792 61.1747C79.3411 61.365 79.3743 61.4624 79.0594 62.5962C78.6273 64.1512 79.239 65.0047 79.7773 63.5976C79.9701 63.0931 80.128 62.4809 80.128 62.2369C80.128 61.9929 80.4797 61.5639 80.9098 61.2839C81.8648 60.6621 86.1857 60.8893 86.7221 61.5895C86.9922 61.9421 87.6638 61.7623 90.0586 60.697C93.2519 59.2762 93.8487 59.1145 93.4338 59.7817C93.2907 60.012 93.0679 60.8816 92.9387 61.7145C92.8099 62.5472 92.5999 63.7579 92.4724 64.405C92.2881 65.3405 92.3956 65.7775 92.9962 66.5368C93.6374 67.3469 93.9495 67.473 95.0556 67.3681C96.2567 67.2541 96.3599 67.3113 96.3629 68.0938C96.3683 69.5083 97.8762 72.2717 99.3126 73.4996C100.575 74.5786 100.677 74.7998 100.817 76.7581C100.933 78.3679 100.861 78.859 100.513 78.859C99.7211 78.859 99.6775 79.6974 100.234 84.2285C101.416 93.8357 102.877 100.205 104.838 104.289C106.666 108.095 111.02 111.094 114.193 110.731L115.127 110.624L115.494 116.507C115.696 119.742 115.847 122.416 115.829 122.448C115.786 122.529 108.684 120.88 107.058 120.412L105.751 120.036L103.975 114.658C100.994 105.634 98.0405 98.3319 95.0691 92.6408C93.0571 88.7872 89.0459 82.8544 86.7231 80.296C84.9234 78.3141 80.7276 74.983 78.4913 73.7608C77.5039 73.2213 77.4728 73.1339 77.649 71.4078C77.9746 68.2232 76.5046 63.1065 74.7202 61.2127C74.3716 60.8423 73.6313 58.9787 73.0757 57.0714C72.1076 53.7467 72.088 53.5521 72.6033 52.3655C72.9117 51.6552 73.1525 50.1211 73.1684 48.7661C73.1904 46.8585 73.0298 46.084 72.3318 44.7358C70.6931 41.569 67.3318 39.8349 64.0821 40.4792C63.1431 40.6655 62.3271 40.6887 62.2689 40.531C62.2108 40.3734 61.6427 39.5666 61.0066 38.7384C59.2343 36.4314 56.7485 35.3588 52.8367 35.2129C49.2239 35.0785 47.2375 35.5958 44.604 37.3575C42.9446 38.4674 42.8912 38.4785 40.8125 38.139C36.8429 37.4913 33.0299 38.2308 28.1435 40.5962C22.5061 43.3247 18.3123 47.6864 16.8572 52.3346C14.7505 59.0624 17.827 67.6676 23.7583 71.6381C25.4322 72.7584 25.4399 72.7725 24.5455 72.9954C23.2074 73.3295 19.836 75.5907 18.2118 77.2432C16.1711 79.3202 14.6741 81.7814 13.616 84.7993C12.7625 87.2329 12.6938 87.8219 12.7016 92.6408C12.7114 98.7061 13.3454 102.209 15.7119 109.28C17.7952 115.504 20.138 120.867 24.8877 130.288C29.49 139.418 30.2915 140.827 30.727 140.559C30.8907 140.459 29.1306 136.673 26.8156 132.147C17.2302 113.406 13.503 102.294 13.5162 92.4979C13.5236 86.8279 14.5648 83.4097 17.5054 79.3999C18.8969 77.5024 22.0327 75.0916 24.5604 73.9762C25.978 73.3507 26.6908 73.2381 28.3116 73.3843L30.3128 73.5645L30.7351 75.2025C30.9675 76.1037 31.2914 76.9232 31.4554 77.0237C31.6194 77.1245 31.0885 77.8432 30.2759 78.621C26.1078 82.6107 28.4059 88.6071 34.1032 88.6071C35.0284 88.6071 36.1639 88.4639 36.6265 88.2891C37.27 88.0461 37.5733 88.0982 37.9169 88.5106C38.5023 89.2138 40.8552 90.271 41.8564 90.2804C42.4026 90.2854 41.9491 90.6468 40.3665 91.4666C34.6524 94.4273 31.0997 98.893 29.4359 105.207C28.6359 108.244 27.9734 115.381 28.2155 118.355L28.3795 120.372L26.6607 116.843C18.4005 99.8832 17.0824 85.5778 23.1631 78.8873C24.3102 77.6251 24.6385 76.8422 24.0204 76.8422C23.411 76.8422 21.1873 79.7306 20.2621 81.7243C19.0434 84.3502 18.5831 86.925 18.5848 91.1059C18.5879 99.0647 20.7457 106.67 26.2678 118.187C27.4645 120.683 28.7326 123.834 29.0859 125.189C29.7957 127.91 31.2809 131.425 31.9559 131.982C32.2724 132.243 32.3055 132.632 32.078 133.415C31.45 135.573 33.1807 137.348 35.4328 136.856C36.3719 136.651 36.5109 136.763 37.6778 138.673C38.8201 140.542 39.5492 141.206 39.5492 140.378C39.5492 140.195 39.0751 139.281 38.4952 138.344C37.9156 137.408 37.5135 136.57 37.6017 136.482C37.8946 136.191 42.3904 135.399 44.674 135.237L46.9244 135.077L47.1577 136.632C47.4431 138.535 48.1823 140.373 48.6622 140.373C48.695 140.373 48.7253 140.374 48.7533 140.374C48.8418 140.377 48.9054 140.379 48.9414 140.349C49.0329 140.271 48.9448 139.984 48.6324 138.965C48.5939 138.84 48.552 138.703 48.5066 138.554C48.2297 137.647 48.0031 136.469 48.0031 135.938V134.971L49.7784 135.165C53.91 135.617 54.6963 135.737 56.6261 136.208C56.7807 136.246 56.9276 136.282 57.0669 136.315C58.5165 136.667 59.1521 136.821 59.235 137.124C59.2997 137.361 59.0275 137.689 58.5428 138.273C58.5084 138.314 58.473 138.357 58.4365 138.401C58.4097 138.433 58.3823 138.466 58.3544 138.5C57.1874 139.916 56.8398 140.709 57.387 140.709C57.5263 140.708 58.301 139.946 59.1078 139.015C60.2904 137.65 60.7171 137.364 61.3059 137.543C61.7079 137.665 64.0534 138.503 66.5182 139.405C72.3572 141.542 74.2197 141.534 75.5071 139.368C76.3985 137.867 76.2321 136.21 75.0563 134.878C74.1862 133.894 71.3004 132.265 68.2925 131.061C67.5026 130.745 67.6581 130.621 70.6596 129.177C82.2019 123.622 95.1712 124.015 108.026 130.31C112.543 132.522 116.84 135.454 120.196 138.613C122.274 140.57 123.074 141.079 123.074 140.446C123.074 140 119.316 136.514 116.67 134.506C113.614 132.187 110.332 130.254 106.504 128.517C104.005 127.383 103.811 127.238 105.013 127.402C106.658 127.626 111.639 129.01 114.366 130C116.262 130.689 116.311 130.738 116.311 131.969C116.311 133.643 116.871 134.029 119.604 134.237C120.862 134.333 122.301 134.619 122.803 134.871C123.908 135.427 126.176 135.474 126.701 134.952C126.982 134.673 129.61 134.678 136.828 134.975C142.19 135.195 148.25 135.403 150.296 135.437L154.015 135.499L154.111 131.885C154.179 129.332 154.328 128.268 154.619 128.26C154.845 128.254 156.066 128.117 157.332 127.955C159.132 127.724 159.833 127.765 160.545 128.143C161.592 128.699 164.899 128.532 169.014 127.715C170.382 127.444 171.536 127.269 171.578 127.326C171.621 127.384 171.918 130.305 172.239 133.818C172.771 139.64 173.09 141.268 173.547 140.486C173.709 140.208 173.007 131.111 172.612 128.374L172.409 126.964L174.945 125.799C179.724 123.604 182.724 119.671 183.615 114.429C184.487 109.306 183.415 98.8251 181.075 89.5822C179.145 81.9569 176.91 77.0987 173.758 73.6694C170.894 70.5547 163.996 66.3879 156.385 63.1751C153.178 61.8214 152.986 61.6833 152.709 60.5364C152.549 59.8708 152.473 59.2711 152.541 59.2039C152.608 59.1367 153.399 59.249 154.297 59.4533C157.881 60.2688 163.192 58.7115 166.188 55.9669C168.581 53.7732 169.478 52.0098 169.664 49.1315C169.86 46.1066 169.161 44.3438 166.759 41.7993C164.459 39.3629 163.992 38.3192 163.986 35.5978C163.98 32.91 163.27 29.6545 162.259 27.6861C161.328 25.8719 158.265 22.688 156.157 21.3435C155.017 20.6161 154.555 20.1182 154.668 19.7411C156.129 14.9013 156.636 12.7084 156.795 10.5325L156.987 7.92173L155.578 6.5886C151.302 2.54518 141.024 -0.0286462 132.373 0.777417ZM82.7589 1.52701C87.3774 2.47459 90.548 4.1368 93.6617 7.24408C96.6128 10.189 97.8366 12.3934 98.6086 16.1558C99.0583 18.3488 99.082 19.1818 98.752 21.1687C98.2579 24.1432 96.9496 27.0884 95.1395 29.3016L93.7459 31.0058L94.4303 32.3268C94.8067 33.0536 95.4648 34.4334 95.8929 35.3931L96.6713 37.1377L94.4019 36.2792C93.861 36.0746 93.3796 35.8905 92.9489 35.7257L92.9475 35.7252C90.5322 34.8014 89.7149 34.4888 88.9644 34.6046C88.5805 34.6638 88.2142 34.8351 87.6604 35.0939C87.467 35.1843 87.2508 35.2854 87.0031 35.3961C81.369 37.9145 75.7266 38.0977 69.3476 35.9689C58.1082 32.2186 52.7153 20.8658 57.7238 11.4983C58.2283 10.5544 59.7855 8.63402 61.1845 7.23063C64.2566 4.14789 67.3592 2.49778 71.8499 1.5576C75.7722 0.736408 78.8623 0.727668 82.7589 1.52701ZM144.04 2.37509C149.354 3.62721 154.849 6.43095 155.808 8.37956C156.327 9.43436 156.051 11.3369 154.645 16.4046L153.74 19.6655L152.024 18.132C148.607 15.0785 142.621 12.1319 137.784 11.1235C131.545 9.82261 126.687 10.2031 122.486 12.3211C121.414 12.8613 120.507 13.305 120.469 13.3074C120.3 13.3181 120.797 9.55504 121.257 7.35299C121.637 5.52943 121.974 4.75933 122.607 4.26453C123.909 3.24603 126.874 2.42417 131.697 1.74382C133.746 1.45508 141.906 1.87223 144.04 2.37509ZM106.053 6.81315C105.686 7.17819 105.796 8.43973 106.234 8.87469C107.327 9.96143 109.191 8.28544 108.203 7.10323C107.767 6.58054 106.464 6.40474 106.053 6.81315ZM44.6215 10.2865V11.631H43.2689C42.525 11.631 41.9163 11.7823 41.9163 11.9672C41.9163 12.1521 42.525 12.3033 43.2689 12.3033H44.6215V13.6479C44.6215 14.619 44.7626 14.9924 45.1288 14.9924C45.495 14.9924 45.636 14.619 45.636 13.6479V12.3033H46.9886C47.7326 12.3033 48.3413 12.1521 48.3413 11.9672C48.3413 11.7823 47.7326 11.631 46.9886 11.631H45.636V10.2865C45.636 9.31537 45.495 8.94192 45.1288 8.94192C44.7626 8.94192 44.6215 9.31537 44.6215 10.2865ZM86.3538 9.19907C85.9507 9.46966 83.8501 11.8939 78.3679 18.416L74.7834 22.68L71.8489 19.5081C70.2349 17.7636 68.5451 16.2442 68.0937 16.1316C67.0427 15.8694 65.6667 16.7461 65.3864 17.8563C65.1047 18.971 65.5818 19.6436 70.0567 24.4383C73.3537 27.9715 73.9177 28.438 74.8923 28.438C75.9122 28.438 76.5026 27.8505 82.745 20.6228C86.4573 16.3246 89.6782 12.4616 89.9024 12.0384C90.6754 10.5803 89.5575 8.93856 87.7971 8.94696C87.2056 8.94999 86.5564 9.06327 86.3538 9.19907ZM8.2697 22.929C1.66719 29.6908 0.986143 30.4549 1.55999 30.4549C1.91033 30.4549 15.8782 16.6032 15.8782 16.256C15.8782 15.3713 14.2821 16.7713 8.2697 22.929ZM172.235 16.855C171.509 17.9569 172.029 19.2456 173.331 19.5707C174.447 19.849 175.219 19.4046 175.634 18.2453C176.33 16.3057 173.39 15.1034 172.235 16.855ZM174.422 16.9706C175.107 17.4019 174.744 18.5068 173.877 18.6295C172.968 18.7582 172.522 17.8947 173.125 17.173C173.603 16.6002 173.789 16.5713 174.422 16.9706ZM136.015 20.0312C132.069 23.7596 126.244 27.1698 121.668 28.4303C118.952 29.1782 117.663 29.2888 117.663 28.7742C117.663 28.5893 118.088 28.438 118.607 28.438C122.617 28.438 130.294 24.5334 135.417 19.8883C138.154 17.4059 138.665 17.5276 136.015 20.0312ZM28.8421 19.1865C27.1825 20.3418 27.7783 23.1351 29.7771 23.5717C32.1199 24.083 33.7231 21.2376 32.0749 19.4937C31.2109 18.5791 29.8938 18.454 28.8421 19.1865ZM31.1524 19.7824C31.9677 20.4352 32.1067 21.2339 31.5443 22.0319C30.7984 23.0904 29.3517 22.8511 28.9104 21.5959C28.62 20.771 28.6839 20.5471 29.3643 19.9992C30.2979 19.2476 30.4602 19.2281 31.1524 19.7824ZM139.945 21.9801C141.14 24.3082 145.251 29.2438 148.234 31.9322L151.179 34.5857L150.193 35.6297C149.651 36.2039 148.576 37.5387 147.804 38.5962C147.032 39.6537 146.125 40.6655 145.788 40.8446C144.282 41.646 139.312 41.9606 134.795 41.5408L130.344 41.127L130.462 39.4883C130.556 38.1636 130.475 37.85 130.039 37.85C129.656 37.85 129.498 38.1679 129.494 38.9424C129.487 40.7592 129.147 41.5475 128.372 41.5475C127.982 41.5475 126.167 41.8658 124.34 42.2547C122.388 42.6699 120.555 42.8756 119.898 42.7529L118.779 42.5441L118.549 38.4325C118.422 36.1709 118.229 33.55 118.12 32.6082L117.921 30.8959L120.141 30.6895C125.607 30.1823 132.438 26.8588 137.465 22.2621C138.384 21.4214 139.171 20.7277 139.214 20.7203C139.257 20.7129 139.586 21.2799 139.945 21.9801ZM181.306 29.5463C177.906 32.9289 175.238 35.8082 175.376 35.945C175.624 36.1921 188 24.1405 188 23.6514C188 22.9912 187.068 23.8117 181.306 29.5463ZM43.0985 25.078C42.5919 25.6346 42.552 25.8975 42.8699 26.5906C43.4069 27.7621 44.8326 27.7389 45.3773 26.5499C45.7334 25.7731 45.6884 25.5956 44.9945 25.0373C44.0098 24.2447 43.8543 24.248 43.0985 25.078ZM7.87744 33.1645C3.62951 37.4291 0.103216 41.0597 0.0413338 41.2329C-0.222767 41.9697 0.810303 41.446 2.23834 40.1189C5.93338 36.6856 16.2103 25.7849 15.9205 25.6067C15.7447 25.4988 12.1254 28.8999 7.87744 33.1645ZM136.938 30.1984C136.107 30.635 135.768 31.4744 136.431 31.4515C136.617 31.4451 137.338 31.2703 138.034 31.0633C139.054 30.7594 139.561 30.789 140.652 31.2149C142.138 31.7951 142.802 31.4334 141.899 30.5359C141.194 29.8354 138.038 29.6206 136.938 30.1984ZM121.468 31.7957C120.431 32.424 120.098 33.0986 120.585 33.5827C120.703 33.701 121.268 33.4065 121.84 32.9285C122.766 32.1537 123.072 32.0825 124.667 32.2687C125.651 32.3836 126.455 32.3554 126.455 32.2058C126.455 30.9947 123.227 30.7292 121.468 31.7957ZM105.328 33.0166C104.669 33.6717 104.768 34.4502 105.574 34.9551C106.746 35.6886 108.065 34.0358 107.167 32.9598C106.635 32.3221 106.007 32.3416 105.328 33.0166ZM157.479 34.0069C159.886 35.575 159.26 41.6806 156.487 43.6813C155.987 44.0423 155.004 44.3724 154.303 44.4148C153.1 44.4874 152.96 44.6185 151.831 46.7237C150.442 49.3133 148.581 51.9678 148.154 51.9678C147.786 51.9678 147.104 47.9795 146.86 44.4047L146.676 41.7156L148.501 39.3112C153.114 33.2351 154.781 32.2499 157.479 34.0069ZM19.9361 36.0012C19.9361 36.2812 20.2367 36.5054 20.6124 36.5054C20.9881 36.5054 21.2887 36.2812 21.2887 36.0012C21.2887 35.7212 20.9881 35.497 20.6124 35.497C20.2367 35.497 19.9361 35.7212 19.9361 36.0012ZM138.071 36.2284C137.074 36.7081 135.996 38.7286 136.48 39.21C136.743 39.4705 137.048 39.2342 137.557 38.3757C138.534 36.7303 139.997 36.6264 141.24 38.1138C141.816 38.8036 142.083 38.9206 142.389 38.6167C142.695 38.3128 142.654 38.0177 142.212 37.3481C141.306 35.9723 139.576 35.5047 138.071 36.2284ZM155.031 37.6506C154.009 38.9821 153.447 41.3986 154.217 41.1461C154.478 41.0604 154.741 40.6245 154.802 40.1767C154.862 39.729 155.357 38.8043 155.901 38.1219C157.024 36.7125 157.088 36.5054 156.4 36.5054C156.13 36.5054 155.514 37.0207 155.031 37.6506ZM180.766 41.847C177.397 45.2017 175.888 46.9237 176.166 47.0948C176.743 47.4494 186.588 37.656 186.121 37.1918C185.893 36.9656 184.123 38.5048 180.766 41.847ZM122.274 37.8745C121.293 38.6412 121.036 40.2029 121.89 40.2029C122.169 40.2029 122.398 39.9868 122.398 39.7226C122.398 39.0954 123.324 38.1861 123.963 38.1861C124.239 38.1861 124.884 38.6429 125.397 39.2009C125.91 39.7592 126.434 40.1122 126.562 39.9854C127.383 39.169 125.672 37.1777 124.149 37.1777C123.608 37.1777 122.764 37.4913 122.274 37.8745ZM40.963 39.0705L42.2078 39.2748L41.497 40.3525C40.8731 41.2984 40.5025 41.4786 38.4654 41.8258C34.3264 42.5314 30.1931 45.1566 28.6193 48.0794C28.0028 49.2236 27.8821 50.0014 27.8794 52.8465L27.8757 56.2459L26.659 57.5847C25.9898 58.3212 25.1714 59.6288 24.8401 60.4907C23.6494 63.5895 24.8854 67.9042 27.8419 70.9715C28.7011 71.8629 29.4045 72.6209 29.4045 72.6556C29.4045 72.9746 26.4564 72.0468 25.0453 71.2834C17.8761 67.4047 14.9165 56.3776 19.1844 49.4468C22.2146 44.5257 28.4955 40.4897 35.3222 39.0765C36.4077 38.8517 39.6114 38.8483 40.963 39.0705ZM146.082 46.9257C146.271 48.4972 146.597 50.5718 146.805 51.5359C147.255 53.6089 147.171 53.7524 144.285 55.8707C137.67 60.7253 128.47 60.211 123.337 54.6993C122.325 53.6132 121.165 52.0209 120.758 51.1604C119.944 49.4384 119.029 45.9291 119.021 44.4971C119.016 43.6682 119.108 43.5993 119.982 43.7731C120.513 43.8786 123.038 43.5566 125.592 43.0574C130.104 42.1757 130.367 42.1616 134.744 42.5562C138.218 42.8695 139.932 42.8722 142.231 42.568C143.872 42.3512 145.291 42.0941 145.387 41.9966C145.483 41.8991 145.601 42.3253 145.65 42.9438C145.698 43.5623 145.893 45.3543 146.082 46.9257ZM55.1173 49.0323C54.6685 50.5214 53.044 52.465 51.6488 53.1823C50.8071 53.6149 50.7253 53.7679 51.0976 54.2139C51.4425 54.627 51.9528 54.6936 53.5201 54.5309C58.2726 54.0371 62.0136 51.0451 62.7271 47.1678C62.9297 46.0682 63.0585 45.9257 63.6824 46.1103C67.4867 47.2343 70.4425 51.1977 72.1932 57.5229C72.7028 59.3649 73.4585 61.1132 74.2184 62.21C79.406 69.6972 76.2098 79.7417 67.1969 84.2756C64.5505 85.607 61.594 86.2433 58.0274 86.2491C52.5632 86.2581 48.6588 84.7055 44.4991 80.8685L42.0854 78.6419L40.9018 79.4526C39.2959 80.5522 36.5058 80.4016 34.5408 79.1091C32.781 77.9514 31.26 75.0095 31.5386 73.3026C32.1158 69.7674 36.1183 68.0417 38.9365 70.113L39.8681 70.7974L40.3584 70.0384C42.0221 67.4629 42.3096 62.4994 40.9299 60.1747C40.538 59.5148 40.2921 58.8553 40.3831 58.7091C40.4741 58.5626 41.1348 58.3498 41.851 58.2358C43.5246 57.9699 45.1829 56.8496 46.473 55.1138C47.339 53.9484 47.736 53.7037 49.0599 53.5188C52.1239 53.0909 54.5938 50.4781 55.0314 47.201C55.243 45.6168 55.2833 45.5472 55.3844 46.5896C55.447 47.2367 55.3269 48.3358 55.1173 49.0323ZM81.5178 47.3852C81.2277 47.7328 81.2476 47.9389 81.6007 48.23C81.9571 48.5237 82.1644 48.4982 82.4792 48.121C82.888 47.6316 82.7105 46.9257 82.1782 46.9257C82.0261 46.9257 81.7288 47.1325 81.5178 47.3852ZM6.42303 49.2545C5.77985 50.4488 6.88799 51.6078 8.19598 51.109C9.50904 50.6081 9.02717 48.6064 7.59339 48.6064C7.12808 48.6064 6.62051 48.8874 6.42303 49.2545ZM103.426 49.2498C104.139 49.6992 103.688 50.4102 101.974 51.5389C100.66 52.4038 100.195 52.5325 98.9065 52.3883C97.1569 52.1924 95.8442 52.8478 95.3383 54.1702C95.1192 54.7433 94.7644 54.9931 94.17 54.9931C93.1484 54.9931 93.123 54.8079 93.9579 53.4468C94.4026 52.7218 95.6102 51.8825 97.9299 50.6855C101.205 48.9957 102.489 48.6602 103.426 49.2498ZM45.3209 51.9231C44.5485 53.4277 43.0099 54.705 41.2741 55.2828C39.7845 55.7786 36.9525 55.7756 36.6431 55.2781C36.4693 54.9985 36.802 54.944 37.8391 55.0822C40.8565 55.4845 44.0064 53.7245 45.2174 50.9594C45.5008 50.3123 45.796 49.9607 45.8731 50.1779C45.9505 50.3954 45.702 51.1806 45.3209 51.9231ZM151.769 61.6507C151.795 61.7075 152.271 62.1653 152.825 62.6685L153.833 63.5835L145.754 71.6081L137.676 79.6331L136.606 77.5259C136.018 76.3672 134.928 73.6119 134.185 71.4034L132.835 67.3879L133.36 65.3055C133.649 64.1603 133.984 62.5058 134.105 61.6292C134.322 60.0587 134.343 60.0352 135.561 60.0352C140.18 60.0352 145.84 56.7867 149.667 51.9399L151.31 49.8592L151.515 55.7034C151.628 58.9179 151.742 61.5942 151.769 61.6507ZM105.11 53.9578C110.072 57.622 110.778 59.2762 111.22 68.2706C111.357 71.0438 111.572 73.543 111.698 73.824C111.872 74.2115 111.291 74.6499 109.3 75.6328C107.216 76.662 102.438 78.5229 101.88 78.5229C101.819 78.5229 101.77 77.7666 101.77 76.8422C101.77 75.3857 101.86 75.1615 102.446 75.1615C103.583 75.1615 103.207 74.6919 101.417 73.8754C99.3116 72.9154 97.9008 71.0784 97.3338 68.5587C96.9709 66.9472 96.9902 66.5896 97.4839 65.7583C97.7953 65.2343 98.0503 64.5593 98.0503 64.2584C98.0503 63.9573 98.2786 63.168 98.5575 62.5045C98.987 61.4829 99.1436 61.3623 99.5767 61.7199C99.9764 62.0497 100.045 62.5929 99.8878 64.1979C99.7468 65.641 99.8425 66.6814 100.208 67.6878C101.006 69.8824 103.123 72.388 103.123 71.1376C103.123 70.9581 102.638 70.1278 102.046 69.2921C101.208 68.1116 100.936 67.3335 100.825 65.8C100.746 64.7146 100.848 63.5179 101.051 63.1401C101.371 62.5455 101.082 62.0147 98.8899 59.1763C96.3524 55.8902 95.8577 54.618 96.7653 53.7158C96.9885 53.4939 97.68 53.3124 98.3022 53.3124C99.5707 53.3124 99.7651 53.4795 103.288 57.6042C105.576 60.2826 106.166 60.775 106.166 60.0046C106.166 59.6291 103.894 56.7968 101.834 54.6035L100.679 53.3739L101.647 52.8526C102.18 52.5655 102.673 52.3248 102.743 52.3174C102.813 52.31 103.878 53.0482 105.11 53.9578ZM64.9109 53.8869C64.1102 54.1796 63.2202 55.0546 63.2202 55.5494C63.2202 56.1689 63.884 56.1168 64.6384 55.4381C65.2904 54.8519 66.7826 54.7417 68.3771 55.1622C69.0787 55.3474 69.307 55.2875 69.307 54.9181C69.307 53.9662 66.4972 53.307 64.9109 53.8869ZM115.456 54.3356C115.139 54.8452 115.998 55.7743 116.409 55.3662C116.788 54.9891 116.493 53.9847 116.003 53.9847C115.822 53.9847 115.576 54.1427 115.456 54.3356ZM95.8134 56.5259C95.9598 56.9057 95.62 57.223 94.5815 57.6762C93.7926 58.0204 91.9297 58.8392 90.4418 59.4953L87.7365 60.689L87.1448 59.9888C86.8194 59.6036 86.553 59.1784 86.553 59.0436C86.553 58.9091 87.9607 58.1841 89.6809 57.4321C93.0611 55.9551 95.4563 55.6012 95.8134 56.5259ZM80.8043 58.6906C80.8043 60.334 80.7817 60.3713 79.7898 60.3713C78.8187 60.3713 78.7754 60.3091 78.7754 58.9148C78.7754 57.2425 78.9269 57.0099 80.0154 57.0099C80.7367 57.0099 80.8043 57.1541 80.8043 58.6906ZM48.1722 58.1538C47.0005 58.6678 46.1497 59.5552 45.8315 60.5952C45.4774 61.7512 46.2596 61.8614 46.9034 60.7468C47.644 59.4637 48.6148 59.0268 50.7243 59.0268C51.9247 59.0268 52.3992 58.895 52.3992 58.5619C52.3992 57.6614 49.8545 57.4156 48.1722 58.1538ZM37.315 58.7226C38.8705 59.9387 39.6763 61.9293 39.6834 64.5731C39.6872 65.8672 39.5181 67.2266 39.3081 67.5936C39.0105 68.1133 38.9676 67.6562 39.1147 65.5254C39.2797 63.129 39.207 62.5922 38.5286 61.1989C38.1026 60.3239 37.3218 59.3639 36.7939 59.0654C35.8616 58.5384 35.5278 58.0183 36.122 58.0183C36.2829 58.0183 36.8199 58.3353 37.315 58.7226ZM97.5485 58.9427C98.6529 60.1898 98.5951 60.7781 97.2262 62.2204C96.3298 63.1657 95.8472 63.4205 95.1127 63.3371C94.3485 63.2497 94.1399 63.0389 94.0506 62.2635C93.8998 60.9505 94.1825 59.9767 95.0241 58.9132C95.9233 57.777 96.5229 57.7841 97.5485 58.9427ZM173.253 59.5397C172.73 60.3347 172.732 60.4308 173.298 61.0523C174.34 62.1969 175.826 61.6981 175.826 60.2033C175.826 58.6066 174.153 58.175 173.253 59.5397ZM84.9721 59.699C85.6504 59.699 85.8969 59.8133 85.6809 60.0281C85.267 60.4396 81.8188 60.0664 81.8188 59.6103C81.8188 59.4184 82.2638 59.3673 82.8755 59.489C83.4568 59.6046 84.4003 59.699 84.9721 59.699ZM69.4754 62.0547C69.0652 63.9116 66.7823 64.3596 65.638 62.8083C65.1064 62.0877 64.8656 61.9727 64.5451 62.287C64.2228 62.603 64.2583 62.8783 64.7094 63.5623C65.5166 64.7872 66.8121 65.2168 68.3368 64.7654C69.8453 64.319 70.2971 63.8057 70.5511 62.25C70.7063 61.2997 70.6366 61.0436 70.2234 61.0436C69.9153 61.0436 69.6066 61.4608 69.4754 62.0547ZM96.0498 64.1092C96.6524 63.9005 97.184 63.7684 97.2313 63.8151C97.5377 64.1213 96.2385 66.1549 95.5321 66.475C94.8148 66.7997 94.5585 66.763 93.9938 66.2551C93.6205 65.9193 93.3161 65.2191 93.3161 64.6961C93.3161 63.8141 93.3739 63.7734 94.1351 64.1179C94.735 64.3899 95.2473 64.3875 96.0498 64.1092ZM60.7685 64.4319C59.703 65.0487 60.0963 65.486 61.504 65.2497C62.5848 65.0682 62.9615 65.1563 63.533 65.7244C64.5187 66.7042 64.4071 67.5835 63.1752 68.5419C61.8469 69.5752 62.1313 70.3486 63.5674 69.6105C64.7551 69 65.2491 68.1641 65.2491 66.764C65.2491 64.7556 62.5952 63.3741 60.7685 64.4319ZM158.515 65.0141L154.607 64.0238L153.949 64.8561C152.536 66.6413 143.08 88.6296 143.286 89.6515C143.369 90.0673 143.991 90.2417 145.981 90.4091C147.404 90.5288 148.675 90.5123 148.805 90.3732C149.565 90.3588 151.014 90.423 151.613 90.7498C151.676 90.8177 151.755 90.8843 151.848 90.9601C152.394 91.4014 152.513 92.2945 152.8 98.1168L153.127 104.77L154.816 107.025C155.745 108.265 157.259 110.013 158.181 110.91L159.856 112.54L162.853 111.431C164.502 110.821 165.87 110.314 165.894 110.305C165.917 110.295 165.735 107.792 165.49 104.742C164.943 97.943 164.912 96.3383 165.328 96.3383C165.764 96.3383 165.927 97.54 166.401 104.277L166.805 110.031L168.526 109.575C170.457 109.064 172.073 108.965 171.582 109.389C171.406 109.541 169.02 110.379 166.281 111.25L161.3 112.835L162.283 114.184C163.463 115.802 163.996 118.048 163.976 121.313C163.96 123.907 163.421 125.873 162.417 126.998L161.793 127.697L164.548 127.475C170.456 126.999 175.641 125.068 178.678 122.213C181.914 119.17 182.918 116.123 182.924 109.323C182.932 99.7225 180.065 86.3506 176.466 79.2029C174.717 75.7302 172.13 72.9604 168.276 70.4367C166.604 69.3422 163.724 67.6743 161.876 66.7304L158.515 65.0141ZM54.0666 64.4611C54.0537 64.5227 53.9844 65.0242 53.9124 65.5754C53.84 66.1264 53.5171 66.7694 53.1945 67.004C52.0755 67.8175 49.6939 67.2988 49.6939 66.242C49.6939 65.7476 48.9767 65.5664 48.5803 65.9603C48.4637 66.0763 48.5878 66.5929 48.8559 67.1086C49.8708 69.0592 53.3348 69.1301 54.5901 67.2259C55.2089 66.2867 55.1643 64.6995 54.5126 64.487C54.2803 64.4111 54.0795 64.3993 54.0666 64.4611ZM132.542 65.0574C132.542 65.2316 132.408 65.4564 132.244 65.5573C131.553 65.9815 130.303 80.2779 130.723 82.9468C130.858 83.8067 130.696 84.3398 130.03 85.2269C129.552 85.8638 129.161 86.8091 129.161 87.3277C129.161 88.2434 129.108 88.2709 127.356 88.2709H125.831C125.645 88.2709 125.459 88.2848 125.275 88.3123L124.96 88.3593C124.609 88.4118 124.274 88.5426 123.98 88.742C123.858 88.8246 123.745 88.9197 123.638 89.0212C122.969 89.6568 122.647 89.6575 119.647 89.4441L116.316 89.2071L116.535 88.319C116.655 87.8303 117.169 85.8786 117.678 83.9818C118.186 82.085 118.477 80.4557 118.323 80.3612C117.854 80.0732 117.426 81.1875 116.424 85.2995C115.665 88.4198 115.331 89.2736 114.82 89.4091C114.209 89.5715 114.187 89.841 114.404 94.5561C114.531 97.2926 114.731 101.86 114.85 104.706L115.067 109.88L113.406 109.72C106.7 109.077 103.447 102.502 101.256 85.169C100.936 82.6362 100.749 80.368 100.842 80.1283C100.934 79.889 101.752 79.497 102.658 79.2573C104.743 78.7064 109.663 76.6324 111.316 75.6075C112.01 75.1773 112.722 74.8253 112.898 74.8253C113.66 74.8253 113.356 76.2324 111.882 79.5313C110.308 83.0507 107.635 90.5984 107.448 92.0458C107.394 92.4656 107.502 92.8458 107.688 92.8912C107.874 92.9362 108.571 91.1967 109.237 89.0256C110.47 85.0067 111.962 81.2338 113.988 77.0103C115.633 73.5796 119.256 70.0548 123.243 68.0074C126.693 66.2353 130.565 65.7509 130.565 65.7509C132.023 64.7015 132.542 64.5193 132.542 65.0574ZM182.928 68.4387V69.7832H181.547C179.785 69.7832 179.902 70.5782 181.686 70.7278C182.855 70.8263 182.928 70.8999 182.928 71.9883C182.928 72.6243 183.08 73.1446 183.266 73.1446C183.452 73.1446 183.604 72.6243 183.604 71.9883C183.604 70.8999 183.676 70.8263 184.846 70.7278C186.63 70.5782 186.747 69.7832 184.985 69.7832H183.604V68.4387C183.604 67.6992 183.452 67.0941 183.266 67.0941C183.08 67.0941 182.928 67.6992 182.928 68.4387ZM7.02292 71.548C6.92621 72.5453 6.80684 72.6495 5.64899 72.7446C4.95171 72.8021 4.3809 72.982 4.3809 73.1446C4.3809 73.3073 4.95171 73.4872 5.64899 73.5446C6.80684 73.6398 6.92621 73.744 7.02292 74.7413C7.16528 76.2079 7.76247 76.14 7.76247 74.6573C7.76247 73.5369 7.81894 73.4808 8.94601 73.4808C9.59697 73.4808 10.1296 73.3295 10.1296 73.1446C10.1296 72.9598 9.59697 72.8085 8.94601 72.8085C7.81894 72.8085 7.76247 72.7524 7.76247 71.632C7.76247 70.1493 7.16528 70.0814 7.02292 71.548ZM65.1179 71.7399C62.815 72.9625 62.743 72.9766 58.8295 72.9766C54.349 72.9766 53.7518 73.2186 53.7518 75.0337C53.7518 75.8606 54.0767 76.5252 54.9505 77.4872C57.9845 80.8251 64.5011 80.6476 67.8526 77.1353C70.4212 74.4442 70.731 70.4179 68.3652 70.4794C67.8604 70.4925 66.3988 71.0596 65.1179 71.7399ZM34.5445 73.2119C33.8178 73.9342 34.1133 74.1652 35.4852 73.947C36.6931 73.7551 36.9342 73.8421 37.827 74.7921C38.8556 75.8865 39.5248 75.7003 38.8786 74.4996C38.1438 73.1349 35.4321 72.3295 34.5445 73.2119ZM79.8997 75.706C86.672 80.0402 92.699 88.475 97.8772 100.866C100.131 106.259 104.475 118.491 104.475 119.444C104.475 119.853 104.2 119.91 103.09 119.734L102.979 119.716C101.946 119.552 101.25 119.442 100.677 119.117C99.4973 118.446 98.8418 116.863 96.8351 112.016L96.7322 111.768C93.3665 103.64 90.0799 96.9548 88.0568 94.1218C83.9028 88.3049 78.5694 85.6749 71.5841 85.999C67.4603 86.1906 66.5503 85.7761 68.5914 84.6359C71.8634 82.8077 75.0722 79.2775 76.4374 76.0038C76.8617 74.986 77.2685 74.1531 77.3412 74.1531C77.4139 74.1531 78.5654 74.8519 79.8997 75.706ZM89.9552 74.4764C89.3093 74.8734 89.6728 76.0018 90.4465 76.0018C90.8733 76.0018 91.1553 75.742 91.2206 75.2882C91.3322 74.51 90.6318 74.061 89.9552 74.4764ZM62.5388 76.1975C63.9783 76.5272 65.2491 77.3145 65.2491 77.8765C65.2491 78.3393 62.8147 78.9468 61.0252 78.931C59.1934 78.9145 56.7952 78.1279 56.7952 77.5434C56.7952 77.1225 57.9781 76.4704 59.3314 76.146C60.7465 75.8065 60.8375 75.8079 62.5388 76.1975ZM135.208 85.1217C136.222 85.8275 136.926 87.5126 136.699 88.6911L136.521 89.6155H138.95C142.372 89.6155 142.687 89.8468 142.687 92.3591V94.4068L134.487 94.1806C129.977 94.0559 125.868 93.8734 125.356 93.7749C124.458 93.6018 124.427 93.5231 124.427 91.4512V89.3066L127.216 89.2088C129.776 89.1194 130 89.0558 129.934 88.439C129.629 85.5687 132.897 83.5126 135.208 85.1217ZM52.061 86.4881C54.4839 87.2672 59.9174 87.4198 62.882 86.7919L63.2053 86.7234C65.1101 86.3191 65.683 86.1976 65.854 86.4044C65.9276 86.4934 65.9268 86.6431 65.9257 86.8572C65.9256 86.8842 65.9254 86.9124 65.9254 86.9415C65.9254 87.3197 66.3268 88.0282 66.8175 88.516L67.7099 89.4031L66.7329 90.1839C62.532 93.5433 52.8675 93.2902 50.0642 89.7476C49.1116 88.5439 49.0189 85.3707 49.9475 85.7543C50.2732 85.8887 51.2241 86.2188 52.061 86.4881ZM132.597 86.8854C132.349 87.0423 132.196 87.5314 132.259 87.9728C132.396 88.9368 133.785 89.0982 134.346 88.2151C134.99 87.1997 133.68 86.2033 132.597 86.8854ZM72.1691 88.1809C72.6409 88.8709 73.0267 89.6195 73.0267 89.8444C73.0267 90.9769 67.7356 93.7107 64.0358 94.4899C60.8879 95.1527 58.7835 95.0932 53.5891 94.1941L49.1998 93.434L48.2632 91.9614C47.226 90.3301 47.06 89.117 47.834 88.8215C48.113 88.7153 48.3413 88.7741 48.3413 88.953C48.3413 89.1315 48.883 89.8737 49.5454 90.6024C52.714 94.0885 61.9338 94.5396 66.5639 91.435C67.9114 90.5315 68.9634 89.0602 68.9665 88.075C68.9695 87.1449 69.2356 86.9264 70.3658 86.9264C71.0793 86.9264 71.5222 87.2343 72.1691 88.1809ZM74.3009 87.8508C75.4398 89.4857 75.4743 89.6155 74.7709 89.6155C74.2285 89.6155 72.6886 87.7368 72.6886 87.0753C72.6886 86.5613 73.7625 87.078 74.3009 87.8508ZM79.195 87.9748C84.0286 89.8444 87.0423 93.1816 90.9494 100.99C93.6424 106.372 93.6553 106.446 92.0666 107.332C90.6247 108.137 86.905 109.577 86.7325 109.397C86.671 109.332 86.0552 107.767 85.3637 105.918C83.5417 101.046 80.7837 95.7285 77.7288 91.1957C76.2585 89.0141 75.0556 87.1543 75.0556 87.0625C75.0556 86.7808 77.5029 87.3203 79.195 87.9748ZM46.3123 90.2542C46.3123 90.4202 46.849 91.349 47.505 92.3181C48.1607 93.2868 48.6554 94.1151 48.604 94.1588C48.5523 94.2021 48.1948 94.3342 47.809 94.4515C47.221 94.6307 46.992 94.4075 46.3894 93.0646C45.2924 90.6212 45.1619 89.9516 45.7824 89.9516C46.0739 89.9516 46.3123 90.0878 46.3123 90.2542ZM77.9036 93.0609C81.8299 99.0483 86.553 110.085 86.553 113.272C86.553 114.355 81.0988 116.515 73.2986 118.521C68.9063 119.651 68.3158 119.735 68.2161 119.246C68.1542 118.941 68.3115 118.271 68.5658 117.757C68.9029 117.076 68.9377 116.566 68.6949 115.873C68.4988 115.314 68.4846 114.73 68.6601 114.454C69.1504 113.684 69.0087 112.066 68.3913 111.387C68.0169 110.976 67.8455 110.313 67.9043 109.506C68.0805 107.079 65.1287 105.815 61.318 106.686L59.9231 107.004L59.7588 104.723C59.5508 101.836 58.6807 100.121 56.9778 99.2429C55.8081 98.6395 55.5968 98.6224 54.8018 99.0661C53.9347 99.5498 53.9205 99.6187 53.9006 103.41C53.883 106.812 53.7765 107.498 52.9902 109.274C52.4735 110.442 52.0333 111.076 51.9403 110.787C51.8524 110.513 51.4445 108.851 51.034 107.095C50.6238 105.338 49.6831 102.028 48.9442 99.7394C47.8611 96.385 47.6886 95.5218 48.0552 95.2906C49.1079 94.627 50.9441 94.5968 54.0466 95.1927C57.9845 95.9487 62.297 95.9538 65.2028 95.2058C67.744 94.5517 72.2699 92.2865 73.3777 91.1143C73.8532 90.6115 74.5362 90.2878 75.1223 90.2878C75.9562 90.2878 76.3291 90.6599 77.9036 93.0609ZM44.3608 91.5483C46.2609 93.6969 50.2427 105.68 51.2159 112.178L51.4486 113.732L49.6002 114.783C48.5834 115.361 47.5983 115.834 47.4107 115.834C47.2139 115.834 46.9728 114.165 46.8402 111.885C46.5697 107.228 46.3495 105.75 45.9272 105.75C45.7435 105.75 45.7107 107.397 45.8463 109.784C46.0364 113.128 45.9948 113.816 45.6022 113.807C45.3418 113.801 43.9899 113.65 42.5984 113.47C38.6994 112.967 34.0058 113.761 29.6043 115.668C28.9852 115.936 28.9679 115.812 29.1894 112.682C29.9384 102.09 33.3024 96.1753 40.8565 92.1692C43.4492 90.7943 43.6608 90.7567 44.3608 91.5483ZM3.93014 91.8565C3.04991 92.7312 4.34742 94.5712 5.52691 94.1211C6.24651 93.8468 6.54882 92.708 6.05816 92.1204C5.63986 91.6192 4.33187 91.4569 3.93014 91.8565ZM123.946 94.3144C124.479 94.8442 142.265 95.4882 143.163 95.0105C143.569 94.7944 144.731 94.6643 145.746 94.7218L147.59 94.8257L147.815 99.1955C147.94 101.599 148.123 105.25 148.224 107.309L148.407 111.051L142.757 111.192C136.207 111.354 134.909 111.734 134.909 113.49C134.909 114.104 134.734 114.49 134.455 114.49C134.204 114.49 133.73 114.786 133.4 115.149C132.659 115.962 132.93 117.379 133.883 117.679C134.41 117.846 134.506 118.091 134.35 118.865C134.154 119.841 134.204 119.913 136.624 122.11C136.794 122.263 137.307 122.857 137.766 123.429C138.809 124.729 141.893 126.124 145.746 127.039L148.706 127.742L148.926 129.391C149.047 130.298 149.074 131.111 148.986 131.198C148.898 131.286 144.249 131.167 138.654 130.934L128.483 130.511L127.855 129.452C127.059 128.111 124.759 126.248 122.518 125.13L120.778 124.262L120.58 121.981C120.471 120.727 120.212 115.843 120.004 111.128C119.797 106.414 119.527 100.628 119.404 98.2711L119.18 93.9853H121.398C122.617 93.9853 123.764 94.1336 123.946 94.3144ZM72.5496 96.8909C71.1526 98.5599 68.5438 99.9303 65.8524 100.408C63.2935 100.863 62.8658 101.597 65.2599 101.425C68.2803 101.209 72.4079 99.0167 73.8146 96.8825C74.4906 95.8573 74.5143 95.6583 73.9566 95.6902C73.7243 95.7037 73.091 96.2438 72.5496 96.8909ZM123.319 99.5676C122.795 100.089 123.095 101.036 123.835 101.194C124.253 101.283 128.932 101.399 134.233 101.452C143.677 101.546 143.871 101.535 143.871 100.876C143.871 100.257 143.576 100.187 140.151 99.9965C132.254 99.5562 123.554 99.3346 123.319 99.5676ZM57.014 100.192C58.1705 100.998 58.8241 102.796 58.8241 105.173C58.8241 107.146 58.7524 107.371 58.069 107.549C57.5354 107.687 57.4194 107.85 57.6737 108.103C57.928 108.355 58.6165 108.309 60.0215 107.946C64.5613 106.77 67.9987 107.704 66.9095 109.818C66.7569 110.113 65.4841 110.771 64.0808 111.28C61.6099 112.176 60.828 112.809 62.1932 112.809C62.5584 112.809 63.6523 112.498 64.6249 112.116C67.203 111.106 68.4768 111.657 68.0129 113.581C67.8465 114.271 66.0752 115.251 63.979 115.812C62.5269 116.201 62.0214 116.843 63.1671 116.843C63.51 116.843 64.6387 116.553 65.6752 116.198C67.7065 115.504 67.9544 115.556 67.9544 116.679C67.9544 117.625 67.0515 118.419 65.1663 119.13C64.3357 119.444 63.6719 119.851 63.6916 120.036C63.7386 120.479 65.1247 120.286 66.3231 119.669C67.2662 119.185 67.278 119.191 67.278 120.166C67.278 122.461 62.4843 124.468 57.7684 124.147C55.7844 124.012 55.1044 124.071 55.1044 124.379C55.1044 125.081 49.9962 129.775 47.4959 131.371C42.9139 134.296 38.4904 135.126 35.2604 133.669C32.7445 132.534 30.8146 129.119 29.7596 123.936C29.3186 121.769 29.6081 121.305 32.0492 120.264C33.9537 119.453 38.3528 118.516 40.1268 118.544L41.4091 118.565L39.6337 119.454C37.8307 120.357 37.3789 120.893 38.4502 120.856C38.7758 120.846 42.0093 119.371 45.636 117.579L52.2301 114.322L52.6734 112.809C52.9172 111.977 53.5259 110.238 54.026 108.945C54.821 106.888 54.9282 106.159 54.8799 103.146C54.8261 99.8066 54.8474 99.6997 55.5653 99.6997C55.9731 99.6997 56.6248 99.9212 57.014 100.192ZM123.412 104.846C123.412 105.662 123.505 105.697 126.202 105.902C127.736 106.019 132.339 106.147 136.431 106.185C143.668 106.252 143.871 106.236 143.871 105.582C143.871 104.729 142.478 104.579 131.443 104.245L123.412 104.002V104.846ZM157.814 111.901C158.549 112.603 159.669 113.435 160.302 113.75C160.979 114.086 161.705 114.83 162.061 115.554C163.277 118.027 163.544 122.694 162.61 125.149C162.108 126.469 159.151 127.097 153.677 127.049C149.722 127.013 148.398 126.861 145.63 126.124C142.143 125.194 138.291 123.476 138.291 122.849C138.291 122.625 138.591 122.564 139.052 122.695C141.513 123.396 146.916 124.203 147.207 123.913C147.625 123.497 147.416 123.431 142.899 122.546C137.192 121.428 135.248 120.564 135.248 119.144L135.248 119.115C135.247 118.896 135.247 118.745 135.322 118.659C135.487 118.471 136.011 118.593 137.683 118.984L137.784 119.007C140.575 119.659 146.675 120.386 146.961 120.101C147.38 119.685 146.952 119.571 142.275 118.862C136.999 118.062 134.115 117.207 133.955 116.395C133.743 115.315 135.256 115.041 139.202 115.444L139.301 115.455C146.217 116.162 147.243 116.266 147.395 115.953C147.421 115.898 147.421 115.831 147.421 115.752V115.745C147.421 115.353 146.764 115.191 144.462 115.015C139.615 114.644 136.149 114.176 135.819 113.848C135.649 113.679 135.608 113.381 135.729 113.187C136.186 112.451 138.643 112.141 144.04 112.136C147.108 112.133 150.418 112.036 151.395 111.919L153.17 111.707V109.015V106.322L154.824 108.473C155.733 109.656 157.079 111.199 157.814 111.901ZM5.54652 111.147C3.14392 113.54 1.40647 115.498 1.68545 115.498C2.34824 115.498 10.6378 107.239 10.228 106.987C10.0555 106.881 7.94879 108.753 5.54652 111.147ZM94.0946 107.851C94.1906 108.082 94.5159 108.845 94.8175 109.546L95.366 110.82L91.8894 112.482C89.9771 113.396 88.24 114.146 88.0287 114.149C87.7227 114.153 87.1684 112.142 87.0768 110.696C87.0676 110.551 88.3317 109.922 89.8855 109.299C91.4397 108.676 92.8775 108.001 93.0811 107.799C93.5657 107.317 93.8795 107.333 94.0946 107.851ZM97.374 115.75C98.3445 118.107 99.7404 121.451 100.476 123.18C101.212 124.909 101.759 126.378 101.692 126.445C101.624 126.512 100.892 126.365 100.063 126.119C99.2352 125.873 97.1461 125.402 95.4211 125.072L92.2851 124.472L90.1161 120.406C88.9231 118.169 87.8606 116.112 87.7551 115.834C87.6138 115.463 88.1639 115.084 89.848 114.394C91.5699 113.689 94.896 112.004 95.5618 111.501C95.5882 111.481 96.4035 113.393 97.374 115.75ZM45.2133 114.681C45.7324 114.833 45.9742 115.164 45.9742 115.723C45.9742 116.913 44.1245 117.568 40.398 117.697C37.0573 117.811 32.6423 118.817 30.8417 119.873C30.2086 120.244 29.5502 120.462 29.3785 120.357C29.2067 120.251 29.0663 119.438 29.0663 118.55V116.935L31.0107 116.072C34.1289 114.688 37.2355 114.144 41.0709 114.311C42.9308 114.391 44.7947 114.558 45.2133 114.681ZM88.8068 119.803L91.23 124.428L87.116 124.459C80.3759 124.51 75.9156 125.612 69.4094 128.833L66.2994 130.373L63.1535 129.501C61.4232 129.021 58.9425 128.465 57.6406 128.265C57.3134 128.214 57.0122 128.169 56.7354 128.127L56.7327 128.126C54.8187 127.837 54.0738 127.724 54.0005 127.441C53.9538 127.26 54.1797 127.009 54.5497 126.599L54.5517 126.597C54.6354 126.504 54.7265 126.403 54.8234 126.293C55.8967 125.073 56.0296 125.02 57.6406 125.16C59.776 125.345 63.8451 124.502 65.6884 123.491C66.4651 123.065 67.4069 122.25 67.7812 121.679C68.3943 120.744 68.8454 120.549 72.3504 119.706C77.0633 118.574 82.6385 116.801 84.407 115.874C85.1222 115.499 85.8597 115.188 86.0457 115.184C86.2317 115.18 87.4741 117.258 88.8068 119.803ZM115.358 123.394C119.613 124.606 123.697 126.555 125.56 128.262C127.295 129.852 128.055 131.555 127.493 132.599C126.998 133.518 125.473 134.658 124.739 134.658C124.403 134.658 122.933 133.844 121.472 132.85C120.011 131.855 118.06 130.661 117.137 130.196C115.166 129.203 108.783 127.206 105.109 126.434L102.53 125.891L101.843 124.14C101.465 123.177 100.924 121.852 100.641 121.196L100.126 120.002L106.167 121.249C109.489 121.935 113.625 122.9 115.358 123.394ZM9.63924 123.35C8.60245 124.381 8.54056 125.348 9.45325 126.255C10.8262 127.619 13.173 126.742 13.173 124.864C13.173 123.761 12.5352 122.98 11.4146 122.712C10.7068 122.542 10.3081 122.685 9.63924 123.35ZM12.1061 124.555C12.2566 125.615 11.3107 126.367 10.4211 125.894C9.80189 125.564 9.55977 124.244 10.0325 123.774C10.1647 123.643 10.6595 123.579 11.1315 123.634C11.748 123.706 12.0222 123.965 12.1061 124.555ZM57.3024 129.126C65.7198 130.555 74.0625 133.956 75.0678 136.368C75.4286 137.234 75.4097 137.575 74.9474 138.539C73.9516 140.615 71.9629 140.536 65.7563 138.173C58.8647 135.549 54.6678 134.601 49.0818 134.405L44.2428 134.236L45.9694 133.357C46.919 132.874 48.7924 131.62 50.1321 130.57C51.5372 129.47 52.926 128.651 53.4136 128.636C53.8786 128.622 55.6285 128.842 57.3024 129.126ZM87.4129 131.946C87.1258 132.407 87.5059 132.539 89.9166 132.812C95.7417 133.472 102.441 136.171 106.73 139.586C108.296 140.833 108.533 140.92 108.533 140.246C108.533 139.638 105.553 137.383 102.785 135.896C99.8317 134.309 95.2111 132.739 91.7065 132.131C88.3513 131.55 87.6773 131.521 87.4129 131.946ZM33.7853 133.799C34.0082 134.067 34.978 134.548 35.94 134.87C37.5297 135.401 37.6122 135.477 36.8439 135.695C35.4802 136.083 33.6298 136.035 33.1918 135.599C32.7252 135.136 32.6383 133.314 33.083 133.314C33.246 133.314 33.5621 133.532 33.7853 133.799Z" fill="black"/>
</svg>
