<svg width="155" height="123" viewBox="0 0 155 123" fill="none" xmlns="http://www.w3.org/2000/svg">
<path fill-rule="evenodd" clip-rule="evenodd" d="M102.87 12.4019C104.483 12.6987 106.347 13.1953 107.012 13.5056C108.028 13.9798 109.021 13.8874 113.227 12.9254C121.63 11.0033 127.987 11.7664 133.417 15.3497C140.25 19.8598 142.427 26.9035 139.761 35.8792C139.117 38.0508 137.872 40.6138 136.534 42.528L134.355 45.643L136.073 46.3279C139.824 47.8236 143.622 53.1862 144.517 58.251C146.029 66.8151 142.571 79.9975 135.279 93.4625C133.207 97.2866 125.565 109.975 124.416 110.886L115.981 112.374C115.981 112.374 116.417 111.182 116.634 110.89L123.738 109.637C124.207 108.901 125.534 106.671 126.729 105.122C132.724 97.3535 138.99 85.1451 141.783 75.7945C144.631 66.2614 144.66 58.95 141.873 53.4547C140.889 51.5166 139.68 49.9304 138.435 48.945L136.514 47.4246L137.547 49.0889C138.884 51.2428 139.7 55.932 139.418 59.8432C138.908 66.9265 133.802 80.9055 127.446 92.6179C125.479 96.2442 124.695 98.2415 124.587 99.901C124.296 104.404 122.619 107.294 119.737 108.265C118.668 108.624 117.395 109.866 116.634 110.89C116.417 111.182 115.981 112.374 115.981 112.374C115.093 112.53 115.128 111.775 116.15 110.212L116.902 109.062L114.781 108.652C113.614 108.427 111.873 107.852 110.911 107.374L109.162 106.504L108.044 110.237C107.429 112.29 106.707 114.009 106.439 114.056C106.17 114.103 105.994 113.976 106.046 113.773C106.098 113.57 106.658 111.749 107.289 109.726L108.436 106.049L106.956 105.208C105.695 104.492 105.046 104.46 102.565 104.993L99.6543 105.618L98.7127 110.163C97.7577 114.772 97.5222 115.491 97.0695 115.174C96.9312 115.076 97.1447 113.47 97.5447 111.604C98.8657 105.442 98.9816 105.8 95.9641 106.712C91.8652 107.951 86.9858 110.238 82.9371 112.819C80.8913 114.123 78.5251 115.312 77.6796 115.461C75.8242 115.789 73.8595 114.57 73.0989 112.619C72.4407 110.932 73.7551 108.399 75.9408 107.143C76.7498 106.678 77.3848 106.145 77.3521 105.96C77.2355 105.3 71.0156 102.353 66.9725 101.042C56.7377 97.7225 46.805 98.8456 36.5891 104.477C31.0325 107.54 26.4884 111.571 22.4544 117.015C20.6294 119.479 18.9861 121.326 18.8028 121.121C18.2969 120.554 23.8199 113.338 27.0931 110.29C28.6841 108.808 31.6318 106.512 33.6434 105.187C37.1578 102.872 44.5661 99.5886 47.4042 99.0882C48.7374 98.8531 49.4363 97.7195 48.7342 96.9316C48.2294 96.365 41.1893 97.754 37.5705 99.1346C34.2261 100.41 30.4862 102.498 26.5282 105.3C23.5772 107.388 22.4716 107.557 20.549 106.209C17.6609 104.186 18.3219 101.413 22.4181 98.3729C29.4726 93.1368 40.6511 89.4015 48.5067 89.6551L51.4333 89.749L53.3215 84.6842C58.815 69.9488 66.4037 59.1619 73.9352 55.3822L75.7681 54.4622L75.2987 51.8046C74.6739 48.2671 75.2726 45.4978 77.9364 39.6035C80.1018 34.8112 80.7012 32.2265 79.8639 31.2872C79.6367 31.0321 79.1491 30.1086 78.7806 29.2347C76.7309 24.374 80.615 18.6738 86.4123 18.0346C88.5497 17.7992 88.9694 17.5781 90.347 15.962C93.0734 12.764 97.6929 11.4508 102.87 12.4019ZM111.658 16.1444C110.66 15.317 110.348 14.8038 110.665 14.5111C111.433 13.8024 119.127 12.6896 122.379 12.8174C128.931 13.0742 133.007 15.2123 135.118 19.5011C137.144 23.6163 136.715 29.5465 133.994 35.0681L132.682 37.728L131.981 35.5907C131.596 34.4151 130.607 32.743 129.783 31.8746C128.542 30.5653 128.345 30.1159 128.631 29.2416C128.83 28.6337 128.67 26.8846 128.251 25.1078C127.656 22.58 127.22 21.7223 125.816 20.323C123.253 17.7677 120.059 16.6729 116.253 17.0448C113.45 17.3181 112.956 17.2214 111.658 16.1444ZM80.78 34.9322C81.9261 31.1393 83.5517 28.5001 86.4211 25.7741C87.3016 24.9379 88.1846 24.2248 88.3831 24.1898C88.7064 24.1328 89.9734 25.9015 90.0927 26.5769C90.2139 27.2633 93.1524 29.5324 94.443 29.936C96.2162 30.4904 99.1633 30.0464 98.9995 29.2496C98.9351 28.9381 98.4992 28.2217 98.0306 27.6581C97.562 27.0946 97.1196 26.3417 97.0473 25.9851C96.9753 25.6284 97.6748 26.3402 98.6015 27.5673C100.458 30.024 103.143 31.6878 105.323 31.732C107.636 31.7787 107.92 31.105 106.438 29.0893C105.538 27.8636 105.183 26.9445 105.258 26.029C105.361 24.7663 105.399 24.7892 106.346 26.6765C108.13 30.2356 113.244 33.4347 116.29 32.8976L117.427 32.697L116.391 35.286C115.139 38.4105 115.437 42.8098 117.103 45.8005C117.662 46.8031 117.957 47.7685 117.759 47.9448C117.561 48.1212 117.45 48.5543 117.513 48.907C117.6 49.3992 117.965 49.2582 119.081 48.303C120.359 47.2081 120.76 47.0839 122.395 47.2759C124.825 47.5609 126.457 49.0423 126.861 51.3284C127.288 53.748 126.591 55.708 124.866 56.9341C122.321 58.7439 119.481 58.7546 117.42 56.9633C116.793 56.4178 116.497 56.3492 116.563 56.7651C116.785 58.1467 111.88 62.0202 107.592 63.8496C96.6022 68.539 84.5203 65.9929 78.6881 57.7586C75.2685 52.9308 75.076 46.7318 78.1755 41.2659C78.989 39.8319 80.1608 36.9818 80.78 34.9322ZM134.244 36.5804C137.03 31.2158 138.068 24.5831 136.717 20.7873C135.942 18.6104 136.328 18.5141 137.658 20.5533C141.254 26.0657 140.541 35.025 135.971 41.7593C133.937 44.7557 132.008 46.1237 132.435 44.2668C132.543 43.7952 132.697 42.4455 132.777 41.2674C132.857 40.0893 133.517 37.9803 134.244 36.5804ZM112.943 30.191C112.646 30.2473 112.239 30.1107 112.04 29.8873C111.591 29.3829 111.749 29.3551 112.723 29.7669C113.18 29.9598 113.268 30.129 112.943 30.191ZM114.765 30.1978C114.46 30.3874 114.064 30.4403 113.886 30.3156C113.709 30.191 113.958 30.036 114.442 29.971C114.976 29.8994 115.103 29.9883 114.765 30.1978ZM117.149 30.2375C116.858 30.4194 116.346 30.5097 116.011 30.4382C115.675 30.3672 115.914 30.2185 116.54 30.1081C117.166 29.9977 117.44 30.0561 117.149 30.2375ZM118.455 43.1837C118.021 41.2145 118.616 38.8473 119.775 37.9367C120.211 37.5933 120.736 37.2915 120.942 37.2656C121.148 37.2395 120.833 37.6038 120.242 38.0752C119.064 39.0136 118.552 40.767 118.723 43.2774L118.834 44.9028L118.455 43.1837ZM51.8307 91.4934C57.3276 75.0629 64.2549 63.1712 71.3217 58.0367C74.2225 55.9293 76.3483 55.0887 76.507 55.9875C76.5714 56.3521 77.2778 57.5227 78.0765 58.5892L79.5288 60.5273L78.242 60.7542C71.7331 61.9019 62.2893 74.3525 56.8435 88.9647C56.5277 89.812 56.2426 90.5805 55.9839 91.2776L55.9832 91.2796C53.9882 96.6563 53.5688 97.7867 52.8027 98.1169C52.5987 98.2048 52.3702 98.2359 52.0809 98.2754C51.9399 98.2946 51.7846 98.3158 51.6105 98.3465C50.5993 98.5248 49.7465 98.5163 49.7156 98.3282C49.6843 98.1401 50.6364 95.0642 51.8307 91.4934ZM128.679 50.8048L130.378 48.4488C131.312 47.153 132.234 46.0644 132.428 46.0302C133.018 45.9263 135.5 47.9719 136.649 49.5076C138.051 51.3817 138.864 55.9073 138.533 59.9922C138.192 64.1973 135.658 72.8114 132.791 79.5089C130.605 84.6159 125.315 95.2194 124.917 95.2895C124.823 95.3062 124.455 92.8766 124.099 89.8907C123.006 80.706 120.61 75.6776 115.535 71.9177C114.056 70.8222 111.991 69.6623 110.946 69.3399C110.9 69.3257 110.855 69.3119 110.811 69.2982C109.297 68.8312 108.769 68.6684 108.752 68.4631C108.743 68.3532 108.88 68.2311 109.09 68.0437C109.101 68.0337 109.113 68.0234 109.125 68.0129C109.477 67.6979 110.143 67.7055 110.904 68.0328C112.751 68.8257 115.876 68.1788 117.264 66.7159L118.427 65.4896L119.545 66.2728C120.318 66.815 121.447 66.9836 123.211 66.8215C125.568 66.6047 125.846 66.4641 126.9 64.9557C127.666 63.8595 127.961 62.8738 127.798 61.9508C127.566 60.6387 127.628 60.5761 129.173 60.5551C130.538 60.5368 130.97 60.2779 131.933 58.9002C132.622 57.915 132.991 56.7957 132.865 56.0784C132.581 54.4741 131.141 52.3262 129.788 51.49L128.679 50.8048ZM61.0964 81.3733C65.0873 73.2529 71.0011 65.5941 75.289 62.9935C78.1541 61.2561 80.2386 61.1329 81.9634 62.5991L83.4186 63.836L80.4306 64.2026C78.3948 64.4526 76.838 64.9315 75.5468 65.7052C72.4159 67.5807 65.7731 75.7538 60.3988 84.3433C57.9496 88.2574 58.1656 87.3377 61.0964 81.3733ZM64.1255 80.2903C67.3566 75.2875 73.5003 68.0314 75.702 66.6182C76.5483 66.0747 78.0981 65.4791 79.1454 65.2944L81.0496 64.9587L79.2987 66.7416C76.5812 69.509 71.8397 76.7688 68.9912 82.5241C67.5691 85.3977 66.2487 87.7763 66.057 87.8101C65.5953 87.8915 61.4973 85.3099 61.4233 84.891C61.3915 84.711 62.6077 82.6407 64.1255 80.2903ZM74.8119 74.0745C76.1268 72.0718 78.1441 69.3997 79.2943 68.1363C80.4445 66.8732 81.572 65.8083 81.7996 65.7705C82.0277 65.7327 83.3547 66.5471 84.7495 67.5804C89.5005 71.0996 95.7982 72.1264 102.229 70.4309L105.751 69.5021L105.093 71.1605C104.731 72.0726 103.87 74.6104 103.18 76.7999L101.924 80.7808L101.791 78.3808C101.63 75.4866 100.59 74.4146 98.7361 75.2294C96.7985 76.0805 96.1394 77.5135 96.398 80.312C96.6285 82.8025 96.5995 82.8748 95.4091 82.7891C93.0058 82.617 90.4489 83.2685 89.3043 84.3454C88.3007 85.2903 88.2312 85.6174 88.7136 87.1334C89.0841 88.298 89.085 89.0582 88.7167 89.493C88.1028 90.2173 88.2686 91.7854 89.0497 92.6431C89.3647 92.9888 89.4355 93.5464 89.2296 94.0579C88.9283 94.8056 88.3051 94.6796 83.7461 92.9518C80.9176 91.8795 76.2104 90.1553 73.2861 89.1201C70.3622 88.0849 67.9417 87.1164 67.9079 86.9677C67.7806 86.4117 72.5105 77.5791 74.8119 74.0745ZM88.6004 68.8587C87.5958 68.3013 87.521 68.1115 87.9183 67.126C88.1638 66.5169 88.4729 66.0235 88.6058 66.0292C88.7384 66.0354 90.1678 66.3426 91.7826 66.7125C93.9987 67.2203 95.8016 67.2496 99.1361 66.8323L103.554 66.2798L103.14 69.642L99.2078 70.0928C95.1687 70.5564 90.7293 70.0398 88.6004 68.8587ZM103.856 77.7713C104.565 75.2853 105.57 72.3631 106.09 71.2784C106.61 70.1932 107.19 69.2883 107.378 69.2673C108.464 69.1449 112.668 70.924 114.765 72.3928C119.064 75.406 121.607 80.1266 122.925 87.5436L123.514 90.8568L121.539 90.251C118.652 89.3657 113.546 89.212 110.439 89.9163C106.911 90.7165 106.268 90.4242 105.442 87.6454C105.072 86.3991 104.274 84.6849 103.668 83.8358L102.567 82.2925L103.856 77.7713ZM97.3293 80.8372C97.0104 79.032 97.1171 78.2937 97.8481 77.2488C99.5175 74.8608 100.462 75.4485 101.11 79.2795C101.435 81.2025 102.125 83.1469 103.07 84.8082C103.873 86.2176 104.789 88.1186 105.108 89.032C105.58 90.3895 106.176 90.9321 108.36 91.9981C112.644 94.0879 113.449 94.3467 116.957 94.7611C121.016 95.2406 123.514 96.176 123.711 97.2899C123.938 98.5774 123.334 103.119 122.755 104.47C121.481 107.443 117.578 108.628 113.256 107.353C111.656 106.882 108.841 105.357 106.337 103.606L102.117 100.655L103.427 99.0924C104.148 98.2326 104.556 97.399 104.333 97.24C104.11 97.0805 103.512 97.5074 103.004 98.1877C101.296 100.474 96.0446 101.15 92.9373 99.4829C90.801 98.3369 90.9222 97.3728 93.2045 97.3567C94.3539 97.3486 95.049 97.1668 94.9998 96.8879C94.9555 96.6372 94.0611 96.4382 93.0121 96.4456C91.6138 96.4553 90.9153 96.1823 90.3932 95.4223C89.5268 94.1615 90.1959 93.3273 92.0294 93.3832C92.6804 93.4033 93.6907 93.432 94.2746 93.447C94.8585 93.462 95.2996 93.269 95.2553 93.0184C95.211 92.7677 94.5905 92.5453 93.8768 92.5241C89.8932 92.4055 89.7378 92.3497 89.4897 90.9451L89.2512 89.5947L92.111 89.1722C96.5028 88.5233 95.5517 87.7934 90.6174 88.0262C89.6326 88.0725 89.0948 85.9181 89.8645 85.0103C90.6889 84.0369 94.207 83.511 96.8261 83.9693C98.6478 84.2882 99.5869 83.8496 98.2358 83.311C97.958 83.2002 97.55 82.0869 97.3293 80.8372ZM54.4223 98.0425C54.1675 97.8999 55.3541 95.378 58.0777 90.2744C59.3335 87.9208 60.4831 85.9793 60.6315 85.9607C60.7803 85.942 61.65 86.4 62.5635 86.9786C63.4775 87.5572 64.6107 88.1647 65.082 88.3293C65.8356 88.5926 65.667 89.2196 63.6727 93.564C62.4267 96.2782 61.311 98.5159 61.194 98.5365C60.8161 98.6031 54.6156 98.1508 54.4223 98.0425ZM22.5525 99.3041C25.6607 96.9971 29.6414 94.914 34.1877 93.2157C38.2351 91.704 45.4223 90.3611 48.8826 90.47L51.0978 90.5394L49.6257 95.6418L43.8631 96.6796C37.3364 97.8548 34.4201 99.0289 29.1066 102.62C23.6268 106.322 22.7812 106.641 21.1947 105.601C18.686 103.958 19.1442 101.834 22.5525 99.3041ZM62.4276 98.5511C62.4088 98.4445 63.4792 96.0437 64.8061 93.2161C66.1336 90.3884 67.3585 88.0543 67.5287 88.029C68.2492 87.9217 89.3051 95.8914 89.8746 96.4866C90.1073 96.7303 90.3981 97.4808 90.5213 98.1546C90.6441 98.8284 90.9963 99.4802 91.3039 99.6027C92.0691 99.9076 91.0895 100.768 89.6832 101.025C89.0883 101.134 86.3483 102.163 83.5948 103.313L78.5884 105.402L76.937 104.481C73.5931 102.618 69.3659 100.812 65.9587 99.7919C64.0358 99.2159 62.4464 98.6573 62.4276 98.5511ZM117.237 93.8842C114.264 93.5476 109.148 91.9274 109.035 91.2861C108.941 90.7565 114.439 90.1936 117.375 90.4321C121.961 90.8045 123.146 91.432 123.547 93.7007L123.873 95.5502L122.234 94.9069C121.332 94.5532 119.084 94.0929 117.237 93.8842ZM73.7639 111.094C73.8841 109.401 77.7896 106.727 83.8799 104.169C90.0143 101.592 93.5509 100.689 95.7508 101.14C96.6884 101.331 98.3384 101.345 99.4173 101.169C100.967 100.917 101.657 101.072 102.702 101.909C103.43 102.491 104.055 103.097 104.091 103.254C104.127 103.411 102.592 103.957 100.682 104.467C92.3311 106.697 87.4273 108.833 80.5656 113.228C78.4124 114.607 77.6417 114.896 76.7349 114.661C75.0571 114.226 73.6605 112.55 73.7639 111.094Z" fill="black"/>
<path d="M107.219 42.8758C108.35 43.7554 108.547 44.7922 107.789 45.877C106.974 47.0414 105.151 47.2711 104.393 46.3052C103.502 45.1708 103.493 44.6794 104.344 43.4632C105.274 42.1322 106.057 41.972 107.219 42.8758Z" fill="black"/>
<path d="M88.1694 39.7048C89.0885 40.8755 89.1158 41.6706 88.2739 42.7551C87.2489 44.0755 85.2848 43.9101 84.6312 42.4481C83.6497 40.2541 86.7271 37.8683 88.1694 39.7048Z" fill="black"/>
<path d="M110.107 34.7614C111.452 35.7827 112.124 37.3917 111.268 37.5427C111.012 37.5879 110.514 37.1432 110.163 36.5543C109.473 35.3981 107.48 34.7801 106.445 35.4018C106.038 35.6466 105.758 35.5203 105.675 35.0545C105.449 33.7734 108.536 33.5693 110.107 34.7614Z" fill="black"/>
<path d="M90.6175 30.6139C91.3569 31.132 91.8675 31.7925 91.7524 32.082C91.6276 32.3959 91.0105 32.2039 90.2205 31.604C89.0678 30.7292 88.6728 30.6804 87.1439 31.2249C85.4031 31.8449 84.5358 31.3737 85.9034 30.5517C87.3779 29.6653 89.2999 29.6906 90.6175 30.6139Z" fill="black"/>
<path d="M95.0683 42.1201C95.4035 42.1916 95.7263 42.5224 95.7851 42.8556C95.87 43.3364 95.5984 43.4064 94.4739 43.194C92.7671 42.8717 91.727 43.8038 92.0095 45.403C92.2111 46.5447 93.0318 47.1505 94.3943 47.164C94.8906 47.1691 95.4376 47.435 95.6105 47.7546C95.8439 48.1857 95.632 48.3016 94.7896 48.2029C92.4039 47.9234 91.388 47.2007 91.1015 45.5791C90.704 43.3286 92.6732 41.6115 95.0683 42.1201Z" fill="black"/>
<path fill-rule="evenodd" clip-rule="evenodd" d="M90.5618 49.8761C93.4653 51.25 97.0907 51.475 100.316 50.4809C102.23 49.8907 102.869 49.8766 103.71 50.4056C107.127 52.5542 102.88 58.2897 97.1188 59.3055C91.5546 60.2866 86.6305 57.4804 85.815 52.8631C85.4835 50.9863 86.3581 48.9527 87.5623 48.8006C87.8779 48.7609 89.2277 49.2447 90.5618 49.8761ZM101.122 51.8089C101.58 54.3706 92.4542 55.1508 90.1922 52.7436C88.4953 50.9379 89.1879 50.4999 92.2841 51.4212C94.5162 52.0855 95.8321 52.1725 98.1021 51.8052C99.8198 51.5272 101.071 51.5288 101.122 51.8089ZM91.816 58.2949C91.0101 58.0301 90.9244 57.8666 91.3752 57.4553C92.3125 56.6002 94.5496 56.4374 96.8846 57.0544C98.9748 57.6069 99.0448 57.674 98.1203 58.2318C97.0909 58.8523 93.6197 58.8867 91.816 58.2949Z" fill="black"/>
<path d="M83.4773 72.8553C85.0645 74.8631 88.6907 76.6957 91.0045 76.6589C93.5637 76.6184 94.1667 77.4351 91.6538 77.5384C90.5892 77.5823 88.6908 77.2361 87.4356 76.7694C85.1748 75.9293 81.9028 73.2448 81.6934 72.0589C81.4994 70.9605 82.241 71.2917 83.4773 72.8553Z" fill="black"/>
<path d="M141.783 75.7945C138.99 85.1451 132.724 97.3535 126.729 105.122C125.534 106.671 124.207 108.901 123.738 109.637L116.634 110.89C117.395 109.866 118.668 108.624 119.737 108.265C122.619 107.294 124.296 104.404 124.587 99.901C124.695 98.2415 125.479 96.2442 127.446 92.6179C133.802 80.9055 138.908 66.9265 139.418 59.8432C139.7 55.932 138.884 51.2428 137.547 49.0889L136.514 47.4246L138.435 48.945C139.68 49.9304 140.889 51.5166 141.873 53.4547C144.66 58.95 144.631 66.2614 141.783 75.7945Z" fill="black"/>
<path fill-rule="evenodd" clip-rule="evenodd" d="M82.1128 5.32257C82.6613 5.78838 82.7101 6.06457 82.3543 6.68983C81.7806 7.69752 80.7333 7.87937 80.2392 7.05668C79.8568 6.42058 80.418 4.91649 81.0814 4.79951C81.2704 4.76619 81.7345 5.00157 82.1128 5.32257ZM106.442 2.17984C106.662 3.42497 106.834 3.54831 108.054 3.33314C108.805 3.20066 109.456 3.29736 109.501 3.54803C109.545 3.79869 108.966 4.11217 108.215 4.24465C107.001 4.45877 106.876 4.63728 107.091 5.85277C107.223 6.60477 107.127 7.25617 106.877 7.30032C106.626 7.34448 106.313 6.76534 106.18 6.01335C105.976 4.85892 105.761 4.67731 104.8 4.8468C104.174 4.95719 103.626 4.84243 103.581 4.59176C103.537 4.3411 104.013 4.04569 104.639 3.93529C105.543 3.776 105.737 3.50487 105.581 2.62207C105.473 2.01 105.567 1.34675 105.79 1.14763C106.026 0.936298 106.298 1.36632 106.442 2.17984ZM126.728 0.604324C127.557 1.18517 127.92 3.2388 127.34 4.06806C125.96 6.0423 122.587 4.20727 123.204 1.81744C123.548 0.48373 125.566 -0.210441 126.728 0.604324ZM124.084 2.2713C123.86 3.42884 125.423 4.37875 126.276 3.60335C127.237 2.72995 127.233 2.05308 126.261 1.37236C125.306 0.702899 124.308 1.11474 124.084 2.2713ZM67.6429 29.7267C67.7502 30.3342 68.1076 30.5846 68.7146 30.4776C69.2154 30.3893 69.6615 30.5221 69.7057 30.7728C69.75 31.0234 69.4001 31.2966 68.9288 31.3797C68.443 31.4654 68.0029 32.0016 67.9138 32.6161L67.7562 33.7013L67.3733 32.7114C67.1347 32.0941 66.6604 31.7797 66.1117 31.8764C65.6286 31.9616 65.1967 31.8263 65.1524 31.5756C65.1081 31.325 65.4817 31.0476 65.9826 30.9593C66.5895 30.8523 66.8395 30.4948 66.7322 29.8872C66.6437 29.3859 66.7761 28.9396 67.0266 28.8954C67.277 28.8513 67.5543 29.2253 67.6429 29.7267ZM136.717 20.7873C138.068 24.5831 137.03 31.2158 134.244 36.5804C133.517 37.9803 132.857 40.0893 132.777 41.2674C132.697 42.4455 132.543 43.7952 132.435 44.2668C132.008 46.1237 133.937 44.7557 135.971 41.7593C140.541 35.025 141.254 26.0657 137.658 20.5533C136.328 18.5141 135.942 18.6104 136.717 20.7873ZM112.04 29.8873C112.239 30.1107 112.646 30.2473 112.943 30.191C113.268 30.129 113.18 29.9598 112.723 29.7669C111.749 29.3551 111.591 29.3829 112.04 29.8873ZM113.886 30.3156C114.064 30.4403 114.46 30.3874 114.765 30.1978C115.103 29.9883 114.976 29.8994 114.442 29.971C113.958 30.036 113.709 30.191 113.886 30.3156ZM116.011 30.4382C116.346 30.5097 116.858 30.4194 117.149 30.2375C117.44 30.0561 117.166 29.9977 116.54 30.1081C115.914 30.2185 115.675 30.3672 116.011 30.4382ZM154.166 31.0124C155.171 31.7161 155.263 33.4579 154.334 34.188C152.566 35.5787 150.428 34.081 151.129 31.9419C151.496 30.8184 153.162 30.3088 154.166 31.0124ZM151.858 32.8599C151.843 33.8334 153.269 34.2366 153.84 33.4197C154.412 32.6027 153.545 31.3993 152.636 31.7465C152.215 31.9073 151.865 32.4085 151.858 32.8599ZM152.092 46.675C152.378 47.2064 152.895 47.5908 153.242 47.5297C153.588 47.4687 153.908 47.6237 153.952 47.8744C153.996 48.1251 153.749 48.3802 153.403 48.4412C153.056 48.5023 152.702 49.0404 152.616 49.6374L152.458 50.7226L152.075 49.7327C151.837 49.1155 151.362 48.8011 150.813 48.8978C150.33 48.983 149.898 48.8477 149.854 48.597C149.81 48.3463 150.169 48.0715 150.652 47.9863C151.201 47.8895 151.539 47.4319 151.552 46.7703L151.572 45.7093L152.092 46.675ZM50.6295 71.9077C51.4614 72.6144 51.1636 73.9879 50.1391 74.1686C49.692 74.2474 49.139 74.0009 48.9108 73.6206C48.5038 72.9432 48.9772 71.5538 49.6561 71.4341C49.8451 71.4007 50.2832 71.6139 50.6295 71.9077ZM42.7837 80.3723C42.8475 80.7337 42.7172 81.1919 42.4941 81.391C42.2711 81.5901 42.0139 81.3305 41.9228 80.8145C41.8317 80.2986 41.9619 79.84 42.2124 79.7959C42.4628 79.7517 42.7199 80.0109 42.7837 80.3723ZM44.5763 82.0497C44.2713 82.2393 43.8755 82.2922 43.6976 82.1676C43.5197 82.0429 43.7693 81.888 44.2527 81.823C44.787 81.7513 44.914 81.8403 44.5763 82.0497ZM41.416 82.5971C41.1251 82.7791 40.6129 82.8694 40.2777 82.7978C39.9421 82.7268 40.1802 82.5782 40.8063 82.4678C41.4323 82.3574 41.7065 82.4157 41.416 82.5971ZM43.0935 83.5378C43.3678 83.9528 43.4868 84.4431 43.3587 84.6269C42.9777 85.1711 42.49 84.5869 42.5445 83.651C42.5923 82.8216 42.6168 82.8168 43.0935 83.5378ZM3.61625 104.621C4.30376 104.96 4.53811 105.422 4.47433 106.319C4.36006 107.926 2.92738 108.682 1.58952 107.841C0.316594 107.04 0.185668 106.366 1.07914 105.215C1.92667 104.122 2.38478 104.015 3.61625 104.621ZM1.4738 105.822C1.13018 106.686 2.87978 107.73 3.40754 106.975C3.64256 106.639 3.65469 106.064 3.43458 105.698C2.97435 104.932 1.79821 105.006 1.4738 105.822ZM14.8733 110.291C15.5066 110.735 15.56 112.108 14.9576 112.47C14.1025 112.984 13.1164 112.42 13.1317 111.425C13.1456 110.517 14.2084 109.825 14.8733 110.291ZM57.6062 105.81C57.643 106.019 57.229 106.365 56.6857 106.58C56.1425 106.795 54.613 107.405 53.2865 107.936C49.5635 109.426 42.9295 114.486 39.2838 118.616C37.4888 120.65 35.9109 122.237 35.7769 122.143C35.2941 121.805 40.3389 115.909 43.413 113.219C45.1413 111.707 47.8817 109.729 49.5022 108.824C52.8004 106.981 57.5041 105.232 57.6062 105.81Z" fill="black"/>
<path d="M123.276 50.3049C123.611 50.3764 123.945 50.766 124.016 51.1712C124.117 51.7445 124.003 51.8079 123.503 51.4576C123.15 51.2098 122.357 51.0957 121.742 51.2041C120.715 51.3853 120.692 51.4555 121.465 52.0754C122.513 52.9156 123.434 54.6655 122.88 54.7632C122.652 54.8033 122.142 54.3645 121.747 53.7881C121.036 52.7531 120.021 52.4762 120.177 53.3599C120.221 53.6106 120.053 53.8518 119.802 53.896C119.034 54.0315 119.064 52.6685 119.855 51.5369C120.568 50.5179 121.944 50.0219 123.276 50.3049Z" fill="black"/>
<path d="M119.775 37.9367C118.616 38.8473 118.021 41.2145 118.455 43.1837L118.834 44.9028L118.723 43.2774C118.552 40.767 119.064 39.0136 120.242 38.0752C120.833 37.6038 121.148 37.2395 120.942 37.2656C120.736 37.2915 120.211 37.5933 119.775 37.9367Z" fill="black"/>
<path d="M26.282 19.3037C26.6666 18.9073 27.2997 18.8977 27.6961 19.2822C28.0925 19.6667 28.1021 20.2999 27.7176 20.6963L18.9861 29.6963C18.7978 29.8903 18.5387 30 18.2683 30C17.9981 29.9998 17.7397 29.8901 17.5515 29.6963L14.282 26.3261C13.8977 25.9297 13.9072 25.2966 14.3035 24.9121C14.6751 24.5518 15.2546 24.5381 15.6424 24.8642L15.7176 24.9336L18.2683 27.5634L26.282 19.3037Z" fill="black"/>
<path fill-rule="evenodd" clip-rule="evenodd" d="M21.9832 2.99997C23.1142 2.99997 24.2846 3.13735 25.283 3.43454L25.699 3.57126L25.7078 3.57419L36.7303 7.68845C38.2294 8.24672 39.5377 9.38194 40.4656 10.7177C41.3933 12.0534 41.9997 13.6733 41.9998 15.2705V31.6191C41.9997 33.1166 41.5099 34.774 40.7683 36.2422C40.0266 37.7107 38.9819 39.0919 37.7752 39.9902L28.2762 47.0508C26.5149 48.3693 24.234 49 21.9998 49C19.7655 49 17.4837 48.3703 15.7224 47.0517L6.22537 39.9902C5.01861 39.0919 3.97299 37.7107 3.23123 36.2422C2.48972 34.774 1.99983 33.1166 1.99979 31.6191V15.2705C1.99989 13.6828 2.60765 12.0683 3.53494 10.7363C4.40455 9.48724 5.60711 8.41177 6.98905 7.82224L7.26834 7.71091L18.2908 3.57517L18.2928 3.57419C19.3553 3.17895 20.692 2.99998 21.9832 2.99997ZM21.9832 4.99997C20.8452 4.99998 19.763 5.16086 18.992 5.44724L7.96854 9.58396L7.96659 9.58493C6.92495 9.97282 5.92242 10.8076 5.17655 11.8789C4.4305 12.9505 3.99989 14.1741 3.99979 15.2705V31.6191C3.99983 32.7178 4.37163 34.0642 5.01639 35.3408C5.66088 36.6167 6.52691 37.7219 7.41873 38.3857L16.9187 45.4482L16.9217 45.4502C18.2754 46.4636 20.1139 47 21.9998 47C23.8857 47 25.7241 46.4636 27.0779 45.4502L27.0808 45.4482L36.5808 38.3857L36.7478 38.2558C37.5801 37.5828 38.379 36.5369 38.9832 35.3408C39.6279 34.0642 39.9997 32.7178 39.9998 31.6191V15.2705C39.9997 14.1616 39.5676 12.9327 38.8221 11.8593C38.0764 10.7859 37.0745 9.95129 36.033 9.56345L25.0164 5.45114C24.2184 5.16136 23.1209 4.99997 21.9832 4.99997Z" fill="black"/>
</svg>
