<svg width="20" height="20" viewBox="0 0 20 20" fill="none" xmlns="http://www.w3.org/2000/svg">
<path d="M0.461218 15.859C0.573029 15.859 0.698812 15.859 0.838573 15.859C1.6492 15.859 2.33403 15.6777 2.89308 15.315C3.42418 14.9523 3.81552 14.4361 4.06709 13.7665C4.29071 13.0969 4.40252 12.3018 4.40252 11.3811C4.40252 11.2695 4.40252 11.1579 4.40252 11.0463C4.37456 10.851 4.36059 10.6557 4.36059 10.4604C4.36059 10.293 4.34661 10.1255 4.31866 9.95815H0L0 0.5L8.21803 0.5V11.2137C8.21803 13.1667 7.89658 14.7988 7.25367 16.1101C6.61076 17.4493 5.78616 18.3421 4.77988 18.7885C3.74563 19.2628 2.72537 19.5 1.71908 19.5C1.18798 19.5 0.614954 19.4442 0 19.3326L0.461218 15.859ZM12.2432 15.859C12.355 15.859 12.4808 15.859 12.6205 15.859C13.4312 15.859 14.116 15.6777 14.6751 15.315C15.2062 14.9523 15.5975 14.4361 15.8491 13.7665C16.0727 13.0969 16.1845 12.3018 16.1845 11.3811C16.1845 11.2695 16.1845 11.1579 16.1845 11.0463C16.1565 10.851 16.1426 10.6557 16.1426 10.4604C16.1426 10.293 16.1286 10.1255 16.1006 9.95815L11.782 9.95815V0.5H20L20 11.2137C20 13.1667 19.6785 14.7988 19.0356 16.1101C18.3927 17.4493 17.5681 18.3421 16.5618 18.7885C15.5276 19.2628 14.5073 19.5 13.501 19.5C12.97 19.5 12.3969 19.4442 11.782 19.3326L12.2432 15.859Z" fill="#BB0708"/>
</svg>
