<svg width="215" height="153" viewBox="0 0 215 153" fill="none" xmlns="http://www.w3.org/2000/svg">
<path fill-rule="evenodd" clip-rule="evenodd" d="M119.383 0.0940065C119.705 0.127688 120.79 0.308099 121.795 0.49468C128.692 1.7759 135.084 5.92403 138.839 11.5556C140.747 14.4162 142.055 17.8073 142.551 21.1738C142.896 23.514 142.804 28.0593 142.374 29.9796C140.662 37.6179 135.63 43.9731 128.495 47.505C124.385 49.5402 121.389 50.3049 116.958 50.4504C111.955 50.6147 108.256 49.8702 103.852 47.8125L102.115 47.0009L98.9356 48.2693C93.6548 50.3761 92.4625 50.686 91.9602 50.0824C91.512 49.5439 91.8875 48.5593 93.5992 45.7847C94.5166 44.2978 95.3869 42.8443 95.5332 42.555L95.7994 42.0288L94.8401 40.8866C92.1657 37.7024 90.3686 34.024 89.4261 29.8055C88.867 27.3031 88.8678 22.8745 89.4278 20.2527C90.436 15.5322 92.4336 11.7435 95.6935 8.36825C100.064 3.84296 105.294 1.19265 111.736 0.238903C113.34 0.00130001 117.711 -0.0815694 119.383 0.0940065ZM110.951 1.14313C105.596 2.05919 100.585 4.59845 96.7957 8.31606C94.7338 10.3389 93.3368 12.2399 92.207 14.5601C90.521 18.0229 89.9672 20.2681 89.8382 24.1637C89.6174 30.8363 91.2762 35.2552 96.3781 41.5861C96.6956 41.9803 96.6947 41.9896 96.253 42.8386C96.0082 43.309 95.2167 44.6441 94.4938 45.8053C92.9604 48.2687 92.4369 49.2519 92.5819 49.3965C92.9139 49.7278 94.6316 49.1937 99.2016 47.3384L102.178 46.1301L103.883 46.9751C113.564 51.7717 125.525 50.2448 133.727 43.1653C137.676 39.756 140.512 34.9027 141.649 29.6066C142.172 27.1707 142.166 22.8202 141.636 20.3212C140.928 16.9815 139.94 14.6128 138.096 11.8314C136.885 10.0055 134.259 7.28278 132.402 5.92769C126.385 1.53746 118.684 -0.180112 110.951 1.14313ZM72.757 8.31673C77.3915 8.67088 80.6841 10.5165 82.2237 13.6232C82.8274 14.8414 82.849 14.9463 82.849 16.657C82.849 18.4084 82.8406 18.4456 82.1324 19.8711L81.4159 21.313L81.7087 22.6929C81.899 23.5893 82.0036 24.8324 82.0073 26.2405C82.0133 28.5105 81.7821 29.8665 81.2756 30.532C81.0253 30.8608 81.0046 31.1439 81.1133 32.7433C81.2798 35.191 81.1641 42.8498 80.9307 44.8318C80.2876 50.2939 79.1876 53.2206 76.9133 55.521C75.89 56.5559 75.367 56.9309 74.0708 57.5588C72.5476 58.2968 70.5661 58.8379 69.3875 58.8379H68.87L68.9207 59.6969L68.96 61.0087L69.9126 61.5C71.5303 62.159 72.9196 63 72.9196 63C72.9196 63 75.4536 64.207 76.1664 64.4601C76.7152 64.6551 78.067 65.1298 79.1705 65.5149C88.5693 68.796 93.9682 72.8548 97.4323 79.2439C98.3006 80.8452 99.8676 84.3287 100.165 85.3182C100.354 85.9464 100.656 86.2737 100.656 85.8496C100.656 85.4899 101.192 85.7223 102.443 86.6242C103.864 87.6483 106.276 88.8655 108.515 89.6882C110.397 90.3799 112.904 91.0445 113.052 90.8909C113.211 90.7263 113.673 88.3657 113.64 87.8864C113.619 87.5713 113.779 87.4382 114.57 87.1153C116.12 86.4827 118.712 84.649 122.381 81.5907C126.032 78.5474 129.018 75.614 129.578 74.5205C129.961 73.7708 130.011 73.1719 129.716 72.8773C129.194 72.3566 128.364 72.7739 125.524 74.986C124.349 75.9009 123.013 76.889 122.556 77.1818C121.938 77.577 121.724 77.8169 121.724 78.1135C121.724 78.9688 121.212 78.4874 120.395 76.8625C119.421 74.9287 118.149 72.7446 117.015 71.059C116.57 70.3982 116.206 69.7386 116.206 69.5929C116.206 69.4473 116.536 68.9749 116.94 68.5432C118.832 66.5197 121.598 63.1881 121.899 62.5698C122.427 61.4869 121.969 60.6575 120.98 60.9051C120.326 61.0687 118.168 62.7921 115.283 65.4537C113.81 66.813 111.984 68.445 111.224 69.0806L109.843 70.236L110.422 70.8314C111.193 71.6227 112.145 73.2299 112.456 74.2612C112.984 76.0145 112.632 80.023 111.926 80.2932C111.503 80.4549 111.471 80.232 111.753 79.1101C112.13 77.6142 112.105 75.6366 111.693 74.3062C111.338 73.1582 110.721 72.1833 109.643 71.0647L108.972 70.3692L109.267 67.5718C109.436 65.9591 109.52 64.2856 109.464 63.6201C109.349 62.2539 108.8 61.0332 108.138 60.6725C107.728 60.4491 107.629 60.4496 107.219 60.6768C106.694 60.968 106.667 61.0448 105.694 65.0906C105.319 66.6496 104.67 69.0131 104.252 70.3429C103.071 74.0961 102.943 75.1656 103.06 80.2638C103.166 84.8383 103.019 86.4331 102.491 86.4331C102.197 86.4331 102.184 85.7533 102.45 84.2655C102.571 83.5874 102.575 82.9697 102.463 82.348C102.218 80.9833 102.229 76.1445 102.48 74.428C102.601 73.6026 103.025 71.8769 103.421 70.593C104.444 67.2795 104.919 65.5456 105.431 63.2565C105.677 62.156 105.982 61.0538 106.109 60.8072C106.908 59.2504 108.787 59.6017 109.645 61.4684C110.197 62.6712 110.314 64.436 110.023 67.2078C109.908 68.3001 109.843 69.222 109.878 69.2569C109.913 69.2917 111.257 68.1207 112.865 66.6546C119.188 60.8889 120.116 60.1718 121.254 60.1718C121.77 60.1718 122.03 60.2845 122.426 60.68C122.882 61.1344 122.927 61.2679 122.85 61.9431C122.74 62.9165 122.172 63.724 119.226 67.0915C117.275 69.3217 116.929 69.7961 117.115 69.9845C117.302 70.1731 117.775 69.9429 120.027 68.5673C123.164 66.6506 125.5 65.1996 126.607 64.4793C127.062 64.1839 127.706 63.9324 128.13 63.8847C128.772 63.8125 128.937 63.8657 129.425 64.3004C130.095 64.8975 130.153 65.6642 129.599 66.6007C129.162 67.3397 129.162 67.3416 129.651 67.3416C130.219 67.3416 130.92 68.2181 130.92 68.9276C130.92 69.7256 130.671 70.278 129.896 71.2016C129.405 71.7865 129.292 72.0102 129.491 72.0102C130.024 72.0102 130.585 72.7787 130.585 73.5099C130.585 75.212 128.576 77.4296 122.472 82.4624C118.981 85.3408 117.507 86.405 115.735 87.3242C114.657 87.8838 114.366 88.1117 114.364 88.4008C114.362 88.6024 114.224 89.3104 114.057 89.974C113.783 91.0633 113.779 91.1872 114.018 91.2516C114.164 91.2907 114.678 91.412 115.161 91.5208C115.645 91.6297 116.07 91.7685 116.108 91.8288C116.145 91.8893 116.032 92.8384 115.857 93.9381C115.681 95.0375 115.31 97.3629 115.031 99.1053C112.984 111.885 110.675 118.808 107.097 122.889C105.268 124.974 102.878 126.461 100.568 126.949C99.9081 127.088 98.5097 127.196 97.346 127.198L95.2897 127.201L95.3396 138.08C95.3834 147.662 95.3593 148.96 95.1384 148.96C94.9214 148.96 94.8717 148.028 94.7701 142.041C94.4042 120.486 94.2822 114.62 94.1367 111.611C93.7105 102.784 93.3967 98.3291 92.78 92.3524C92.4421 89.0768 91.5081 81.7658 91.381 81.4015C91.2909 81.1429 91.6726 80.8345 91.9004 80.9819C92.2274 81.1935 93.3477 90.0312 93.9636 97.2578C94.1506 99.4514 94.3347 101.277 94.3726 101.315C94.5092 101.451 95.4399 99.1948 98.2255 91.9725C99.6987 88.1527 99.9915 87.2467 99.8957 86.8036C99.7106 85.9484 98.5438 83.1049 97.4859 80.9308C94.4668 74.7267 90.4372 71.0673 83.0078 67.7834C81.5291 67.1298 77.9234 65.7704 76.7461 65.4227L73.6713 64.5C74.8536 65.8159 78.3074 71.0954 79.6853 73.5L79.12 74.1778C79.0801 74.1778 78.6051 74.5342 78.0645 74.9699C77.5239 75.4055 77.0835 75.7994 77.0855 75.8452C77.0877 75.8911 77.7645 76.7398 78.5898 77.7312C79.4556 78.7713 80.0901 79.6857 80.0901 79.893C80.0901 80.1968 77.2295 90.9374 76.9666 91.6206C76.8963 91.8036 77.1061 91.8522 77.9675 91.8522H79.0575L79.3037 93.0866C79.4776 93.7112 80.2741 93.6863 81.1823 93.6863H82.0917L86.3427 93.7325C87.1216 93.741 87.6514 94.5259 87.368 95.2515C87.2882 95.7353 86.9363 98.3313 84.2687 118.114C82.49 131.305 81.4191 138.744 81.2546 139.05C81.0344 139.461 79.7942 139.592 76.8906 139.513L74.5231 139.448L74.6407 144.147C74.727 147.601 74.7076 148.877 74.5671 148.964C74.4621 149.028 74.308 149.013 74.2245 148.93C74.1411 148.847 74.016 146.681 73.9465 144.117L73.82 139.456L60.0282 139.411C48.7603 139.374 46.1951 139.324 46.0119 139.142C45.8243 138.955 45.8585 138.389 46.2222 135.685C46.4613 133.908 46.7013 132.209 46.7554 131.911L46.8541 131.369L44.7035 131.367C43.5209 131.366 42.2812 131.321 41.9489 131.266C41.409 131.177 41.3335 131.21 41.2417 131.574C41.0961 132.153 40.4935 132.867 39.9887 133.058C39.1133 133.39 36.1093 133.716 33.0057 133.816L29.8119 133.919L29.6817 139.522C29.4911 147.731 29.4105 148.944 29.0515 149.012C29.0011 149.022 28.9577 149.033 28.921 149.022C28.6978 148.954 28.7249 148.064 28.9404 140.996L28.9535 140.568C28.969 140.061 28.9838 139.59 28.9975 139.155L28.9977 139.15C29.1261 135.08 29.159 134.036 28.7244 133.779C28.5744 133.69 28.3687 133.695 28.092 133.702C28.006 133.704 27.9131 133.706 27.8129 133.706C25.3787 133.699 20.3976 132.778 18.3893 131.965C16.8761 131.351 14.7015 129.841 13.6252 128.657C12.5007 127.419 11.3474 125.184 10.8513 123.282C10.3035 121.183 10.2428 117.301 10.6908 113.028C11.7549 102.876 13.76 92.7212 16.0712 85.7792C18.4024 78.7775 21.3426 74.3559 25.5205 71.5691C27.9964 69.9175 32.6152 67.6967 39.1673 65.0077C39.8801 64.7153 40.4631 64.4043 40.4631 64.3167L44.6431 62.7069C44.6431 62.7829 45.0006 62.6687 45.4374 62.4528C45.8741 62.237 46.8524 61.8147 47.611 61.5142C48.9582 60.9808 48.9904 60.9548 48.9904 60.4052V59.8425C48.9904 59.8425 48.9772 56.6192 48.9449 51.4907L48.9068 45.4641L47.6474 45.0062C45.0311 44.0552 43.5098 42.5645 42.7049 40.1632C42.3036 38.9658 42.3006 36.719 42.6989 35.6169L42.9862 34.8223L42.3965 33.0032C41.6019 30.5522 41.2991 28.6824 41.2991 26.2273C41.2991 23.7961 41.7188 22.1824 42.7752 20.5525C43.8958 18.8236 46.0769 17.3044 48.1544 16.8059C48.9045 16.626 49.2814 16.393 50.1976 15.543C53.1576 12.7973 58.381 10.1393 62.9156 9.07122C65.9276 8.36191 69.6324 8.07779 72.757 8.31673ZM125.551 9.23546C128.771 10.1387 130.791 12.5082 131.271 15.9454C131.633 18.5418 130.836 23.3989 128.844 30.7424C127.756 34.752 127.426 35.6612 126.592 36.9361C125.788 38.1661 124.131 39.7401 123.194 40.1645C122.397 40.525 121.324 40.5895 120.606 40.3199C119.319 39.8368 118.121 37.977 117.617 35.6786C117.098 33.311 116.716 32.1844 116.345 31.9253C115.572 31.3852 115.001 32.2506 114.595 34.5774C114.135 37.2205 113.58 38.5855 112.584 39.529C112.007 40.0756 111.042 40.4966 110.366 40.4966C109.447 40.4966 108.05 39.8388 107.065 38.9425C105.117 37.1707 104.353 35.5003 102.936 29.9087C100.364 19.7563 100.066 15.9554 101.605 12.9272C102.895 10.3883 105.985 8.84896 109.434 9.02637C110.678 9.09023 111.375 9.25113 113.452 9.95427C115.084 10.5065 116.111 10.7705 116.378 10.7068C116.605 10.6527 117.732 10.2712 118.881 9.85906C120.784 9.1766 121.136 9.10373 122.81 9.04621C124.114 9.00136 124.912 9.05638 125.551 9.23546ZM121.488 9.90808C121.037 9.96511 119.779 10.3431 118.694 10.7479C117.609 11.1528 116.436 11.4826 116.087 11.4808C115.739 11.4789 114.814 11.2455 114.032 10.9619C111.455 10.027 110.505 9.80737 108.987 9.79636C106.584 9.77902 104.645 10.5115 103.302 11.944C102.296 13.0159 101.927 13.7629 101.56 15.4635C101.294 16.6965 101.283 17.0753 101.459 18.8268C101.799 22.2171 103.839 31.1521 105.01 34.3765C106.042 37.2196 108.148 39.446 109.971 39.6206C112.013 39.8163 113.111 38.4049 113.783 34.7186C114.15 32.7049 114.321 32.2236 114.903 31.5618C115.552 30.8251 116.279 30.7861 116.921 31.4534C117.45 32.0045 117.749 32.802 118.131 34.6785C118.68 37.384 119.56 38.9648 120.828 39.5239C121.412 39.7817 121.674 39.813 122.15 39.6821C123.099 39.4207 124.135 38.7354 124.954 37.8273C126.427 36.1931 127.006 34.766 128.468 29.1584C129.417 25.5185 130.097 22.2939 130.411 19.9341C131.054 15.1155 129.871 12.0233 126.824 10.562C125.09 9.73034 123.974 9.59361 121.488 9.90808ZM27.8353 19.6503C31.9555 23.7606 33.2996 25.1972 33.1573 25.3391C33.0152 25.4808 32.8803 25.4681 32.6234 25.2887C32.0576 24.8936 21.9872 14.6138 21.9872 14.4314C21.9872 14.3388 22.0627 14.238 22.155 14.2073C22.2475 14.1766 24.8035 16.626 27.8353 19.6503ZM175.654 17.4638C177.372 18.509 177.681 20.5322 176.328 21.8819C174.934 23.272 172.507 22.8555 171.701 21.0881C171.296 20.1969 171.304 19.5891 171.733 18.7042C172.401 17.3285 174.394 16.6978 175.654 17.4638ZM173.087 18.158C171.995 18.8214 171.794 20.2921 172.654 21.3118C173.825 22.6994 176.129 22.0578 176.469 20.2494C176.801 18.4876 174.691 17.1829 173.087 18.158ZM55.6787 20.6964C55.6789 20.7192 55.7917 21.3759 55.9293 22.1554C56.5722 25.7953 55.8267 30.2142 54.1207 32.8735C53.8039 33.3675 53.3542 33.9211 53.1215 34.1035L52.6986 34.4353L54.7738 37.5712C55.9151 39.2959 56.849 40.7723 56.849 40.852C56.849 41.0922 62.0593 41.0147 63.9912 40.7457C64.9829 40.6077 66.6596 40.2709 67.7171 39.9971C68.7747 39.7235 70.1541 39.3703 70.7823 39.2122C72.0014 38.9056 72.0457 38.8322 71.6407 37.7885C71.5668 37.598 71.6228 37.4618 71.8034 37.3928C72.1572 37.2574 72.1952 37.3022 72.5401 38.2638C72.7901 38.9608 72.9059 39.085 73.4079 39.1956C76.5806 39.8934 78.9741 40.3297 79.6303 40.3299H80.4246L80.4229 36.3698C80.4205 31.1884 80.0718 27.2577 79.3227 23.9738L79.0657 22.8467L78.2745 23.243C77.2684 23.7469 76.415 23.935 74.1738 24.1467C70.738 24.4714 66.5638 23.7937 60.3602 21.9043C56.3385 20.6794 55.6777 20.5088 55.6787 20.6964ZM156 26.7285V28.158H157.421C158.731 28.158 158.843 28.1841 158.843 28.4914C158.843 28.7987 158.731 28.8249 157.421 28.8249H156V30.2544C156 31.5263 155.968 31.6777 155.708 31.6271C155.457 31.5786 155.415 31.3724 155.415 30.1973V28.8244L154.023 28.8246C152.788 28.8249 152.638 28.7921 152.688 28.5331C152.734 28.2905 152.961 28.2332 154.031 28.1928L155.318 28.1441L155.367 26.7774C155.407 25.6309 155.462 25.4014 155.708 25.3548C155.968 25.3051 156 25.457 156 26.7285ZM196.495 39.2584C203.053 45.8264 208.418 51.2806 208.418 51.3787C208.418 51.4767 208.311 51.5928 208.179 51.6364C207.922 51.7218 184.279 28.0656 184.265 27.7093C184.261 27.6001 184.328 27.467 184.415 27.4136C184.502 27.3601 189.938 32.6904 196.495 39.2584ZM18.3219 27.6404C19.1267 28.0051 19.6564 28.6247 19.9237 29.5144C20.4559 31.2858 18.5674 33.284 16.6945 32.931C13.9265 32.4095 13.42 28.7884 15.9547 27.6404C16.3299 27.4707 16.8624 27.3316 17.1383 27.3316C17.4142 27.3316 17.9467 27.4707 18.3219 27.6404ZM16.4385 28.1691C14.8784 28.7586 14.4988 30.579 15.6973 31.724C16.734 32.7144 18.4883 32.3846 19.0787 31.0886C19.2489 30.7147 19.3899 30.2577 19.3919 30.0728C19.398 29.5004 18.8116 28.6152 18.2147 28.2959C17.5638 27.9477 17.11 27.9154 16.4385 28.1691ZM78.0001 29.9692C78.7549 30.3117 79.1679 30.7272 79.0087 30.984C78.9398 31.0949 78.6579 31.0329 78.2205 30.8103C76.8312 30.1035 75.1165 30.224 74.07 31.1022C73.2934 31.7539 72.8713 31.2245 73.6134 30.5293C74.5571 29.6451 76.6862 29.3733 78.0001 29.9692ZM65.3882 30.4883C66.1371 30.8831 66.4457 31.2468 66.3167 31.5823C66.2307 31.8057 66.113 31.7822 65.4892 31.4175C64.1957 30.6617 61.8649 30.9725 61.1454 31.9968C60.8657 32.3951 60.3602 32.3534 60.3602 31.9321C60.3602 31.6185 61.4445 30.6779 62.1401 30.3881C62.9437 30.0533 64.6637 30.1063 65.3882 30.4883ZM45.3584 33.5173C44.4549 33.9778 43.5908 35.1061 43.2897 36.2186C42.9768 37.3751 43.1694 39.5937 43.6789 40.6997C44.4908 42.4623 46.0135 43.7352 48.2128 44.4897C48.9023 44.7263 49.1688 44.7548 49.3185 44.6082C49.4686 44.4612 49.583 44.4992 49.7965 44.767C49.9509 44.9606 50.9156 46.1986 51.9404 47.5182C54.6748 51.0397 54.9104 51.291 55.2294 51.0268C55.8919 50.4786 56.3358 48.0996 56.4641 44.4088L56.5629 41.5679L54.2588 38.1206C52.2609 35.131 51.915 34.6945 51.6541 34.8337C51.1213 35.1181 50.7407 35.0073 50.1518 34.3965C48.7819 32.975 47.047 32.6569 45.3584 33.5173ZM77.1072 34.3025C77.5724 34.717 77.6487 34.904 77.702 35.7614C77.7704 36.8597 77.5741 37.3668 76.8822 37.879C76.4811 38.176 76.3757 38.188 75.8996 37.9912C75.3102 37.7478 74.7497 36.7517 74.7433 35.9365C74.7358 34.9597 75.5604 33.8271 76.2791 33.8271C76.4411 33.8271 76.8136 34.041 77.1072 34.3025ZM64.504 34.7543C65.036 35.1258 65.3763 35.87 65.3763 36.6616C65.3763 38.3871 63.9364 39.2988 62.9876 38.1741C62.1899 37.2289 62.2707 35.5228 63.1457 34.8365C63.6683 34.4263 64.0054 34.406 64.504 34.7543ZM48.0549 36.0347C48.5761 36.5769 48.8653 37.0892 49.1509 37.9747C49.6253 39.4457 49.6858 40.3796 49.3118 40.4561C49.1078 40.4978 48.9669 40.1817 48.6888 39.0583C48.2977 37.4788 47.7092 36.4225 47.0542 36.1251C46.5827 35.9108 46.5754 35.4459 47.042 35.3564C47.233 35.3197 47.6115 35.5732 48.0549 36.0347ZM168.965 37.5592C170.761 37.852 172.326 38.3792 174.129 39.2989C176.547 40.5326 179.518 43.6015 180.392 45.7702C180.575 46.2218 180.703 46.303 181.35 46.3757C183.278 46.5924 186.091 48.77 187.216 50.9178C188.282 52.9517 188.581 55.6568 187.944 57.4975L187.629 58.4082L188.1 58.9429C188.67 59.5905 189.193 60.932 189.451 62.4101C189.608 63.3105 189.699 63.5066 189.961 63.5066C190.413 63.5066 193.666 64.2811 194.959 64.6963C198.374 65.7939 201.409 69.0581 202.222 72.5105C202.73 74.6671 202.449 78.0153 201.548 80.5409C198.983 87.7267 193.552 92.0171 186.647 92.3134L184.772 92.3939L184.321 93.5414C184.073 94.1725 183.9 94.7076 183.938 94.7304C183.976 94.7534 184.533 94.948 185.177 95.1631C192.541 97.6225 196.869 101.901 199.199 109.026C202.017 117.643 201.584 131.207 198.055 144.823C197.204 148.107 196.919 148.877 196.555 148.877C196.196 148.877 196.214 148.762 196.97 146.126C198.547 140.626 199.69 134.075 200.152 127.893C200.377 124.87 200.277 117.986 199.975 115.779C199.001 108.661 196.384 103.021 192.605 99.898C190.569 98.2147 187.699 96.7714 184.759 95.9521C179.184 94.3986 176.011 93.5882 173.563 93.0935C171.957 92.7689 170.61 92.4711 170.571 92.4319C170.532 92.3925 170.594 92.246 170.711 92.1063C170.893 91.8878 170.849 91.8522 170.4 91.8522C169.892 91.8522 169.878 91.8728 169.878 92.6077C169.878 93.0704 169.959 93.3855 170.087 93.4207C170.202 93.4522 171.043 93.6789 171.957 93.9246C175.853 94.972 180.804 97.1668 183.485 99.0353C189.17 102.996 192.002 108.395 193.228 117.613C193.65 120.781 193.658 131.152 193.242 134.454C192.196 142.752 189.849 146.904 185.13 148.805C182.592 149.827 180.027 150.208 174.894 150.326C170.333 150.43 166.912 150.251 161.267 149.614C155.539 148.968 155.469 148.964 154.879 149.268C154.593 149.416 153.694 149.734 152.881 149.977C151.584 150.363 150.981 150.432 147.975 150.538L144.547 150.657L141.159 151.772C137.05 153.122 136.508 153.218 135.684 152.733C135.352 152.538 134.818 152.378 134.497 152.378C133.592 152.378 132.94 151.951 132.569 151.116C132.308 150.526 132.157 150.377 131.824 150.377C131.31 150.377 130.645 149.695 130.495 149.013C130.434 148.735 130.19 148.135 129.952 147.678C129.553 146.911 129.536 146.791 129.723 146.092C130.159 144.466 131.439 142.855 133.511 141.322L134.849 140.333L135.135 138.311C135.292 137.198 135.423 136.194 135.427 136.08C135.431 135.966 134.981 136.205 134.426 136.612C133.133 137.561 131.897 138.14 130.284 138.552C128.895 138.907 126.317 139.041 125.048 138.824L124.276 138.692L122.979 143.868C121.854 148.362 121.642 149.044 121.369 149.044C121.195 149.044 121.055 148.927 121.055 148.782C121.055 148.639 121.624 146.267 122.319 143.512C123.014 140.757 123.56 138.493 123.531 138.479C121.278 137.44 120.014 136.221 119.056 134.164C118.107 132.125 117.838 130.742 117.751 127.451C117.666 124.242 117.877 121.985 118.811 116.087L119.397 112.394L118.726 111.36C117.598 109.619 116.902 107.438 116.758 105.191C116.688 104.101 116.73 103.625 116.938 103.128C117.106 102.729 117.209 102.01 117.209 101.244C117.209 99.9038 117.364 99.4728 118.318 98.1659C118.628 97.7409 118.881 97.3232 118.881 97.2375C118.881 97.1518 118.998 96.6884 119.141 96.2077C119.675 94.4176 121.391 93.1907 123.366 93.1877C124.476 93.1861 126.502 93.7558 127.54 94.3619C127.942 94.5963 128.107 94.627 128.157 94.4763C128.194 94.3627 128.257 93.0693 128.297 91.602C128.353 89.543 128.442 88.7336 128.686 88.055C129.314 86.3126 130.524 85.3605 132.12 85.353C133.027 85.3487 133.327 85.5801 133.802 86.6497C134.113 87.351 134.114 87.4264 133.838 89.0665C133.462 91.2962 133.575 92.8343 134.333 95.815C134.666 97.1234 134.985 98.6421 135.043 99.19L135.147 100.186L136.851 98.5494C139.398 96.103 141.832 94.5943 145.34 93.2879C147.262 92.572 150.124 91.8537 151.068 91.8502C152.333 91.8453 152.412 91.7786 152.349 90.7675L152.292 89.8663L151.345 89.5983C147.8 88.5947 144.813 86.8693 142.589 84.541C139.634 81.4486 138.281 78.1417 138.281 74.0111C138.281 71.5405 138.706 69.6752 139.823 67.2497C140.946 64.8091 141.592 62.3727 141.318 61.6064C140.402 59.0385 140.87 54.4772 142.352 51.5426L142.951 50.3566L142.419 49.2227C141.979 48.285 141.875 47.8325 141.816 46.6046C141.728 44.7748 141.973 43.5998 142.754 42.107C143.98 39.7618 146.298 38.1056 149.135 37.5464C151.077 37.1637 153.349 37.411 155.728 38.2637C156.66 38.5975 157.61 38.8719 157.839 38.8736C158.069 38.8753 158.718 38.6795 159.28 38.4386C159.842 38.1976 160.858 37.8792 161.537 37.7309C163.19 37.3701 167.232 37.2767 168.965 37.5592ZM70.0576 40.1645C66.066 41.3051 62.1727 41.8636 58.7718 41.7829L57.267 41.7472L57.1621 44.6651C57.0264 48.4442 56.495 50.9917 55.6454 51.9372C55.3299 52.2882 55.3334 52.2939 56.5385 53.4065C58.7863 55.4819 60.9934 56.7545 63.8482 57.6212C65.1232 58.0084 65.587 58.0609 67.8008 58.0696C70.686 58.0807 71.8781 57.8455 73.9036 56.865C74.7948 56.4337 75.4982 55.9196 76.3348 55.0886C78.1003 53.3345 79.0714 51.2466 79.7479 47.7506C80.1204 45.8256 80.5192 41.6501 80.368 41.2573C80.294 41.0647 80.0273 40.9968 79.3456 40.9968C78.5099 40.9968 74.2151 40.2187 72.984 39.8442C72.1905 39.6027 71.9198 39.6324 70.0576 40.1645ZM29.3411 42.488C29.4991 42.9842 29.2836 43.5268 28.9537 43.4634C28.7577 43.4259 28.6753 43.2385 28.6753 42.831C28.6753 42.1603 29.1577 41.9119 29.3411 42.488ZM27.1935 44.9152C27.3351 45.2832 27.0447 45.5393 26.5627 45.4713C26.2973 45.4338 26.1672 45.3057 26.1672 45.0819C26.1672 44.6463 27.0358 44.5052 27.1935 44.9152ZM31.8164 44.935C32.1501 45.268 31.9125 45.517 31.3087 45.4671C30.5209 45.4021 30.4291 44.9399 31.1893 44.8657C31.4686 44.8383 31.7507 44.8697 31.8164 44.935ZM49.6544 54.0356L49.641 61.9696L50.1665 63.3287C50.5339 64.2782 50.8766 64.857 51.3043 65.2495C52.4216 66.2749 64.9565 76.8397 65.0593 76.8427C65.1822 76.8463 69.4226 70.6698 70.2847 69.2315C70.6236 68.6661 71.2827 67.4068 71.7492 66.4328L71.768 66.3936C72.3011 65.2808 72.5255 64.8123 72.3952 64.4839C72.3004 64.2452 72.018 64.0805 71.5303 63.796L71.5068 63.7824C70.9926 63.4826 69.2638 62.8396 68.9715 62.8396C68.9591 62.8396 68.9539 63.5711 68.96 64.4653C68.9705 65.9836 68.9491 66.091 68.6368 66.091C68.3141 66.091 68.3008 65.965 68.2574 62.4885L68.2124 58.8861L66.5854 58.7912C63.7849 58.628 60.755 57.5176 58.205 55.7205C56.3318 54.4005 53.788 51.7935 53.8413 51.2488C53.8535 51.1245 49.78 45.9898 49.7181 46.0515C49.6905 46.079 49.6619 49.6719 49.6544 54.0356ZM29.2511 46.7382C29.5598 47.109 29.4068 47.7498 29.0097 47.7498C28.7744 47.7498 28.6604 47.6219 28.625 47.3186C28.5602 46.7628 28.9619 46.3905 29.2511 46.7382ZM13.4285 54.7503C19.9267 61.2826 20.7234 62.1398 20.4822 62.3396C20.2422 62.5382 19.8547 62.2118 17.1998 59.5759C15.5442 57.932 12.224 54.5744 9.82182 52.1145C6.44182 48.6535 5.50832 47.6077 5.69475 47.49C5.82735 47.4064 5.97333 47.3489 6.0193 47.3621C6.06528 47.3753 9.39946 50.7 13.4285 54.7503ZM147.048 50.8389C146.644 51.1166 146.13 51.5856 145.908 51.881C144.666 53.5293 143.106 57.6667 142.374 61.2556C141.681 64.6517 141.487 65.3033 140.598 67.2223C139.587 69.4048 139.124 71.1038 138.997 73.094C138.727 77.3502 140.122 80.9938 143.209 84.0986C144.833 85.732 146.009 86.5785 147.975 87.5313C152.988 89.9607 158.52 90.3297 163.583 88.5722C166.433 87.5831 168.318 86.4575 170.936 84.1822C171.804 83.4277 173.361 81.3303 173.878 80.2176C174.26 79.3944 174.716 79.0913 174.966 79.4941C175.12 79.7436 176.445 80.3002 177.172 80.4214C177.552 80.4846 178.342 80.4494 178.928 80.3435C182.962 79.614 185.571 75.8484 184.76 71.9255C184.515 70.7364 184.266 70.2206 183.545 69.4016C181.902 67.5353 178.671 67.533 176.377 69.3963L176.236 69.5106C175.279 70.2889 175.008 70.5086 174.818 70.4534C174.743 70.4318 174.681 70.3676 174.594 70.2782L174.561 70.2448C173.817 69.4875 172.263 63.9639 171.806 60.4551C171.497 58.0781 171.493 57.5582 171.776 56.2118C171.897 55.6387 171.98 55.1696 171.961 55.1696C171.942 55.1696 171.597 55.3534 171.194 55.578C168.896 56.8587 165.583 56.7825 164.384 55.4216C163.782 54.7374 163.612 53.9988 163.768 52.7498C163.831 52.2465 163.845 51.8349 163.799 51.8349C163.753 51.8349 163.248 52.1447 162.676 52.5235C160.624 53.8822 158.441 54.5139 155.78 54.5182C153.96 54.5214 152.07 54.1397 150.864 53.5259C149.887 53.0292 148.577 51.7788 148.231 51.0135C148.062 50.6398 147.892 50.3342 147.854 50.3342C147.815 50.3342 147.453 50.5613 147.048 50.8389ZM199.795 56.6094C200.544 57.5585 199.881 58.8379 198.64 58.8379C198.086 58.8379 197.467 58.1089 197.467 57.4573C197.467 56.2584 199.061 55.678 199.795 56.6094ZM150.389 56.7438C151.09 57.0016 151.85 57.5045 151.932 57.7643C151.96 57.8503 151.91 58.0334 151.822 58.1709C151.69 58.3772 151.61 58.3839 151.365 58.2091C150.071 57.2865 148.324 57.0728 146.995 57.6744C146.066 58.0947 145.933 58.0887 145.998 57.629C146.123 56.7507 148.892 56.1926 150.389 56.7438ZM92.6947 61.82C96.056 65.1746 96.5887 65.8409 95.9096 65.8409C95.6007 65.8409 88.5777 58.7068 88.656 58.4726C88.6922 58.364 88.7931 58.2515 88.8798 58.2226C88.9666 58.1938 90.6833 59.8126 92.6947 61.82ZM165.578 59.3454C166.531 59.581 167.08 59.913 167.759 60.6617C168.354 61.319 168.537 61.8852 168.218 62.0821C168.132 62.1348 167.746 61.8415 167.36 61.4303C166.434 60.4452 165.529 60.1043 164.159 60.2242C163.58 60.275 162.899 60.3677 162.647 60.4302C162.251 60.5281 162.187 60.4934 162.187 60.1828C162.187 59.5199 164.237 59.0136 165.578 59.3454ZM46.6327 62.7316C45.4926 63.2223 44.1568 63.8277 43.6645 64.077L42.7695 64.53L42.8671 65.2271C42.9208 65.6106 43.1268 67.7251 43.3248 69.926C43.5229 72.127 43.7443 73.9661 43.8168 74.0131C43.8896 74.0601 45.392 74.3182 47.1559 74.5867C49.0986 74.8823 50.3934 75.1541 50.4402 75.276C50.4829 75.3867 50.0236 76.5094 49.4196 77.7707C48.8157 79.0321 48.3216 80.1277 48.3216 80.2054C48.3216 80.283 50.4476 82.7666 53.0461 85.7242C55.6444 88.682 58.2215 91.6441 58.7728 92.3067C59.4667 93.1409 59.8907 93.5127 60.1512 93.5155C60.4855 93.519 60.5274 93.437 60.5274 92.7791C60.5274 92.3717 60.6202 91.9814 60.7334 91.9115C60.8468 91.8418 61.4628 91.7436 62.1025 91.6933L63.2654 91.602L57.3153 79.847C51.9009 69.1502 49.7295 64.6027 49.1543 62.7562C48.9408 62.0708 48.8398 61.8392 48.7547 61.8392C48.7279 61.8392 47.773 62.2407 46.6327 62.7316ZM148.774 63.4334C150.105 64.3628 149.868 67.2572 148.404 67.9533C147.24 68.5067 146.289 67.678 146.168 66.0055C146.023 64.0191 147.511 62.5512 148.774 63.4334ZM189.555 65.7159C189.499 66.5641 189.332 67.7084 189.185 68.2586C188.787 69.7468 187.274 72.7737 186.292 74.0468C185.817 74.6624 185.427 75.2626 185.426 75.3807C185.423 75.7764 184.581 77.4067 183.957 78.2264C183.616 78.673 182.902 79.3291 182.37 79.6846L181.402 80.3307L181.839 80.6161C182.079 80.7732 182.495 81.2834 182.763 81.75C183.357 82.7822 183.429 84.1997 182.942 85.2691C182.497 86.2461 181.232 87.4219 179.949 88.051C178.904 88.5636 178.714 88.6007 177.128 88.6007H175.427L175.087 89.4019C175.061 89.4644 175.036 89.5224 175.012 89.5762C174.897 89.8398 174.826 90.0032 174.874 90.1152C174.953 90.298 175.35 90.3441 176.395 90.4655C176.525 90.4807 176.666 90.497 176.817 90.5149C177.737 90.6238 180.069 90.9376 182 91.2121C185.925 91.77 187.419 91.7633 189.729 91.1779C192.361 90.5107 195.262 88.7757 197.103 86.7661C199.849 83.77 201.808 78.8745 201.813 74.9965C201.814 73.5973 201.307 71.6129 200.609 70.2905C199.891 68.9289 197.718 66.7713 196.321 66.0317C195.396 65.5421 190.766 64.2019 189.925 64.1804C189.705 64.1747 189.639 64.4503 189.555 65.7159ZM126.907 65.1713C126.493 65.4356 124.684 66.5484 122.887 67.6439C121.09 68.7395 119.193 69.9077 118.673 70.2398L117.726 70.8436L118.589 72.2188C119.064 72.9753 119.47 73.6214 119.492 73.6546C119.514 73.6878 119.856 73.4549 120.251 73.1371C120.647 72.8191 121.573 72.1595 122.309 71.6711C124.303 70.3474 126.665 68.5598 127.779 67.5321C129.258 66.1664 129.607 65.2798 128.872 64.7608C128.405 64.4315 127.9 64.5368 126.907 65.1713ZM72.9623 65.9008C73.4408 67.8226 74.1239 75.5968 74.3927 82.1813C74.578 86.7181 74.7366 90.9466 74.7385 91.3936C74.7395 91.6266 74.8861 91.6854 75.4667 91.6854H76.1935L77.7481 85.9746C78.603 82.8338 79.3311 80.1864 79.3658 80.0919C79.4006 79.9974 78.7786 79.1345 77.9839 78.1744L77.6274 77.7445C76.46 76.3378 76.1007 75.9048 76.1921 75.6118C76.2327 75.4815 76.3625 75.3788 76.55 75.2306C76.5902 75.1988 76.6331 75.1648 76.6784 75.1281C77.0375 74.8366 77.6254 74.3276 77.9849 73.9971L78.6387 73.3963L77.7781 71.7663C76.657 69.6426 75.3366 67.6805 74.1546 66.382C73.614 65.788 73.2378 65.4795 73.0535 65.4674C72.9215 65.4587 72.8878 65.6019 72.9623 65.9008ZM42.2449 65.5732C42.2326 65.5628 42.2174 65.5641 42.1984 65.576L39.6271 65.7307C39.6271 65.6273 37.6363 66.4187 34.4438 67.7911C25.8748 71.4748 22.7407 73.826 19.871 78.7236C16.5026 84.4728 13.5767 95.6995 11.7997 109.693C10.9048 116.741 10.8398 120.117 11.543 123.028C12.7982 128.224 16.631 131.396 22.9068 132.433C27.1054 133.126 32.947 133.314 36.8754 132.882L38.8892 132.661L37.9519 131.723C34.6795 128.45 34.5881 120.444 37.7818 116.826L38.4495 116.069L37.9097 115.96C36.268 115.628 29.3158 114.532 28.2136 114.433C26.9049 114.315 26.3888 114.061 26.7923 113.735C26.9374 113.618 27.6933 113.651 29.2138 113.841L31.4246 114.118L31.5102 113.698C31.5572 113.467 31.9062 110.915 32.2857 108.026C33.7432 96.9314 33.8457 96.2707 34.1115 96.2707C34.2548 96.2707 34.3816 96.4543 34.4107 96.7041C34.4384 96.9425 33.9673 100.844 33.3636 105.374C32.7599 109.905 32.2481 113.757 32.2263 113.934C32.1902 114.227 32.473 114.306 35.2945 114.785L35.5004 114.82C38.6329 115.352 39.1787 115.444 39.2732 115.702C39.2931 115.756 39.2929 115.818 39.2927 115.892L39.2927 115.916C39.2927 116.125 39.2024 116.386 39.092 116.496C38.9817 116.606 38.9628 116.695 39.0502 116.694C39.386 116.69 40.6375 115.859 42.9813 114.085C45.6358 112.075 47.0032 111.331 48.7761 110.932L49.9304 110.672L50.199 108.723C50.3465 107.652 50.4424 106.75 50.412 106.72C50.3815 106.69 50.2047 106.746 50.0189 106.845C49.1374 107.316 48.1512 106.835 47.8963 105.81C47.6985 105.015 48.1631 104.691 49.5001 104.691C50.2473 104.691 50.6536 104.621 50.7064 104.483C50.7502 104.368 50.9584 103.054 51.1691 101.563L51.552 98.8523L51.7366 96.9377L51.9211 95.6428C52.0226 94.9306 52.18 94.2739 52.271 94.1832C52.6987 93.7566 54.4544 93.5032 56.6393 93.5527C57.8585 93.5804 58.837 93.5517 58.8139 93.489C58.7907 93.4265 56.2323 90.4861 53.1287 86.955C50.0249 83.4239 47.4856 80.4282 47.4856 80.2982C47.4856 80.1679 47.9436 79.1068 48.5032 77.94C49.063 76.7731 49.491 75.7887 49.4546 75.7524C49.4181 75.716 48.0145 75.4692 46.3352 75.204C44.6562 74.9387 43.2183 74.6556 43.1398 74.5749C42.9984 74.4291 42.3072 67.5118 42.297 66.1397C42.2943 65.781 42.2868 65.6086 42.2449 65.5732ZM164.607 66.3868C166.213 67.9882 164.846 71.4295 162.878 70.7394C162.64 70.6558 162.275 70.2887 162.068 69.9233C161.128 68.2678 162.098 65.8409 163.7 65.8409C163.898 65.8409 164.306 66.0865 164.607 66.3868ZM126.489 69.6137C125.293 70.4943 123.318 71.8874 122.1 72.7094C120.881 73.5316 119.884 74.2419 119.884 74.2881C119.884 74.3343 120.204 74.9847 120.595 75.7338L121.335 77.153C121.457 77.3896 127.62 72.4413 128.936 71.0493C130.151 69.7653 130.433 69.0608 129.998 68.398C129.499 67.6387 128.879 67.8531 126.489 69.6137ZM153.492 68.9057C154.595 69.1482 155.21 69.4601 155.115 69.7289C155.032 69.9625 154.877 69.9469 153.636 69.578C152.735 69.3101 152.664 69.3116 152.05 69.6119C150.754 70.2448 150.231 71.8502 151.026 72.7517C151.233 72.9865 151.816 73.3166 152.322 73.4855C152.828 73.6546 153.224 73.8607 153.203 73.9436C153.143 74.1762 151.83 74.2222 151.315 74.0098C149.638 73.3168 149.324 71.1239 150.681 69.5824C151.085 69.124 152.067 68.7175 152.466 68.7797C152.475 68.7811 152.499 68.7825 152.536 68.7846C152.694 68.7935 153.083 68.8155 153.492 68.9057ZM181.582 70.9316C181.582 71.0722 181.488 71.2134 181.373 71.2454C179.929 71.6496 179.581 71.832 178.804 72.5913C178.039 73.3398 177.687 73.9768 177.305 75.3033C177.197 75.6788 176.733 75.5338 176.733 75.1246C176.733 73.7635 178.098 71.8588 179.612 71.1062C180.597 70.6168 181.582 70.5294 181.582 70.9316ZM10.4577 71.9194C11.6666 73.1247 9.98268 74.8907 8.63351 73.8322C8.29359 73.5658 8.19292 73.3397 8.19292 72.8439C8.19292 71.6456 9.60515 71.069 10.4577 71.9194ZM149.763 75.8586C152.113 76.9919 154.493 77.0956 158.646 76.2459C160.867 75.7915 161.518 75.8189 162.145 76.3925C162.677 76.8797 162.629 77.681 161.997 78.8627C160.641 81.4013 157.442 83.015 153.767 83.015C151.986 83.015 150.68 82.6245 149.349 81.6936C147.563 80.4441 146.444 78.6786 146.333 76.9329C146.271 75.966 146.297 75.8736 146.725 75.5378C147.395 75.0122 148.18 75.0949 149.763 75.8586ZM148.978 76.9365C148.978 78.2298 151.45 79.1845 154.778 79.1772C157.72 79.1707 160.703 77.9525 159.843 77.1088C159.626 76.8955 159.461 76.896 158.508 77.1129C157.911 77.249 156.343 77.4052 155.025 77.4599C152.505 77.5646 151.403 77.4264 150.081 76.8398C149.149 76.4261 148.978 76.4412 148.978 76.9365ZM212.233 82.7892C212.296 82.8523 212.348 83.4965 212.348 84.2209V85.5379L213.643 85.5001C214.737 85.4681 214.948 85.5054 214.993 85.7392C215.04 85.979 214.866 86.0163 213.704 86.0163H212.361L212.313 87.3919C212.274 88.482 212.212 88.7675 212.013 88.7675C211.814 88.7675 211.752 88.482 211.714 87.3919L211.665 86.0163H210.335C209.263 86.0163 209.004 85.9676 209.004 85.7662C209.004 85.5157 209.501 85.4441 211.045 85.4712L211.666 85.4822L211.714 84.137C211.758 82.9048 211.922 82.4794 212.233 82.7892ZM130.987 86.3339C129.532 86.9931 129.027 88.4624 129.007 92.1023C128.999 93.4779 128.932 94.6992 128.857 94.8163C128.767 94.9568 129.007 95.3412 129.563 95.9483C130.098 96.5312 130.446 97.0811 130.515 97.4516C130.666 98.2527 130.209 99.3776 129.471 100.024C128.934 100.494 128.903 100.568 129.132 100.824C129.57 101.313 129.966 102.794 129.839 103.469C129.731 104.04 128.942 105.04 128.467 105.206C128.324 105.256 128.315 105.508 128.434 106.152C128.631 107.224 128.421 107.756 127.576 108.323C127.017 108.698 126.993 108.755 127.045 109.58C127.119 110.771 126.624 111.505 125.482 111.895C124.201 112.333 123.345 112.276 122.216 111.676C121.01 111.035 120.578 110.602 120.861 110.32C121.017 110.165 121.164 110.186 121.518 110.414C121.769 110.575 122.369 110.907 122.852 111.152C123.683 111.573 123.779 111.586 124.691 111.398C125.844 111.161 126.405 110.629 126.405 109.773C126.405 108.493 124.071 107.056 121.465 106.731C120.748 106.642 120.47 106.537 120.47 106.358C120.47 106.16 120.695 106.112 121.556 106.127C122.851 106.15 124.166 106.613 125.524 107.523L126.478 108.163L127.098 107.847C127.854 107.462 127.981 107.118 127.73 106.126C127.596 105.595 127.34 105.185 126.893 104.781C125.626 103.64 123.161 102.699 121.426 102.693C120.936 102.691 120.679 102.609 120.611 102.433C120.458 102.035 120.658 101.95 121.69 101.98C123.4 102.028 125.879 102.99 127.243 104.134C127.687 104.507 127.778 104.525 128.183 104.327C128.43 104.206 128.785 103.902 128.971 103.651C129.301 103.206 129.303 103.171 129.022 102.283C128.81 101.612 128.548 101.213 128.03 100.767C127.245 100.094 125.238 99.0816 123.521 98.4929C122.464 98.1305 122.162 97.8497 122.563 97.6023C122.904 97.3922 126.611 98.8847 127.741 99.6874C128.327 100.103 128.671 99.9845 129.312 99.1448C130.167 98.0237 130.034 97.3365 128.718 96.0793C127.878 95.2775 126.791 94.7022 125.176 94.2055C123.82 93.7887 123.241 93.7683 122.126 94.0986C120.885 94.4661 119.923 95.6031 119.654 97.0211C119.594 97.342 119.189 98.1184 118.756 98.7461C117.982 99.8683 117.967 99.9153 117.87 101.497C117.816 102.383 117.683 103.318 117.574 103.576C116.914 105.143 118.212 109.652 119.969 111.892C120.58 112.671 120.688 113.278 120.217 113.278C119.945 113.278 119.779 114.162 118.945 120.031C118.318 124.448 118.278 129.167 118.847 131.433C119.39 133.589 120.094 134.942 121.291 136.129C122.874 137.698 124.273 138.206 127.02 138.206C129.947 138.206 132.902 137.151 134.729 135.454L135.627 134.621L136.362 130.235C136.766 127.823 137.139 125.782 137.191 125.699C137.306 125.514 136.737 125.145 135.873 124.843C135.517 124.719 135.194 124.538 135.157 124.441C135.12 124.344 135.28 123.556 135.515 122.689L135.94 121.115L135.485 120.747C134.93 120.299 133.431 119.472 133.339 119.564C133.303 119.6 133.42 121.239 133.6 123.207C133.78 125.174 133.928 127.136 133.929 127.566C133.929 128.331 133.705 128.715 133.426 128.428C133.348 128.349 133.166 126.784 133.02 124.95C132.875 123.116 132.648 120.752 132.516 119.698C132.384 118.643 132.159 115.979 132.016 113.778C131.873 111.577 131.722 109.259 131.68 108.627L131.604 107.477L132.324 106.626C134.604 103.932 134.981 101.074 133.712 96.104C132.966 93.1804 132.752 91.5672 132.938 90.2681C133.017 89.7179 133.133 88.7215 133.195 88.0538C133.301 86.9315 133.281 86.8091 132.922 86.4281C132.458 85.9366 131.922 85.9104 130.987 86.3339ZM166.868 87.9616C165.599 88.6598 163.538 89.4416 161.889 89.851C160.909 90.0942 154.065 91.0185 153.244 91.0185C153.223 91.0185 153.153 92.1144 153.087 93.4538C152.97 95.8574 152.975 95.9011 153.407 96.7828C155.757 101.572 165.263 100.83 169.438 95.5312C170.294 94.4448 170.378 94.1865 169.874 94.1865C169.314 94.1865 169.209 93.5149 169.209 89.9158V86.5005L168.499 86.9782C168.108 87.2408 167.374 87.6833 166.868 87.9616ZM99.7246 90.1848C97.5558 95.8375 96.161 99.3289 95.3128 101.228L94.439 103.185L94.7038 108.815C94.8495 111.912 95.0093 116.396 95.059 118.78C95.1085 121.165 95.1923 123.895 95.2449 124.847L95.3409 126.579L97.7058 126.488C101.287 126.35 103.168 125.611 105.498 123.425C109.058 120.086 111.275 114.841 113.185 105.248C114.166 100.317 115.411 92.4848 115.237 92.3375C115.172 92.2827 113.953 91.9575 112.528 91.6149C108.432 90.6305 104.635 89.0655 102.224 87.3679L101.074 86.5585L100.927 86.996C100.846 87.2366 100.305 88.6716 99.7246 90.1848ZM68.4695 87.9133C68.0097 88.1296 67.4678 88.4862 67.2655 88.7058C66.7449 89.2707 66.2377 90.4891 66.0866 91.5388L65.9573 92.4357L63.7054 92.4826C62.4668 92.5083 61.4036 92.5833 61.3427 92.6493C61.2817 92.7152 61.1785 93.7266 61.1135 94.8966L60.9952 97.0241L69.7485 96.9809L78.5017 96.9377L78.6703 94.7993C78.7631 93.6231 78.807 92.629 78.7679 92.59C78.7288 92.5509 77.5164 92.5191 76.0736 92.5191H73.4505L73.3514 91.3386C73.2116 89.6766 72.5832 88.5942 71.3991 87.9755C70.3235 87.4136 69.5666 87.3974 68.4695 87.9133ZM70.9034 89.992C71.1609 90.1999 71.2841 90.4782 71.2841 90.8517C71.2841 91.909 69.9824 92.4092 69.2511 91.6331C68.7951 91.1488 68.7897 90.6871 69.2342 90.1239C69.6492 89.5978 70.3469 89.5427 70.9034 89.992ZM173.431 91.2786C172.977 91.5135 172.237 91.7673 171.785 91.8426C171.296 91.9243 171.149 91.9875 171.421 91.9992C171.947 92.0219 176.873 93.0557 178.238 93.4302C178.744 93.5689 179.202 93.6833 179.257 93.6843C179.345 93.6861 179.808 91.8882 179.77 91.6854C179.758 91.6157 175.418 90.9429 174.533 90.8736C174.381 90.8615 173.885 91.0438 173.431 91.2786ZM180.337 92.5963C180.191 93.0974 180.032 93.6099 179.984 93.7353C179.92 93.9015 180.273 94.0644 181.283 94.3349C182.045 94.5391 182.801 94.7444 182.962 94.7911C183.152 94.8463 183.254 94.7848 183.254 94.6152C183.254 94.4718 183.412 93.899 183.606 93.3425C183.799 92.7857 183.916 92.2893 183.865 92.2393C183.815 92.1891 183.112 92.0522 182.302 91.935C181.492 91.8178 180.779 91.7138 180.716 91.7038C180.654 91.6936 180.483 92.0953 180.337 92.5963ZM150.817 92.5176C150.487 92.5193 150.135 92.8604 149.145 94.1403C146.583 97.4509 144.735 100.22 144.97 100.397C145.103 100.498 150.14 101.996 151.82 102.435C155.812 103.478 161.007 103.993 165.413 103.781L168.055 103.655L169.377 101.046C170.104 99.612 171.117 97.6728 171.626 96.7371L172.553 95.0359L171.926 94.8621C171.012 94.609 170.971 94.623 170.455 95.3652C169.499 96.7409 167.474 98.4392 165.83 99.2443C163.816 100.23 162.681 100.522 160.431 100.633C156.803 100.813 154.085 99.6108 152.852 97.2817C152.435 96.4927 152.406 96.3027 152.42 94.3776L152.434 92.3177L151.834 92.4166C151.505 92.4709 151.047 92.5164 150.817 92.5176ZM146.763 93.5802C142.151 95.0942 138.557 97.4049 135.935 100.541C135.224 101.391 135.143 101.578 135.049 102.581C134.92 103.959 134.091 105.795 133.092 106.913L132.374 107.718L132.486 110.081C132.71 114.809 133.052 118.438 133.288 118.577C134.29 119.169 136.165 120.189 136.189 120.156C136.205 120.133 136.422 119.439 136.672 118.614C137.52 115.812 139.146 110.951 139.893 108.981C140.939 106.226 143.344 101.037 143.81 100.53C144.025 100.297 144.382 99.7681 144.605 99.3554C145.173 98.3004 147.009 95.689 148.264 94.1515C148.847 93.4372 149.247 92.8526 149.152 92.8526C149.057 92.8526 147.982 93.1801 146.763 93.5802ZM54.1132 97.6463C52.7214 107.447 51.8441 113.929 51.9016 113.986C51.9372 114.021 53.2502 113.97 54.8193 113.873C58.5099 113.643 62.8569 113.645 63.7837 113.878C64.8984 114.158 65.2927 114.68 65.2927 115.876C65.2927 116.798 65.3183 116.863 65.6818 116.863C65.8958 116.863 66.2907 117.082 66.5596 117.35C67.4229 118.211 67.1644 119.864 66.0496 120.612C65.6712 120.865 65.6087 120.999 65.7043 121.352C65.8679 121.954 65.5917 123.042 65.1571 123.507C64.9558 123.723 64.4336 124.08 63.9969 124.302C63.3129 124.649 63.2027 124.775 63.2027 125.211C63.2027 126.328 62.1829 127.419 60.3738 128.239C57.757 129.424 52.8322 130.818 50.1445 131.133L49.2148 131.242L48.7224 134.849L48.23 138.456L49.07 138.564C49.532 138.624 56.8159 138.68 65.2561 138.689C77.3925 138.702 80.6183 138.662 80.6794 138.497C80.7755 138.237 82.0578 129.008 84.3567 112.028C86.5246 96.0143 86.6699 94.8566 86.5288 94.7156C86.4673 94.6539 84.8509 94.5805 82.9373 94.5525L79.4578 94.5016L79.3381 95.8864C79.2668 96.7106 79.1195 97.3829 78.9739 97.5471C78.7502 97.7997 77.9577 97.8159 69.6702 97.737C61.7089 97.6613 60.5858 97.6191 60.4034 97.3892C60.2546 97.202 60.226 96.7343 60.3027 95.7405L60.4095 94.3532H57.4952H54.5809L54.1132 97.6463ZM171.433 98.6468C168.764 103.619 168.496 104.174 168.876 103.94C169.216 103.73 169.222 104.36 168.896 106.047C168.088 110.234 165.012 126.121 164.689 127.784C164.493 128.793 164.247 129.721 164.142 129.847C163.835 130.216 154.93 130.007 152.066 129.564C147.925 128.924 143.929 127.897 140.032 126.47C138.929 126.066 137.981 125.784 137.926 125.843C137.726 126.056 135.522 139.683 135.664 139.824C135.694 139.854 136.133 139.688 136.641 139.456C139.445 138.176 142.047 137.772 146.219 137.968C152.093 138.244 153.092 138.117 162.856 135.859C166.403 135.038 169.232 134.503 172.995 133.941C173.441 133.874 173.537 133.774 173.631 133.279C173.691 132.958 173.729 128.251 173.714 122.82C173.689 113.302 173.7 112.945 173.999 112.945C174.29 112.945 174.317 113.217 174.439 117.363C174.511 119.793 174.53 122.504 174.481 123.388L174.393 124.994L179.284 125.077C184.992 125.175 187.783 125.505 192.602 126.654L193.004 126.749L192.886 123.348C192.641 116.284 191.52 110.788 189.519 106.847C187.622 103.111 184.25 99.9378 179.827 97.7285C177.31 96.4715 174.183 95.2084 173.549 95.1931C173.381 95.1891 172.638 96.4026 171.433 98.6468ZM204.409 96.0863C205.114 96.3929 205.957 97.4034 206.088 98.1014C206.418 99.8549 205.027 101.523 203.235 101.523C202.387 101.523 201.64 101.166 201.025 100.468C200.108 99.4258 200.087 98.0677 200.973 96.9967C201.847 95.9384 203.227 95.5728 204.409 96.0863ZM201.833 97.0072C200.802 97.7395 200.757 99.5628 201.751 100.342C203.704 101.874 206.43 99.6403 205.154 97.5534C204.513 96.5053 202.911 96.2417 201.833 97.0072ZM3.34404 100.594V102.023H4.77748C6.0218 102.023 6.20389 102.06 6.15691 102.299C6.1111 102.533 5.89223 102.57 4.72348 102.539L3.34404 102.502V103.942C3.34404 105.224 3.31178 105.376 3.05145 105.327C2.80583 105.28 2.75096 105.05 2.71033 103.897L2.66167 102.523H1.33093C0.259323 102.523 0 102.475 0 102.273C0 102.072 0.259323 102.023 1.33093 102.023H2.66167L2.71033 100.649C2.75096 99.4966 2.80583 99.2667 3.05145 99.22C3.31178 99.1703 3.34404 99.3222 3.34404 100.594ZM142.809 104.025C140.953 108.125 140.272 109.862 138.917 113.945C137.819 117.256 135.936 123.522 135.936 123.866C135.936 124.107 136.595 124.4 139.782 125.58C144.703 127.401 148.493 128.37 153.027 128.966C155.193 129.25 163.692 129.504 163.692 129.285C163.692 129.05 168.324 105.185 168.466 104.687C168.53 104.463 168.073 104.44 164.652 104.494C157.73 104.604 153.597 103.933 145.968 101.462C145.278 101.239 144.591 101.048 144.441 101.039C144.244 101.027 143.791 101.855 142.809 104.025ZM81.191 101.676C81.3189 101.804 81.2624 102.664 81.0976 103.096L80.9345 103.524H69.3934H57.8522L57.8547 102.815C57.8562 102.426 57.9164 102.014 57.9886 101.9C58.0903 101.741 60.71 101.684 69.6206 101.65C75.946 101.626 81.1527 101.638 81.191 101.676ZM147.23 104.883C147.293 105.08 147.843 105.736 148.454 106.342C150.028 107.903 152.643 109.119 156.042 109.868C156.787 110.032 157.003 110.149 157.003 110.387C157.003 110.819 156.549 110.783 154.399 110.187C152.081 109.543 149.472 108.287 148.334 107.267C147.29 106.331 146.405 105.1 146.534 104.765C146.673 104.403 147.1 104.475 147.23 104.883ZM80.8315 106.15C80.7682 106.586 80.6839 106.998 80.6443 107.067C80.6045 107.136 75.3473 107.192 68.9613 107.192C58.0142 107.192 57.3507 107.175 57.3524 106.9C57.3534 106.74 57.4009 106.327 57.4579 105.983L57.5616 105.358H69.2541H80.9467L80.8315 106.15ZM80.3717 109.697C80.3169 110.158 80.2268 110.608 80.1712 110.698C80.1072 110.801 75.832 110.86 68.4629 110.86H56.8553L56.95 110.068C57.002 109.633 57.0735 109.183 57.1088 109.068C57.1593 108.904 59.6484 108.859 68.822 108.859H80.4712L80.3717 109.697ZM48.5107 111.77C47.0696 112.152 45.8641 112.825 43.7235 114.442C40.6958 116.728 40.1402 117.08 38.9583 117.46C37.9142 117.796 37.8502 117.848 37.3342 118.795C36.4857 120.352 36.0459 122.537 36.1678 124.59C36.3033 126.872 37.2142 130.161 37.676 130.035C37.8363 129.991 39.5731 130.189 41.4663 130.467C43.5702 130.776 47.7255 130.766 49.8694 130.447C54.1852 129.806 59.8469 128.012 61.4805 126.77C62.3926 126.076 62.8736 124.894 62.1576 125.106C60.6791 125.543 55.7626 126.744 54.2071 127.048C52.7831 127.326 52.2704 127.37 52.1255 127.226C51.7937 126.895 52.172 126.734 54.3411 126.28C59.4234 125.218 62.8617 124.206 64.0485 123.423C64.8804 122.874 65.3534 121.743 64.8745 121.448C64.7824 121.391 63.9735 121.494 63.0771 121.676C61.0406 122.09 59.7379 122.282 55.5648 122.782C52.706 123.124 52.2178 123.146 52.0101 122.943C51.8775 122.813 51.8215 122.654 51.8855 122.591C51.9496 122.527 53.4875 122.299 55.3033 122.084C59.7157 121.563 63.5565 120.915 64.6423 120.51C65.7136 120.11 66.3795 119.388 66.3795 118.627C66.3795 117.947 65.9555 117.544 65.1986 117.504C64.8826 117.487 63.5705 117.635 62.2831 117.833C59.8743 118.203 56.3295 118.589 53.4631 118.793C51.8732 118.907 51.8329 118.901 51.8329 118.553C51.8329 118.312 51.9374 118.197 52.1572 118.197C52.7826 118.197 60.7943 117.347 62.3667 117.113C63.7086 116.914 64.0134 116.81 64.3313 116.444C65.1364 115.517 64.5216 114.634 62.9325 114.435C61.8861 114.305 57.1889 114.428 52.8635 114.7L52.4165 114.728C49.1245 114.936 48.6592 114.965 48.56 114.789C48.5549 114.78 48.5508 114.77 48.5473 114.76C48.5396 114.738 48.5349 114.713 48.5298 114.685L48.5234 114.652C48.48 114.439 48.6008 114.331 48.9635 114.259C49.4373 114.164 49.4691 114.106 49.5733 113.135C49.6338 112.572 49.7206 111.98 49.7661 111.819C49.8669 111.464 49.6873 111.457 48.5107 111.77ZM211.027 122.457C212.811 124.25 214.27 125.805 214.27 125.914C214.27 126.502 213.464 125.844 210.541 122.871C207.899 120.183 207.356 119.551 207.548 119.392C207.739 119.234 208.393 119.811 211.027 122.457ZM174.43 128.201L174.384 130.619L178.861 130.62C182.745 130.62 183.605 130.669 185.358 130.986C187.655 131.403 190.251 132.187 191.638 132.883L192.582 133.357L192.676 132.655C192.729 132.269 192.821 130.964 192.882 129.756L192.994 127.559L192.095 127.293C190.609 126.852 187.983 126.369 185.679 126.113C182.618 125.771 182.27 125.756 178.155 125.77L174.476 125.783L174.43 128.201ZM176.023 131.312L174.393 131.42V132.626V133.833L175.939 133.81C177.213 133.791 177.486 133.831 177.486 134.037C177.486 134.228 177.172 134.315 176.148 134.408C170.823 134.889 169.046 135.182 162.772 136.614C154.63 138.472 152.984 138.768 150.733 138.779C149.63 138.785 147.558 138.722 146.129 138.64C143.326 138.478 141.859 138.608 139.486 139.228C134.899 140.426 130.402 144.175 130.424 146.784L130.429 147.46L130.954 146.793C131.813 145.7 133.769 143.901 134.963 143.107C137.263 141.577 140.693 140.277 141.558 140.608C142.019 140.785 141.631 141.008 140.256 141.359C137.254 142.125 133.416 144.674 131.646 147.078C131.127 147.784 131.066 147.964 131.167 148.506C131.293 149.18 131.674 149.71 132.035 149.71C132.159 149.71 132.83 149.149 133.524 148.463C135.488 146.524 138.585 144.58 141.036 143.747C142.392 143.287 143.023 143.224 143.085 143.543C143.121 143.725 142.784 143.904 141.874 144.186C139.293 144.985 136.149 146.883 134.052 148.908C133.082 149.846 132.916 150.086 133.013 150.409C133.387 151.656 134.166 151.975 135.102 151.263C137.517 149.425 138.196 148.96 139.531 148.232C142.047 146.859 144.881 146.133 144.881 146.861C144.881 147.016 144.53 147.168 143.863 147.304C142.614 147.558 140.733 148.326 139.263 149.183C137.757 150.061 135.769 151.559 135.769 151.815C135.769 152.555 137.148 152.362 140.909 151.098L144.212 149.986L147.64 149.86C151.332 149.723 152.378 149.544 154.414 148.699C155.558 148.224 155.702 148.201 156.613 148.362C157.15 148.457 159.357 148.721 161.518 148.95C171.535 150.009 178.7 149.926 183.254 148.697C187.376 147.586 189.786 145.126 191.248 140.54C191.753 138.957 192.376 136.044 192.478 134.79C192.53 134.16 192.496 134.106 191.81 133.728C189.953 132.707 186.281 131.731 183.004 131.387C181.295 131.208 178.115 131.174 176.023 131.312ZM108.662 132.988C109.814 133.554 110.192 134.986 109.471 136.053C108.948 136.827 108.426 137.066 107.438 136.983C106.747 136.926 106.522 136.816 106.059 136.312C105.599 135.812 105.505 135.578 105.505 134.941C105.505 133.229 107.12 132.231 108.662 132.988ZM106.818 133.55C106.632 133.649 106.37 133.993 106.236 134.313C106.015 134.84 106.02 134.955 106.292 135.509C106.808 136.561 108.291 136.734 108.935 135.817C109.233 135.393 109.252 134.389 108.969 134.025C108.488 133.405 107.499 133.187 106.818 133.55ZM15.5233 139.306C16.0587 139.68 16.2433 140.253 16.0274 140.871C15.5846 142.137 13.7041 141.949 13.4454 140.612C13.368 140.211 13.4438 139.985 13.7942 139.57C14.3 138.97 14.9095 138.877 15.5233 139.306Z" fill="black"/>
</svg>
