<svg width="163" height="127" viewBox="0 0 163 127" fill="none" xmlns="http://www.w3.org/2000/svg">
<path fill-rule="evenodd" clip-rule="evenodd" d="M85.0767 102.941C84.8419 104.11 84.4676 106.798 84.2458 108.912C83.9124 112.087 84.0289 112.861 84.9161 113.362C86.432 114.218 86.2487 116.265 84.5481 117.466C82.6494 118.809 69.4106 118.837 51.4284 117.538C44.2137 117.016 33.0564 116.243 26.6342 115.82C13.8465 114.979 12.6862 114.584 12.6862 111.072C12.6862 108.434 14.3552 106.704 16.8994 106.704C18.0387 106.704 28.1104 108.03 39.2839 109.65C50.4549 111.269 60.0183 112.593 60.5425 112.594C61.245 112.594 61.3912 112.058 61.1208 110.468C60.9217 109.299 60.568 106.684 60.3352 104.658L59.9116 100.975L68.392 100.927C73.1247 100.901 77.04 101.154 77.2535 101.502C77.4942 101.895 78.087 101.882 78.8512 101.47C79.5196 101.109 81.2892 100.814 82.784 100.814H85.5032L85.0767 102.941ZM82.2991 102.122C81.6335 102.122 80.4398 102.582 79.6471 103.142C78.3421 104.064 78.0679 104.064 76.7628 103.142C75.97 102.582 74.1378 102.122 72.6913 102.122C71.2448 102.122 69.4126 102.582 68.6198 103.142C67.3147 104.064 67.0406 104.064 65.7356 103.142C64.9429 102.582 63.7499 102.122 63.085 102.122C61.9716 102.122 61.913 102.519 62.3359 107.196C62.588 109.982 62.9212 112.484 63.0777 112.758C63.2334 113.027 64.0743 113.249 64.9455 113.249C66.36 113.249 66.5286 112.97 66.5286 110.632C66.5286 107.227 67.6897 107.25 68.2314 110.665C68.6096 113.054 68.8217 113.3 70.3474 113.121C71.7955 112.952 72.0726 112.564 72.2445 110.468C72.3554 109.119 72.7016 108.013 73.0155 108.013C73.3295 108.013 73.6771 109.119 73.7881 110.468L73.9881 112.923L81.9413 113.308L82.3619 110.169C82.5921 108.444 82.9442 105.928 83.1447 104.578C83.4547 102.488 83.3294 102.122 82.2991 102.122Z" fill="black"/>
<path fill-rule="evenodd" clip-rule="evenodd" d="M53.7065 69.3991C60.2014 69.3991 62.2004 69.6013 62.4615 70.2877C63.007 71.721 59.5265 84.6935 58.3549 85.5966C57.6595 86.1326 54.9167 86.4151 50.4061 86.4151C50.2409 86.4151 50.0778 86.4151 49.9183 86.4151C45.3881 86.4164 43.1514 86.4173 42.2981 85.3325C41.4672 84.2756 41.9482 82.1885 42.8969 78.0691C42.9313 77.9199 42.9665 77.767 43.002 77.6124C43.9079 73.6733 44.7931 70.2135 44.9706 69.9229C45.147 69.635 49.079 69.3991 53.7065 69.3991ZM44.9648 76.7617C44.348 79.7306 43.6909 82.6855 43.5059 83.3277C43.1938 84.4063 43.7241 84.4811 50.4777 84.3097L57.7854 84.1244L59.2691 78.234C60.0848 74.9956 60.76 72.1248 60.7689 71.8533C60.778 71.5837 57.4776 71.3616 53.4349 71.3616H46.0863L44.9648 76.7617Z" fill="black"/>
<path fill-rule="evenodd" clip-rule="evenodd" d="M78.9125 69.3991C85.4062 69.3991 87.4044 69.6016 87.666 70.2877C88.2115 71.721 84.7324 84.6955 83.5609 85.598C82.8655 86.1341 80.1216 86.4151 75.6106 86.4151C70.7521 86.4151 68.3875 86.4555 67.5041 85.3325C66.6428 84.2375 67.1895 82.0366 68.2065 77.6139C69.1128 73.6732 69.9995 70.2116 70.1766 69.9229C70.355 69.6351 74.2859 69.3991 78.9125 69.3991ZM70.1693 76.7617C69.5525 79.7306 68.8954 82.6855 68.7104 83.3277C68.3984 84.4063 68.9289 84.4811 75.6822 84.3097L82.9913 84.1244L84.4736 78.234C85.2895 74.9949 85.9647 72.1238 85.9734 71.8533C85.9825 71.5837 82.6821 71.3616 78.6394 71.3616H71.2908L70.1693 76.7617Z" fill="black"/>
<path fill-rule="evenodd" clip-rule="evenodd" d="M19.9676 70.2177C20.7688 69.2288 36.3979 69.0489 36.9941 70.0222C37.5039 70.8609 34.3712 84.4335 33.4541 85.3588C33.0296 85.7846 29.5051 86.1849 24.9855 86.3203C18.0645 86.5278 17.1927 86.4299 16.8015 85.4011C16.31 84.1034 18.9414 71.4854 19.9676 70.2177ZM28.2523 71.3616C21.4202 71.3616 21.1315 71.4197 20.7884 72.8353C20.5924 73.6459 19.8939 76.6003 19.2374 79.4013L18.0443 84.4935L32.391 84.1244L33.4541 79.8711C34.0386 77.5313 34.7063 74.6585 34.9379 73.489L35.3585 71.3616H28.2523Z" fill="black"/>
<path fill-rule="evenodd" clip-rule="evenodd" d="M24.5955 48.302C25.9253 47.4382 40.3518 47.715 41.0758 48.6186C41.5234 49.1782 41.345 51.4031 40.5121 55.6544C39.5294 60.6714 39.2579 62.9556 37.9769 63.9888C36.738 64.9875 34.5541 64.8176 29.8704 64.8176C23.4226 64.8175 21.6542 64.6228 21.374 63.8852C20.8728 62.5661 23.701 48.8891 24.5955 48.302ZM32.8452 49.764C27.6384 49.764 25.5456 49.9929 25.3549 50.5826C24.9935 51.6979 23.0665 61.5416 23.0665 62.27C23.069 62.5911 26.2384 62.8536 30.1128 62.8536H37.1591L38.269 57.2215C38.8788 54.1232 39.5342 51.1773 39.725 50.676C40.008 49.9307 38.7528 49.764 32.8452 49.764Z" fill="black"/>
<path fill-rule="evenodd" clip-rule="evenodd" d="M91.828 49.6925C91.8279 52.2612 89.9282 62.1964 89.1599 63.6474C88.615 64.6749 87.5524 64.8175 80.4328 64.8176C73.587 64.8176 72.2634 64.6537 71.9261 63.7655C71.4491 62.5091 73.61 49.7901 74.4993 48.6186C74.9403 48.0389 77.5568 47.8015 83.4747 47.8015H91.828V49.6925ZM90.0931 49.6006C89.5736 48.7127 76.2572 49.0201 75.9202 49.9274C75.7561 50.3777 75.0736 53.4699 74.4029 56.7998L73.1835 62.8536H87.7185L89.0489 56.473C89.7813 52.9639 90.2506 49.8706 90.0931 49.6006Z" fill="black"/>
<path fill-rule="evenodd" clip-rule="evenodd" d="M108.313 47.8015C113.948 47.8015 116.505 48.0429 116.949 48.6186C117.591 49.4518 115.398 62.3175 114.328 63.999C113.957 64.5815 111.479 64.8176 105.716 64.8176C99.0765 64.8175 97.5582 64.6386 97.2474 63.8224C96.8183 62.6935 98.8068 50.6974 99.7125 48.9469C100.23 47.9502 101.346 47.8015 108.313 47.8015ZM100.025 55.1642C99.1949 59.3842 98.6519 61.3036 99.3737 62.1693C100.081 63.0163 102.002 62.8536 106.053 62.8536H113.144L113.869 59.0906C114.268 57.0214 114.836 54.0768 115.133 52.5465L115.673 49.764H101.088L100.025 55.1642Z" fill="black"/>
<path fill-rule="evenodd" clip-rule="evenodd" d="M27.9106 27.021C28.2634 26.0762 44.8044 25.8165 45.3781 26.7467C46.0728 27.8816 43.1846 41.5708 42.0747 42.4014C41.3533 42.9414 38.5143 43.22 33.7243 43.22C28.7011 43.22 26.2682 42.9674 25.8149 42.4014C25.2395 41.6802 26.8474 29.8766 27.9106 27.021ZM36.3384 27.5113C32.5554 27.5113 30.8508 27.3194 29.939 28.0774C28.9991 28.8596 28.9011 30.6541 28.2362 34.712C27.8529 37.0514 27.3888 39.4802 27.2052 40.1106C26.901 41.1526 27.5176 41.256 34.0383 41.256C38.0267 41.256 39.8234 41.478 40.8042 40.6884C41.8358 39.8579 41.9651 37.9075 42.7917 33.4017C43.2866 30.7022 43.5577 28.2733 43.3949 28.003C43.2313 27.7328 40.0562 27.5113 36.3384 27.5113Z" fill="black"/>
<path fill-rule="evenodd" clip-rule="evenodd" d="M112.586 26.2025C119.426 26.2025 121.668 26.4053 121.668 27.0225C121.668 28.4371 119.148 41.2562 118.738 41.9287C118.517 42.2893 114.577 42.5648 109.628 42.5648C104.583 42.5648 102.246 42.81 101.408 41.8061C100.562 40.792 101.243 38.5029 102.207 33.4017C102.92 29.6236 103.505 26.4583 103.505 26.3674C103.525 26.2767 107.603 26.2025 112.586 26.2025ZM112.606 27.5113C107.429 27.5113 105.332 27.7415 105.133 28.3299C104.658 29.7376 102.856 39.1844 102.855 40.2682C102.855 41.1557 103.865 41.2735 110.128 41.1145L117.401 40.9292L118.183 37.0013C118.614 34.8417 119.154 31.8239 119.384 30.2938L119.801 27.5113H112.606Z" fill="black"/>
<path fill-rule="evenodd" clip-rule="evenodd" d="M86.9095 26.2025C93.0185 26.2025 95.6884 26.4339 95.8674 26.9758C96.007 27.4028 95.5172 31.0086 94.778 34.9921L93.4344 42.238L84.5218 42.4204C79.3333 42.5264 76.9305 42.819 76.0721 41.8061C75.2088 40.7869 75.9083 38.4455 76.906 33.2616C77.6182 29.5592 78.2015 26.4562 78.2028 26.3659C78.2205 26.2758 82.1322 26.2025 86.9095 26.2025ZM78.9417 31.6026C78.5596 33.8527 78.0548 36.9448 77.8187 38.475L77.3908 41.256H91.7199L92.4195 37.9716C92.8035 36.1652 93.3055 33.0725 93.5352 31.0992L93.9529 27.5113H79.6354L78.9417 31.6026Z" fill="black"/>
<path fill-rule="evenodd" clip-rule="evenodd" d="M62.679 25.4C69.1745 25.4 71.1732 25.6035 71.434 26.29C71.9779 27.7273 68.4987 40.6965 67.3274 41.5989C66.6313 42.1347 63.8883 42.416 59.3786 42.416C59.2134 42.416 59.0503 42.416 58.8909 42.416C54.3606 42.4173 52.1239 42.4181 51.2706 41.3333C50.44 40.2764 50.9208 38.1892 51.8694 34.07C51.9037 33.9209 51.939 33.7692 51.9745 33.6147C52.8808 29.6741 53.766 26.2125 53.9431 25.9238C54.1196 25.6358 58.0515 25.4 62.679 25.4ZM53.9373 32.7626C53.3204 35.732 52.6632 38.6886 52.4784 39.33C52.1667 40.408 52.6979 40.482 59.4502 40.3105L66.7579 40.1252L68.2416 34.2348C69.0576 30.9954 69.733 28.1238 69.7414 27.8542C69.7499 27.5846 66.4497 27.3639 62.4074 27.3639H55.0588L53.9373 32.7626Z" fill="black"/>
<path fill-rule="evenodd" clip-rule="evenodd" d="M71.0002 6.94967C72.9456 -1.81892 81.7848 -2.46083 84.0691 5.99979C84.4932 7.57204 84.9442 9.22651 85.0709 9.67672C85.2142 10.1872 86.4864 10.4952 88.4575 10.4953H91.6148L92.6823 6.62721C93.931 2.09375 96.0489 0.0234621 99.4395 0.0233216C102.282 0.0233216 105.24 3.00953 105.805 6.45211C106.464 10.462 106.499 10.4953 109.992 10.4953C113.485 10.4953 113.52 10.4619 114.179 6.45211C114.739 3.04509 117.702 0.0237116 120.486 0.0233216C124.319 0.0233216 126.83 2.78559 127.774 8.04107L128.215 10.4953H141.675L142.103 12.6226C142.338 13.7931 143.231 17.9898 144.087 21.9492C144.944 25.909 147.213 36.8056 149.13 46.1644C151.046 55.5234 155.039 74.9941 158.003 89.4326C160.967 103.871 163.209 116.169 162.985 116.759C162.619 117.715 160.689 117.831 145.082 117.831H127.587L127.134 120.939C126.885 122.649 126.435 124.712 126.135 125.523L125.59 127L1.98318 126.666L1.79041 125.001C1.63667 123.667 5.26634 105.111 7.20984 97.3C7.6334 95.5953 7.60145 95.5783 4.03792 95.5783C2.05809 95.5783 0.256256 95.2822 0.0350496 94.9202C-0.186403 94.5572 0.664936 90.6552 1.92769 86.2488C6.23113 71.2298 10.7093 49.8765 14.9323 24.24C15.8513 18.6617 16.7665 13.2877 16.9666 12.2958C17.3259 10.5176 17.3911 10.4953 22.3948 10.4953H27.4593L27.915 7.42533C28.2464 5.19658 28.959 3.76387 30.5188 2.19008C34.5991 -1.92659 39.8123 0.315601 41.4613 6.89568L42.2821 10.1684L48.8567 10.558L49.3181 7.45743C49.6541 5.19494 50.3592 3.77127 51.9263 2.19008C56.1111 -2.03199 61.1717 0.181032 62.885 6.98177L63.6882 10.1684L70.2014 10.5566L71.0002 6.94967ZM8.86882 98.0325C8.52566 99.3827 7.18327 105.493 5.88529 111.612C4.58789 117.732 3.37774 123.255 3.19675 123.885C2.88655 124.97 6.08189 125.03 63.805 125.03H124.742L125.143 122.576C125.812 118.496 125.725 118.132 124.374 119.366C123.721 119.961 122.416 120.448 121.472 120.449C119.255 120.449 118.214 118.381 117.195 111.958C116.488 107.508 115.187 104.742 113.801 104.741C112.819 104.741 111.46 108.305 110.681 112.923C109.726 118.595 108.621 120.449 106.197 120.449C102.448 120.448 99.359 114.668 98.3588 105.785C98.0033 102.633 97.3512 99.0476 96.9101 97.8165L96.1084 95.5783H9.49386L8.86882 98.0325ZM104.802 76.2656C103.329 75.968 100.283 77.0316 98.8042 78.3595C95.2701 81.5336 94.8901 86.9134 97.6417 94.786C98.6849 97.7704 99.7398 102.336 99.9856 104.931C100.529 110.674 102.313 115.779 104.498 117.85C105.939 119.216 106.238 119.282 107.092 118.419C107.623 117.883 108.489 115.167 109.017 112.384C110.307 105.58 111.455 103.433 113.801 103.433C116.887 103.433 118.294 106.102 119.365 113.979C120.162 119.849 122.421 120.487 125.189 115.626C126.849 112.71 128.147 107.455 128.168 103.564C128.175 102.231 129.064 98.638 130.144 95.5783C133.282 86.6852 132.567 80.3139 128.137 77.6737C125.805 76.2843 122.544 76.16 117.611 77.2739C114.674 77.9374 113.143 77.9382 109.864 77.2812C107.615 76.8316 105.337 76.3736 104.802 76.2656ZM137.003 41.9112C136.874 41.9165 136.117 45.2277 135.319 49.2738C134.521 53.3236 132.898 61.0046 131.714 66.3438L129.56 76.0512L130.861 77.3643C134.472 81.0079 134.892 86.9903 132.104 95.0355C131.064 98.0342 130.011 102.687 129.763 105.376C129.515 108.065 129.052 110.956 128.733 111.801C127.359 115.446 127.77 115.867 132.696 115.867H137.237V78.8891C137.237 58.551 137.132 41.9112 137.003 41.9112ZM141.5 18.6764C141.177 17.7144 140.737 19.3172 139.575 25.667C138.69 30.5017 138.535 37.6415 138.535 73.6072V115.867H149.886C158.698 115.867 161.238 115.679 161.239 115.027C161.239 114.207 149.54 56.605 144.328 31.766C142.893 24.9269 141.62 19.0368 141.5 18.6764ZM23.2666 11.8041C20.541 11.8041 19.0376 12.0834 18.8534 12.6226C18.6991 13.0762 17.3776 20.5113 15.9151 29.1484C11.8367 53.2352 7.05735 75.4975 3.28583 87.9705C2.39065 90.932 1.65898 93.5608 1.65898 93.8128C1.68029 94.0639 22.7023 94.2695 48.3937 94.2695H95.1299L94.6144 91.8153C93.0938 84.58 94.6301 79.052 98.9984 76.0453C101.029 74.6481 101.65 74.5517 105.775 74.9816C110.439 75.4679 113.548 75.4998 122.747 75.1582L128.044 74.9627L129.472 68.4172C132.256 55.6515 134.059 46.7046 135.671 37.6564C138.961 19.1921 139.824 14.0706 139.827 12.9495C139.831 11.9012 138.846 11.8041 128.193 11.8041C121.369 11.8041 116.395 12.0672 116.167 12.4403C115.522 13.4927 117.727 17.0536 119.429 17.7061C121.009 18.3122 121.488 19.288 120.507 19.9006C120.225 20.076 119.078 19.7722 117.958 19.2251C115.982 18.2597 113.884 14.9767 113.884 12.8503C113.883 11.9398 112.661 11.8041 104.457 11.8041C96.6549 11.8041 94.966 11.9751 94.6553 12.7919C94.145 14.1358 96.0825 16.9629 98.0244 17.7076C99.5903 18.3078 100.082 19.2888 99.1196 19.889C98.8485 20.0578 97.6831 19.7957 96.5304 19.3068C94.6064 18.4906 93.352 16.6408 92.2194 12.9495C91.906 11.9275 90.8528 11.8041 82.4422 11.8041C73.3319 11.8041 73.0155 11.8504 73.0155 13.164C73.0159 14.5582 75.8345 17.858 77.5631 18.4882C78.2901 18.7533 78.3477 19.0367 77.7939 19.6322C76.4129 21.1171 73.0209 18.6269 71.5099 15.0185L70.1634 11.8041H60.8857C53.2056 11.8041 51.608 11.9681 51.608 12.7554C51.608 14.5551 53.0518 16.8975 54.5988 17.6084C55.4518 18.0004 56.1496 18.7692 56.1497 19.317C56.1497 22.0619 50.8968 18.154 49.7635 14.5662L48.8902 11.8041H39.5468C30.5357 11.8041 30.2019 11.8529 30.2019 13.1567C30.202 15.2163 31.3988 17.0338 33.2132 17.7295C35.0657 18.4403 34.935 20.102 33.0525 19.7649C31.1079 19.4163 28.9469 17.0109 28.1413 14.2977L27.4009 11.8041H23.2666ZM80.7409 3.55872C77.5889 0.173765 73.5817 2.55445 72.9206 8.20449L72.6913 10.1684L82.9241 10.5536L82.5649 7.84264C82.3644 6.33798 81.5531 4.43049 80.7409 3.55872ZM38.101 3.96581C35.5426 0.491868 31.5451 1.84025 30.1814 6.63742C29.0878 10.4837 29.102 10.4953 34.8269 10.4953H40.1017L39.7089 8.05566C39.4928 6.7148 38.7697 4.8742 38.101 3.96581ZM59.5071 3.96581C57.9437 1.84287 54.8806 1.45631 53.3283 3.18665C52.0129 4.65319 50.7121 8.90518 51.2896 9.8489C51.5076 10.2043 53.895 10.4952 56.5966 10.4953H61.5093L61.1165 8.05566C60.9003 6.71467 60.1759 4.87412 59.5071 3.96581ZM102.147 3.55872C98.9275 0.102497 94.4231 2.9835 94.4231 8.49923V10.4953H104.324L103.968 7.81345C103.772 6.33628 102.953 4.42395 102.147 3.55872ZM123.572 3.25377C120.768 0.424437 116.669 2.89698 116.015 7.81345L115.66 10.4953H120.571C123.273 10.4953 125.636 10.246 125.821 9.94228C126.389 9.01445 124.904 4.59813 123.572 3.25377Z" fill="black"/>
<path d="M58.0248 47.8015C64.0286 47.8015 66.4959 48.0278 66.6834 48.5953C66.9865 49.5203 64.3912 62.8838 63.6838 64.0413C63.3588 64.5721 60.653 64.8175 55.1187 64.8176C48.4566 64.8176 46.9598 64.641 46.6457 63.8166C46.2662 62.8179 48.0754 52.065 49.0932 49.2738C49.6122 47.8503 49.911 47.8015 58.0248 47.8015Z" fill="#BB0708"/>
<path d="M141.5 18.6764C141.177 17.7144 140.737 19.3172 139.575 25.667C138.69 30.5017 138.535 37.6415 138.535 73.6072V115.867H149.886C158.698 115.867 161.238 115.679 161.239 115.027C161.239 114.207 149.54 56.605 144.328 31.766C142.893 24.9269 141.62 19.0368 141.5 18.6764Z" fill="black"/>
</svg>
