<svg width="144" height="144" viewBox="0 0 144 144" fill="none" xmlns="http://www.w3.org/2000/svg">
<path d="M42 111.19H66L92.7001 128.985C96.6601 131.63 102 128.804 102 123.995V111.19C120 111.19 132 99.1658 132 81.1303V45.0592C132 27.0237 120 15 102 15H42C24 15 12 27.0237 12 45.0592V81.1303C12 99.1658 24 111.19 42 111.19Z" stroke="black" stroke-width="1.5" stroke-miterlimit="10" stroke-linecap="round" stroke-linejoin="round"/>
<path d="M96.4456 59.9477C95.5199 62.6363 94.2878 64.9187 92.7494 66.7949C91.2109 68.671 89.3995 70.1367 87.3152 71.1917C85.2405 72.2185 82.9072 72.8396 80.3152 73.0551C77.7613 73.2521 74.9919 73.0108 72.0069 72.3312L68.9957 81.0762L60.6186 78.1918L66.4655 61.211L70.4831 62.5944C74.6432 64.0268 78.1557 64.2391 81.0206 63.2312C83.9237 62.2048 85.9844 59.9228 87.2025 56.3851C87.7384 54.8285 87.9269 53.2631 87.7678 51.6888C87.6469 50.096 87.192 48.594 86.4031 47.1827C85.6427 45.7812 84.567 44.5086 83.176 43.3648C81.8135 42.2309 80.1634 41.3304 78.2259 40.6632C76.0034 39.8979 73.959 39.4947 72.0927 39.4536C70.2647 39.394 68.5769 39.6676 67.0294 40.2743C65.4916 40.8528 64.0846 41.7454 62.8086 42.9522C61.5325 44.159 60.3543 45.6369 59.274 47.3859L50.5245 42.8062C52.3103 39.7489 54.3533 37.2867 56.6535 35.4195C58.9537 33.5524 61.407 32.2128 64.0132 31.4008C66.648 30.5985 69.3836 30.29 72.2201 30.4753C75.0949 30.6421 77.9997 31.2308 80.9345 32.2413C84.2113 33.3696 87.0566 34.8716 89.4703 36.7474C91.8939 38.5949 93.7915 40.7204 95.1631 43.1237C96.5729 45.5086 97.4047 48.1376 97.6584 51.0107C97.9218 53.8555 97.5176 56.8345 96.4456 59.9477ZM55.4295 93.2622L58.3968 84.6445L66.7739 87.5289L63.8065 96.1466L55.4295 93.2622Z" fill="black"/>
</svg>
