<svg width="54" height="54" viewBox="0 0 54 54" fill="none" xmlns="http://www.w3.org/2000/svg">
<circle cx="27" cy="27" r="27" fill="#BB0708"/>
<path d="M25.2221 16.8672H25.9969V17.6696H25.9966C25.9966 18.1126 26.3437 18.4717 26.7715 18.4717C27.1992 18.4717 27.5463 18.1126 27.5463 17.6696V16.8672H28.3211H28.3208C28.7489 16.8672 29.0957 16.508 29.0957 16.0647C29.0957 15.6217 28.7489 15.2626 28.3208 15.2626H27.5463V14.4601C27.5463 14.0172 27.1992 13.6577 26.7715 13.6577C26.3437 13.6577 25.9966 14.0172 25.9966 14.4601V15.2626H25.2221C24.7941 15.2626 24.4473 15.6217 24.4473 16.0647C24.4473 16.508 24.7941 16.8672 25.2221 16.8672H25.2221Z" fill="white"/>
<path fill-rule="evenodd" clip-rule="evenodd" d="M14.375 41.7397C14.375 41.9524 14.4567 42.1563 14.602 42.307C14.7472 42.4575 14.9444 42.5418 15.1498 42.5418H38.3918C38.5973 42.5418 38.7944 42.4575 38.9397 42.307C39.085 42.1563 39.1667 41.9524 39.1667 41.7397C39.1623 38.8617 37.8033 36.1668 35.5252 34.5186C34.5384 33.9836 32.3854 32.9136 31.6675 32.9136L31.8223 32.7852C31.9221 32.7124 32.013 32.6347 32.1051 32.5561C32.1346 32.5309 32.1642 32.5056 32.1943 32.4803L32.6436 32.0631C32.7598 31.9508 32.8682 31.8385 32.9766 31.7182C33.0851 31.5978 33.2399 31.4133 33.3717 31.2529L33.6583 30.8677C33.7745 30.6992 33.883 30.5228 33.9914 30.3463C34.0998 30.1698 34.154 30.0814 34.2238 29.9371C34.2397 29.9042 34.258 29.8667 34.2778 29.8261C34.3449 29.6887 34.4292 29.5161 34.4949 29.3673C34.5277 29.2932 34.5548 29.2358 34.5788 29.1849C34.6171 29.1036 34.6475 29.039 34.6809 28.9501C34.7255 28.8311 34.7913 28.6252 34.8519 28.4352L34.8899 28.3164C34.9597 28.0999 34.9753 28.0437 35.0139 27.8992C35.0723 27.6609 35.119 27.42 35.1538 27.1771C35.1538 27.1069 35.1722 27.0366 35.1907 26.9663C35.2039 26.9162 35.2171 26.8662 35.2235 26.8161C35.27 26.4435 35.2933 26.0682 35.2931 25.6926V20.1726L35.4326 19.5869L35.9359 17.517L36.8425 13.8504C36.9281 13.488 36.761 13.1122 36.4396 12.9437C33.4688 11.3117 30.157 10.4585 26.7942 10.4585C23.4311 10.4585 20.1197 11.3117 17.1487 12.9437C16.8089 13.096 16.6206 13.4759 16.6992 13.8504L17.5825 17.517L18.1095 19.5873L18.2491 20.1729V25.6929C18.2488 26.0685 18.2722 26.4438 18.3186 26.8164C18.3186 26.8968 18.3393 26.9771 18.36 27.0575C18.3703 27.0975 18.3806 27.1375 18.3884 27.1774C18.4231 27.4203 18.4696 27.6613 18.5279 27.8995C18.5498 27.9814 18.5743 28.0606 18.5984 28.1387C18.6169 28.1984 18.6352 28.2576 18.6519 28.3167C18.6906 28.4532 18.7837 28.742 18.861 28.9504C18.9146 29.0947 18.9534 29.1737 18.9926 29.2537C19.0102 29.2895 19.0278 29.3255 19.047 29.3676L19.0803 29.4416C19.1437 29.5826 19.2336 29.7826 19.3181 29.9374C19.4187 30.122 19.4729 30.2182 19.5505 30.3466C19.628 30.475 19.7673 30.6996 19.8836 30.868L20.1702 31.2532L20.5652 31.7185C20.6737 31.8389 20.7821 31.9512 20.8983 32.0634C21.0433 32.2109 21.1961 32.3504 21.3556 32.4809C21.4721 32.5886 21.5935 32.6904 21.7198 32.7855L21.8747 32.914C21.0566 32.914 18.9617 33.9837 18.0164 34.5186C15.7384 36.1668 14.3794 38.8617 14.375 41.7397ZM28.2585 34.5186L26.7711 36.4442L25.2837 34.5186H28.2585ZM19.7984 20.8784H33.7436V25.6925C33.7423 28.2711 32.4137 30.6535 30.2573 31.9427C28.0942 33.2101 25.4478 33.2101 23.2847 31.9427C21.1283 30.6535 19.7997 28.2711 19.7984 25.6925V20.8784ZM35.1616 14.0991L34.3868 17.485L33.9142 19.2741H19.6283L19.2021 17.5009L18.3808 14.0991C20.9904 12.7652 23.8614 12.0714 26.7712 12.0714C29.6811 12.0714 32.5522 12.7653 35.1616 14.0991ZM22.8973 34.5188H23.3001L26.1667 38.2254C26.3138 38.4154 26.5361 38.5258 26.7711 38.5258C27.0061 38.5258 27.2284 38.4154 27.3755 38.2254L30.2418 34.5188H30.6447C32.3593 34.5196 34.0134 35.1745 35.291 36.3587C36.5688 37.5426 37.3805 39.1727 37.5709 40.9374H15.9711C16.0305 40.3902 16.15 39.8518 16.3275 39.3328H22.8973C23.325 39.3328 23.6718 38.9734 23.6718 38.5304C23.6718 38.0874 23.325 37.7279 22.8973 37.7279H17.1099C18.4017 35.7258 20.5721 34.5223 22.8973 34.5188Z" fill="white"/>
</svg>
