<svg width="54" height="54" viewBox="0 0 54 54" fill="none" xmlns="http://www.w3.org/2000/svg">
<circle cx="27" cy="27" r="27" fill="#BB0708"/>
<path d="M38.9243 31.1822C38.4561 31.7469 37.7068 31.7562 37.3907 31.6903L37.7002 32.9198C38.3066 32.83 39.1496 32.6085 39.1496 32.6085L38.9243 31.1822Z" fill="white"/>
<path fill-rule="evenodd" clip-rule="evenodd" d="M29.3142 8C31.6455 8.00018 33.5361 9.86982 33.5361 12.1757V19.7712C33.536 21.1983 33.0834 22.5202 32.3151 23.6075C35.4492 25.1116 37.8665 27.8489 38.9243 31.1822C38.4561 31.7469 37.7068 31.7562 37.3907 31.6903C36.5024 28.8623 34.4951 26.521 31.8772 25.1774L31.5278 25.0056L31.4551 24.9671C31.3751 24.9192 31.3077 24.8577 31.2509 24.7891C30.0541 25.8389 28.4798 26.4776 26.7543 26.4777C25.0284 26.4776 23.4535 25.8393 22.2565 24.7891C22.1835 24.8772 22.0927 24.9535 21.9818 25.0056C18.217 26.7745 15.6168 30.5692 15.6168 34.9623V38.3374C15.6168 39.7602 16.7833 40.914 18.2219 40.914H31.572C31.4417 38.7918 31.4029 38.6719 30.7783 37.5337C29.9598 36.0419 29.7634 34.4823 30.252 33.3622C30.6157 32.5289 31.9158 31.3488 32.6846 31.1541C33.6548 30.9085 34.5364 30.973 35.6108 31.3686C36.481 31.6891 36.8855 31.7913 37.3907 31.6903L37.7002 32.9198C36.9115 33.0365 36.001 32.954 35.2855 32.6699C33.7533 32.0616 32.3661 32.4403 31.7456 33.636C31.1878 34.7114 31.3255 35.5653 32.3698 37.5098C32.9133 38.5218 32.9532 38.7143 33.0603 40.8266C33.0611 40.8418 33.0621 40.857 33.0631 40.8722C33.064 40.8862 33.0649 40.9002 33.0656 40.914L33.1919 42.5131C33.3281 43.7048 33.5439 44.4315 33.9214 45.0699C34.4628 45.9856 34.9017 45.6046 34.9066 44.2142C34.9081 43.8382 35.0822 43.1715 35.3181 42.512C35.3133 42.5121 35.3084 42.5123 35.3035 42.5126C35.2998 42.5127 35.2961 42.5129 35.2924 42.513L35.2876 42.5131L35.318 42.5069L35.6746 41.5674C36.0921 40.4673 37.6017 40.3498 38.1844 41.3721C38.5208 42.0074 38.8332 42.9055 38.9727 43.7269C39.0659 44.2756 39.182 44.9566 39.2306 45.2406L39.319 45.757L39.7211 45.4259C40.3958 44.8712 40.7078 43.6942 40.9011 40.964C41.075 38.5082 41.0993 38.3952 41.719 37.2828C43.1786 34.6628 42.3823 32.3672 40.0138 32.3669C39.8872 32.3669 39.6986 32.432 39.5098 32.4972C39.3836 32.5407 39.2574 32.5843 39.1496 32.6085L38.9243 31.1822C40.2828 30.8124 41.4307 31.0385 42.4895 31.8756C44.2845 33.2948 44.4848 35.3633 43.0631 37.7919C42.5365 38.6912 42.4523 38.9835 42.4484 39.9365C42.4407 41.8097 42.1335 43.9486 41.74 44.869C41.056 46.4688 39.8978 47.2678 38.8306 46.8751C38.1285 46.6169 37.7879 45.9318 37.5686 44.3391C37.4696 43.6202 37.2933 42.8255 37.177 42.5735L36.9855 42.1602C36.9711 42.1664 36.9568 42.1728 36.9423 42.1789L36.7223 42.8056C36.5886 43.1856 36.4346 43.9116 36.3802 44.4182C36.2456 45.6691 36.0307 46.227 35.5223 46.645C34.8296 47.2142 34.0881 47.1006 33.2151 46.2921C32.3303 45.4727 31.9181 44.5074 31.6993 42.5131H18.2219C15.8904 42.5131 14 40.6434 14 38.3374V34.9623C14 29.9659 16.9374 25.6502 21.1934 23.6075C20.4252 22.5203 19.9735 21.1983 19.9735 19.7712V12.1757C19.9735 9.86982 21.863 8.00019 24.1944 8H29.3142ZM21.5902 19.7712C21.5904 22.5921 23.9021 24.8784 26.7543 24.8786C29.6064 24.8785 31.9191 22.5921 31.9193 19.7712V16.3503H21.5902V19.7712ZM24.1944 9.59906C22.7559 9.59925 21.5902 10.753 21.5902 12.1757V14.7512H31.9193V12.1757C31.9193 10.753 30.7526 9.59925 29.3142 9.59906H24.1944Z" fill="white"/>
</svg>
