<svg width="54" height="54" viewBox="0 0 54 54" fill="none" xmlns="http://www.w3.org/2000/svg">
<circle cx="27" cy="27" r="27" fill="#BB0708"/>
<path fill-rule="evenodd" clip-rule="evenodd" d="M28.5833 9C30.8205 9 32.6342 10.8018 32.6342 13.0244V20.2683C32.6342 21.6208 32.2131 22.875 31.4959 23.9112C32.4716 24.3865 33.3734 24.9887 34.1807 25.6949L35.6133 24.3C35.4747 24.1135 35.398 23.8871 35.397 23.6523V23.6471C35.4013 23.3576 35.5202 23.0816 35.7283 22.8789L39.0639 19.52L39.1452 19.4466C39.3422 19.2848 39.5908 19.1951 39.8488 19.1951C40.1068 19.1952 40.3554 19.2848 40.5524 19.4466L40.6337 19.52L43.3438 22.249C43.5529 22.4553 43.6708 22.736 43.6708 23.0288C43.6708 23.3215 43.5538 23.6023 43.3448 23.8085L43.3438 23.8075L43.3206 23.8305L43.9493 25.1374H43.9472C44.0534 25.3467 44.091 25.5842 44.0516 25.8155C44.0178 26.0135 43.9274 26.1956 43.7963 26.3468L45 27.5237L44.7806 27.5447C44.7968 27.736 44.7361 27.9326 44.5907 28.0802L44.5886 28.0823C44.4584 28.2122 44.2819 28.285 44.098 28.2856H44.0928C43.9116 28.2829 43.7387 28.2089 43.6117 28.0802L42.8258 27.2994C42.6232 27.4877 42.3578 27.5935 42.08 27.595C41.9798 27.6079 41.8783 27.6087 41.7783 27.5939L41.7603 27.5908L41.7434 27.5856L40.0514 27.0982L39.9638 27.1863C39.7581 27.389 39.4803 27.5035 39.1905 27.5049C38.9537 27.5061 38.7248 27.4311 38.5354 27.2942L36.8454 28.9679C37.0258 29.1773 37.1444 29.4306 37.1904 29.7005C37.9055 31.2382 38.3055 32.9504 38.3055 34.7561V37.9756C38.3055 40.1982 36.4918 42 34.2545 42H18.0509C15.8137 42 14 40.1982 14 37.9756V34.7561C14 29.9921 16.7779 25.875 20.8085 23.9112C20.0915 22.8751 19.6713 21.6206 19.6713 20.2683V13.0244C19.6713 10.8018 21.4849 9 23.7222 9H28.5833ZM30.4157 25.1154C29.2759 26.1055 27.7857 26.7073 26.1527 26.7073C24.5195 26.7073 23.0285 26.1058 21.8887 25.1154C21.8202 25.1897 21.737 25.2528 21.6398 25.2988C18.0795 26.979 15.6204 30.5833 15.6204 34.7561V37.9756C15.6204 39.3092 16.7086 40.3902 18.0509 40.3902H34.2545C35.5969 40.3902 36.6851 39.3092 36.6851 37.9756V34.7561C36.6851 33.6531 36.511 32.5906 36.1924 31.5921L28.06 39.687C27.7659 39.9748 27.3667 40.1299 26.9545 40.1199L26.9555 40.1209C26.9539 40.1209 26.9519 40.1198 26.9502 40.1199C26.9481 40.1198 26.946 40.121 26.9439 40.1209C26.5444 40.1224 26.16 39.9662 25.8763 39.686L23.0903 36.9066C22.7997 36.6244 22.6376 36.2362 22.6419 35.8324C22.6402 35.4311 22.8022 35.0457 23.0903 34.7645L31.8282 26.0513L31.8293 26.0502C31.852 26.0279 31.876 26.007 31.9 25.9863C31.506 25.7309 31.0939 25.5009 30.6657 25.2988C30.5682 25.2527 30.4842 25.19 30.4157 25.1154ZM24.0587 35.7308C24.0322 35.7603 24.018 35.7984 24.0176 35.8377C24.0172 35.8782 24.0316 35.9185 24.0587 35.9487L26.7224 38.6212L26.8173 38.6946C26.8781 38.7411 26.9623 38.7358 27.0178 38.6841L27.2646 38.4346L24.3034 35.4918L24.0587 35.7308ZM32.9042 27.0395C32.8684 27.0395 32.8332 27.054 32.8082 27.0804L32.803 27.0867L25.2729 34.5643L28.2689 37.5061L35.6291 30.1888C35.4373 29.7968 35.2233 29.4177 34.9856 29.0549L32.9992 27.0804C32.9746 27.0544 32.9402 27.0396 32.9042 27.0395ZM35.166 26.6591C35.4894 27.014 35.7905 27.3891 36.0701 27.7805L37.5554 26.2986L36.5427 25.2914L35.166 26.6591ZM41.158 25.9653L41.9945 26.2001L42.6211 25.5765L42.2857 24.845L41.158 25.9653ZM36.8497 23.667L39.1895 25.9706L42.1865 23.0267L39.8477 20.6938L36.8497 23.667ZM21.2916 20.2683C21.2916 22.9354 23.468 25.0976 26.1527 25.0976C28.8374 25.0976 31.0138 22.9354 31.0138 20.2683V17.0488H21.2916V20.2683ZM23.7222 10.6098C22.3798 10.6098 21.2916 11.6908 21.2916 13.0244V15.439H31.0138V13.0244C31.0138 11.6908 29.9256 10.6098 28.5833 10.6098H23.7222Z" fill="white"/>
</svg>
