<svg width="172" height="132" viewBox="0 0 172 132" fill="none" xmlns="http://www.w3.org/2000/svg">
<path d="M160.708 113.959C161.163 114.26 161.4 115.127 161.175 115.673C160.51 117.292 158.164 116.684 158.374 114.947C158.514 113.794 159.698 113.292 160.708 113.959Z" fill="black"/>
<path d="M27.6055 15.8934C28.0333 16.3246 28.1512 16.8369 27.9406 17.3492C27.4151 18.6287 25.595 18.3718 25.4114 16.9924C25.3499 16.5288 25.3972 16.3677 25.7033 16.001C26.0138 15.629 26.1597 15.5632 26.6733 15.5632C27.1316 15.5632 27.3573 15.6431 27.6055 15.8934Z" fill="black"/>
<path d="M162.997 74.0698C163.664 74.4244 164.27 74.815 164.343 74.9378C164.546 75.2773 163.735 77.7025 162.772 79.6359C160.054 85.0943 155.482 90.6383 152.285 92.3518C151.317 92.8703 150.78 92.8171 149.825 92.108C148.667 91.2488 147.981 90.3742 148.465 90.3742C148.564 90.3742 149.218 89.9934 149.919 89.528C152.277 87.9622 155.804 84.2018 157.851 81.0722C158.869 79.5159 160.767 75.7041 161.204 74.3384C161.366 73.8307 161.563 73.4174 161.642 73.4201C161.72 73.4229 162.33 73.7153 162.997 74.0698Z" fill="black"/>
<path d="M12.4753 39.3006C11.641 44.4364 14.3794 51.4993 19.1593 56.5391L20.2107 57.6479V58.8049C20.2107 62.0913 21.5358 65.2324 24.0462 67.8963C24.5701 68.4525 24.9677 68.9391 24.9293 68.9777C24.7431 69.1653 20.7411 65.8849 18.9168 64.0495C14.9787 60.0872 11.9522 54.7659 10.8257 49.8231C10.2664 47.3691 10.3423 44.1763 11.0127 41.959C11.2785 41.0799 12.4789 38.3591 12.5634 38.4443C12.5875 38.4685 12.5478 38.8538 12.4753 39.3006Z" fill="black"/>
<path d="M40.6755 128.557C43.0815 131.003 44.1812 131.522 44.1812 131.522L51.9566 131.814C51.6889 131.795 47.6208 127.587 44.3514 123.948C36.4622 115.165 28.897 105.203 25.1394 98.6485C22.2061 93.5314 20.1968 88.6256 19.3015 84.3949C18.9658 82.8094 18.9313 82.3801 18.93 79.7748C18.9284 76.7403 19.0686 75.768 19.79 73.8132L20.0631 73.0733L19.44 73.7568C17.9711 75.3682 16.3857 78.3001 15.8901 80.3219C15.3801 82.402 15.2625 83.4373 15.2759 85.7241C15.304 90.5181 16.6177 95.3047 19.4987 101.11C23.1023 108.372 31.4049 119.133 40.6755 128.557Z" fill="black"/>
<path fill-rule="evenodd" clip-rule="evenodd" d="M48.4984 25.6003C46.2373 25.9795 43.9856 26.7929 42.033 27.9363C41.1211 28.4704 40.9422 28.5293 40.5649 28.4202C40.3287 28.3519 39.3307 28.1926 38.3472 28.0661C33.6748 27.4653 26.7473 28.3593 21.9066 30.1876C14.0134 33.169 9.49263 38.9996 9.49263 46.1988C9.49263 51.9167 12.718 58.8903 17.8362 64.2389C19.4138 65.8873 21.4822 67.7413 22.8863 68.7652C23.3505 69.1037 23.7313 69.4114 23.7325 69.449C23.7337 69.4866 23.3812 69.6883 22.9493 69.8975C20.2185 71.2186 17.6936 73.8281 16.171 76.9027C14.3167 80.6467 13.8598 85.5775 14.8605 91.041C15.5245 94.6658 17.813 100.299 20.4369 104.767C23.7168 110.352 29.0647 117.3 35.8336 124.771C38.1668 127.346 42.6734 131.814 42.9373 131.814L51.9566 131.814L44.1812 131.522C44.1812 131.522 43.0815 131.003 40.6755 128.557C31.4049 119.133 23.1023 108.372 19.4987 101.11C16.6177 95.3047 15.304 90.5181 15.2759 85.7241C15.2625 83.4373 15.3801 82.402 15.8901 80.3219C16.3857 78.3001 17.9711 75.3682 19.44 73.7568L20.0631 73.0733L19.79 73.8132C19.0686 75.768 18.9284 76.7403 18.93 79.7748C18.9313 82.3801 18.9658 82.8094 19.3015 84.3949C20.1968 88.6256 22.2061 93.5314 25.1394 98.6485C28.897 105.203 36.4622 115.165 44.3514 123.948C47.6208 127.587 51.6889 131.795 51.9566 131.814L51.9584 131.814C52.0915 131.814 52.2394 131.712 52.287 131.586C52.3501 131.421 51.9533 130.924 50.8391 129.774C38.6073 117.147 28.0896 103.384 23.6052 94.1352C20.6305 88.0006 19.2427 82.3489 19.6703 78.1112C19.9414 75.425 20.3516 74.0036 21.2486 72.6411C22.0673 71.3979 23.3163 70.578 25.1906 70.0535C25.9811 69.8322 26.0515 69.8319 26.3438 70.0487C27.5353 70.9322 29.221 71.9615 30.1887 72.3962L31.3296 72.9086L30.1456 74.1625C28.2391 76.1814 27.3841 77.9624 27.3754 79.9331C27.3701 81.1594 27.6705 82.0934 28.3142 82.8514C28.9495 83.5996 29.6905 83.9393 30.6957 83.9432C31.6205 83.9467 32.3268 83.6803 32.9153 83.1062L33.3416 82.6903L33.3919 84.3098C33.4375 85.7787 33.4811 86.0119 33.8603 86.8183C34.3913 87.9471 35.2338 88.7971 36.3557 89.3354C37.1737 89.7281 37.3408 89.758 38.6621 89.75C39.848 89.7427 40.2399 89.6827 41.0014 89.3912C42.1458 88.9533 43.2569 88.2874 44.0855 87.5428L44.7249 86.9682L45.255 87.5152C46.0508 88.3369 47.0347 88.7683 48.276 88.8394L49.3124 88.8989L48.743 90.0811C47.5301 92.5992 46.7791 95.4678 46.5063 98.6257C46.0035 104.443 47.8621 112.503 51.2973 119.404C51.67 120.152 51.9557 120.778 51.9325 120.795C51.9092 120.811 51.6085 120.987 51.2643 121.185C50.5438 121.601 49.8362 122.363 49.5668 123.013C49.4642 123.26 49.3802 123.801 49.3802 124.214C49.3802 126.497 51.1408 128.322 53.6228 128.613C54.2336 128.685 56.3474 128.425 57.1321 128.182C57.2925 128.132 57.4767 128.332 57.7961 128.904C58.6883 130.5 59.554 131.677 59.8354 131.677C59.9846 131.677 60.1459 131.575 60.1937 131.449C60.2877 131.202 60.2465 131.121 59.091 129.284L58.3165 128.053L59.0379 127.886C60.5273 127.54 63.9058 127.031 66.0593 126.828C68.3194 126.614 74.0163 126.553 75.1274 126.73L75.7073 126.822L77.0344 129.147C78.1815 131.157 78.4065 131.472 78.693 131.472C79.335 131.472 79.1802 130.92 77.9651 128.874C76.874 127.036 76.8412 126.957 77.153 126.915C77.9191 126.812 84.0596 127.933 87.5719 128.818C88.4674 129.044 90.5431 129.691 92.1848 130.257C96.8786 131.875 97.2235 131.971 98.4257 131.996C99.364 132.016 99.6147 131.968 100.277 131.64C102.395 130.592 103.458 127.972 102.516 126.117C101.734 124.575 99.9287 123.353 96.4812 122.034L95.3508 121.601L96.5491 120.709C101.451 117.06 108.006 113.511 113.689 111.43C116.042 110.568 116.051 110.567 119.658 110.574C124.532 110.584 128.283 110.968 132.819 111.923C138.332 113.084 142.917 114.915 146.928 117.559C149.975 119.566 153.801 122.97 156.017 125.642C157.177 127.041 157.516 127.256 157.779 126.76C157.9 126.533 157.771 126.313 156.916 125.286C155.77 123.909 152.325 120.497 150.923 119.351C146.743 115.933 141.626 113.213 136.811 111.85C133.763 110.987 128.867 110.136 125.31 109.851C124.649 109.798 124.052 109.687 123.982 109.604C123.456 108.98 122.12 106.848 122.203 106.765C122.26 106.708 123.069 106.559 124.001 106.435C127.019 106.032 130.782 106.326 135.442 107.328C138.596 108.007 140.207 108.567 145.068 110.673C146.375 111.24 147.923 111.835 148.507 111.997C150.394 112.519 152.074 112.154 153.111 110.998C154.33 109.637 154.409 107.66 153.306 106.125C152.173 104.549 147.734 102.077 143.211 100.505C138.407 98.8355 134.152 98.0273 128.733 97.7553C124.869 97.5612 119.854 97.9352 117.608 98.5847C117.365 98.6548 117.157 98.6979 117.145 98.6804C117.134 98.6629 116.707 97.9408 116.196 97.0757C114.344 93.938 112.043 90.5669 109.428 87.1617C106.279 83.0609 104.05 80.5444 100.034 76.5558C95.9035 72.4526 93.5338 70.6956 89.0643 68.4222C87.8704 67.8149 86.2966 67.113 85.5668 66.8625C84.4734 66.4871 84.2533 66.3655 84.3144 66.1709C84.5615 65.3862 84.7906 63.64 84.7906 62.5423C84.7906 60.2962 84.2638 58.294 82.9557 55.5673C81.9596 53.4914 81.1443 52.305 79.2902 50.2334C77.143 47.8342 76.5579 47.1196 75.4442 45.5362C74.9216 44.7932 74.177 43.8356 73.7893 43.4081L73.0844 42.6306L73.6412 41.5084C74.3611 40.0576 74.6152 39.0335 74.6152 37.5825C74.6152 35.2277 73.8675 33.5464 71.9696 31.6332C71.0051 30.6609 70.492 30.2679 69.5275 29.7621C66.9063 28.3876 64.3275 28.1066 61.7942 28.9191C61.4211 29.0388 61.0636 29.1848 60.9997 29.2438C60.9358 29.3027 61.0488 29.7676 61.251 30.2769C61.9379 32.0078 62.2798 33.6775 62.3795 35.7901C62.4526 37.3366 62.5163 37.7806 62.6761 37.8604C62.788 37.9164 63.4783 38.0898 64.2101 38.246C65.7673 38.5782 67.5914 39.4036 69.3102 40.5534C70.6413 41.444 73.1478 43.9052 74.0725 45.2298C75.4677 47.2281 76.3124 48.2939 78.1465 50.3702C80.6853 53.2441 81.6246 54.6604 82.745 57.3039C83.5336 59.1646 83.8389 60.5938 83.84 62.4309C83.8415 64.8115 83.4107 66.4973 82.1342 69.1071C80.6528 72.1356 78.164 75.0475 75.3614 77.0313C73.6373 78.2518 70.1733 80.0378 68.5054 80.5666C67.8737 80.7668 66.5936 81.0838 65.6609 81.2712C59.5701 82.494 53.7091 81.8918 49.0775 79.5672C47.2312 78.6405 46.5843 78.1818 46.6573 77.8508C46.8117 77.1518 46.7373 76.7664 46.4401 76.7237C46.1959 76.6886 46.0709 76.839 45.7087 77.6043C43.8711 81.4855 38.6236 82.0713 35.2351 78.7736C33.2002 76.7932 32.6452 74.2678 33.6516 71.5689C33.8777 70.963 34.1765 70.5275 34.7938 69.9047C35.5196 69.1725 35.7604 69.0212 36.6167 68.7589C37.901 68.3657 39.0777 68.4328 40.2575 68.9665C41.1759 69.382 41.5549 69.3518 41.4868 68.8683C41.4513 68.616 40.7267 68.1086 40.0513 67.8633C40.0319 67.8564 40.2922 67.2627 40.6299 66.5441C41.5123 64.6662 41.8031 63.4269 41.809 61.5166C41.819 58.3755 40.945 56.0186 38.9685 53.8566C38.1654 52.9783 38.0706 52.9178 37.1369 52.689C35.8988 52.3855 34.7454 51.9914 34.5034 51.7888C34.3684 51.6758 34.3573 51.5846 34.4628 51.4563C34.5806 51.3133 34.7556 51.3312 35.3802 51.5504C37.7408 52.3791 40.0156 52.622 42.2574 52.2851C45.9224 51.7343 48.7753 50.1022 50.8426 47.374C51.1898 46.9157 51.5184 46.5213 51.5727 46.4976C51.627 46.474 51.6403 46.373 51.6023 46.2731C51.5643 46.1732 51.7858 45.5851 52.0945 44.9663C52.9658 43.2195 53.2169 42.0928 53.2349 39.85C53.2461 38.4758 53.2968 37.9305 53.4174 37.89C53.7064 37.7929 53.8574 38.5087 53.8574 39.9759C53.8574 42.2022 53.4201 43.8879 52.376 45.6859C51.7651 46.7379 51.7554 46.7182 53.0285 47.0195C55.7751 47.6696 58.8367 45.8522 60.4015 42.6429C61.2844 40.8322 61.6136 39.4371 61.694 37.1654C61.7978 34.2282 61.2384 31.4359 60.1925 29.6709C59.5486 28.5842 58.1219 27.2928 56.9232 26.7116C54.6758 25.6219 51.1461 25.1564 48.4984 25.6003ZM40.0441 29.2769L38.98 29.1078C37.929 28.941 32.9343 28.8013 32.0142 28.9132C28.0922 29.3901 25.3355 29.967 22.933 30.8139C17.7074 32.6557 14.4124 35.3516 13.4407 38.5797C12.2844 42.4214 13.8445 48.1147 17.474 53.2986C18.5662 54.8588 20.3312 56.7664 20.34 56.3966C20.3558 55.7397 20.8284 54.2293 21.3836 53.0617C21.8536 52.0734 22.2181 51.5462 23.0061 50.7147C23.5651 50.1248 24.3471 49.4169 24.7438 49.1414L25.4652 48.6406L25.0858 47.6558C24.5579 46.2854 24.3646 45.0167 24.4586 43.5402C24.5583 41.9748 24.8256 40.9638 25.5269 39.5001C25.9843 38.5454 26.3009 38.1215 27.3186 37.1022C28.3038 36.1152 28.7885 35.7466 29.7078 35.2853C31.6351 34.3182 33.8899 33.9261 35.4383 34.2887L35.9456 34.4074L36.3649 33.6684C36.9551 32.6286 37.7124 31.6723 38.9639 30.3866L40.0441 29.2769ZM49.4013 42.2985C49.8871 41.2518 50.3584 39.0454 50.3025 38.0786C50.2715 37.5416 50.2071 37.3695 50.0247 37.3344C49.8263 37.2964 49.7872 37.3928 49.7872 37.9202C49.7872 40.4281 48.3228 43.6235 46.3066 45.515C44.4047 47.2991 41.8838 48.3626 39.5101 48.3823C39.0255 48.3862 38.9335 48.4307 38.9335 48.6606C38.9335 48.9033 39.024 48.9341 39.7387 48.9341C43.5918 48.9341 47.5982 46.1828 49.4013 42.2985ZM19.1593 56.5391C14.3794 51.4993 11.641 44.4364 12.4753 39.3006C12.5478 38.8538 12.5875 38.4685 12.5634 38.4443C12.4789 38.3591 11.2785 41.0799 11.0127 41.959C10.3423 44.1763 10.2664 47.3691 10.8257 49.8231C11.9522 54.7659 14.9787 60.0872 18.9168 64.0495C20.7411 65.8849 24.7431 69.1653 24.9293 68.9777C24.9677 68.9391 24.5701 68.4525 24.0462 67.8963C21.5358 65.2324 20.2107 62.0913 20.2107 58.8049V57.6479L19.1593 56.5391ZM38.5824 58.8717C38.0542 56.8167 36.7939 55.035 35.1055 53.9563C34.6717 53.6792 34.508 53.6627 34.3733 53.8824C34.3142 53.9786 34.407 54.1268 34.6027 54.2494C34.7834 54.3623 35.3755 54.9024 35.9186 55.4495C38.0688 57.6155 38.7477 60.4728 37.793 63.3382C37.4376 64.4052 37.4334 64.6622 37.7717 64.6622C37.9462 64.6622 38.3715 63.6416 38.6552 62.5423C38.8651 61.7287 38.8274 59.8245 38.5824 58.8717ZM34.9255 63.4757C34.532 62.665 33.5548 61.5158 32.774 60.9456C32.1503 60.4901 31.8785 60.456 31.8785 60.8327C31.8785 60.9832 31.9374 61.1063 32.0092 61.1063C32.0811 61.1063 32.5394 61.4829 33.0277 61.9434C34.4038 63.2411 35.1283 65.0646 35.1326 67.2412C35.1344 68.102 35.1656 68.2353 35.3493 68.1644C35.4673 68.1187 35.5894 68.0813 35.6206 68.0813C35.6518 68.0813 35.6763 67.6351 35.675 67.0898C35.6721 65.8408 35.3726 64.397 34.9255 63.4757ZM96.7676 74.6357C93.9922 72.2144 89.2865 69.3568 85.4132 67.7407C84.7807 67.4767 84.1954 67.2607 84.1124 67.2607C84.0295 67.2607 83.8312 67.5838 83.6716 67.9788C83.2025 69.1407 82.2404 70.944 81.5866 71.8867C81.2522 72.3689 80.9968 72.7817 81.0191 72.8039C81.0415 72.826 81.7923 72.9453 82.6877 73.0689C85.763 73.4937 87.7914 74.1674 91.1757 75.8883C93.4277 77.0335 95.8027 78.5565 97.6795 80.0592C99.3645 81.4082 104.926 87.0892 107.041 89.622C111.072 94.4493 114.377 98.1313 115.44 98.9802C115.848 99.3059 115.995 99.3605 116.106 99.2264C116.433 98.8284 112.451 92.6898 108.544 87.5705C105.075 83.0252 100.021 77.4739 96.7676 74.6357ZM87.7076 75.2354C86.3697 74.7232 84.6786 74.318 82.3963 73.963C81.4372 73.8137 80.5531 73.6909 80.4314 73.6902C80.2383 73.6889 79.4994 74.4939 79.4994 74.7053C79.4994 74.748 79.6142 74.7829 79.7546 74.7829C80.1201 74.7829 81.6342 75.3767 82.8846 76.0103L83.9579 76.5544L84.6905 76.2162C85.7268 75.7379 86.5297 75.6497 87.1081 75.9506C88.6962 76.7762 92.0905 79.3395 94.6269 81.6284C97.6032 84.3143 103.598 90.5551 106.576 94.0669C106.619 94.1177 106.662 94.1678 106.703 94.2172C108.74 96.6183 109.437 97.4406 109.253 97.9365C109.157 98.1948 108.822 98.3645 108.313 98.6227C108.293 98.6329 108.272 98.6432 108.252 98.6537C107.735 98.916 107.312 99.1633 107.312 99.2034C107.312 99.2433 107.816 99.8136 108.432 100.471C109.047 101.128 111.075 103.464 112.937 105.662L116.324 109.658H119.559C122.112 109.658 122.773 109.622 122.693 109.487C122.408 109.012 119.821 105.397 119.34 104.803C117.93 103.062 115.861 100.763 113.616 98.4434C110.926 95.6633 110.294 94.955 107.086 91.1264C101.866 84.8949 97.4555 80.6505 93.8617 78.3989C92.2338 77.379 89.1033 75.7698 87.7076 75.2354ZM104.11 92.7048C98.072 85.8814 92.5986 80.6947 88.5703 77.9784C86.6978 76.7159 86.3079 76.5878 85.3103 76.907C84.6519 77.1177 81.1826 78.8746 79.2959 79.9528C76.6227 81.4804 68.2624 85.5327 64.5077 87.1207C63.6122 87.4994 62.8185 87.858 62.7439 87.9173C62.6693 87.9768 62.1198 88.2836 61.5229 88.599C60.001 89.4029 60.0042 89.3985 60.5207 90.0418C61.5459 91.3188 63.3779 94.3501 66.1006 99.2748C67.7049 102.177 69.492 105.346 70.0717 106.318C73.1123 111.416 76.2103 115.539 76.9994 115.539C77.1793 115.539 78.8939 114.555 80.8864 113.308C89.9987 107.605 101.102 101.179 106.334 98.5801C107.318 98.0912 108.124 97.6391 108.125 97.5753C108.127 97.4087 106.144 95.0036 104.11 92.7048ZM78.4286 79.3861L77.5091 78.4521C77.0035 77.9385 76.5271 77.5197 76.4505 77.5215C76.3738 77.5234 75.7006 77.9247 74.9544 78.4135C73.2398 79.5363 70.4443 80.9331 68.8115 81.4829C67.0694 82.0693 63.2093 82.7037 60.6565 82.8229L58.5689 82.9204L59.4333 83.6043C59.9087 83.9804 60.8867 84.858 61.6067 85.5547L62.9158 86.8213L66.2896 85.3045C70.2813 83.51 74.1245 81.6642 76.6236 80.3414L78.4286 79.3861ZM60.8955 87.4704C60.6415 86.992 58.2015 84.5185 57.3375 83.8637C56.9011 83.533 56.4719 83.2624 56.3839 83.2624C56.0067 83.2624 53.5729 85.0205 52.6225 85.9796C49.4287 89.2026 47.3575 94.8834 47.3479 100.446C47.3424 103.52 47.8991 107.174 48.9073 110.683C49.4023 112.406 50.232 114.8 50.3903 114.961C50.4105 114.982 50.9947 114.647 51.6885 114.217C54.6609 112.374 59.5273 110.73 64.5755 109.865C65.2844 109.743 65.9986 109.616 66.1626 109.582C66.4448 109.523 66.3844 109.361 65.0376 106.551C64.2549 104.918 63.6323 103.457 63.654 103.304C63.6788 103.13 63.7954 103.025 63.965 103.025C64.1838 103.025 64.6344 103.807 66.2911 107.06C68.7469 111.882 70.0252 114.285 71.1751 116.243L72.0303 117.698L74.1708 117.782C80.0417 118.013 83.3094 118.389 87.4209 119.309C89.8455 119.851 90.4044 119.999 92.6357 120.691C93.4807 120.954 94.2439 121.14 94.3316 121.106C94.4194 121.072 95.1141 120.575 95.8752 120.001C100.646 116.405 107.468 112.732 113.553 110.484C114.411 110.167 115.14 109.881 115.172 109.849C115.204 109.817 115.043 109.592 114.813 109.348C114.583 109.105 113.132 107.398 111.587 105.555C108.221 101.538 106.542 99.6743 106.29 99.6743C106.188 99.6743 105.506 99.9907 104.775 100.378C102.948 101.344 93.9518 106.446 91.7099 107.787C89.4842 109.118 78.766 115.747 78.2439 116.115C77.3251 116.764 76.6722 116.69 75.7855 115.839C73.6558 113.793 70.7797 109.516 67.1227 102.956C61.987 93.7423 61.5959 93.0827 59.9362 90.8314C59.4284 90.1426 59.0129 89.4535 59.0129 89.2997C59.0129 88.9926 59.575 88.5158 60.474 88.0606C61.0026 87.793 61.0395 87.7414 60.8955 87.4704ZM148.15 103.655C143.256 101.119 137.538 99.5111 131.123 98.865C127.878 98.5383 123.946 98.5848 121.015 98.9847C119.768 99.1547 116.514 99.7896 116.424 99.8801C116.394 99.9107 116.675 100.262 117.05 100.66C117.929 101.594 119.246 103.165 120.406 104.663C121.276 105.786 121.35 105.847 121.747 105.773C126.151 104.945 130.028 105.147 136.278 106.53C138.898 107.11 139.882 107.442 143.399 108.938C147.887 110.847 148.311 111.008 149.327 111.182C150.122 111.319 150.366 111.308 151.06 111.103C153.024 110.525 153.729 108.547 152.585 106.826C152.013 105.965 150.445 104.844 148.15 103.655ZM70.622 117.249C69.6879 115.625 68.3206 113.101 67.7098 111.874C67.654 111.762 67.6033 111.658 67.5564 111.562C67.3092 111.055 67.165 110.759 66.9282 110.614C66.5962 110.411 66.0822 110.504 64.8474 110.727C64.68 110.757 64.4994 110.79 64.3042 110.824C59.8435 111.615 55.8168 112.944 52.6498 114.671C50.8243 115.666 50.7219 115.755 50.8874 116.194C50.9951 116.48 52.7525 120.311 52.8247 120.417C52.8334 120.43 53.5424 120.262 54.4004 120.043C59.5689 118.728 64.9487 117.939 69.4859 117.83L70.9366 117.796L70.622 117.249ZM90.2175 120.958C87.2486 120.121 83.3788 119.401 79.4316 118.952C78.1171 118.802 69.7486 118.667 68.2387 118.77C66.6232 118.881 63.0842 119.259 61.8621 119.45C58.4654 119.983 54.1562 120.962 52.6233 121.549C51.1687 122.106 50.4145 122.94 50.2487 124.175C50.1814 124.677 50.2405 124.909 50.6224 125.648C51.1403 126.648 51.9219 127.283 53.0961 127.656C53.7957 127.878 53.8524 127.874 55.9705 127.458C58.9469 126.873 62.6362 126.266 64.9825 125.974C67.4072 125.672 74.7915 125.632 77.0573 125.909C83.716 126.72 88.9961 128.025 95.7122 130.518C96.7012 130.885 97.3632 131.04 98.1543 131.09C99.1583 131.153 99.2956 131.128 99.9854 130.761C101.403 130.007 102.242 128.379 101.881 127.081C101.514 125.758 100.518 124.887 97.9645 123.656C96.5994 122.998 92.9852 121.74 90.2175 120.958Z" fill="black"/>
<path d="M83.1713 80.5612C83.1047 80.7304 82.914 81.3186 82.7477 81.8682C81.9769 84.4153 80.2116 86.3047 77.144 87.8656C74.5227 89.1996 72.2663 89.704 68.9458 89.6986C67.0723 89.6954 66.7237 89.7271 66.6554 89.907C66.4984 90.3191 66.8654 90.4296 68.5808 90.4871C71.4609 90.5838 73.9963 90.1156 76.5119 89.0222C79.963 87.5223 82.1472 85.5257 83.1974 82.9106C83.6155 81.8698 83.8928 80.7238 83.7913 80.457C83.6747 80.1509 83.3086 80.2125 83.1713 80.5612Z" fill="black"/>
<path d="M86.7601 83.1598C86.7211 83.329 86.5964 83.9291 86.483 84.4932C85.3856 89.9529 82.2993 93.894 77.0504 96.5388C76.0264 97.0548 75.6983 97.2828 75.7573 97.4376C75.8007 97.5518 75.8363 97.6709 75.8363 97.7024C75.8363 98.04 77.7718 97.1518 79.4844 96.0281C83.193 93.5949 85.4257 90.7295 86.6648 86.8133C87.1303 85.3419 87.5632 83.196 87.4364 82.9891C87.2779 82.7305 86.833 82.8428 86.7601 83.1598Z" fill="black"/>
<path fill-rule="evenodd" clip-rule="evenodd" d="M126.07 0.233265C125.679 0.378784 125.007 0.71304 124.578 0.976178C123.666 1.53432 118.549 5.04784 116.667 6.40715L115.372 7.3429L114.022 6.66673C111.242 5.275 108.266 4.2948 105.707 3.92841C104.246 3.71929 100.538 3.84074 99.1719 4.14245C95.3001 4.99751 89.9389 7.7357 87.3893 10.16C86.0647 11.4198 85.6047 12.3561 85.6047 13.7926C85.6047 16.8299 88.1183 21.0563 92.6641 25.6626C98.7447 31.8239 106.962 37.2431 113.909 39.6726C116.906 40.7206 119.156 41.0889 121.086 40.8474C122.614 40.6562 123.306 40.3094 124.304 39.233C126.085 37.3124 127.375 34.393 128.024 30.8126C128.323 29.1646 128.319 26.0344 128.016 24.3162C127.424 20.9578 125.686 17.2059 123.383 14.318L122.663 13.4146L123.457 12.8501C123.894 12.5395 125.2 11.5185 126.359 10.581C127.519 9.64358 128.579 8.81601 128.717 8.74216C128.915 8.63521 129.214 8.765 130.18 9.37566C130.848 9.79799 136.797 13.4298 143.401 17.4464C150.005 21.463 155.448 24.7903 155.496 24.8405C155.545 24.8907 153.085 27.5144 150.03 30.6709C144.41 36.4769 144.007 36.9671 144.854 36.9671C145.161 36.9671 145.204 36.9226 161.445 20.165C168.078 13.3214 168.496 12.8275 167.751 12.7199C167.548 12.6906 166.694 13.4952 164.45 15.8313C162.785 17.5644 161.37 18.9824 161.306 18.9824C161.241 18.9824 156.896 16.4075 151.65 13.2604C136.49 4.16542 132.36 1.73126 130.226 0.632485C129.186 0.0969096 128.988 0.0427503 127.934 0.00746467C127.057 -0.02194 126.611 0.0319457 126.07 0.233265ZM129.381 1.26065C130.766 1.91056 137.54 5.90755 154.119 15.856C157.44 17.8486 160.267 19.5411 160.403 19.6171C160.618 19.738 160.38 20.0331 158.503 21.9762L156.358 24.1971L149.845 20.2472C139.67 14.0756 134.318 10.8153 131.64 9.15806C130.282 8.31805 129.061 7.63107 128.926 7.63134C128.58 7.63203 128.071 7.96888 126.462 9.262C125.689 9.88278 124.387 10.9115 123.568 11.5482L122.078 12.7058L121.035 11.7014C119.934 10.641 117.942 9.03935 116.893 8.37125C116.549 8.15201 116.268 7.94194 116.268 7.90433C116.27 7.82719 119.651 5.45184 123.121 3.09044C124.391 2.22594 125.765 1.38921 126.174 1.23111C127.228 0.823137 128.473 0.834625 129.381 1.26065ZM106.027 4.96017C110.272 5.65412 115.324 8.07747 119.048 11.2061C124.072 15.4271 127.392 21.8761 127.392 27.4147C127.392 30.2191 126.365 34.2963 125.11 36.476L124.763 37.079L124.452 36.1496C122.856 31.3813 118.563 26.243 111.222 20.3152C103.789 14.3125 95.0951 10.0926 90.1623 10.0926C89.5211 10.0926 88.9965 10.0446 88.9965 9.98577C88.9965 9.79293 91.6181 8.22464 93.6852 7.18084C95.8797 6.07262 98.1291 5.27295 99.8904 4.97494C101.396 4.72015 104.513 4.71262 106.027 4.96017ZM91.5105 10.9779C98.0658 12.0496 106.916 17.2262 115.342 24.9168C119.152 28.3945 122.434 32.8254 123.595 36.0577C124.136 37.5657 124.152 38.1593 123.667 38.6701C122.316 40.0916 119.92 40.3158 116.211 39.3677C106.651 36.925 92.9216 26.702 88.0977 18.4353C86.3549 15.4489 86.0681 12.7844 87.3555 11.5411C88.151 10.7729 89.3024 10.6168 91.5105 10.9779ZM25.6145 14.7463C23.741 15.744 24.0772 18.5144 26.1464 19.1282C27.529 19.5383 29.0294 18.3661 29.0294 16.8758C29.0294 15.1111 27.1411 13.9334 25.6145 14.7463ZM41.3304 14.8338C41.2806 14.8839 41.2399 15.4378 41.2399 16.0647V17.2044H40.1012C38.965 17.2044 38.751 17.2955 38.897 17.7173C38.938 17.8357 39.3054 17.8882 40.0927 17.8882H41.2293L41.2685 19.0849C41.3043 20.1773 41.3313 20.2816 41.5791 20.2816C41.8238 20.2816 41.8571 20.1677 41.9183 19.1191L41.9861 17.9566L43.0036 17.9304C43.5633 17.9159 44.1018 17.9006 44.2003 17.8962C44.3068 17.8915 44.3617 17.7636 44.3359 17.5805C44.2952 17.2918 44.2194 17.2703 43.1054 17.2333L41.9183 17.1937V15.9682C41.9183 14.8709 41.8922 14.7426 41.6696 14.7426C41.5327 14.7426 41.3801 14.7837 41.3304 14.8338ZM27.6055 15.8934C28.0333 16.3246 28.1512 16.8369 27.9406 17.3492C27.4151 18.6287 25.595 18.3718 25.4114 16.9924C25.3499 16.5288 25.3972 16.3677 25.7033 16.001C26.0138 15.629 26.1597 15.5632 26.6733 15.5632C27.1316 15.5632 27.3573 15.6431 27.6055 15.8934ZM74.8761 20.2027C74.4528 20.6294 74.383 21.0057 74.6374 21.4874C75.2142 22.5792 76.786 22.1975 76.786 20.9655C76.786 19.8887 75.6412 19.4315 74.8761 20.2027ZM159.363 32.5883C150.725 41.4571 150.433 41.7573 150.471 42.0069C150.472 42.0116 150.473 42.0162 150.474 42.0209L150.476 42.0322L150.476 42.0332L150.479 42.0462C150.576 42.5553 151.004 42.408 151.79 41.5948C152.214 41.1558 155.493 37.7808 159.076 34.095L159.977 33.1689C166.56 26.3983 166.994 25.9518 166.9 25.7259C166.889 25.7 166.871 25.677 166.855 25.6478C166.782 25.5172 166.64 25.4104 166.538 25.4104C166.437 25.4104 163.402 28.4407 159.795 32.1443L159.363 32.5883ZM82.2952 32.3283C82.1537 32.7001 82.205 33.4164 82.3917 33.6738C82.5591 33.9046 82.5848 33.9057 82.7987 33.69C83.2012 33.2843 83.0686 32.1119 82.6199 32.1119C82.4867 32.1119 82.3405 32.2093 82.2952 32.3283ZM80.3474 34.2539C80.2542 34.2919 80.1778 34.4343 80.1778 34.5704C80.1778 34.8795 80.3747 34.9576 81.0385 34.912C81.6829 34.8677 81.9178 34.6693 81.6749 34.3743C81.5086 34.1723 80.7232 34.101 80.3474 34.2539ZM83.6294 34.3594C83.3136 34.5943 83.4617 34.7991 84.0206 34.9001C84.4966 34.9863 85.062 34.7818 85.062 34.5234C85.062 34.1377 84.0788 34.0251 83.6294 34.3594ZM82.3533 35.522C81.9849 36.2158 82.3526 37.2926 82.8234 36.8987C83.1772 36.6026 83.0105 35.2575 82.6199 35.2575C82.5506 35.2575 82.4306 35.3765 82.3533 35.522ZM50.3025 38.0786C50.3584 39.0454 49.8871 41.2518 49.4013 42.2985C47.5982 46.1828 43.5918 48.9341 39.7387 48.9341C39.024 48.9341 38.9335 48.9033 38.9335 48.6606C38.9335 48.4307 39.0255 48.3862 39.5101 48.3823C41.8838 48.3626 44.4047 47.2991 46.3066 45.515C48.3228 43.6235 49.7872 40.4281 49.7872 37.9202C49.7872 37.3928 49.8263 37.2964 50.0247 37.3344C50.2071 37.3695 50.2715 37.5416 50.3025 38.0786ZM12.4753 39.3006C11.641 44.4364 14.3794 51.4993 19.1593 56.5391L20.2107 57.6479V58.8049C20.2107 62.0913 21.5358 65.2324 24.0462 67.8963C24.5701 68.4525 24.9677 68.9391 24.9293 68.9777C24.7431 69.1653 20.7411 65.8849 18.9168 64.0495C14.9787 60.0872 11.9522 54.7659 10.8257 49.8231C10.2664 47.3691 10.3423 44.1763 11.0127 41.959C11.2785 41.0799 12.4789 38.3591 12.5634 38.4443C12.5875 38.4685 12.5478 38.8538 12.4753 39.3006ZM133.836 38.7255C133.04 39.0968 132.408 40.1212 132.415 41.0315C132.421 41.9502 133.127 43.0046 133.947 43.3175C134.483 43.5224 135.478 43.499 135.912 43.2713C136.693 42.8614 137.299 41.8536 137.293 40.9719C137.288 40.3016 136.847 39.4462 136.28 39.0105C135.682 38.5508 134.505 38.4135 133.836 38.7255ZM135.455 39.6306C135.859 39.7854 136.345 40.5185 136.346 40.9743C136.347 41.7246 135.586 42.5061 134.854 42.5061C134.135 42.5061 133.361 41.7265 133.361 41.0017C133.361 39.9759 134.467 39.2519 135.455 39.6306ZM63.925 42.6218C63.0633 42.9298 62.2177 43.5849 62.1578 43.991C62.0851 44.4836 62.4942 44.4854 63.4492 43.9969C64.548 43.4346 65.8227 43.3065 66.8728 43.6526C67.6896 43.9219 67.997 43.8329 67.9407 43.3434C67.8441 42.5032 65.4568 42.0742 63.925 42.6218ZM93.4292 43.7429C92.7702 44.2655 92.8701 45.5264 93.6019 45.9212C94.4502 46.3789 95.5087 45.7141 95.5087 44.7235C95.5087 43.6394 94.2866 43.063 93.4292 43.7429ZM162.068 47.1667C161.592 47.7366 161.608 48.2981 162.113 48.8079C162.384 49.0807 162.646 49.2076 162.938 49.2076C163.542 49.2076 164.159 48.5661 164.159 47.9375C164.159 46.8265 162.777 46.3171 162.068 47.1667ZM129.113 47.3583C126.896 47.6132 125.108 47.9275 123.61 48.3252C121.344 48.9271 115.11 51.3978 113.586 52.2986C112.737 52.8001 111.861 53.6343 111.599 54.1915C111.213 55.0102 111.363 56.0558 111.958 56.6956C112.115 56.8649 112.187 57.0038 112.118 57.0045C111.696 57.0086 103.194 58.524 102.997 58.6301C102.865 58.7017 102.669 58.934 102.563 59.1468C102.456 59.3595 102.358 59.5533 102.343 59.5776C102.274 59.6961 96.4584 58.297 96.4584 58.162C96.4584 57.8525 95.8117 57.4162 94.2489 56.6712C93.3695 56.2522 92.5993 55.9092 92.5373 55.9092C92.4754 55.9092 92.5386 55.495 92.6778 54.989C92.9936 53.8407 92.9979 53.2848 92.6935 52.918C92.4854 52.6671 92.2407 52.6184 90.7099 52.5238C88.8228 52.407 88.4834 52.4848 88.6448 52.9973C88.7241 53.2492 88.8847 53.2889 90.1877 53.3775C92.1327 53.51 92.1409 53.5155 91.909 54.5058C91.7434 55.2125 91.1866 56.676 90.3696 58.5533C89.8868 59.6623 90.028 60.7802 90.7317 61.4222C90.9998 61.6667 90.991 61.6894 89.8485 63.7106C88.7053 65.7327 88.5764 66.1666 89.1187 66.1666C89.4445 66.1666 89.6681 65.8512 90.7667 63.8416C91.2397 62.9766 91.6363 62.2524 91.6481 62.2321C91.6599 62.212 92.0381 62.2908 92.4888 62.4072C93.3857 62.6389 94.2493 62.5383 94.6714 62.1532C94.8783 61.9646 95.1263 62.0227 97.2734 62.7639C98.5787 63.2144 100.379 63.8022 101.275 64.0703C102.724 64.5038 102.952 64.6147 103.347 65.0782C103.591 65.3648 103.969 65.6387 104.188 65.6871C104.449 65.745 106.546 65.3701 110.324 64.59C113.481 63.9381 116.109 63.3765 116.165 63.3416C116.36 63.2201 116.261 63.4385 115.486 64.8316L114.706 66.235V67.4901C114.706 68.8877 114.814 69.1325 115.777 69.9176C116.219 70.2785 116.416 70.3402 117.26 70.3821C118.136 70.4258 118.313 70.3882 119.028 70.0082C119.464 69.7759 119.842 69.5858 119.866 69.5858C119.891 69.5858 119.854 69.7854 119.785 70.0293C119.466 71.148 119.724 72.1273 120.522 72.8341C121.124 73.3664 121.477 73.4672 122.451 73.3857C123.001 73.3397 123.354 73.2118 123.796 72.8974L124.396 72.4714L125.272 73.9636C126.504 76.0641 127.475 77.3219 129.426 79.3461C132.173 82.1945 134.367 83.8158 137.595 85.3799C139.319 86.2154 143.619 87.7756 144.197 87.7756C144.352 87.7756 145.128 88.3574 145.972 89.1054C147.127 90.1298 147.471 90.5137 147.471 90.7761C147.471 91.239 149.279 93.0235 150.134 93.4048C150.843 93.7208 151.751 93.6819 152.312 93.3111C152.614 93.1117 152.685 93.1516 154.22 94.377C157.439 96.9466 162.675 100.905 162.855 100.905C163.138 100.905 163.383 100.539 163.254 100.307C163.192 100.197 161.768 99.0492 160.089 97.7579C156.572 95.0532 153.576 92.6991 153.576 92.6407C153.576 92.6185 154.023 92.2557 154.568 91.8344C155.714 90.9496 157.769 88.8492 158.939 87.3653C160.399 85.5154 162.474 82.2608 163.457 80.2824C164.26 78.6639 164.611 77.7495 165.18 75.787C165.209 75.6888 166.404 76.144 168.322 76.9829C170.024 77.7278 171.526 78.3377 171.659 78.3381C171.96 78.3389 172.108 77.9861 171.909 77.7441C171.827 77.6446 170.289 76.9222 168.491 76.1388C165.773 74.9545 165.189 74.6509 165.025 74.3367C164.808 73.9201 162.49 72.7107 160.931 72.2011C158.383 71.368 158.026 70.9448 154.118 64.1339C152.598 61.4858 150.029 57.5889 148.928 56.2618L148.029 55.1784L148.355 54.7876C149.006 54.0074 148.96 52.8068 148.247 51.9881C147.432 51.0527 146.653 50.9357 144.371 51.4051L142.996 51.6876L140.587 50.3276C137.179 48.4035 136.365 48.013 134.986 47.641C133.416 47.2177 131.244 47.1132 129.113 47.3583ZM134.921 48.5264C135.444 48.6929 136.359 49.0763 136.955 49.3785C137.941 49.8775 141.359 51.7704 141.487 51.8877C141.574 51.9674 141.267 52.0332 139.059 52.4093C132.381 53.5467 125.05 54.8544 124.383 55.0274C123.704 55.2039 123.521 55.203 122.829 55.0211C121.224 54.5998 119.146 54.8889 118.122 55.6764C117.773 55.9447 117.279 56.0851 115.786 56.3403C114.744 56.5182 113.727 56.644 113.524 56.6198C113.322 56.5956 112.971 56.4011 112.744 56.1876C112.4 55.8631 112.332 55.6954 112.332 55.1652C112.332 54.6186 112.402 54.4569 112.841 53.9955C113.681 53.1116 117.642 51.2865 122.034 49.7599C126.196 48.3133 132.392 47.7202 134.921 48.5264ZM72.1731 49.6865C72.0361 49.8528 72.0586 50.0192 72.2921 50.5665C72.8366 51.8424 72.5552 53.144 71.6305 53.627C70.5686 54.1814 68.5873 53.6327 67.3131 52.4312C66.6148 51.7727 66.3417 51.6787 66.0733 52.0048C65.8302 52.3001 66.007 52.6721 66.6932 53.3097C67.6262 54.1766 68.8797 54.7134 70.1438 54.7871C71.3748 54.8591 72.0012 54.6854 72.681 54.0838C73.3079 53.5288 73.6589 52.7341 73.6626 51.8608C73.6692 50.296 72.7618 48.9713 72.1731 49.6865ZM49.5547 51.0473C47.812 51.5963 46.4949 53.0298 46.1877 54.7115C46.1363 54.9931 46.1336 55.3817 46.1818 55.5749C46.2519 55.8565 46.3395 55.9179 46.623 55.8836C46.9256 55.8469 47.0028 55.7371 47.1582 55.1229C47.629 53.2596 48.4414 52.469 50.5334 51.8379C50.9782 51.7038 51.1238 51.359 50.8672 51.0474C50.6698 50.8077 50.3153 50.8077 49.5547 51.0473ZM143.633 52.7977C143.802 53.0193 144.286 55.746 144.177 55.8564C144.082 55.9527 140.16 56.9262 135.158 58.0958L131.73 58.897L129.256 57.7022C127.895 57.0451 126.431 56.3575 126.003 56.1741C125.576 55.9908 125.224 55.807 125.223 55.7656C125.222 55.7243 125.755 55.6138 126.408 55.5201C127.569 55.3534 140.098 53.1941 141.976 52.837C143.226 52.5993 143.478 52.5933 143.633 52.7977ZM35.1055 53.9563C36.7939 55.035 38.0542 56.8167 38.5824 58.8717C38.8274 59.8245 38.8651 61.7287 38.6552 62.5423C38.3715 63.6416 37.9462 64.6622 37.7717 64.6622C37.4334 64.6622 37.4376 64.4052 37.793 63.3382C38.7477 60.4728 38.0688 57.6155 35.9186 55.4495C35.3755 54.9024 34.7834 54.3623 34.6027 54.2494C34.407 54.1268 34.3142 53.9786 34.3733 53.8824C34.508 53.6627 34.6717 53.6792 35.1055 53.9563ZM65.5244 55.7559C64.1532 56.207 63.2188 57.3414 63.2188 58.5549C63.2188 59.5447 63.9863 59.5968 64.231 58.6238C64.4398 57.7937 64.7477 57.3362 65.289 57.0509C66.1174 56.6145 67.5482 56.8663 67.7858 57.4903C67.9227 57.8499 67.6854 58.4121 67.2127 58.8487C66.7222 59.3015 66.6389 59.5757 66.9091 59.848C67.1628 60.1038 67.3763 60.0465 67.9016 59.5816C68.5381 59.0183 68.7813 58.5207 68.7813 57.7826C68.7813 57.0305 68.3522 56.3426 67.6736 56.007C67.0979 55.7222 66.0121 55.5953 65.5244 55.7559ZM122.397 55.8342C123.682 56.1087 125.588 56.9136 128.884 58.5731C132.79 60.5397 135.231 61.9561 138.956 64.4179C140.838 65.6614 141.297 65.8169 141.206 65.1798C141.176 64.971 140.695 64.5429 139.67 63.8133L138.178 62.7509L137.262 60.8697C136.758 59.835 136.346 58.918 136.346 58.832C136.346 58.746 136.605 58.6363 136.923 58.5883C137.24 58.5403 139.073 58.1115 140.997 57.6354C143.668 56.9744 144.571 56.6969 144.821 56.4609C145.019 56.2726 145.549 56.0576 146.176 55.9107L147.205 55.6696L147.834 56.3706C149.339 58.0482 151.068 60.6701 153.842 65.4828C156.094 69.3887 156.836 70.547 157.55 71.2665C158.232 71.954 159.149 72.5314 160.007 72.8138C160.388 72.9391 160.719 73.0585 160.743 73.079C160.828 73.1511 159.246 76.7813 158.573 78.0595C156.273 82.4248 152.609 86.648 148.944 89.1564L148.908 89.181L148.867 89.2097L148.789 89.264C148.518 89.4523 148.347 89.5716 148.169 89.5829C147.861 89.6026 147.532 89.2996 146.635 88.4728C146.542 88.387 146.443 88.2956 146.337 88.1984C145.466 87.398 144.981 87.0553 144.573 86.9523C141.515 86.1787 136.803 84.1469 134.582 82.6438C131.468 80.5362 128.277 77.1713 126.217 73.8255L126.063 73.5748L126.018 73.5021C125.328 72.3852 125.105 72.0238 125.168 71.7213C125.198 71.5766 125.293 71.4453 125.434 71.2514C125.461 71.2145 125.489 71.1753 125.519 71.1334C125.777 70.7711 126.343 69.9054 126.776 69.2097C127.209 68.5139 127.61 67.9446 127.668 67.9446C127.861 67.9446 130.109 70.7262 131.039 72.1159C131.542 72.8681 132.376 74.2221 132.891 75.1248C135.76 80.1494 139.683 83.5273 144.172 84.8387C145.554 85.2425 145.792 85.2546 145.965 84.9304C146.176 84.5326 145.97 84.3847 144.685 84.0092C141.973 83.2171 139.616 81.7779 137.422 79.5739C135.887 78.0323 134.861 76.6259 133.146 73.7117C131.843 71.4983 130.335 69.4465 128.849 67.8642C127.2 66.1073 126.203 65.3583 121.679 62.4739C119.885 61.33 118.833 60.3015 118.303 59.1732C118.079 58.6944 117.895 58.1621 117.895 57.9905C117.894 57.4081 118.276 56.7508 118.827 56.3831C119.964 55.6244 120.808 55.4948 122.397 55.8342ZM57.1286 56.442C56.9693 56.5454 56.9776 56.7041 57.1818 57.4645C57.909 60.1727 56.1451 62.293 53.5658 61.811C52.5863 61.6279 51.6953 61.2047 51.2065 60.6905C50.755 60.2154 50.2529 60.1575 50.1243 60.5659C49.8274 61.5088 52.3181 62.8842 54.3224 62.8842C55.9305 62.8842 57.1857 62.1469 57.8989 60.7832C58.2277 60.1549 58.2666 59.9357 58.2666 58.7129C58.2668 57.5795 58.219 57.2633 57.9881 56.8669C57.6949 56.3641 57.4419 56.2389 57.1286 56.442ZM94.3777 57.7472C95.0808 58.0761 95.4308 58.2399 95.5179 58.4937C95.6043 58.7452 95.4324 59.0852 95.0902 59.7622L94.9936 59.9536C94.9578 60.0249 94.9204 60.0994 94.8817 60.1775C94.5566 60.8326 94.1718 61.4327 94.0267 61.511C93.0335 62.0468 90.8959 60.9486 90.8959 59.9027C90.8959 59.4515 92.0019 56.7298 92.1852 56.7298C92.2138 56.7298 93.0086 57.0973 93.9512 57.5464C94.1058 57.6201 94.2478 57.6865 94.3777 57.7472ZM117.154 57.995C117.161 59.1872 117.516 59.9832 118.553 61.1271L119.227 61.8698L116.356 62.4503C114.777 62.7696 111.471 63.447 109.008 63.9557C106.546 64.4644 104.43 64.8589 104.307 64.8323C103.996 64.7653 103.866 64.3241 103.532 62.2004C103.177 59.9421 103.168 59.5231 103.473 59.4052C103.599 59.3561 106.606 58.8257 110.155 58.2267C113.703 57.6275 116.667 57.112 116.741 57.0811C117.093 56.9353 117.149 57.0581 117.154 57.995ZM1.36194 57.5086C-0.0499977 58.2579 -0.447246 60.159 0.565139 61.3213C1.13388 61.9743 1.61538 62.2004 2.43769 62.2004C3.21658 62.2004 3.69387 61.9939 4.22666 61.4262C5.21218 60.3764 5.04218 58.6535 3.86374 57.7474C3.2121 57.2463 2.06296 57.1366 1.36194 57.5086ZM3.38739 58.4882C4.13616 59.0419 4.16303 60.3839 3.43677 60.9597C2.36144 61.8124 0.908255 61.1105 0.908255 59.7386C0.908255 58.4067 2.31653 57.6963 3.38739 58.4882ZM98.8364 59.7228C100.177 60.0147 101.524 60.2955 101.829 60.3464L102.384 60.439L102.65 62.0035C102.896 63.4509 102.899 63.5681 102.689 63.5681C102.564 63.5681 100.869 63.0434 98.9218 62.4023C95.4063 61.2443 95.3831 61.2341 95.5068 60.9063C95.6585 60.5041 96.3136 59.1916 96.3627 59.1916C96.3821 59.1916 97.4953 59.4306 98.8364 59.7228ZM32.774 60.9456C33.5548 61.5158 34.532 62.665 34.9255 63.4757C35.3726 64.397 35.6721 65.8408 35.675 67.0898C35.6763 67.6351 35.6518 68.0813 35.6206 68.0813C35.5894 68.0813 35.4673 68.1187 35.3493 68.1644C35.1656 68.2353 35.1344 68.102 35.1326 67.2412C35.1283 65.0646 34.4038 63.2411 33.0277 61.9434C32.5394 61.4829 32.0811 61.1063 32.0092 61.1063C31.9374 61.1063 31.8785 60.9832 31.8785 60.8327C31.8785 60.456 32.1503 60.4901 32.774 60.9456ZM160.72 61.9035C160.261 62.415 160.52 63.203 161.201 63.3685C161.485 63.4374 161.645 63.3792 161.913 63.1087C162.311 62.7079 162.348 62.3891 162.048 61.9574C161.782 61.5742 161.043 61.5441 160.72 61.9035ZM67.8661 62.1265C66.0878 62.6866 64.3991 64.6902 63.8977 66.8348C63.658 67.8607 63.7847 69.6316 64.159 70.486C64.7188 71.7635 65.9275 72.6942 67.1986 72.8264C68.3111 72.9421 69.2356 72.4633 70.6807 71.0226C71.6838 70.0226 72.0194 69.7853 73.2585 69.2006C74.776 68.4845 75.1566 68.1717 75.4906 67.3658C75.9561 66.2428 75.5332 64.8727 74.3682 63.7288C73.6524 63.0258 72.3347 62.3017 71.3591 62.0753C70.5147 61.8793 68.5603 61.908 67.8661 62.1265ZM121.8 63.5879C122.599 64.1254 123.275 64.583 123.301 64.6047C123.328 64.6266 122.758 65.3601 122.036 66.2347C119.555 69.2391 117.492 70.2409 116.144 69.0971C115.162 68.2641 115.237 67.089 116.418 64.8353C116.882 63.9503 117.269 63.213 117.279 63.197C117.322 63.1263 119.628 62.6342 119.968 62.623C120.224 62.6147 120.816 62.927 121.8 63.5879ZM125.263 65.9516C125.725 66.2861 126.302 66.7328 126.546 66.9444L126.989 67.3291L125.699 69.2655C123.94 71.9063 122.844 72.8125 121.747 72.5348C121.151 72.3841 120.503 71.5954 120.399 70.8943C120.264 69.9891 120.518 69.4338 121.672 68.1112C122.244 67.4554 123.013 66.5318 123.38 66.0587C123.795 65.5248 124.119 65.2261 124.235 65.2711C124.338 65.3109 124.801 65.6172 125.263 65.9516ZM72.4388 67.2711C73.1195 67.4292 73.9369 67.7906 73.9369 67.9332C73.9369 67.9851 73.4333 68.2351 72.8176 68.4888C71.8357 68.8932 71.5305 69.1123 70.3318 70.273C68.7811 71.7744 68.0956 72.1412 67.125 71.989C66.3152 71.8621 65.5255 71.2732 65.0874 70.4695C64.5121 69.4141 64.5691 69.1288 65.4415 68.6986C66.3228 68.2639 67.4623 68.1192 68.1643 68.3527C68.658 68.5169 68.6856 68.5079 69.1831 68.0182C70.0176 67.1967 71.0745 66.9542 72.4388 67.2711ZM85.4132 67.7407C89.2865 69.3568 93.9922 72.2144 96.7676 74.6357C100.021 77.4739 105.075 83.0252 108.544 87.5705C112.451 92.6898 116.433 98.8284 116.106 99.2264C115.995 99.3605 115.848 99.3059 115.44 98.9802C114.377 98.1313 111.072 94.4493 107.041 89.622C104.926 87.0892 99.3645 81.4082 97.6795 80.0592C95.8027 78.5565 93.4277 77.0335 91.1757 75.8883C87.7914 74.1674 85.763 73.4937 82.6877 73.0689C81.7923 72.9453 81.0415 72.826 81.0191 72.8039C80.9968 72.7817 81.2522 72.3689 81.5866 71.8867C82.2404 70.944 83.2025 69.1407 83.6716 67.9788C83.8312 67.5838 84.0295 67.2607 84.1124 67.2607C84.1954 67.2607 84.7807 67.4767 85.4132 67.7407ZM6.92396 71.4833C6.84432 71.6333 6.77919 72.1883 6.77919 72.7166V73.6772L5.72773 73.7172C4.7608 73.754 4.67288 73.7815 4.63368 74.0592C4.59297 74.3471 4.64331 74.3631 5.70725 74.4012L6.82356 74.4409L6.79317 75.4774C6.76128 76.5651 6.94037 76.9587 7.38795 76.7855C7.54859 76.7234 7.59323 76.4567 7.59323 75.5578V74.4094L8.62243 74.4252C9.68325 74.4415 10.006 74.3023 9.85122 73.8957C9.79003 73.7348 9.5309 73.6887 8.6881 73.6887H7.60381L7.5646 72.4935C7.53204 71.5017 7.48659 71.291 7.29705 71.2544C7.17156 71.2302 7.00373 71.3332 6.92396 71.4833ZM38.323 72.0176C37.1841 72.1254 36.3808 72.8856 36.3193 73.914C36.2909 74.3912 36.3193 74.4409 36.6215 74.4409C36.8888 74.4409 36.973 74.3527 37.0451 73.9973C37.0946 73.7533 37.2193 73.4514 37.322 73.3264C37.5978 72.9912 38.3057 72.7314 38.9431 72.7314H39.5042L39.0899 73.2072C38.4193 73.977 38.3588 75.1517 38.9314 76.2832C39.468 77.3437 40.996 78.3388 42.0876 78.3388C42.412 78.3388 42.4723 78.2879 42.4365 78.0446C42.4038 77.823 42.2276 77.7021 41.7218 77.554C40.1205 77.085 39.2538 75.976 39.3713 74.5467C39.4433 73.6714 39.7768 73.2784 40.4476 73.2784C40.857 73.2784 41.5464 73.5733 41.9325 73.9137C42.2049 74.1537 42.5966 74.0163 42.5966 73.6807C42.5966 73.3787 41.6182 72.6689 40.8005 72.3776C40.1312 72.1392 38.9115 71.9621 38.323 72.0176ZM162.997 74.0698C163.664 74.4244 164.27 74.815 164.343 74.9378C164.546 75.2773 163.735 77.7025 162.772 79.6359C160.054 85.0943 155.482 90.6383 152.285 92.3518C151.317 92.8703 150.78 92.8171 149.825 92.108C148.667 91.2488 147.981 90.3742 148.465 90.3742C148.564 90.3742 149.218 89.9934 149.919 89.528C152.277 87.9622 155.804 84.2018 157.851 81.0722C158.869 79.5159 160.767 75.7041 161.204 74.3384C161.366 73.8307 161.563 73.4174 161.642 73.4201C161.72 73.4229 162.33 73.7153 162.997 74.0698ZM112.801 78.6745C112.618 78.8592 112.468 79.1696 112.468 79.3645C112.468 79.8101 113.029 80.3903 113.461 80.3903C114.004 80.3903 114.503 79.8941 114.503 79.3545C114.503 78.4065 113.474 77.9955 112.801 78.6745ZM123.077 85.0677C122.838 85.3085 122.869 86.6097 123.118 86.8183C123.463 87.1066 123.729 86.7467 123.729 85.9921C123.729 84.9732 123.497 84.6445 123.077 85.0677ZM120.61 87.5687C120.273 87.9772 120.548 88.1859 121.422 88.1859C122.06 88.1859 122.264 88.1355 122.33 87.9609C122.383 87.8232 122.318 87.6642 122.164 87.5506C121.824 87.3 120.821 87.3116 120.61 87.5687ZM124.563 87.4864C124.463 87.5507 124.402 87.719 124.429 87.8604C124.468 88.0694 124.619 88.1251 125.234 88.1579C126.116 88.2049 126.476 87.9661 126.098 87.585C125.863 87.3488 124.878 87.2855 124.563 87.4864ZM122.978 89.0448C122.837 89.6112 122.965 90.404 123.224 90.5655C123.58 90.7882 123.738 90.4506 123.696 89.5536C123.665 88.8942 123.624 88.796 123.36 88.7583C123.138 88.7264 123.038 88.8007 122.978 89.0448ZM158.586 113.115C157.848 113.616 157.511 114.235 157.511 115.088C157.511 115.939 157.736 116.454 158.326 116.955C159.27 117.756 160.42 117.736 161.363 116.901C161.973 116.361 162.17 115.832 162.096 114.933C162.024 114.054 161.521 113.289 160.821 112.994C160.115 112.697 159.122 112.75 158.586 113.115ZM160.708 113.959C161.163 114.26 161.4 115.127 161.175 115.673C160.51 117.292 158.164 116.684 158.374 114.947C158.514 113.794 159.698 113.292 160.708 113.959ZM113.703 118.599C113.492 118.855 113.655 119.222 114.009 119.289C114.169 119.319 115.147 119.476 116.184 119.638C118.202 119.952 121.34 120.804 123.532 121.631C128.681 123.575 132.994 126.261 137.197 130.141C137.863 130.757 138.019 130.842 138.248 130.719C138.722 130.463 138.549 130.09 137.533 129.181C131.076 123.405 124.47 120.15 116.243 118.692C114.382 118.362 113.912 118.345 113.703 118.599Z" fill="black"/>
</svg>
