<svg width="173" height="128" viewBox="0 0 173 128" fill="none" xmlns="http://www.w3.org/2000/svg">
<path fill-rule="evenodd" clip-rule="evenodd" d="M50.1355 22.4737C48.5236 23.0735 46.6897 23.9248 46.0595 24.3661C45.0973 25.04 44.0555 25.1253 39.5374 24.8979C30.5104 24.4436 24.0857 26.3874 19.1333 31.072C12.9001 36.9682 11.9368 44.6313 16.3265 53.4065C17.3881 55.5297 19.1406 57.9476 20.8717 59.679L23.6887 62.4965L22.04 63.5156C18.4396 65.7411 15.4965 71.9646 15.4965 77.3527C15.4965 86.4635 21.4718 99.4347 31.4567 112C34.2926 115.568 44.4977 127.269 45.8497 128H51.0492H54.8306C54.8306 128 54.1628 126.85 53.8852 126.588H46.3224C45.7037 125.914 43.9267 123.855 42.4102 122.474C34.8041 115.55 26.1077 104.094 21.5184 94.9551C16.8398 85.6378 15.4762 78.0999 17.3518 71.9234C18.0135 69.745 18.9728 67.8885 20.0786 66.6453L21.785 64.7273L21.022 66.6322C20.034 69.0977 20.0471 74.0839 21.0511 78.0679C22.8699 85.2829 30.6913 98.7762 39.3895 109.704C42.0825 113.087 43.2561 115.005 43.6696 116.698C44.7918 121.29 47.0499 123.967 50.2034 124.444C51.3717 124.621 52.9133 125.67 53.8852 126.588C54.1628 126.85 54.8306 128 54.8306 128C55.776 128 55.602 127.228 54.2619 125.8L53.2754 124.751L55.3909 123.942C56.5544 123.498 58.2477 122.588 59.1532 121.92L60.8 120.704L62.6354 124.352C63.6447 126.358 64.7039 128 64.9894 128C65.2754 128 65.4344 127.837 65.3433 127.636C65.2522 127.436 64.3427 125.66 63.3223 123.688L61.4671 120.102L62.8419 118.966C64.0131 117.997 64.6772 117.846 67.3362 117.945L70.4557 118.061L72.2566 122.578C74.0833 127.159 74.4575 127.858 74.8671 127.449C74.9922 127.323 74.4788 125.705 73.7255 123.853C71.2377 117.735 71.1834 118.126 74.4653 118.517C78.9232 119.05 84.3784 120.522 89.0293 122.448C91.3795 123.421 94.0394 124.218 94.9397 124.218C96.9151 124.218 98.7214 122.603 99.1509 120.452C99.5227 118.592 97.7038 116.218 95.2179 115.319C94.2978 114.987 93.545 114.553 93.545 114.355C93.545 113.653 99.4296 109.482 103.365 107.393C113.327 102.107 123.788 101.459 135.362 105.41C141.658 107.559 147.085 110.892 152.243 115.775C154.577 117.985 156.611 119.592 156.762 119.346C157.181 118.669 150.163 112.229 146.227 109.68C144.314 108.441 140.852 106.608 138.533 105.607C134.483 103.858 126.235 101.818 123.213 101.818C121.794 101.818 120.865 100.776 121.447 99.8352C121.864 99.1588 129.387 99.311 133.375 100.077C137.061 100.785 141.303 102.259 145.9 104.429C149.328 106.047 150.5 106.019 152.24 104.28C154.853 101.666 153.665 98.9261 148.881 96.5348C140.642 92.416 128.419 90.5959 120.354 92.2865L117.35 92.9159L114.476 88.0339C106.117 73.8308 96.3145 64.0824 87.8489 61.553L85.7886 60.9372V58.1101C85.7886 54.3467 84.6654 51.5985 80.84 46.0019C77.7302 41.4516 76.64 38.8941 77.3332 37.7726C77.5213 37.4681 77.8563 36.4267 78.0773 35.4579C79.3072 30.0703 74.2573 24.896 68.155 25.2912C65.9052 25.4371 65.4315 25.2853 63.7145 23.8686C60.3162 21.0652 55.3071 20.5508 50.1355 22.4737ZM41.7446 27.9336C42.6239 26.8984 42.8523 26.3122 42.4717 26.0679C41.5497 25.4764 33.4026 25.728 30.0683 26.4514C23.3494 27.9084 19.5313 30.8558 18.1337 35.6645C16.7923 40.2788 18.3165 46.319 22.1336 51.5205L23.9728 54.0262L24.3068 51.6936C24.49 50.4107 25.206 48.5057 25.8983 47.4599C26.9415 45.8832 27.0627 45.3838 26.6075 44.5338C26.2915 43.9428 26.1383 42.1091 26.2464 40.1998C26.3996 37.4836 26.6938 36.5193 27.8878 34.8204C30.0678 31.7178 33.166 30.0073 37.1644 29.6984C40.108 29.4705 40.6 29.281 41.7446 27.9336ZM77.052 41.6999C75.1769 37.9951 73.0173 35.568 69.5574 33.2776C68.4958 32.575 67.454 32 67.2426 32C66.8985 32 65.9129 34.0553 65.9129 34.7738C65.9129 35.504 63.2927 38.3796 62.0338 39.0308C60.3041 39.9253 57.1802 40.0034 57.204 39.1515C57.2137 38.8184 57.5331 38 57.9142 37.3333C58.2952 36.6667 58.6147 35.8095 58.6244 35.4284C58.6336 35.0473 58.0412 35.9089 57.3082 37.3435C55.8398 40.2158 53.3704 42.4208 51.1273 42.863C48.7486 43.3319 48.3321 42.6885 49.4941 40.3394C50.2005 38.911 50.3992 37.8982 50.1549 36.9673C49.818 35.6834 49.7826 35.7139 49.15 37.8332C47.9564 41.8298 43.26 46.0606 40.0168 46.0606H38.8059L40.3484 48.543C42.2104 51.5389 42.7054 56.1319 41.5308 59.5205C41.1367 60.6565 41.0077 61.7062 41.2443 61.8521C41.4808 61.9981 41.6743 62.4247 41.6743 62.8C41.6743 63.3236 41.2714 63.2446 39.9451 62.4621C38.4253 61.5651 37.9885 61.5098 36.3355 62.0053C33.8791 62.7413 32.4636 64.5668 32.4636 66.9988C32.4636 69.5728 33.5412 71.4681 35.5453 72.4194C38.5034 73.8235 41.4382 73.3178 43.2391 71.0948C43.7874 70.4179 44.0802 70.2933 44.0875 70.7345C44.1107 72.2002 49.8815 75.3042 54.6419 76.4116C66.8447 79.2504 78.8549 74.4257 83.3749 64.8693C86.0252 59.2664 85.0934 52.8359 80.8963 47.7605C79.7949 46.4291 78.0652 43.7018 77.052 41.6999ZM22.151 53.1263C18.2961 48.0984 16.0143 41.4444 16.7172 37.2824C17.1205 34.8955 16.7041 34.8664 15.703 37.2121C12.9956 43.5535 15.3656 52.6671 21.3124 58.7835C23.9587 61.505 26.2003 62.5653 25.4208 60.7273C25.223 60.2604 24.8177 58.896 24.5206 57.695C24.2234 56.4941 23.1569 54.4383 22.151 53.1263ZM42.9788 42.6594C43.2963 42.6633 43.6909 42.4485 43.8557 42.1818C44.2276 41.5796 44.0598 41.5796 43.1286 42.1818C42.6918 42.464 42.6317 42.6545 42.9788 42.6594ZM41.0988 42.9978C41.4484 43.1379 41.8667 43.1205 42.0277 42.9595C42.1886 42.7985 41.9026 42.6841 41.3916 42.705C40.8269 42.7282 40.712 42.8432 41.0988 42.9978ZM38.6444 43.4725C38.978 43.6073 39.5233 43.6073 39.8564 43.4725C40.1899 43.3382 39.917 43.2281 39.2504 43.2281C38.5838 43.2281 38.3114 43.3382 38.6444 43.4725ZM39.6576 57.0667C39.7463 54.9561 38.7002 52.6221 37.338 51.8933C36.8251 51.6184 36.2274 51.4027 36.0102 51.4133C35.7925 51.424 36.1842 51.7425 36.8808 52.1212C38.2683 52.8752 39.1161 54.591 39.3978 57.2121L39.5801 58.9091L39.6576 57.0667ZM117.258 94.7879C108.586 78.8364 99.2643 67.8279 91.0314 63.8162C87.6521 62.1697 85.3038 61.6892 85.3038 62.6453C85.3038 63.0332 84.788 64.3695 84.1578 65.615L83.0118 67.8788H84.3818C91.3116 67.8788 103.333 79.0061 111.621 93.0909C112.101 93.9076 112.536 94.6486 112.93 95.3207L112.931 95.3227C115.972 100.507 116.611 101.597 117.462 101.798C117.689 101.852 117.93 101.842 118.236 101.83C118.385 101.825 118.549 101.818 118.735 101.818C119.811 101.818 120.69 101.654 120.688 101.455C120.686 101.255 119.142 98.2545 117.258 94.7879ZM30.4906 66.7893L28.3076 64.6676C27.1068 63.5006 25.9555 62.5455 25.749 62.5455C25.1217 62.5455 22.932 65.1074 22.0255 66.9008C20.9192 69.0895 20.9051 73.9064 21.992 78.0606C23.1113 82.337 27.2988 90.7631 31.48 97.1515C34.6683 102.023 42.0645 112 42.4877 112C42.5886 112 42.5255 109.426 42.3481 106.281C41.8013 96.6065 43.3584 90.9828 47.9128 86.1804C49.2401 84.7811 51.1608 83.2087 52.1808 82.6861C52.2255 82.6631 52.2695 82.6406 52.3126 82.6185C53.791 81.8612 54.3063 81.5972 54.2865 81.3823C54.2758 81.2672 54.112 81.1662 53.8606 81.0112C53.8471 81.0029 53.8333 80.9944 53.8193 80.9857C53.3975 80.7248 52.7116 80.8538 51.9854 81.3299C50.2237 82.4839 46.8788 82.385 45.1787 81.1282L43.7539 80.0747L42.7427 81.0861C42.0432 81.7862 40.9088 82.1653 39.0579 82.319C36.5851 82.5241 36.2724 82.4296 34.9083 81.0652C33.9174 80.0737 33.4331 79.1103 33.4331 78.1285C33.4331 76.7326 33.358 76.6793 31.7587 76.9387C30.3466 77.168 29.8536 76.9794 28.6077 75.7333C27.7167 74.8422 27.1311 73.7547 27.1311 72.9915C27.1311 71.2848 28.2267 68.8068 29.4711 67.6979L30.4906 66.7893ZM105.845 86.0325C100.244 78.3806 92.7407 71.5549 87.8392 69.6519C84.5641 68.3806 82.3894 68.6327 80.8759 70.4592L79.599 72L82.751 71.8347C84.8986 71.7222 86.5933 71.9331 88.0675 72.4965C91.6422 73.8618 99.9915 81.0856 107.107 88.9697C110.35 92.5624 109.959 91.6528 105.845 86.0325ZM102.52 85.4662C98.2715 80.8926 90.6048 74.5241 88.0738 73.4667C87.1009 73.0599 85.3921 72.7273 84.2771 72.7273H82.2498L84.3828 74.2482C87.6933 76.609 93.9129 83.2364 97.9036 88.656C99.896 91.3619 101.693 93.5758 101.897 93.5758C102.389 93.5758 106.149 90.1668 106.149 89.7212C106.149 89.5297 104.516 87.615 102.52 85.4662ZM90.3527 80.9973C88.6299 79.1704 86.0596 76.7806 84.6416 75.6863C83.2237 74.5925 81.8653 73.6989 81.6234 73.7013C81.3811 73.7038 80.1594 74.7855 78.9077 76.1052C74.6442 80.6002 68.329 82.8053 61.3798 82.2259L57.5739 81.9084L58.556 83.4996C59.096 84.3748 60.4481 86.8364 61.5601 88.9697L63.5821 92.8485L63.2825 90.3481C62.9209 87.3328 63.7983 86.0378 65.8615 86.5411C68.0173 87.0667 68.9592 88.4252 69.2026 91.3595C69.4188 93.9709 69.4619 94.0402 70.6753 93.7353C73.1254 93.1205 75.8842 93.3275 77.2624 94.2303C78.471 95.0225 78.6023 95.3474 78.3808 96.9993C78.2106 98.2681 78.3483 99.0526 78.8079 99.4342C79.5738 100.07 79.6887 101.718 79.0386 102.745C78.7764 103.159 78.805 103.747 79.1109 104.237C79.5583 104.954 80.1788 104.71 84.5709 102.098C87.2958 100.478 91.8415 97.8424 94.6721 96.2424C97.5022 94.6424 99.8247 93.2029 99.8325 93.0434C99.8625 92.4465 93.368 84.1944 90.3527 80.9973ZM75.1648 78.1246C76.1004 77.3668 76.1431 77.1573 75.5531 76.2128C75.1886 75.6291 74.7794 75.1762 74.6432 75.2063C74.5075 75.2369 73.0875 75.8138 71.4878 76.4892C69.2923 77.4162 67.4361 77.7745 63.9171 77.9505L59.2546 78.1842L59.7752 79.8807L60.2958 81.5777L64.4378 81.3275C68.6926 81.071 73.1821 79.7304 75.1648 78.1246ZM61.0385 90.095C59.8533 87.6591 58.2826 84.8271 57.5477 83.8027C56.8128 82.7777 56.0492 81.9496 55.851 81.9622C54.7074 82.0335 50.6915 84.6337 48.7946 86.5304C44.9048 90.4213 43.1402 95.7542 43.1325 103.646L43.1286 107.171L45.0575 106.187C47.8765 104.749 53.1207 103.661 56.4569 103.823C60.2454 104.006 60.8558 103.588 61.2019 100.571C61.357 99.2175 61.8684 97.3037 62.3387 96.3176L63.1938 94.5251L61.0385 90.095ZM68.3368 92.0708C68.3368 90.1503 68.092 89.408 67.1467 88.463C64.9875 86.303 64.1192 87.0812 64.1488 91.1515C64.1638 93.1947 63.8066 95.3261 63.1332 97.2121C62.5622 98.8121 61.9625 100.94 61.8001 101.94C61.5597 103.427 61.0439 104.095 58.9826 105.592C54.941 108.528 54.1567 108.941 50.6101 110.007C46.5075 111.24 44.0981 112.659 44.0981 113.844C44.0981 115.214 45.551 119.79 46.395 121.078C48.2526 123.914 52.4983 124.426 56.7284 122.325C58.2942 121.547 60.9227 119.462 63.1885 117.2L67.008 113.388L65.37 112.014C64.4688 111.258 63.8958 110.472 64.097 110.268C64.2981 110.063 64.9933 110.394 65.6424 111.004C67.8219 113.052 73.3678 112.794 76.272 110.509C78.2688 108.938 77.9678 107.965 75.6084 108.364C74.4202 108.564 73.6693 108.503 73.6693 108.207C73.6693 107.94 74.5564 107.572 75.6408 107.389C77.0864 107.144 77.7579 106.736 78.1583 105.856C78.8229 104.398 77.9799 103.659 76.097 104.05C75.4285 104.19 74.3906 104.403 73.7905 104.525C73.1903 104.646 72.6997 104.528 72.6997 104.261C72.6997 103.994 73.2999 103.652 74.0329 103.5C78.1243 102.653 78.2746 102.567 78.2746 101.073V99.6364L75.2448 99.7207C70.5919 99.8502 71.4408 98.9241 76.5779 98.2667C77.6032 98.1353 77.7656 95.8148 76.8053 95.0182C75.7766 94.1639 72.0482 94.2613 69.4275 95.2107C67.6048 95.871 66.5552 95.5893 67.852 94.7879C68.1186 94.623 68.3368 93.4002 68.3368 92.0708ZM115.776 102.016C116.013 101.823 114.328 99.4366 110.585 94.6667C108.859 92.4669 107.318 90.673 107.162 90.6807C107.005 90.6885 106.19 91.3193 105.353 92.0824C104.514 92.8456 103.455 93.6785 102.999 93.9341C102.268 94.3428 102.557 94.959 105.408 99.0783C107.19 101.652 108.75 103.758 108.874 103.758C109.277 103.758 115.596 102.163 115.776 102.016ZM148.912 97.52C145.282 95.7052 140.792 94.2802 135.788 93.3551C131.333 92.5319 123.668 92.4538 120.115 93.1956L117.84 93.6703L119.066 96.1682L120.291 98.6667L126.43 98.689C133.383 98.7142 136.608 99.3949 142.749 102.133C149.082 104.956 150.014 105.131 151.462 103.77C153.753 101.618 152.892 99.5103 148.912 97.52ZM107.603 103.997C107.603 103.884 106.06 101.601 104.175 98.9256C102.288 96.2497 100.598 94.0645 100.418 94.0693C99.6541 94.0897 79.3673 106.143 78.8879 106.86C78.692 107.154 78.5286 107.981 78.5243 108.699C78.5204 109.416 78.2756 110.153 77.9804 110.335C77.2459 110.789 78.4142 111.498 79.9132 111.508C80.5472 111.512 83.564 112.075 86.6166 112.76L92.1668 114.005L93.704 112.755C96.8167 110.224 100.852 107.592 104.184 105.92C106.064 104.976 107.603 104.11 107.603 103.997ZM50.1612 109.153C53.1702 108.265 58.1565 105.663 58.1565 104.98C58.1565 104.417 52.3771 104.836 49.3899 105.616C44.7225 106.835 43.6134 107.698 43.6134 110.112V112.079L45.1889 111.117C46.0552 110.588 48.2929 109.704 50.1612 109.153ZM98.1862 119C97.7533 117.275 93.2333 115.227 86.4784 113.696C79.6746 112.153 75.8585 111.865 73.6693 112.73C72.7361 113.098 71.035 113.412 69.889 113.427C68.2432 113.449 67.5587 113.735 66.6323 114.788C65.9866 115.521 65.4519 116.259 65.4437 116.428C65.4349 116.596 67.119 116.881 69.1851 117.06C78.2135 117.841 83.6663 119.152 91.5526 122.439C94.0273 123.47 94.8757 123.628 95.7691 123.22C97.4222 122.467 98.5585 120.483 98.1862 119Z" fill="black"/>
<path d="M51.2025 54.705C50.1951 55.8182 50.1811 56.9236 51.1618 57.905C52.2152 58.9581 54.1388 58.8635 54.7462 57.729C55.4588 56.3966 55.3783 55.888 54.2784 54.7879C53.0747 53.584 52.237 53.5612 51.2025 54.705Z" fill="black"/>
<path d="M70.2928 47.968C69.5574 49.343 69.6743 50.1682 70.7413 51.1341C72.0404 52.3098 74.0382 51.7818 74.4464 50.1547C75.0596 47.7125 71.4471 45.8109 70.2928 47.968Z" fill="black"/>
<path d="M46.7411 46.8587C45.5379 48.1571 45.1375 49.9394 46.0493 49.9394C46.3223 49.9394 46.7547 49.3901 47.0102 48.7185C47.5114 47.4002 49.4568 46.4 50.6382 46.8533C51.1036 47.0318 51.3697 46.8504 51.3697 46.3549C51.3697 44.992 48.1455 45.343 46.7411 46.8587Z" fill="black"/>
<path d="M66.1073 39.0342C65.4383 39.7033 65.0316 40.4776 65.2032 40.7554C65.3894 41.0565 65.9914 40.7462 66.6978 39.9835C67.7284 38.8713 68.1274 38.7491 69.8052 39.0327C71.7157 39.3556 72.5252 38.7118 70.9633 38.1125C69.2792 37.4662 67.2994 37.8419 66.1073 39.0342Z" fill="black"/>
<path d="M63.6102 51.7149C63.2772 51.8497 63.0043 52.2497 63.0043 52.6041C63.0043 53.1156 63.2976 53.1384 64.4198 52.7147C66.1233 52.0718 67.3672 52.8441 67.3672 54.5455C67.3672 55.76 66.6304 56.5343 65.226 56.7961C64.7146 56.8916 64.1983 57.2655 64.078 57.6267C63.9156 58.1139 64.1556 58.1949 65.0074 57.9399C67.4196 57.2175 68.3368 56.287 68.3368 54.5619C68.3368 52.1678 65.9905 50.7544 63.6102 51.7149Z" fill="black"/>
<path fill-rule="evenodd" clip-rule="evenodd" d="M69.6777 58.897C66.9305 60.8427 63.2282 61.7343 59.7165 61.2955C57.633 61.0347 56.9703 61.1365 56.1986 61.8352C53.0626 64.6735 58.494 69.8182 64.6273 69.8182C70.5512 69.8182 75.1236 66.0271 75.1236 61.1151C75.1236 59.1185 73.8496 57.1796 72.5785 57.2417C72.2455 57.2582 70.94 58.0029 69.6777 58.897ZM59.1271 62.8121C59.1208 65.5384 68.6858 64.6832 70.5822 61.7881C72.0051 59.6165 71.21 59.2907 68.1812 60.8044C65.9977 61.8958 64.6549 62.225 62.2442 62.2589C60.4199 62.2846 59.128 62.5139 59.1271 62.8121ZM69.9181 67.8109C70.702 67.391 70.7606 67.2068 70.2201 66.8645C69.0964 66.1527 66.7569 66.3918 64.4586 67.4531C62.4012 68.4034 62.3411 68.4853 63.3974 68.8926C64.5735 69.3455 68.1637 68.7496 69.9181 67.8109Z" fill="black"/>
<path d="M81.1833 81.3159C79.9107 83.6761 76.5008 86.2264 74.1051 86.6095C71.4553 87.0332 70.9817 87.9855 73.5951 87.6349C74.7023 87.4865 76.5993 86.784 77.8102 86.0742C79.9912 84.7961 82.88 81.4313 82.88 80.1697C82.88 79.0012 82.1746 79.4778 81.1833 81.3159Z" fill="black"/>
<path d="M21.5184 94.9551C26.1077 104.094 34.8041 115.55 42.4102 122.474C43.9267 123.855 45.7037 125.914 46.3224 126.588H53.8852C52.9133 125.67 51.3717 124.621 50.2034 124.444C47.0499 123.967 44.7918 121.29 43.6696 116.698C43.2561 115.005 42.0825 113.087 39.3895 109.704C30.6913 98.7762 22.8699 85.2829 21.0511 78.0679C20.0471 74.0839 20.034 69.0977 21.022 66.6322L21.785 64.7273L20.0786 66.6453C18.9728 67.8885 18.0135 69.745 17.3518 71.9234C15.4762 78.0999 16.8398 85.6378 21.5184 94.9551Z" fill="black"/>
<path d="M163.093 68.2109C164.061 68.673 164.807 69.3862 164.807 69.8516C164.807 70.305 163.934 72.4179 162.869 74.5474C161.379 77.5248 160.091 79.2184 157.293 81.8764C153.315 85.6558 152.298 85.9913 150.124 84.24L148.773 83.1515L151.946 80.8572C155.369 78.3825 159.132 73.3067 160.406 69.4478C160.779 68.3181 161.15 67.3939 161.232 67.3939C161.313 67.3939 162.151 67.7615 163.093 68.2109Z" fill="black"/>
<path fill-rule="evenodd" clip-rule="evenodd" d="M123.353 3.78133L117.753 7.56218L113.712 5.53261C108.445 2.88824 103.913 2.06206 99.2483 2.896C92.8517 4.03927 86.7581 8.15855 86.7581 11.3396C86.7581 20.3423 108.687 37.3333 120.306 37.3333C123.355 37.3333 124.7 36.5479 125.966 34.0286C129.043 27.9011 128.357 19.5428 124.343 14.2793L123.175 12.7476L126.84 9.78279C130.157 7.09867 130.607 6.8737 131.587 7.40897C132.183 7.73382 138.158 11.2669 144.865 15.2601L157.061 22.5202L151.367 28.2298C148.236 31.3702 145.907 33.9394 146.193 33.9394C146.733 33.9394 169.289 11.4701 169.573 10.6482C170.024 9.34933 168.436 10.5508 165.385 13.8182C163.518 15.8182 161.88 17.4545 161.747 17.4545C161.613 17.4545 154.845 13.5273 146.708 8.72727C136.239 2.55273 131.479 0 130.432 0C129.388 0 127.306 1.11224 123.353 3.78133ZM146.181 9.47297C154.134 14.1493 160.75 18.0839 160.882 18.2162C161.014 18.3486 160.355 19.2238 159.418 20.1615L157.713 21.8667L144.237 13.8424C136.825 9.42885 130.648 5.81818 130.51 5.81818C130.372 5.81818 128.539 7.22376 126.436 8.94158L122.613 12.0655L120.566 10.1745C119.255 8.96388 118.691 8.12364 118.999 7.83952C120.959 6.03055 129.391 0.969697 130.444 0.969697C131.223 0.969697 137.344 4.27685 146.181 9.47297ZM109.596 4.78351C113.466 6.11491 115.812 7.40848 118.855 9.88752C125.707 15.4705 128.418 23.0832 126.223 30.5784C125.373 33.4817 124.57 34.7263 124.57 33.1418C124.57 31.4255 121.008 26.5639 116.976 22.7787C108.678 14.9876 96.9713 8.75976 90.5428 8.71661L88.9396 8.70594L90.1516 7.77309C95.4652 3.68485 103.025 2.52267 109.596 4.78351ZM94.7593 10.3549C105.637 13.2524 121.077 25.4448 123.575 33.1098C124.404 35.6533 123.728 36.3636 120.478 36.3636C113.409 36.3636 101.086 29.5515 93.543 21.4735C89.1209 16.7375 86.5972 11.4744 88.051 10.0204C88.5843 9.48655 92.1711 9.66545 94.7593 10.3549ZM70.2759 11.3939C69.7945 11.9743 69.7945 12.2681 70.2759 12.8485C71.052 13.7838 72.1665 13.7808 72.5267 12.8422C72.8054 12.1164 71.9517 10.6667 71.2454 10.6667C71.0442 10.6667 70.6079 10.9939 70.2759 11.3939ZM44.5829 12.5775C44.5829 13.9021 44.4278 14.0606 43.1286 14.0606C42.3287 14.0606 41.6743 14.2788 41.6743 14.5455C41.6743 14.8121 42.3287 15.0303 43.1286 15.0303C44.4215 15.0303 44.5829 15.1918 44.5829 16.4848C44.5829 17.2848 44.8011 17.9394 45.0677 17.9394C45.3343 17.9394 45.5525 17.2848 45.5525 16.4848C45.5525 15.2567 45.741 15.0303 46.7644 15.0303C47.4309 15.0303 47.9763 14.8121 47.9763 14.5455C47.9763 14.2788 47.4309 14.0606 46.7644 14.0606C45.8026 14.0606 45.5525 13.8162 45.5525 12.8771C45.5525 12.2259 45.3343 11.5588 45.0677 11.3939C44.7851 11.2189 44.5829 11.712 44.5829 12.5775ZM23.3498 14.6424C22.5999 15.3925 22.5999 17.5772 23.3498 18.3273C25.1353 20.113 28.2824 17.6063 27.2101 15.2528C26.6119 13.9394 24.4018 13.5903 23.3498 14.6424ZM26.384 15.8812C26.8266 17.0347 25.3854 18.2992 24.3635 17.6543C23.2122 16.928 23.0934 16.2288 23.9723 15.3498C24.8367 14.4853 25.9419 14.7287 26.384 15.8812ZM159.049 30.0945C154.416 34.8975 150.77 38.9711 150.945 39.1471C151.236 39.4381 167.743 22.7152 168.119 21.7484C168.65 20.384 166.561 22.3064 159.049 30.0945ZM134.283 33.4225C133.491 34.9033 133.687 35.7944 134.993 36.6507C136.116 37.3862 136.294 37.3862 137.417 36.6507C139.479 35.2999 138.659 32.4848 136.205 32.4848C135.297 32.4848 134.604 32.8233 134.283 33.4225ZM89.6668 33.9394C89.6668 34.5857 89.3434 34.9091 88.6972 34.9091C88.164 34.9091 87.7277 35.1273 87.7277 35.3939C87.7277 35.6606 88.1388 35.8788 88.6405 35.8788C89.1578 35.8788 89.7099 36.352 89.914 36.9697L90.2747 38.0606L90.4894 36.9697C90.6232 36.2895 91.0557 35.8788 91.6398 35.8788C92.1542 35.8788 92.5754 35.6606 92.5754 35.3939C92.5754 35.1273 92.1391 34.9091 91.6059 34.9091C90.9597 34.9091 90.6363 34.5857 90.6363 33.9394C90.6363 33.4061 90.4182 32.9697 90.1516 32.9697C89.8849 32.9697 89.6668 33.4061 89.6668 33.9394ZM137.498 34.2196C137.66 34.64 137.435 35.3416 136.999 35.7779C136.264 36.5125 136.146 36.5125 135.411 35.7779C134.421 34.7864 134.875 33.4545 136.205 33.4545C136.755 33.4545 137.337 33.7988 137.498 34.2196ZM16.7172 37.2824C16.0143 41.4444 18.2961 48.0984 22.151 53.1263C23.1569 54.4383 24.2234 56.4941 24.5206 57.695C24.8177 58.896 25.223 60.2604 25.4208 60.7273C26.2003 62.5653 23.9587 61.505 21.3124 58.7835C15.3656 52.6671 12.9956 43.5535 15.703 37.2121C16.7041 34.8664 17.1205 34.8955 16.7172 37.2824ZM162.918 38.4839C162.169 39.3876 162.757 40.7273 163.904 40.7273C165.08 40.7273 165.589 39.488 164.801 38.5392C164.059 37.6441 163.626 37.6315 162.918 38.4839ZM43.8557 42.1818C43.6909 42.4485 43.2963 42.6633 42.9788 42.6594C42.6317 42.6545 42.6918 42.464 43.1286 42.1818C44.0598 41.5796 44.2276 41.5796 43.8557 42.1818ZM133.539 42.5076C130.499 42.9416 119.421 45.7314 118.126 46.3893C116.17 47.3828 115.5 49.0987 116.482 50.5988L117.258 51.7828L114.006 52.5067C112.218 52.9047 109.5 53.5064 107.967 53.8439C106.393 54.1901 105.18 54.7205 105.18 55.0613C105.18 55.9583 101.574 55.3969 98.478 54.0184C96.3547 53.073 95.9499 52.7025 96.1952 51.9302C96.5447 50.8272 96.3208 50.6589 93.9284 50.2274L92.1304 49.903L91.4406 52.224C90.8404 54.2429 90.8419 54.6502 91.4537 55.3479C92.0732 56.0543 92.0364 56.3879 91.1449 58.1358C89.8389 60.6953 90.7139 60.7355 92.1488 58.1818C92.7485 57.1152 93.591 56.2424 94.022 56.2424C94.4529 56.2424 95.0177 56.0301 95.2775 55.7702C95.5839 55.4638 96.4861 55.7857 97.8459 56.6861C98.9991 57.4497 101.275 58.3365 102.904 58.657C104.532 58.9775 106.092 59.5423 106.37 59.9122C106.796 60.4785 107.679 60.3966 111.966 59.392L112.655 59.2304C116.348 58.3636 117.645 58.0592 117.895 58.4388C118.031 58.6441 117.859 59.0498 117.596 59.6749L117.547 59.7896L117.505 59.8899C116.958 61.2015 116.918 61.8337 117.336 62.6143C117.797 63.4759 118.204 63.5937 120.013 63.3901C121.568 63.2145 122.147 63.3212 122.147 63.7823C122.147 64.9556 123.699 66.0407 125.014 65.7852C126.126 65.5695 126.457 65.8706 127.952 68.4538C129.932 71.8769 134.811 76.6143 138.043 78.2507C139.298 78.8868 141.504 79.7566 142.943 80.1838C144.884 80.7598 146.294 81.6601 148.399 83.6679C150.734 85.8953 151.492 86.3491 152.676 86.2245C153.87 86.0994 154.947 86.7627 159.003 90.1212C161.691 92.3471 164.039 94.0204 164.22 93.839C164.401 93.6577 164.088 93.1423 163.523 92.6943C161.47 91.0628 155.111 85.6848 155.111 85.5796C155.111 85.5205 156.692 83.8589 158.626 81.8875C160.981 79.4851 162.692 77.184 163.814 74.9091C164.734 73.0424 165.52 71.457 165.559 71.3857C165.599 71.3144 167.079 71.9336 168.848 72.7617C173.426 74.9038 174.046 74.2119 169.554 71.9733C167.028 70.7142 165.772 69.8032 165.676 69.1593C165.575 68.4858 164.472 67.7571 161.904 66.6667L158.274 65.1258L155.602 59.8012C154.132 56.8732 152.221 53.5888 151.355 52.5033L149.78 50.529L151.008 50.2206C152.807 49.7692 153.528 47.888 152.503 46.3229C151.581 44.9168 150.817 44.8247 147.742 45.7503C145.742 46.3525 145.451 46.3297 144.393 45.4914C141.365 43.0924 137.29 41.9719 133.539 42.5076ZM42.0277 42.9595C41.8667 43.1205 41.4484 43.1379 41.0988 42.9978C40.712 42.8432 40.8269 42.7282 41.3916 42.705C41.9026 42.6841 42.1886 42.7985 42.0277 42.9595ZM98.1673 43.4463C97.4459 44.1678 97.4358 44.3413 98.0781 44.9842C98.9027 45.809 100.332 45.4628 100.332 44.4383C100.332 44.0625 100.028 43.5025 99.656 43.1942C99.1329 42.7602 98.796 42.8175 98.1673 43.4463ZM39.8564 43.4725C39.5233 43.6073 38.978 43.6073 38.6444 43.4725C38.3114 43.3382 38.5838 43.2281 39.2504 43.2281C39.917 43.2281 40.1899 43.3382 39.8564 43.4725ZM141.95 44.9265C143.109 45.6039 143.873 46.3224 143.646 46.5232C143.419 46.7239 139.791 47.567 135.583 48.3961C129.905 49.5152 127.617 49.7833 126.705 49.4366C124.436 48.5736 122.196 48.8761 120.844 50.2284C119.77 51.3028 119.416 51.4099 118.428 50.96C116.824 50.2288 116.5 49.0676 117.596 47.9724C118.501 47.0672 127.702 44.3884 132.569 43.6131C136.125 43.0468 139.552 43.5268 141.95 44.9265ZM146.806 50.1658C146.69 50.2807 143.857 51.0735 140.51 51.9268C134.003 53.5855 132.943 53.5641 130.675 51.7285L129.266 50.5881L137.704 48.9004L146.143 47.2126L146.579 48.5842C146.819 49.3387 146.921 50.0504 146.806 50.1658ZM129.947 52.4034C132.189 53.7585 135.223 55.5316 136.69 56.3428C138.156 57.1544 140.052 58.3375 140.902 58.9716C141.756 59.6092 142.575 59.9181 142.733 59.6625C142.89 59.4085 142.562 58.9556 142.004 58.657C140.87 58.0499 138.867 53.8473 139.46 53.3207C139.67 53.1345 141.804 52.497 144.204 51.903L148.567 50.8233L150.263 52.7981C151.197 53.8846 153.269 57.3401 154.869 60.4776C156.801 64.2667 158.151 66.3447 158.889 66.6667C160.221 67.2475 160.082 68.2507 158.118 72.2298C156.737 75.0274 151.914 80.2671 149.656 81.4221C148.446 82.0407 148.218 82.0121 147.232 81.1166C146.633 80.5726 144.616 79.6693 142.749 79.1084C136.599 77.2601 131.398 73.0221 128.365 67.3852L127.07 64.9779L128.118 63.0647C129.082 61.3042 129.232 61.2116 129.996 61.903C130.454 62.3166 131.724 64.1392 132.82 65.953C136.02 71.2499 140.359 74.865 145.294 76.3442C147.452 76.991 146.329 75.7915 143.794 74.7404C139.563 72.9867 137.43 71.0599 133.921 65.8221C130.96 61.4017 130.244 60.6638 126.7 58.3767C120.928 54.6526 119.437 52.3287 121.77 50.6943C123.656 49.3726 125.607 49.7804 129.947 52.4034ZM0.565527 51.0061C-0.342937 51.9147 -0.120428 53.7285 0.971766 54.3127C3.05096 55.4259 4.98472 53.4919 3.87168 51.4124C3.28753 50.32 1.47399 50.0975 0.565527 51.0061ZM94.7811 51.3939C95.151 51.3939 95.3697 51.6669 95.2669 52C95.1641 52.3336 94.9489 53.2058 94.7879 53.9394C94.593 54.8301 94.1868 55.2727 93.5644 55.2727C92.2773 55.2727 91.9399 54.5328 92.3146 52.5343C92.5512 51.2737 92.827 50.9018 93.3719 51.1108C93.7772 51.2664 94.4117 51.3939 94.7811 51.3939ZM3.28607 52.4921C3.47901 53.4938 2.07996 54.1692 1.34116 53.4303C0.602369 52.6914 1.27766 51.2921 2.2792 51.4851C2.74361 51.5743 3.19687 52.0276 3.28607 52.4921ZM120.522 54.2899C121.455 56.0097 121.48 56.2313 120.764 56.4267C120.325 56.5464 117.347 57.2228 114.148 57.9292C110.948 58.6361 108.064 59.3004 107.738 59.4051C107.135 59.599 105.848 55.8967 106.346 55.3988C106.618 55.1273 117.484 52.5246 118.753 52.4272C119.153 52.3966 119.949 53.2349 120.522 54.2899ZM169.17 54.303C169.17 55.5312 168.981 55.7576 167.958 55.7576C167.291 55.7576 166.746 55.9758 166.746 56.2424C166.746 56.5091 167.291 56.7273 167.958 56.7273C168.986 56.7273 169.17 56.9518 169.17 58.2104C169.17 59.0759 169.372 59.569 169.654 59.3939C169.921 59.2291 170.139 58.5619 170.139 57.9108C170.139 56.9716 170.389 56.7273 171.351 56.7273C172.018 56.7273 172.563 56.5091 172.563 56.2424C172.563 55.9758 172.018 55.7576 171.351 55.7576C170.328 55.7576 170.139 55.5312 170.139 54.303C170.139 53.503 169.921 52.8485 169.654 52.8485C169.388 52.8485 169.17 53.503 169.17 54.303ZM102.75 56.1959C104.795 56.4179 105.449 56.688 105.578 57.3629C105.725 58.129 105.509 58.2007 103.888 57.9263C101.619 57.5418 97.2772 55.5379 96.3867 54.4645C95.9141 53.8953 96.3334 53.9855 97.9118 54.7927C99.1097 55.4056 101.287 56.0368 102.75 56.1959ZM124.054 57.9016C124.516 58.4572 124.214 59.0216 122.5 60.8107C120.194 63.2174 119.862 63.3513 118.558 62.3971C117.76 61.8143 117.75 61.6262 118.42 60.0223C118.82 59.0647 119.549 58.047 120.041 57.7615C121.315 57.0206 123.383 57.0933 124.054 57.9016ZM127.39 62.6002C125.885 65.2785 123.116 65.8322 123.116 63.4545C123.116 62.3598 123.852 60.7748 124.939 59.5278C125.626 58.7389 125.747 58.7481 127.067 59.6882L128.467 60.6846L127.39 62.6002ZM5.56353 66.7879C5.36526 67.3881 4.90134 67.8788 4.53242 67.8788C4.164 67.8788 3.86198 68.097 3.86198 68.3636C3.86198 68.6303 4.164 68.8485 4.53242 68.8485C4.90134 68.8485 5.36526 69.3391 5.56353 69.9394L5.92421 71.0303L6.13896 69.9394C6.27276 69.2591 6.70517 68.8485 7.28933 68.8485C7.80367 68.8485 8.22494 68.6303 8.22494 68.3636C8.22494 68.097 7.80367 67.8788 7.28933 67.8788C6.70517 67.8788 6.27276 67.4681 6.13896 66.7879L5.92421 65.697L5.56353 66.7879ZM163.093 68.2109C164.061 68.673 164.807 69.3862 164.807 69.8516C164.807 70.305 163.934 72.4179 162.869 74.5474C161.379 77.5248 160.091 79.2184 157.293 81.8764C153.315 85.6558 152.298 85.9913 150.124 84.24L148.773 83.1515L151.946 80.8572C155.369 78.3825 159.132 73.3067 160.406 69.4478C160.779 68.3181 161.15 67.3939 161.232 67.3939C161.313 67.3939 162.151 67.7615 163.093 68.2109ZM114.926 74.3627C114.196 75.2431 114.754 76.6061 115.845 76.6061C116.321 76.6061 116.847 76.2512 117.013 75.8172C117.31 75.0444 116.567 73.697 115.845 73.697C115.643 73.697 115.23 73.9966 114.926 74.3627ZM124.57 81.6684C124.57 82.0528 124.789 82.5018 125.055 82.6667C125.322 82.8315 125.54 82.5169 125.54 81.968C125.54 81.4192 125.322 80.9697 125.055 80.9697C124.789 80.9697 124.57 81.2839 124.57 81.6684ZM123.025 83.7251C123.375 83.8652 123.793 83.8478 123.954 83.6868C124.115 83.5258 123.829 83.4114 123.318 83.4322C122.753 83.4555 122.639 83.5704 123.025 83.7251ZM126.388 83.7149C126.722 83.8497 127.267 83.8497 127.6 83.7149C127.934 83.5806 127.661 83.4705 126.994 83.4705C126.328 83.4705 126.055 83.5806 126.388 83.7149ZM124.828 84.9905C124.62 85.4686 124.587 85.9961 124.753 86.1624C125.245 86.6545 125.642 85.9632 125.415 85.0075C125.215 84.1605 125.189 84.16 124.828 84.9905ZM169.433 99.5607C168.785 100.035 168.628 100.555 168.857 101.468C169.268 103.105 170.885 103.625 172.113 102.514C173.281 101.456 173.294 100.736 172.161 99.7115C171.087 98.7389 170.594 98.7117 169.433 99.5607ZM171.864 100.41C172.377 101.239 170.761 102.634 170.078 101.951C169.774 101.647 169.657 101.056 169.817 100.639C170.153 99.7644 171.381 99.6272 171.864 100.41ZM158.844 107.458C158.271 108.031 158.467 109.457 159.155 109.721C160.131 110.096 161.047 109.335 160.849 108.311C160.67 107.377 159.446 106.857 158.844 107.458ZM113.905 110.609C113.905 110.831 114.396 111.113 114.996 111.236C115.596 111.359 117.287 111.71 118.753 112.016C122.869 112.876 130.641 116.89 135.159 120.488C137.383 122.259 139.302 123.61 139.423 123.489C139.86 123.052 133.576 117.887 129.911 115.671C127.851 114.425 124.661 112.883 122.822 112.244C119.081 110.943 113.905 109.994 113.905 110.609Z" fill="black"/>
<path d="M35.9782 65.2907C35.6451 65.4255 35.3722 65.888 35.3722 66.319C35.3722 66.929 35.5017 66.9736 35.9539 66.5212C36.2739 66.2012 37.0714 65.9394 37.7258 65.9394C38.8199 65.9394 38.8558 66.0078 38.1708 66.7879C37.2425 67.8453 36.6108 69.8182 37.2008 69.8182C37.4427 69.8182 37.8892 69.2727 38.1926 68.6061C38.738 67.409 39.7352 66.9387 39.7352 67.8788C39.7352 68.1455 39.9533 68.3636 40.22 68.3636C41.0382 68.3636 40.7585 66.9629 39.7352 65.9394C38.8136 65.0177 37.3021 64.7564 35.9782 65.2907Z" fill="black"/>
<path d="M37.338 51.8933C38.7002 52.6221 39.7463 54.9561 39.6576 57.0667L39.5801 58.9091L39.3978 57.2121C39.1161 54.591 38.2683 52.8752 36.8808 52.1212C36.1842 51.7425 35.7925 51.424 36.0102 51.4133C36.2274 51.4027 36.8251 51.6184 37.338 51.8933Z" fill="black"/>
</svg>
