<svg width="147" height="162" viewBox="0 0 147 162" fill="none" xmlns="http://www.w3.org/2000/svg">
<path fill-rule="evenodd" clip-rule="evenodd" d="M29.7712 1.11893C29.4329 1.07152 29.0839 1.02278 28.9957 1.01061C28.9074 0.998438 28.3418 0.996461 27.7388 1.00612C26.8611 1.02027 26.4875 1.05092 25.8668 1.15966C25.4402 1.23434 25.0072 1.32045 24.9044 1.35099C24.8016 1.38147 24.573 1.40694 24.3963 1.40753C23.5221 1.41051 21.7956 1.73701 20.7816 2.09117C17.1597 3.35601 14.2618 6.09203 12.3418 10.0592C11.3651 12.0775 10.737 14.2534 10.4246 16.7012C10.2866 17.7825 10.2873 21.0215 10.4258 22.093C10.6153 23.559 10.7463 24.2358 11.1105 25.6298C12.4183 30.6356 15.4531 35.0341 19.3419 37.56C20.8611 38.5468 22.4043 39.2045 24.1198 39.5962C24.4386 39.669 24.7395 39.7635 24.7883 39.8063C24.9688 39.9639 25.2889 40.0834 27.7503 40.9122C29.1326 41.3777 30.277 41.7719 30.2935 41.7882C30.3098 41.8046 30.2862 41.8602 30.2409 41.9118C29.9515 42.2413 28.7985 44.4318 28.3328 45.5368C25.9157 51.2727 25.2709 58.1572 26.3512 66.6959C26.4087 67.151 26.4794 67.6675 26.5081 67.8437C26.5368 68.0199 26.6099 68.4763 26.6703 68.858C26.8735 70.1403 27.2288 72.0053 27.606 73.7694C27.9754 75.4968 28.9867 80.5194 29.3688 82.5245C29.4751 83.0824 29.6087 83.767 29.6656 84.046C29.7226 84.3249 29.9866 85.7062 30.2522 87.1156C30.5178 88.5249 30.7853 89.9423 30.8464 90.2653C30.9076 90.5883 31.0051 91.1048 31.0631 91.413C31.1211 91.7213 31.202 92.1289 31.2428 92.3188C31.2836 92.5087 31.3072 92.6738 31.2952 92.6858C32.5021 98.4446 35.2526 111.673 36.9774 118.838C39.1335 127.794 42.9737 136.676 44.5333 139.192C45.9754 141.519 48.9993 147.359 55.3641 149.575C56.881 150.047 58.045 150.204 60.0441 150.205C63.1852 150.207 65.692 149.655 68.0963 148.43C69.5209 147.705 70.6439 146.876 71.8924 145.628C73.7859 143.735 75.2127 141.533 76.4764 138.552C77.4269 136.31 77.8112 134.987 78.2834 132.332C78.346 131.98 78.4311 131.512 78.4725 131.291C78.5138 131.071 78.5708 130.747 78.5991 130.571C78.6474 130.271 79.1098 127.545 79.4594 125.499C79.5448 125 79.6637 124.303 79.7237 123.951C79.8617 123.141 79.9872 122.608 80.0882 122.403C80.5777 121.411 81.7945 120.775 83.2034 120.775C84.7178 120.775 85.9464 121.508 86.3392 122.646C86.4099 122.85 86.6434 124 87.8568 130.117C88.5849 133.788 88.7994 134.688 89.2307 135.883C91.0682 140.972 93.6618 144.684 96.9493 146.93C97.4667 147.283 98.811 148.054 98.9098 148.054C99.0241 148.054 99.0422 148.153 98.958 148.315C98.9131 148.402 98.7662 148.781 98.6316 149.158C98.4969 149.534 98.3418 149.963 98.2868 150.11C98.2319 150.256 97.6015 151.974 96.8861 153.927L95.5854 157.477L95.5884 157.93C95.5917 158.441 95.6841 158.681 96.0204 159.052C96.3052 159.367 96.681 159.527 97.303 159.597C97.902 159.666 102.03 159.688 102.258 159.624C102.353 159.598 102.405 159.604 102.405 159.641C102.405 159.673 102.469 159.83 102.548 159.991C102.724 160.35 103.063 160.67 103.465 160.858L103.769 161H108.049H112.329L112.686 160.825C113.082 160.63 113.394 160.316 113.589 159.917C113.94 159.197 113.653 156.378 112.967 153.82C112.781 153.125 112.237 151.524 112.036 151.077C111.873 150.715 111.871 150.702 111.926 150.276C111.958 150.038 112.012 149.583 112.048 149.266L112.112 148.689L112.647 148.455C113.559 148.057 114.666 147.41 115.364 146.865C115.476 146.778 115.574 146.716 115.583 146.726C115.697 146.87 118.166 150.015 118.826 150.857C120.503 152.998 120.703 153.199 121.593 153.639C122.285 153.982 122.725 154.09 123.558 154.122C124.179 154.145 124.309 154.134 124.768 154.016C125.453 153.839 125.978 153.588 126.52 153.179C127.643 152.331 128.303 151.002 128.309 149.576C128.312 148.763 128.19 148.23 127.833 147.494C127.81 147.446 127.79 147.405 127.77 147.364C127.597 147.022 127.353 146.716 124.323 142.86L121.605 139.4L121.921 138.829C124.429 134.298 126.669 128.094 128.662 120.161C129.159 118.179 129.551 116.487 130.245 113.327C130.415 112.55 131.232 108.47 131.473 107.188C131.578 106.63 131.712 105.922 131.77 105.613C131.873 105.073 132.132 103.635 132.358 102.357C132.418 102.019 132.514 101.479 132.571 101.156C132.891 99.3579 133.984 92.806 134.549 89.3044C134.854 87.4106 135.548 83.1839 135.786 81.7771C135.875 81.2486 135.968 80.6841 135.993 80.5226C136.034 80.2596 136.334 78.4988 136.634 76.7589C136.758 76.0432 136.81 75.7573 137.309 73.022C138.4 67.0408 138.732 64.1533 138.81 59.9695C138.929 53.5177 137.907 48.1425 135.697 43.5916C134.447 41.0192 132.919 38.8914 130.932 36.9603C129.821 35.8794 128.652 34.9339 127.436 34.1323C127.157 33.948 126.868 33.7565 126.794 33.7066C126.403 33.4415 125.105 32.7213 124.282 32.3132C122.664 31.5109 121.17 30.9075 119.44 30.3584C119.205 30.2837 119.005 30.2163 118.997 30.2085C118.988 30.2008 119.032 30.0172 119.093 29.8006C119.572 28.12 118.914 26.0668 117.45 24.6745C116.768 24.0259 116.247 23.7895 114.595 23.3806C112.956 22.9746 111.866 22.7567 110.428 22.5473C109.524 22.4157 108.592 22.1038 107.753 21.6523C106.597 21.0295 106.526 20.9986 106.255 20.9986C104.756 20.9986 103.331 23.4493 103.693 25.4051C103.823 26.1023 104.181 26.6608 105.117 27.623C105.42 27.9339 105.667 28.2019 105.667 28.2186C105.667 28.2353 105.433 28.2641 105.146 28.2827C101.588 28.5122 98.7902 29.0075 95.211 30.0412C90.6194 31.3672 85.6298 33.6853 82.5923 35.9036C82.351 36.0798 82.1123 36.2133 82.0383 36.2133C81.9654 36.2133 81.6936 36.0639 81.4193 35.873C79.6831 34.6649 76.3923 33.0039 73.79 32.0221C72.7596 31.6334 71.555 31.2164 70.7948 30.9853C70.3976 30.8645 70.0366 30.7511 69.9925 30.7333C69.9058 30.6983 70.3284 30.6315 72.8005 30.2898C73.683 30.1677 74.8985 29.9991 75.5015 29.9149C76.1046 29.8308 77.0673 29.699 77.6409 29.6221C78.991 29.4411 79.0007 29.4385 79.0217 29.2587C79.0345 29.1492 79.0085 29.1013 78.9148 29.0615C78.8466 29.0326 78.2614 28.9362 77.6142 28.8475C75.4347 28.5485 74.8912 28.4732 73.576 28.2883C71.1323 27.9447 69.1646 27.6739 68.8544 27.6385C68.6844 27.6191 68.5341 27.5851 68.5203 27.5628C68.5065 27.5405 68.7308 27.2136 69.0186 26.8363C69.3065 26.459 70.1414 25.3575 70.874 24.3886C71.6065 23.4196 72.5339 22.1945 72.9347 21.6659C74.0784 20.1578 74.623 19.4305 74.6733 19.3437C74.7101 19.2802 74.7038 19.2756 74.6426 19.3215C74.6002 19.3533 74.2165 19.6402 73.79 19.959C73.3634 20.2778 72.5331 20.9018 71.9447 21.3457C71.3564 21.7896 70.0807 22.75 69.11 23.4801C68.1392 24.21 67.1449 24.9618 66.9003 25.1507C66.6558 25.3395 66.4439 25.4822 66.4294 25.4678C66.3995 25.4379 66.2832 24.6694 66.0079 22.6803C65.9023 21.9169 65.7692 20.9679 65.7122 20.5716C65.6552 20.1752 65.5115 19.1422 65.3929 18.276C65.2743 17.4099 65.1544 16.557 65.1265 16.3809C65.0986 16.2047 65.0495 15.8452 65.0173 15.5821C64.9853 15.3189 64.9333 15.0726 64.9019 15.0349C64.8231 14.9402 64.6087 14.9484 64.5705 15.0476C64.5396 15.1283 64.3517 16.4123 63.9771 19.1035C63.8708 19.8669 63.7382 20.8158 63.6824 21.2122C63.6267 21.6086 63.5309 22.2932 63.4695 22.7336C63.1391 25.1066 63.0886 25.4516 63.0687 25.4715C63.0487 25.4914 62.0003 24.708 56.872 20.8408C55.8775 20.0908 55.005 19.4331 54.9332 19.3793C54.8613 19.3255 54.8036 19.3014 54.8047 19.3259C54.806 19.3504 55.2211 19.9145 55.7274 20.5796C58.167 23.7844 60.9637 27.5082 60.9608 27.5476C60.959 27.5718 60.8061 27.6111 60.6212 27.6349C60.4362 27.6588 59.7072 27.7593 59.0012 27.8584C58.2952 27.9575 57.3445 28.0896 56.8885 28.1519C56.4325 28.2142 55.4698 28.3482 54.7491 28.4495C54.0283 28.5509 53.0776 28.6828 52.6364 28.7427C50.6956 29.0058 50.5049 29.0279 50.459 29.1211C50.4521 29.1352 50.4484 29.1508 50.4426 29.1692C50.3955 29.3171 50.4973 29.4249 50.7162 29.4587C50.9835 29.5 51.1372 29.5215 51.1386 29.5503C51.1404 29.5878 50.8839 29.6377 50.283 29.7597C47.4039 30.3442 44.1983 31.315 42.2305 32.1984C42.0376 32.285 41.8233 32.3737 41.7542 32.3956L41.6287 32.4354L41.7373 32.2557C42.9352 30.2741 43.8654 27.6467 44.2581 25.136C44.707 22.2654 44.6386 19.4976 44.0472 16.5944C43.6636 14.7112 42.9641 12.6932 42.0857 10.9356C39.3723 5.50608 34.7423 1.81522 29.7712 1.11893ZM19.2151 5.03491C21.153 3.1579 23.3692 2.02524 26.0005 1.56699C26.6295 1.45744 28.279 1.38585 28.9422 1.43939C31.2565 1.62608 33.6784 2.54547 35.7812 4.0357C38.6289 6.05386 40.9774 9.13069 42.433 12.7507C42.7295 13.4882 43.1147 14.595 43.1533 14.8205C43.1667 14.8994 42.9732 14.9806 41.9839 15.3112C39.5483 16.1252 37.4808 17.0614 35.5123 18.2416L34.6478 18.76L34.4426 18.6457C34.3297 18.5829 33.8281 18.3024 33.328 18.0223C31.8421 17.1903 31.1866 16.8238 30.1991 16.2735C29.6843 15.9866 28.9984 15.6027 28.6748 15.4203C28.3512 15.238 27.9661 15.0223 27.819 14.9412C27.3082 14.6594 24.1423 12.889 23.0985 12.3014C22.5489 11.9921 22.3736 11.9687 22.3468 12.2008C22.3284 12.3595 22.3997 12.4155 23.1123 12.8025C23.3182 12.9143 23.7514 13.1553 24.075 13.3379C24.3986 13.5205 25.0725 13.8981 25.5726 14.177C27.8379 15.4404 28.3916 15.7499 28.9422 16.0602C29.2658 16.2425 29.6509 16.4581 29.798 16.5392C29.9451 16.6202 30.6912 17.0364 31.456 17.464C32.864 18.2511 33.1294 18.399 33.8238 18.7832C34.0361 18.9006 34.21 19.0127 34.2102 19.0323C34.2104 19.0519 34.012 19.2059 33.7693 19.3745C31.8196 20.7294 29.8587 22.6324 28.4093 24.5763C26.4444 27.2116 24.969 30.3875 24.0823 33.891C23.8762 34.7054 23.5321 36.3826 23.4795 36.8294C23.429 37.2588 23.4148 37.2642 22.9996 37.0107C18.704 34.3888 15.4111 29.3881 14.2662 23.7479C12.8012 16.5315 14.6799 9.42761 19.2151 5.03491ZM29.1027 10.2151C28.6815 9.98079 26.0282 8.49616 25.4122 8.15001C24.6401 7.71626 24.4494 7.67516 24.4494 7.9424C24.4494 7.9612 24.4487 7.97748 24.4507 7.99342C24.467 8.12349 24.6658 8.23073 26.9365 9.49344C27.5101 9.81241 28.2201 10.21 28.5143 10.3768C28.8085 10.5437 29.1816 10.7532 29.3434 10.8423C29.6945 11.0356 31.3965 11.9855 32.9536 12.8572C33.5714 13.2031 34.2814 13.5997 34.5315 13.7387C34.7815 13.8778 35.2728 14.1519 35.6233 14.3479C36.3208 14.7382 36.4745 14.767 36.4993 14.5124C36.5143 14.3583 36.4879 14.3372 35.804 13.9567C34.172 13.0488 33.2791 12.5508 32.4455 12.0836C31.6617 11.6444 29.5292 10.4523 29.1027 10.2151ZM79.6839 8.13853C79.6224 8.1057 79.4444 8.04452 79.2885 8.00262C78.9181 7.90311 78.7971 7.90295 78.4143 8.00139C77.9902 8.11051 77.6245 8.36408 77.3935 8.70911C77.1533 9.0678 77.1061 9.23703 77.1061 9.73895C77.1061 10.0846 77.1303 10.1928 77.27 10.4718C77.9158 11.7618 79.7419 11.7651 80.4299 10.4775C80.5381 10.2749 80.5559 10.1662 80.5559 9.70778C80.5559 9.23287 80.5401 9.14425 80.4136 8.90487C80.2751 8.64297 79.9096 8.25913 79.6839 8.13853ZM126.46 11.9677C126.709 11.5234 126.741 11.4357 126.688 11.3372C126.645 11.2572 126.586 11.2278 126.49 11.2394C126.378 11.253 126.304 11.3498 126.07 11.7865C125.844 12.2074 125.796 12.3376 125.839 12.4169C125.874 12.4838 125.938 12.5114 126.031 12.5003C126.146 12.4867 126.222 12.3922 126.46 11.9677ZM124.439 12.9134C124.564 12.7632 124.439 12.6229 123.916 12.3258C123.631 12.1637 123.384 12.0308 123.366 12.0305C123.349 12.0302 123.289 12.0794 123.235 12.1399C123.092 12.2971 123.165 12.3818 123.724 12.71C124.23 13.0069 124.336 13.0371 124.439 12.9134ZM136.302 15.9275C137.028 15.2029 136.805 13.916 135.873 13.4461C135.623 13.32 135.543 13.3064 135.134 13.3213C134.732 13.3359 134.642 13.3582 134.413 13.4992C133.391 14.1306 133.436 15.6196 134.496 16.2154C134.76 16.3635 134.835 16.3803 135.218 16.3767C135.718 16.372 135.955 16.274 136.302 15.9275ZM134.144 14.499C134.258 14.1577 134.526 13.8816 134.85 13.7712C134.989 13.7237 135.141 13.6865 135.188 13.6885C135.351 13.6955 135.719 13.8323 135.877 13.9452C136.1 14.1033 136.315 14.5529 136.314 14.8565C136.31 15.5164 135.698 16.0578 135.068 15.9573C134.38 15.8475 133.931 15.1391 134.144 14.499ZM127.564 14.6859C127.656 14.5397 127.556 14.4347 127.03 14.1261C126.768 13.9723 126.54 13.8462 126.524 13.8458C126.427 13.8435 126.305 14.0002 126.321 14.1065C126.335 14.1972 126.47 14.303 126.848 14.5185C127.127 14.6781 127.389 14.802 127.43 14.7939C127.471 14.7859 127.531 14.7373 127.564 14.6859ZM124.779 14.951C124.993 14.5565 125.009 14.4871 124.91 14.3876C124.767 14.2448 124.635 14.3498 124.351 14.8327C124.034 15.3732 124.004 15.5697 124.235 15.5964C124.395 15.615 124.462 15.535 124.779 14.951ZM37.4211 17.6758C39.0146 16.8556 41.0599 16.0209 42.6752 15.5315C42.9328 15.4534 43.1774 15.3766 43.2185 15.3608C43.3311 15.3177 43.4908 15.9234 43.7549 17.3952C44.022 18.8833 44.0788 19.6202 44.076 21.5592C44.0732 23.4681 44.0199 24.1071 43.7331 25.6698C43.0153 29.5812 41.0288 33.3173 38.4092 35.6827C35.8713 37.9744 32.8407 39.126 29.6108 39.026C28.3568 38.9872 27.5087 38.8544 26.3482 38.5152C25.3232 38.2156 23.8343 37.564 23.8343 37.415C23.8343 37.039 24.2061 35.1519 24.5286 33.891C26.3975 26.5842 30.7505 21.1093 37.4211 17.6758ZM48.8008 17.1549C48.8128 17.0513 48.723 16.9229 48.3997 16.5808C47.9871 16.1444 47.8775 16.0806 47.7531 16.2047C47.6286 16.329 47.6931 16.4565 48.0983 16.8864C48.4335 17.242 48.5327 17.3177 48.6465 17.3045C48.7495 17.2926 48.7894 17.2539 48.8008 17.1549ZM50.9103 16.956C51.2952 16.5741 51.3986 16.391 51.2903 16.283C51.1845 16.1773 51.0013 16.28 50.6185 16.6599C50.2052 17.0699 50.1441 17.1818 50.267 17.3044C50.3883 17.4255 50.4956 17.3675 50.9103 16.956ZM64.1362 21.052C64.1771 20.7731 64.2617 20.1725 64.3243 19.7174C64.6692 17.2097 64.7331 16.8123 64.7662 16.9681C64.8066 17.158 64.8942 17.7643 65.1521 19.6373C65.2572 20.4007 65.3899 21.3496 65.4471 21.746C65.5042 22.1424 65.6366 23.0913 65.7412 23.8547C65.9151 25.1247 66.0451 26.0538 66.202 27.1496C66.2345 27.3762 66.2883 27.5966 66.3216 27.6393C66.3615 27.6904 66.6563 27.755 67.1845 27.8285C67.6257 27.8899 68.5885 28.024 69.3239 28.1266C70.0593 28.2292 71.0221 28.3622 71.4633 28.4221C71.9046 28.4821 72.4943 28.5652 72.7737 28.607C73.0532 28.6487 73.7392 28.7451 74.2981 28.8211C74.857 28.8971 75.7303 29.0179 76.2386 29.0896C76.747 29.1613 77.1803 29.2221 77.2014 29.2248C77.2395 29.2297 74.9946 29.5575 73.7632 29.7269C73.4102 29.7754 72.7965 29.8608 72.3993 29.9164C72.0022 29.9722 70.9673 30.1157 70.0994 30.2355C67.0548 30.6557 66.4089 30.755 66.3377 30.8139C66.2982 30.8467 66.238 31.072 66.2038 31.3145C66.1697 31.5572 66.0587 32.3442 65.9571 33.0636C65.8555 33.7829 65.6742 35.0802 65.5542 35.9464C65.4342 36.8125 65.2888 37.8575 65.2311 38.2686C65.1085 39.1411 64.9378 40.3723 64.85 41.0179C64.7689 41.6139 64.7203 41.6934 64.6742 41.3056C64.6536 41.1327 64.5422 40.3186 64.4267 39.4964C64.3112 38.6743 64.1686 37.6533 64.1099 37.2276C64.0511 36.8018 63.9319 35.949 63.8449 35.3324C63.4087 32.242 63.2533 31.1045 63.2533 31.0012C63.2533 30.9569 63.2599 30.9221 63.2509 30.892C63.2102 30.7569 62.8524 30.717 60.1511 30.341C59.7246 30.2815 58.7739 30.149 58.0384 30.0463C56.774 29.8697 56.2548 29.7981 54.3479 29.5374C53.9067 29.477 53.326 29.393 53.0576 29.3505C52.7892 29.308 52.5004 29.2717 52.4158 29.2699C52.2842 29.267 52.2774 29.2603 52.3689 29.2238C52.4278 29.2003 52.6203 29.1646 52.7968 29.1444C52.9733 29.1243 53.4427 29.0618 53.8398 29.0055C54.7867 28.8714 56.3531 28.6528 57.2896 28.5242C58.3516 28.3783 60.5056 28.0795 61.9161 27.8825C62.578 27.7901 63.1404 27.6949 63.1658 27.671C63.1912 27.6471 63.2562 27.3191 63.3102 26.9423C63.4205 26.1725 63.7836 23.5777 63.9515 22.3599C64.0123 21.9195 64.0954 21.331 64.1362 21.052ZM48.3605 19.4445C48.8064 19.01 48.8736 18.8926 48.748 18.7672C48.6264 18.6458 48.5235 18.7044 48.0786 19.1485C47.6167 19.6095 47.5774 19.7074 47.8052 19.8291C47.8942 19.8767 47.9724 19.8226 48.3605 19.4445ZM51.2618 19.8669C51.3836 19.7453 51.3245 19.6326 50.9093 19.1954C50.4952 18.7593 50.3899 18.6978 50.267 18.8205C50.1373 18.9499 50.2118 19.0983 50.6132 19.51C51.0193 19.9265 51.1371 19.9913 51.2618 19.8669ZM145.421 24.2017C145.178 23.6069 144.713 23.15 144.08 22.8855C143.817 22.7751 143.704 22.76 143.24 22.7726C142.752 22.7857 142.669 22.8037 142.331 22.9702C141.434 23.4112 140.899 24.4272 141.066 25.3719C141.141 25.7993 141.412 26.3419 141.693 26.6311C142.837 27.8057 144.69 27.4826 145.392 25.9864C145.527 25.7004 145.541 25.613 145.541 25.0826C145.541 24.597 145.52 24.4445 145.421 24.2017ZM141.648 24.2474C141.837 23.8488 142.12 23.5508 142.492 23.3595C142.706 23.2495 142.851 23.2187 143.214 23.2062C143.464 23.1976 143.729 23.2102 143.803 23.2343C144.313 23.4014 144.725 23.7608 144.964 24.2466C145.097 24.5158 145.113 24.6069 145.113 25.0826C145.113 25.5895 145.104 25.6334 144.929 25.9546C144.726 26.3286 144.438 26.5937 144.039 26.7746C143.833 26.8682 143.678 26.8938 143.321 26.8935C142.918 26.8932 142.831 26.8746 142.544 26.7269C142.154 26.5259 141.808 26.1648 141.626 25.7688C141.518 25.5321 141.491 25.3896 141.489 25.0311C141.488 24.6455 141.509 24.5419 141.648 24.2474ZM107.074 28.6326C107.309 28.1024 107.734 27.5007 107.981 27.3505C108.191 27.223 108.246 27.2225 108.561 27.3455C108.94 27.4939 109.233 27.7204 109.8 28.3063C110.542 29.0722 110.618 29.1155 111.322 29.1685C111.639 29.1923 112.015 29.2381 112.157 29.2703C112.751 29.4052 113.203 29.7686 113.323 30.2075C113.407 30.5118 113.349 31.2198 113.214 31.5583C113.09 31.8708 113.126 32.0493 113.316 32.0493C113.517 32.0493 113.994 32.2654 114.148 32.4266C114.279 32.563 114.305 32.6345 114.305 32.8574C114.305 33.1017 114.286 33.1422 114.085 33.3302C113.791 33.6032 113.322 33.7456 112.565 33.7915C112.092 33.8201 111.964 33.8458 111.89 33.9267C111.81 34.0151 111.794 34.2755 111.752 36.2009C111.689 39.1025 111.715 40.0831 111.866 40.5315C112.109 41.2536 112.562 41.916 113.097 42.3304C113.463 42.6142 114.463 43.2505 115.203 43.6706C115.491 43.834 115.718 43.9947 115.707 44.0276C115.696 44.0606 115.232 44.3174 114.676 44.5984C112.287 45.8042 108.251 47.4501 107.397 47.567C107.115 47.6055 106.975 47.5515 106.283 47.1401C105.488 46.6677 102.854 44.8673 102.902 44.83C102.908 44.8256 103.178 44.6595 103.501 44.4609C104.505 43.845 105.093 43.4405 105.436 43.1296C106.201 42.4387 106.771 41.5001 107.03 40.5074C107.114 40.1846 107.208 39.3023 107.355 37.4686C107.402 36.8818 107.445 36.3961 107.452 36.3893C107.459 36.3825 107.681 36.3524 107.945 36.3226C109.03 36.1999 109.831 35.8863 110.342 35.3846C110.641 35.0904 110.699 34.9569 110.577 34.8359C110.464 34.723 110.364 34.7657 110.058 35.0565C109.894 35.213 109.601 35.4165 109.407 35.5086C108.624 35.8818 107.422 36.017 106.643 35.8196C105.961 35.6465 105.856 35.4889 105.802 34.5578C105.766 33.9499 105.858 32.8185 105.989 32.2331C106.058 31.9274 106.028 31.884 105.599 31.6682C105.372 31.5539 105.293 31.4867 105.315 31.4286C105.332 31.3842 105.69 30.839 106.11 30.2171C106.548 29.5687 106.959 28.8929 107.074 28.6326ZM96.8947 30.0131C99.555 29.3213 102.253 28.886 104.785 28.74C105.863 28.6778 106.067 28.6624 106.18 28.7562C106.211 28.7817 106.235 28.8153 106.268 28.8582L106.401 29.0303L105.555 30.2795C104.874 31.2845 104.718 31.5472 104.759 31.6237C104.787 31.6761 104.973 31.8087 105.172 31.9186C105.371 32.0285 105.541 32.1243 105.55 32.1316C105.56 32.139 105.541 32.2868 105.51 32.4602C105.414 32.9867 105.361 34.1219 105.402 34.7749C105.466 35.7956 105.652 36.0245 106.596 36.2445L107.017 36.3426L106.984 36.7183C106.966 36.925 106.904 37.6947 106.846 38.4287C106.788 39.1628 106.705 39.9508 106.661 40.18C106.497 41.0311 105.993 41.9648 105.347 42.6168L104.999 42.9672L104.411 43.0635C102.771 43.3319 101.292 43.698 99.71 44.2271C98.2813 44.7049 97.877 44.9222 96.9063 45.7343C96.1721 46.3485 95.2383 47.4098 94.4515 48.5243L94.0878 49.0395L87.0908 49.0097C80.2898 48.9808 79.7771 48.9679 79.4149 49.1945C79.3683 49.2237 79.3241 49.2569 79.2694 49.2945C78.8553 49.5788 78.5502 50.1547 78.5502 50.6518C78.5502 50.7807 78.8133 51.951 79.1349 53.2524C80.3897 58.3298 80.4309 58.4853 80.3833 58.606C80.3801 58.614 80.3766 58.6218 80.373 58.6309C80.2626 58.9096 80.1436 60.0253 80.1157 61.0431C80.0925 61.8891 80.1048 62.1963 80.1797 62.6436C80.3914 63.9069 80.8154 64.4755 81.5989 64.5463C81.9136 64.5748 81.921 64.5792 81.9747 64.7682C82.0252 64.9461 82.9877 68.8444 83.6304 71.4739C83.7811 72.0905 83.9513 72.7536 84.0086 72.9476C84.1972 73.5865 84.6327 73.9981 85.2815 74.1506C85.5108 74.2044 86.2118 74.2217 88.191 74.2223C89.625 74.2228 90.7984 74.2402 90.7984 74.261C90.7984 74.2956 90.4617 76.2571 90.2137 77.6665C90.1569 77.9895 90.0602 78.542 89.9988 78.8943C89.7674 80.2217 89.7261 80.4582 89.6206 81.0564C89.561 81.3941 89.4773 81.8745 89.4345 82.1241C89.3423 82.6626 89.1966 83.4934 89.0285 84.4391C88.9201 85.0487 88.9133 85.173 88.9678 85.5459C89.1021 86.4659 89.6132 87.3535 90.539 88.2741L91.1134 88.8454L90.9023 89.5821C90.7862 89.9872 90.6436 90.4868 90.5854 90.6924C90.445 91.1885 89.796 93.7494 89.6993 94.1891C89.6573 94.3799 89.5735 94.7523 89.5132 95.0165C89.4085 95.4744 88.9267 97.7708 88.9265 97.8123C88.9264 97.8333 88.5296 97.3348 87.4021 95.8974C87.0221 95.4129 86.5297 94.7857 86.3078 94.5035C86.086 94.2214 85.6527 93.6689 85.345 93.2757C84.6843 92.4314 76.34 81.8173 71.437 75.5845C69.5431 73.1768 67.5608 70.6544 67.0318 69.9791C66.5029 69.3038 65.9461 68.5951 65.7944 68.4042C65.6428 68.2134 65.1698 67.6128 64.7435 67.0696C64.3172 66.5264 63.4873 65.4694 62.8994 64.7207C62.3114 63.972 60.0299 61.0652 57.8294 58.2612C55.6288 55.4571 53.7046 53.0448 53.5533 52.9004C53.136 52.5021 52.6945 52.3176 52.0959 52.2914C51.5076 52.2656 51.1147 52.3639 50.6952 52.6418C50.4148 52.8275 50.4066 52.8294 50.3125 52.7303C50.2596 52.6747 48.7647 50.7793 46.9904 48.5184C45.2161 46.2576 43.5712 44.1676 43.3349 43.874C42.102 42.3416 40.4634 41.0421 38.7245 40.2175C38.0288 39.8876 37.6507 39.745 36.0241 39.199C35.2178 38.9284 34.5379 38.689 34.5132 38.667C34.4884 38.6451 34.5541 38.5988 34.6592 38.5641C34.7644 38.5295 35.02 38.4188 35.2272 38.3182C35.4345 38.2175 35.6142 38.1351 35.6267 38.1351C35.6831 38.1351 36.8398 37.4517 37.1523 37.2338C38.5839 36.2354 39.9415 34.8921 40.8907 33.5353C41.1393 33.1799 41.2141 33.1123 41.5031 32.9818C44.3143 31.7126 47.2832 30.7848 50.6307 30.1295C52.6308 29.738 52.6856 29.7321 53.399 29.8315C53.7444 29.8797 54.364 29.9657 54.7758 30.0228C55.1876 30.0799 56.1143 30.2092 56.835 30.3101C57.5557 30.4111 58.7832 30.5829 59.5628 30.692C60.3423 30.801 60.9872 30.8958 60.9958 30.9026C61.0044 30.9095 60.6193 31.4316 60.14 32.0629C59.6608 32.6943 58.8805 33.7243 58.4061 34.3517C58.1672 34.6677 57.794 35.1613 57.3861 35.7008L56.1739 37.304C55.4206 38.3004 54.8138 39.1251 54.8255 39.1368C54.8373 39.1485 56.0824 38.2257 57.5926 37.0862C59.1027 35.9467 60.9521 34.5521 61.7022 33.9872L63.0661 32.96L63.1026 33.1319C63.1227 33.2265 63.1906 33.6882 63.2535 34.158C63.3164 34.6278 63.4505 35.6007 63.5515 36.32C63.6525 37.0394 63.7848 37.9883 63.8456 38.4287C64.0015 39.5573 64.3602 42.1058 64.4636 42.8187C64.5582 43.4713 64.6177 43.5804 64.827 43.4852C64.9336 43.4367 64.9592 43.3748 64.9899 43.0903C65.0099 42.9047 65.06 42.5367 65.1012 42.2724C65.1423 42.0082 65.2381 41.3355 65.314 40.7777C65.3899 40.2198 65.5214 39.2709 65.6063 38.669C65.6912 38.0671 65.8235 37.1181 65.9004 36.5603C66.1243 34.9369 66.3527 33.3181 66.3844 33.1304L66.4138 32.957L68.7513 34.7181C70.037 35.6867 71.8901 37.0831 72.8694 37.8212C73.8486 38.5593 74.6588 39.1541 74.6699 39.143C74.6809 39.1319 74.1082 38.354 73.3971 37.4144C72.686 36.4749 71.3956 34.7692 70.5295 33.6241C69.6634 32.479 68.8514 31.41 68.7249 31.2485C68.5984 31.087 68.4949 30.9368 68.4949 30.9148C68.4948 30.8372 68.9695 30.8761 69.3317 30.9835C70.2882 31.2671 70.4916 31.3294 71.1157 31.5294C74.9078 32.7444 78.9905 34.6676 81.3783 36.3637C81.651 36.5574 81.7744 36.6105 81.9934 36.6286C82.2397 36.6488 82.2945 36.6319 82.5349 36.4611C82.682 36.3566 83.1754 36.0206 83.6313 35.7143C87.0949 33.3879 91.9617 31.2959 96.8947 30.0131ZM115.669 33.9234C117.345 32.4885 117.976 31.8459 118.523 31.0219C118.673 30.7942 118.809 30.6083 118.824 30.6087C118.87 30.6102 120.367 31.1176 120.912 31.3165C123.812 32.3734 126.762 34.0048 128.934 35.7515C130.764 37.2237 132.404 39.0076 133.676 40.9111C136.353 44.9154 137.853 49.749 138.305 55.8323C138.392 57.0032 138.392 61.1686 138.305 62.5052C138.113 65.4545 137.775 68.0545 137.111 71.6874C136.724 73.8085 136.449 75.3409 136.15 77.0526C136.091 77.3902 135.792 79.1679 135.486 81.003C135.181 82.8381 134.894 84.5558 134.85 84.82C134.742 85.4604 134.595 86.3578 134.335 87.9697C133.854 90.9452 132.656 98.1693 132.379 99.7678C131.893 102.571 131.526 104.605 131.013 107.322C130.955 107.63 130.874 108.062 130.832 108.283C130.641 109.296 129.857 113.144 129.711 113.781C129.668 113.972 129.57 114.417 129.493 114.769C129.338 115.485 129.078 116.63 128.96 117.118C128.917 117.294 128.808 117.75 128.718 118.132C128.628 118.514 128.411 119.391 128.237 120.081C128.062 120.771 127.904 121.395 127.886 121.469C127.707 122.188 126.976 124.82 126.796 125.392C126.741 125.569 126.643 125.893 126.578 126.113C125.674 129.173 124.318 132.856 123.168 135.375C122.403 137.051 121.353 139.071 121.286 138.996C121.263 138.972 119.955 137.309 118.377 135.302C116.236 132.577 115.509 131.615 115.51 131.511C115.51 131.434 115.544 131.215 115.584 131.024C115.625 130.834 115.722 130.317 115.8 129.877C115.879 129.436 115.977 128.896 116.019 128.676C116.06 128.455 116.118 128.131 116.146 127.955C116.174 127.779 116.271 127.19 116.362 126.647C116.452 126.104 116.562 125.443 116.606 125.179C116.695 124.64 116.908 123.238 117.036 122.349C117.082 122.027 117.154 121.534 117.196 121.255C117.265 120.791 117.419 119.634 117.62 118.052C117.932 115.608 118.377 111.347 118.505 109.591C118.535 109.179 118.571 108.759 118.585 108.656C118.62 108.407 118.853 104.942 118.958 103.104C119.103 100.588 119.203 97.4301 119.236 94.3424L119.268 91.3728L119.916 90.9451C121.41 89.9579 122.403 88.9264 122.846 87.8987L123.023 87.4893L123.041 86.3949C123.06 85.2948 122.99 78.1674 122.887 70.733C122.857 68.5346 122.841 66.7267 122.852 66.7156C122.863 66.7045 123.135 66.9029 123.455 67.1564C124.203 67.7483 125.4 68.5375 126.03 68.8539C126.716 69.1985 127.149 69.3526 127.7 69.4475C128.125 69.5207 128.214 69.5207 128.567 69.4475C129.127 69.3313 129.447 69.0944 129.904 68.4576C131.071 66.8306 131.463 65.4426 131.072 64.3203C130.876 63.7572 130.719 63.2349 130.272 61.6511C130.032 60.7996 129.716 59.7065 129.57 59.2221C129.423 58.7376 129.254 58.1731 129.193 57.9675C128.7 56.2973 127.855 53.7606 127.451 52.7358C126.497 50.3195 125.04 48.2125 123.306 46.7432C121.941 45.5865 120.142 44.6622 118.592 44.3216C118.331 44.2643 118.037 44.1839 117.939 44.1429C117.695 44.0411 116.386 43.6486 116.052 43.577C115.673 43.496 113.798 42.3741 113.262 41.908C112.751 41.4627 112.313 40.7147 112.198 40.0872C112.134 39.7401 112.119 37.8365 112.174 36.9556L112.208 36.4001L112.561 36.2411C113.212 35.9481 113.931 35.4125 115.669 33.9234ZM10.6823 40.6653C10.6999 40.3452 10.6922 40.0402 10.6652 39.987C10.6323 39.9222 10.5691 39.8959 10.4731 39.907C10.3436 39.922 10.3261 39.9512 10.2878 40.2171C10.2186 40.6962 10.2591 41.2366 10.3693 41.3056C10.4373 41.3483 10.4885 41.3483 10.5565 41.3057C10.6327 41.2579 10.6561 41.1387 10.6823 40.6653ZM26.619 53.6701C27.1694 49.4929 28.4177 45.7325 30.2637 42.6909C30.5076 42.2889 30.7313 41.9538 30.7607 41.9462C30.8048 41.9348 35.5428 43.5207 36.3494 43.8168C36.6823 43.939 37.6276 44.4436 38.0129 44.7047C38.5344 45.0582 39.2405 45.6702 39.6155 46.0939C39.8083 46.3116 40.7966 47.5468 41.8118 48.8388C42.827 50.1307 44.4082 52.1422 45.3256 53.3089C46.243 54.4755 46.9936 55.4375 46.9936 55.4466C46.9936 55.4557 46.8475 55.6131 46.6688 55.7964C46.3044 56.1705 46.1202 56.5254 46.0312 57.0252C45.9555 57.4498 46.0294 57.9825 46.219 58.3806C46.2946 58.5394 47.8779 60.6 49.8598 63.1192C51.7886 65.5709 53.7061 68.0092 54.121 68.5377C54.5359 69.0662 54.9987 69.6548 55.1496 69.8456C55.3004 70.0365 55.6497 70.4809 55.9257 70.8332C56.2018 71.1856 56.5508 71.63 56.7013 71.8209C56.8519 72.0117 57.1533 72.3961 57.3712 72.675C57.5891 72.954 57.9385 73.3984 58.1475 73.6626C58.3567 73.9269 59.4515 75.3202 60.5806 76.7589C62.4177 79.0998 65.5013 83.0219 71.4302 90.5589C72.5042 91.9242 73.7316 93.4857 74.1577 94.0289C74.5839 94.5721 75.1038 95.2327 75.3131 95.497C75.5223 95.7612 76.0041 96.3738 76.3838 96.8583C76.7634 97.3428 77.4137 98.1715 77.8289 98.7001C78.2441 99.2286 79.0648 100.274 79.6526 101.022C80.9516 102.677 82.544 104.702 85.406 108.341L87.5725 111.095L87.6101 112.051C87.8228 117.469 88.6865 122.501 90.2985 127.715C90.9382 129.784 91.4438 131.164 92.5371 133.827C93.5559 136.308 95.5358 140.05 97.0431 142.342C97.8882 143.627 97.941 143.691 98.1335 143.648C98.2731 143.618 98.296 143.633 98.3695 143.809C98.4143 143.916 98.8112 144.738 99.2514 145.637C99.6917 146.536 100.046 147.276 100.038 147.283C100.031 147.29 99.8649 147.403 99.6696 147.533L99.3146 147.77L98.8996 147.563C95.4068 145.82 92.597 142.613 90.5605 138.045C90.2411 137.328 90.1317 137.056 89.7225 135.963C89.1791 134.51 88.9633 133.585 87.9108 128.195C86.9518 123.283 86.7986 122.581 86.5995 122.178C86.4948 121.967 86.2885 121.662 86.1411 121.501C84.7213 119.95 81.606 119.965 80.1881 121.529C79.8748 121.874 79.6046 122.368 79.518 122.754C79.4302 123.145 78.7231 127.205 78.5238 128.462C78.2416 130.242 77.6826 133.303 77.453 134.325C77.2532 135.214 76.8588 136.443 76.3963 137.617C73.7199 144.414 69.5813 148.309 63.8416 149.436C62.4556 149.708 62.0992 149.736 60.0441 149.736C58.4014 149.736 57.9944 149.72 57.4768 149.637C54.5192 149.162 52.1312 147.901 49.6749 145.518C45.7053 141.668 42.2105 134.918 39.2281 125.341C38.924 124.364 38.8978 124.277 38.4224 122.643C37.2702 118.683 36.0728 113.89 35.0413 109.11C34.94 108.64 34.8068 108.028 34.7454 107.749C34.3408 105.912 33.2973 100.782 32.7689 98.0328C32.6476 97.4015 32.5144 96.7168 32.473 96.5113C32.4316 96.3058 32.3497 95.8854 32.2911 95.5771C32.2325 95.2688 32.0994 94.5721 31.9954 94.0289C31.8914 93.4857 31.6253 92.0804 31.4042 90.9059C31.1831 89.7314 30.9552 88.5303 30.8979 88.2367C30.8405 87.943 30.7425 87.4265 30.68 87.0889C30.6175 86.7512 30.5324 86.3068 30.4909 86.1013C30.4495 85.8957 30.3297 85.2711 30.2249 84.7133C29.7757 82.3226 28.7479 77.131 28.3278 75.1307C28.2075 74.5582 28.0872 73.9816 28.0604 73.8495C28.0337 73.7174 27.9496 73.321 27.8735 72.9686C27.3407 70.5015 26.8667 67.6098 26.6177 65.3079C26.349 62.8236 26.3241 62.3119 26.3234 59.2755C26.3229 56.2117 26.3487 55.7221 26.619 53.6701ZM12.914 42.4697C12.9236 42.402 12.9026 42.3119 12.8673 42.2695C12.771 42.1537 11.6803 42.1593 11.5632 42.2762C11.5169 42.3224 11.4791 42.3915 11.4791 42.4299C11.4791 42.5892 11.6277 42.6229 12.2623 42.6078C12.8786 42.5932 12.897 42.5893 12.914 42.4697ZM9.30916 42.5356C9.41014 42.4347 9.41614 42.3434 9.32745 42.2549C9.28098 42.2085 9.07339 42.1936 8.61877 42.2042C7.99326 42.2186 7.97534 42.2224 7.95833 42.3421C7.92458 42.5796 8.02347 42.6194 8.64711 42.6194C9.10121 42.6194 9.2431 42.6014 9.30916 42.5356ZM10.5699 44.7816C10.6469 44.5792 10.6387 43.617 10.5592 43.5377C10.5239 43.5024 10.4546 43.4736 10.4052 43.4736C10.2244 43.4736 10.1915 43.6033 10.2071 44.2552L10.2222 44.8883L10.3693 44.9052C10.4866 44.9187 10.5271 44.8937 10.5699 44.7816ZM101.389 45.7679C101.389 45.744 101.403 45.6865 101.421 45.6401C101.486 45.4716 101.695 45.5654 102.325 46.0457C102.678 46.3148 103.364 46.8385 103.849 47.2093C104.334 47.5801 105.249 48.2765 105.881 48.7569C106.514 49.2372 107.093 49.6868 107.169 49.7561L107.307 49.8819L108.8 49.1537C109.622 48.7532 110.559 48.2991 110.882 48.1446C111.206 47.9902 111.892 47.6595 112.407 47.41C112.855 47.1927 113.651 46.8068 114.295 46.4944L114.571 46.3605C115.247 46.0329 115.849 45.7718 115.909 45.7803C115.98 45.7905 116.022 45.8428 116.033 45.9334C116.048 46.0606 116.001 46.0936 115.418 46.3699C115.071 46.5344 114.209 46.9497 113.503 47.2929C111.714 48.1625 110.572 48.7157 109.759 49.1059C109.377 49.2896 108.438 49.7453 107.673 50.1186C106.908 50.4919 106.225 50.8196 106.155 50.847C105.97 50.9192 105.818 50.8562 105.838 50.716C105.85 50.6298 105.987 50.5327 106.376 50.3335C106.663 50.1867 106.897 50.0515 106.898 50.0331C106.898 50.0147 106.627 49.7954 106.296 49.5459C105.965 49.2964 105.153 48.6785 104.491 48.1729C103.829 47.6673 102.86 46.9291 102.338 46.5325C101.816 46.1359 101.389 45.7918 101.389 45.7679ZM78.9793 50.6144C78.9817 50.1455 79.3672 49.6446 79.8491 49.4844C80.1251 49.3926 82.6136 49.3862 92.5634 49.4517C96.3476 49.4767 96.7779 49.4881 96.9225 49.5683C97.0689 49.6493 97.3132 49.8844 97.4724 50.0974C97.533 50.1784 97.7709 51.1008 98.6278 54.5776C99.0034 56.1016 99.2451 57.0814 100.402 61.7712C100.948 63.983 101.537 66.3718 102.158 68.8847C103.032 72.4245 103.052 72.5135 103.014 72.7205C102.932 73.171 102.547 73.6282 102.154 73.7421C102.008 73.7845 99.5975 73.7967 93.6332 73.7853C85.6412 73.7701 85.3088 73.7655 85.1289 73.67C84.8971 73.547 84.608 73.2795 84.5146 73.1018C84.476 73.0282 84.2747 72.2834 84.0674 71.4469C83.6638 69.8185 82.7166 65.9806 82.4801 65.0162C82.4012 64.6942 82.3581 64.4236 82.3843 64.4149C82.4106 64.4062 82.7769 64.231 83.1983 64.0255C86.0928 62.6146 87.5831 61.1859 87.7771 59.6359C87.8172 59.3154 87.7165 58.8224 87.5335 58.4439C87.3897 58.1465 87.0671 57.7807 86.9487 57.7807C86.8951 57.7807 86.5419 57.9276 86.1639 58.1071C85.7859 58.2867 85.26 58.5359 84.9952 58.661L84.3079 58.9856C83.9223 59.1677 83.4386 59.3962 82.9738 59.6157C82.1268 60.0158 81.4146 60.3432 81.3911 60.3432C81.3288 60.3432 81.2303 59.9785 80.6055 57.4337C80.2955 56.1711 79.8026 54.1715 79.51 52.99C79.2174 51.8085 78.9786 50.7395 78.9793 50.6144ZM106.697 52.0756C108.344 51.7846 108.816 51.7004 109.759 51.5293C111.344 51.2419 112.046 51.1146 112.62 51.328C113.076 51.4976 113.452 51.8821 114.128 52.5722L115.093 53.5584L116.33 54.2649C119.254 55.9334 122.591 57.9019 124.429 59.0421C127.433 60.9059 129.679 62.7014 130.34 63.7691C130.954 64.7607 130.951 65.6698 130.327 66.9362C129.826 67.9527 129.202 68.7642 128.776 68.9511C127.842 69.3607 126.11 68.6638 123.986 67.0247C121.288 64.942 117.811 61.4129 114.117 57.0066L113.4 56.1525L112.944 56.1148C111.952 56.0332 111.229 55.5898 110.674 54.7232C110.452 54.377 110.353 54.1534 110.158 53.5633L110.009 53.1095L109.697 53.0967C107.943 53.0245 106.915 52.895 106.358 52.6756C106.098 52.5732 105.721 52.342 105.721 52.2847C105.721 52.2646 106.16 52.1705 106.697 52.0756ZM50.9248 52.9959C51.0131 52.935 51.1936 52.8472 51.326 52.8008C51.98 52.5716 52.7018 52.7057 53.2073 53.1502C53.3153 53.2453 55.1671 55.5692 57.3223 58.3145C59.4775 61.0598 62.6489 65.0957 64.3699 67.2832C66.091 69.4706 68.3293 72.3173 69.344 73.6093C70.3586 74.9012 71.3603 76.1744 71.5699 76.4386C71.7795 76.7029 72.2128 77.2554 72.5329 77.6665C73.1358 78.4407 74.0871 79.6519 74.5664 80.2556C74.7179 80.4465 77.5706 84.074 80.9057 88.3167C84.2408 92.5595 87.2594 96.3993 87.6137 96.8498C87.968 97.3003 88.3841 97.831 88.5385 98.0293L88.8191 98.3898L88.7142 98.972C88.5276 100.008 88.2691 101.722 88.1232 102.891C87.8634 104.973 87.7227 106.757 87.6013 109.508L87.5625 110.387L87.29 110.042C86.8869 109.532 78.7502 99.1823 75.9388 95.6037C74.6009 93.9008 73.3821 92.3513 73.2304 92.1604C73.0788 91.9696 72.7289 91.5252 72.4528 91.1728C72.1768 90.8205 71.8276 90.3761 71.6769 90.1852C71.5261 89.9944 71.0449 89.3818 70.6075 88.8239C70.17 88.266 69.6518 87.6054 69.4559 87.3558C68.9023 86.6505 53.7591 67.389 51.8073 64.9076C50.7085 63.5105 49.7461 62.2845 48.4125 60.5834C47.9752 60.0255 47.4452 59.3529 47.2346 59.0886C46.6809 58.3936 46.5778 58.2203 46.4782 57.8173C46.4019 57.5088 46.3983 57.4037 46.4536 57.0947C46.5239 56.7024 46.7334 56.2883 46.9749 56.0646C47.1353 55.916 50.6486 53.1865 50.9248 52.9959ZM85.3691 58.9552C85.3771 58.9552 85.7097 58.799 86.1084 58.6082C86.5069 58.4173 86.8528 58.2615 86.8769 58.2618C86.937 58.2627 87.1236 58.5626 87.2267 58.8237C87.8034 60.284 86.3692 61.9626 83.1806 63.5592C81.9817 64.1595 81.6206 64.2454 81.2746 64.0127C81.0106 63.8351 80.8187 63.5209 80.6798 63.0391C80.5666 62.6457 80.5568 62.5089 80.5564 61.3041C80.5562 60.5847 80.5765 59.9241 80.6015 59.836C80.6441 59.6855 80.6588 59.708 80.8446 60.2107C81.0815 60.8512 81.0961 60.877 81.2235 60.877C81.2784 60.877 81.7488 60.6728 82.269 60.4232C82.7891 60.1737 83.2222 59.9695 83.2314 59.9695C83.2405 59.9695 83.722 59.7412 84.3013 59.4623C84.8806 59.1834 85.3611 58.9552 85.3691 58.9552ZM4.83905 62.7694C4.56642 62.4737 4.29279 62.2911 3.91539 62.1529C3.70578 62.0761 3.52699 62.0568 3.13536 62.0684C2.69037 62.0816 2.5829 62.1048 2.27017 62.2551C1.81769 62.4727 1.34579 62.9704 1.16473 63.4211C0.824142 64.2685 1.0228 65.2704 1.65767 65.9071C2.15343 66.4043 2.85857 66.6507 3.48772 66.5467C4.15689 66.436 4.74785 66.0586 5.08379 65.5275C5.62399 64.6734 5.52066 63.5087 4.83905 62.7694ZM1.6091 63.4742C1.80641 63.0855 2.1931 62.7321 2.57835 62.5882C2.96126 62.4452 3.49109 62.4461 3.86731 62.5905C4.21887 62.7255 4.63007 63.1126 4.82567 63.4929C4.95944 63.753 4.97687 63.8443 4.97864 64.2936C4.98039 64.7421 4.96346 64.8356 4.83235 65.102C4.65083 65.4709 4.29713 65.8055 3.89352 65.9903C3.06371 66.3702 2.02547 65.9693 1.59999 65.1045C1.46826 64.8367 1.45058 64.7408 1.45058 64.2936C1.45058 63.8373 1.46646 63.7551 1.6091 63.4742ZM5.90485 73.9029C5.9164 73.7995 5.82585 73.6702 5.50258 73.329C5.27313 73.0868 5.06625 72.8886 5.04288 72.8886C4.9366 72.8886 4.79341 73.0082 4.79341 73.097C4.79341 73.1509 4.97795 73.3915 5.20349 73.6317C5.53874 73.9887 5.63881 74.0655 5.75172 74.0523C5.8541 74.0405 5.89372 74.0017 5.90485 73.9029ZM8.01476 73.7039C8.39969 73.322 8.50302 73.1389 8.39478 73.0309C8.28893 72.9252 8.10573 73.0279 7.72293 73.4078C7.30971 73.8178 7.24863 73.9298 7.37143 74.0523C7.49278 74.1735 7.60008 74.1154 8.01476 73.7039ZM5.41936 76.2499C5.90485 75.786 5.99091 75.6373 5.8383 75.5259C5.78188 75.4847 5.71349 75.451 5.68631 75.451C5.65913 75.451 5.44604 75.6364 5.21274 75.863C4.88039 76.1858 4.79198 76.3032 4.8044 76.4048C4.81306 76.4762 4.86113 76.5602 4.91124 76.5915C4.98671 76.6387 5.07358 76.5803 5.41936 76.2499ZM8.36627 76.6148C8.4895 76.4918 8.42755 76.3724 8.01593 75.9396C7.60521 75.5077 7.49557 75.4446 7.37143 75.5685C7.24178 75.6979 7.31628 75.8462 7.71765 76.2579C8.12376 76.6744 8.24159 76.7393 8.36627 76.6148ZM94.3017 90.9059V90.7457C94.3017 90.5195 94.3997 90.5264 95.1842 90.8082C97.3799 91.5965 100.49 92.1601 103.529 92.3201C104.074 92.3487 106.746 92.3871 109.466 92.4054C113.092 92.4296 114.423 92.4548 114.452 92.4996C114.515 92.5983 114.5 92.6333 114.356 92.7275C114.231 92.8095 113.869 92.8145 109.837 92.7893L105.453 92.7618L105.455 93.6757C105.455 94.1782 105.479 95.4903 105.508 96.5914C105.537 97.6924 105.596 100.383 105.64 102.57C105.683 104.758 105.743 107.629 105.773 108.95C105.991 118.6 106.012 119.453 105.947 119.459C105.94 119.46 105.931 119.45 105.921 119.44C105.877 119.396 104.825 118.065 103.583 116.481L101.324 113.603L101.359 112.905C101.406 111.979 101.578 109.844 101.711 108.55C102.138 104.397 102.848 100.391 103.816 96.6714C104.104 95.5682 104.642 93.7595 104.876 93.1067C104.937 92.9372 104.978 92.7903 104.966 92.7803C104.955 92.7703 104.392 92.7337 103.715 92.699C100.496 92.5342 97.7276 92.0538 95.2912 91.2375L94.3017 90.9059ZM145.524 95.386C145.03 94.6256 144.237 94.1135 143.346 93.9801C142.958 93.922 142.432 93.9559 142.04 94.0641C140.965 94.3619 140.05 95.3421 139.841 96.4211C139.749 96.8964 139.803 97.7081 139.954 98.1128C140.41 99.3398 141.595 100.168 142.893 100.168C144.297 100.168 145.561 99.1926 145.911 97.8382C146.116 97.0457 145.96 96.0567 145.524 95.386ZM116.153 113.785C116.184 113.533 116.232 113.273 116.259 113.207C116.306 113.093 116.466 113.046 116.543 113.123C116.681 113.261 116.4 114.772 116.021 115.93C115.27 118.226 114.015 119.742 112.353 120.363C111.954 120.512 111.058 120.685 110.825 120.659C110.691 120.644 110.668 120.618 110.668 120.483V120.324L111.173 120.257C112.553 120.072 113.594 119.428 114.493 118.202C115.27 117.144 115.966 115.292 116.153 113.785ZM101.632 128.008C101.342 124.867 101.228 122.121 101.234 118.399C101.237 116.637 101.255 114.989 101.274 114.737L101.308 114.278L103.662 117.271L106.015 120.265L106.078 123.042C106.134 125.482 106.309 133.876 106.309 134.139C106.309 134.193 105.264 132.908 103.986 131.283L101.662 128.329L101.632 128.008ZM101.872 130.437C101.844 130.217 101.805 129.851 101.786 129.623C101.766 129.396 101.764 129.209 101.78 129.209C101.795 129.209 102.83 130.509 104.078 132.098L106.347 134.986L106.382 137.022C106.469 141.975 106.527 144.288 106.582 144.973C106.65 145.809 106.624 146.057 106.465 146.107C106.288 146.163 105.706 146.742 105.534 147.033C105.445 147.183 105.361 147.305 105.347 147.305C105.332 147.306 104.967 146.256 104.536 144.971C104.03 143.466 103.772 142.624 103.808 142.601C103.847 142.577 103.764 142.068 103.558 141.053C103.218 139.376 103.143 138.976 102.834 137.19C102.516 135.346 102.279 133.75 102.06 131.959C101.985 131.342 101.9 130.657 101.872 130.437ZM113.849 139.299C113.998 138.736 114.952 134.302 115.222 132.92C115.296 132.538 115.365 132.218 115.374 132.209C115.383 132.2 116.869 134.074 118.676 136.373C120.483 138.672 123.029 141.911 124.335 143.57C126.966 146.913 127.213 147.225 127.393 147.572C127.415 147.615 127.436 147.658 127.46 147.707C127.756 148.306 127.872 148.819 127.872 149.519C127.872 150.687 127.502 151.621 126.722 152.423C126.187 152.974 125.61 153.328 124.869 153.559C124.525 153.667 124.357 153.685 123.692 153.685C123.029 153.685 122.858 153.667 122.515 153.56C121.98 153.394 121.384 153.079 120.987 152.754C120.946 152.721 120.912 152.694 120.879 152.666C120.608 152.441 120.388 152.154 116.767 147.547C115.036 145.345 113.48 143.368 113.31 143.153C113.14 142.938 113.011 142.734 113.023 142.699C113.047 142.631 113.518 140.691 113.694 139.94C113.752 139.69 113.822 139.402 113.849 139.299ZM139.964 142.874C139.798 141.733 138.927 140.861 137.839 140.745C136.287 140.58 135.036 141.696 135.032 143.252C135.028 144.592 136.157 145.751 137.471 145.757C138.17 145.761 138.749 145.526 139.233 145.042C139.825 144.45 140.083 143.687 139.964 142.874ZM136.096 141.75C136.354 141.492 136.527 141.369 136.743 141.29C137.549 140.995 138.402 141.179 138.976 141.771C139.906 142.732 139.702 144.366 138.569 145.029C137.487 145.662 136.198 145.259 135.656 144.117C135.501 143.789 135.486 143.711 135.488 143.25C135.491 142.548 135.623 142.222 136.096 141.75ZM99.2492 143.44C99.8973 143.322 101.091 143.102 102.581 142.824C103.271 142.695 103.309 142.693 103.347 142.794C103.6 143.45 104.996 147.734 104.952 147.717C104.774 147.65 103.923 147.408 103.528 147.313C102.458 147.055 101.22 146.981 100.662 147.14L100.499 147.187L100.238 146.673C99.7828 145.776 98.7101 143.556 98.7258 143.544C98.7342 143.537 98.9697 143.49 99.2492 143.44ZM112.303 146.939C112.558 144.764 112.627 144.267 112.74 143.823C112.806 143.567 112.876 143.356 112.897 143.356C112.928 143.356 115.15 146.153 115.258 146.329C115.302 146.4 114.931 146.679 114.104 147.197C113.58 147.526 112.359 148.161 112.251 148.161C112.17 148.161 112.177 148.015 112.303 146.939ZM106.898 149.149C106.899 148.728 106.983 146.713 107.034 145.879L107.068 145.332L107.424 145.338C107.62 145.341 108.165 145.376 108.636 145.414C109.107 145.452 110.057 145.523 110.749 145.573C111.44 145.622 112.008 145.666 112.012 145.67C112.016 145.675 111.927 146.495 111.814 147.494C111.701 148.492 111.583 149.573 111.55 149.896C111.518 150.219 111.478 150.531 111.461 150.59C111.423 150.725 110.837 151.497 110.819 151.436C110.812 151.411 110.769 151.107 110.725 150.76C110.634 150.055 110.559 149.885 110.246 149.668L110.036 149.522H108.467H106.898L106.898 149.149ZM105.638 147.819C105.808 147.364 105.944 147.139 106.248 146.813C106.378 146.674 106.509 146.559 106.539 146.559C106.574 146.559 106.581 146.742 106.559 147.08C106.54 147.366 106.509 148.081 106.489 148.668L106.453 149.736L106.282 149.896C106.057 150.108 105.786 150.518 105.187 151.551C104.225 153.213 103.412 154.976 102.956 156.395L102.806 156.861L99.9503 156.875C97.2978 156.888 97.0904 156.896 97.0356 156.983C96.9925 157.051 96.9925 157.102 97.0356 157.17C97.0904 157.256 97.2947 157.264 99.8895 157.277L102.684 157.291L102.649 157.41C102.564 157.697 102.351 158.818 102.351 158.979C102.351 159.119 102.326 159.162 102.231 159.184C101.995 159.238 100.23 159.311 99.7305 159.288C97.8575 159.202 97.0092 159.142 96.8398 159.083C96.5333 158.978 96.2709 158.746 96.1229 158.449C95.8974 157.998 95.9294 157.778 96.4066 156.489C96.4663 156.327 96.5911 155.991 96.6837 155.742C96.7763 155.492 96.9087 155.132 96.9778 154.941C97.047 154.75 97.1793 154.39 97.2719 154.14C97.3645 153.891 97.4964 153.53 97.5649 153.339C98.3969 151.024 99.2993 148.589 99.3796 148.443C99.5846 148.069 99.9809 147.777 100.501 147.617C100.81 147.521 101.01 147.5 101.576 147.5C102.53 147.501 103.556 147.704 104.876 148.152C105.238 148.275 105.359 148.297 105.421 148.249C105.465 148.215 105.563 148.022 105.638 147.819ZM105.572 151.738C106.395 150.326 106.569 150.113 107 149.984C107.13 149.945 107.697 149.923 108.554 149.923H109.903L110.077 150.096C110.112 150.131 110.14 150.157 110.163 150.186C110.264 150.314 110.279 150.511 110.408 151.818C110.444 152.179 110.496 152.272 110.664 152.272C110.749 152.272 110.886 152.129 111.176 151.738C111.394 151.444 111.589 151.204 111.609 151.204C111.649 151.204 112.218 152.766 112.396 153.366C112.915 155.11 113.248 157.019 113.301 158.55C113.329 159.383 113.326 159.42 113.198 159.698C113.045 160.032 112.807 160.288 112.494 160.455L112.273 160.573H108.048H103.822L103.537 160.415C102.806 160.011 102.642 159.427 102.911 158.188C103.338 156.218 104.255 153.995 105.572 151.738ZM112.548 159.152C112.638 159.077 112.642 158.934 112.556 158.848C112.507 158.799 111.414 158.787 107.842 158.798C103.48 158.81 103.188 158.817 103.133 158.905C103.09 158.973 103.09 159.023 103.133 159.091C103.188 159.179 103.48 159.186 107.834 159.199C111.218 159.209 112.495 159.196 112.548 159.152Z" fill="black"/>
<path d="M30.6961 92.205C31.0136 92.4814 31.2832 92.6978 31.2951 92.6858M31.2951 92.6858C31.3072 92.6738 31.2836 92.5087 31.2428 92.3188C31.202 92.1289 31.1211 91.7213 31.0631 91.413C31.0051 91.1048 30.9076 90.5883 30.8464 90.2653C30.7853 89.9423 30.5178 88.5249 30.2522 87.1156C29.9866 85.7062 29.7226 84.3249 29.6656 84.046C29.6087 83.767 29.4751 83.0824 29.3688 82.5245C28.9867 80.5194 27.9754 75.4968 27.606 73.7694C27.2288 72.0053 26.8735 70.1403 26.6703 68.858C26.6099 68.4763 26.5368 68.0199 26.5081 67.8437C26.4794 67.6675 26.4087 67.151 26.3512 66.6959C25.2709 58.1572 25.9157 51.2727 28.3328 45.5368C28.7985 44.4318 29.9515 42.2413 30.2409 41.9118C30.2862 41.8602 30.3098 41.8046 30.2935 41.7882C30.277 41.7719 29.1326 41.3777 27.7503 40.9122C25.2889 40.0834 24.9688 39.9639 24.7883 39.8063C24.7395 39.7635 24.4386 39.669 24.1198 39.5962C22.4043 39.2045 20.8611 38.5468 19.3419 37.56C15.4531 35.0341 12.4183 30.6356 11.1105 25.6298C10.7463 24.2358 10.6153 23.559 10.4258 22.093C10.2873 21.0215 10.2866 17.7825 10.4246 16.7012C10.737 14.2534 11.3651 12.0775 12.3418 10.0592C14.2618 6.09203 17.1597 3.35601 20.7816 2.09117C21.7956 1.73701 23.5221 1.41051 24.3963 1.40753C24.573 1.40694 24.8016 1.38147 24.9044 1.35099C25.0072 1.32045 25.4402 1.23434 25.8668 1.15966C26.4875 1.05092 26.8611 1.02027 27.7388 1.00612C28.3418 0.996461 28.9074 0.998438 28.9957 1.01061C29.0839 1.02278 29.4329 1.07152 29.7712 1.11893C34.7423 1.81522 39.3723 5.50608 42.0857 10.9356C42.9641 12.6932 43.6636 14.7112 44.0472 16.5944C44.6386 19.4976 44.707 22.2654 44.2581 25.136C43.8654 27.6467 42.9352 30.2741 41.7373 32.2557L41.6287 32.4353L41.7542 32.3956C41.8233 32.3737 42.0376 32.285 42.2305 32.1984C44.1983 31.315 47.4039 30.3442 50.283 29.7597C50.8839 29.6377 51.1404 29.5878 51.1386 29.5503C51.1372 29.5215 50.9835 29.5 50.7162 29.4587C50.4973 29.4249 50.3955 29.3171 50.4426 29.1692C50.4484 29.1508 50.4521 29.1352 50.459 29.1211C50.5049 29.0279 50.6956 29.0058 52.6364 28.7427C53.0776 28.6828 54.0283 28.5509 54.7491 28.4495C55.4698 28.3482 56.4325 28.2142 56.8885 28.1519C57.3445 28.0896 58.2952 27.9575 59.0012 27.8584C59.7072 27.7593 60.4362 27.6588 60.6212 27.6349C60.8061 27.6111 60.959 27.5718 60.9608 27.5476C60.9637 27.5082 58.167 23.7844 55.7274 20.5796C55.2211 19.9145 54.806 19.3504 54.8047 19.3259C54.8036 19.3014 54.8613 19.3255 54.9332 19.3793C55.005 19.4331 55.8775 20.0908 56.872 20.8408C62.0003 24.708 63.0486 25.4914 63.0687 25.4715C63.0886 25.4516 63.1391 25.1066 63.4695 22.7336C63.5309 22.2932 63.6267 21.6086 63.6824 21.2122C63.7382 20.8158 63.8708 19.8669 63.9771 19.1035C64.3517 16.4123 64.5396 15.1283 64.5705 15.0476C64.6087 14.9484 64.8231 14.9402 64.9019 15.0349C64.9333 15.0726 64.9853 15.3189 65.0173 15.5821C65.0495 15.8452 65.0986 16.2047 65.1265 16.3809C65.1544 16.557 65.2743 17.4099 65.3929 18.276C65.5115 19.1422 65.6552 20.1752 65.7122 20.5716C65.7692 20.9679 65.9023 21.9169 66.0079 22.6803C66.2832 24.6694 66.3995 25.4379 66.4294 25.4678C66.4439 25.4822 66.6558 25.3395 66.9003 25.1507C67.1448 24.9618 68.1392 24.21 69.11 23.4801C70.0807 22.75 71.3564 21.7896 71.9447 21.3457C72.5331 20.9018 73.3634 20.2778 73.79 19.959C74.2165 19.6402 74.6002 19.3533 74.6426 19.3215C74.7038 19.2756 74.7101 19.2802 74.6733 19.3437C74.623 19.4305 74.0784 20.1578 72.9347 21.6659C72.5339 22.1945 71.6065 23.4196 70.874 24.3886C70.1414 25.3575 69.3065 26.459 69.0186 26.8363C68.7308 27.2136 68.5065 27.5405 68.5203 27.5628C68.5341 27.5851 68.6844 27.6191 68.8544 27.6385C69.1646 27.6739 71.1323 27.9447 73.576 28.2883C74.8912 28.4732 75.4347 28.5485 77.6142 28.8475C78.2614 28.9362 78.8466 29.0326 78.9148 29.0615C79.0085 29.1013 79.0345 29.1492 79.0217 29.2587C79.0007 29.4385 78.991 29.4411 77.6409 29.6221C77.0673 29.699 76.1046 29.8308 75.5015 29.915C74.8985 29.9991 73.683 30.1677 72.8005 30.2898C70.3284 30.6315 69.9058 30.6983 69.9925 30.7333C70.0366 30.7511 70.3976 30.8645 70.7948 30.9853C71.555 31.2164 72.7596 31.6334 73.79 32.0221C76.3923 33.0039 79.6831 34.6649 81.4193 35.873C81.6936 36.0639 81.9654 36.2133 82.0383 36.2133C82.1123 36.2133 82.351 36.0798 82.5923 35.9036C85.6298 33.6853 90.6194 31.3672 95.211 30.0412C98.7902 29.0075 101.588 28.5122 105.146 28.2827C105.433 28.2641 105.667 28.2353 105.667 28.2186C105.667 28.2019 105.42 27.9339 105.117 27.623C104.181 26.6608 103.823 26.1023 103.693 25.4051C103.331 23.4493 104.756 20.9986 106.255 20.9986C106.526 20.9986 106.597 21.0295 107.753 21.6523C108.592 22.1038 109.524 22.4157 110.428 22.5473C111.866 22.7567 112.956 22.9746 114.595 23.3806C116.247 23.7895 116.768 24.0259 117.45 24.6745C118.914 26.0668 119.572 28.12 119.093 29.8006C119.032 30.0172 118.988 30.2008 118.997 30.2085C119.005 30.2163 119.205 30.2837 119.44 30.3584C121.17 30.9075 122.664 31.5109 124.282 32.3132C125.105 32.7213 126.403 33.4415 126.794 33.7066C126.868 33.7565 127.157 33.948 127.436 34.1323C128.652 34.9339 129.821 35.8794 130.932 36.9603C132.919 38.8914 134.447 41.0192 135.697 43.5916C137.907 48.1425 138.929 53.5177 138.81 59.9695C138.732 64.1533 138.4 67.0408 137.309 73.022C136.81 75.7574 136.758 76.0432 136.634 76.759C136.334 78.4988 136.034 80.2596 135.993 80.5226C135.968 80.6841 135.875 81.2486 135.786 81.7771C135.548 83.1839 134.854 87.4106 134.549 89.3044C133.984 92.806 132.891 99.3579 132.571 101.156C132.514 101.479 132.418 102.019 132.358 102.357C132.132 103.635 131.873 105.073 131.77 105.613C131.712 105.922 131.578 106.63 131.473 107.188C131.232 108.47 130.415 112.55 130.245 113.327C129.551 116.487 129.159 118.179 128.662 120.161C126.669 128.094 124.429 134.298 121.921 138.829L121.605 139.4L124.323 142.86C127.353 146.716 127.597 147.022 127.77 147.364C127.79 147.405 127.81 147.446 127.833 147.494C128.19 148.23 128.312 148.763 128.309 149.576C128.303 151.002 127.643 152.331 126.52 153.179C125.978 153.588 125.453 153.839 124.768 154.016C124.309 154.134 124.179 154.145 123.558 154.122C122.725 154.09 122.285 153.982 121.593 153.639C120.703 153.199 120.503 152.998 118.826 150.857C118.166 150.015 115.697 146.87 115.583 146.726C115.574 146.716 115.476 146.778 115.364 146.865C114.666 147.41 113.559 148.057 112.647 148.455L112.112 148.689L112.048 149.266C112.012 149.583 111.958 150.038 111.926 150.276C111.871 150.702 111.873 150.715 112.036 151.077C112.237 151.524 112.781 153.125 112.967 153.82C113.653 156.378 113.94 159.197 113.589 159.917C113.394 160.316 113.082 160.63 112.686 160.825L112.329 161H108.049H103.769L103.465 160.858C103.063 160.67 102.724 160.35 102.548 159.991C102.469 159.83 102.405 159.673 102.405 159.641C102.405 159.604 102.353 159.598 102.258 159.624C102.03 159.688 97.902 159.666 97.303 159.597C96.681 159.527 96.3052 159.367 96.0204 159.052C95.6841 158.681 95.5917 158.441 95.5884 157.93L95.5854 157.477L96.8861 153.927C97.6015 151.974 98.2319 150.256 98.2868 150.11C98.3418 149.963 98.4969 149.534 98.6316 149.158C98.7662 148.781 98.9131 148.402 98.958 148.315C99.0422 148.153 99.0241 148.054 98.9098 148.054C98.811 148.054 97.4667 147.283 96.9493 146.93C93.6618 144.684 91.0682 140.972 89.2307 135.883C88.7994 134.688 88.5849 133.788 87.8568 130.117C86.6434 124 86.4099 122.85 86.3392 122.646C85.9464 121.508 84.7178 120.775 83.2034 120.775C81.7945 120.775 80.5777 121.411 80.0882 122.403C79.9872 122.608 79.8617 123.141 79.7237 123.951C79.6637 124.303 79.5448 125 79.4594 125.499C79.1098 127.545 78.6474 130.271 78.5991 130.571C78.5708 130.747 78.5138 131.071 78.4725 131.291C78.4311 131.512 78.346 131.98 78.2834 132.332C77.8112 134.987 77.4269 136.31 76.4764 138.552C75.2127 141.533 73.7859 143.735 71.8925 145.628C70.6439 146.876 69.5209 147.705 68.0963 148.43C65.692 149.655 63.1852 150.207 60.0441 150.205C58.045 150.204 56.881 150.047 55.3641 149.575C48.9993 147.359 45.9754 141.519 44.5333 139.192C42.9737 136.676 39.1335 127.794 36.9774 118.838C35.2526 111.673 32.5021 98.4446 31.2951 92.6858ZM56.1739 37.304C55.4206 38.3003 54.8138 39.1251 54.8255 39.1368C54.8373 39.1485 56.0824 38.2257 57.5926 37.0862C59.1027 35.9467 60.9521 34.5521 61.7022 33.9872L63.0661 32.96L63.1026 33.1319C63.1227 33.2265 63.1906 33.6882 63.2535 34.158C63.3164 34.6277 63.4505 35.6007 63.5515 36.32C63.6524 37.0394 63.7848 37.9883 63.8456 38.4287C64.0015 39.5573 64.3602 42.1058 64.4636 42.8187C64.5582 43.4713 64.6177 43.5804 64.827 43.4852C64.9336 43.4367 64.9592 43.3748 64.9899 43.0903C65.0099 42.9047 65.06 42.5367 65.1012 42.2724C65.1423 42.0082 65.2381 41.3355 65.314 40.7777C65.3899 40.2198 65.5214 39.2709 65.6063 38.669C65.6912 38.0671 65.8235 37.1181 65.9004 36.5603C66.1243 34.9369 66.3527 33.3181 66.3844 33.1304L66.4138 32.957L68.7513 34.7181C70.037 35.6867 71.8901 37.0831 72.8694 37.8212C73.8486 38.5593 74.6588 39.1541 74.6699 39.143C74.6809 39.1319 74.1082 38.354 73.3971 37.4144C72.686 36.4749 71.3956 34.7692 70.5295 33.6241C69.6634 32.479 68.8514 31.41 68.7249 31.2485C68.5984 31.087 68.4949 30.9368 68.4949 30.9148C68.4948 30.8372 68.9695 30.8761 69.3317 30.9835C70.2882 31.2671 70.4916 31.3294 71.1157 31.5294C74.9078 32.7444 78.9905 34.6676 81.3783 36.3637C81.651 36.5574 81.7744 36.6105 81.9934 36.6286C82.2397 36.6488 82.2945 36.6319 82.5349 36.4611C82.682 36.3566 83.1754 36.0206 83.6313 35.7143C87.0949 33.3879 91.9617 31.2959 96.8947 30.0131C99.555 29.3213 102.253 28.886 104.785 28.74C105.863 28.6778 106.067 28.6624 106.18 28.7562C106.211 28.7817 106.235 28.8153 106.268 28.8582L106.401 29.0303L105.555 30.2795C104.874 31.2845 104.718 31.5472 104.759 31.6237C104.787 31.6761 104.973 31.8087 105.172 31.9186C105.371 32.0284 105.541 32.1243 105.55 32.1316C105.56 32.139 105.541 32.2868 105.51 32.4602C105.414 32.9866 105.361 34.1219 105.402 34.7749C105.466 35.7956 105.652 36.0245 106.596 36.2445L107.017 36.3426L106.984 36.7183C106.966 36.925 106.904 37.6947 106.846 38.4287C106.788 39.1628 106.705 39.9508 106.661 40.18C106.497 41.0311 105.993 41.9648 105.347 42.6168L104.999 42.9672L104.411 43.0635C102.771 43.3319 101.292 43.698 99.71 44.2271C98.2813 44.7049 97.877 44.9222 96.9063 45.7343C96.1721 46.3485 95.2383 47.4098 94.4515 48.5243L94.0878 49.0395L87.0908 49.0097C80.2898 48.9808 79.7771 48.9679 79.4149 49.1945C79.3683 49.2237 79.3241 49.2569 79.2694 49.2945C78.8553 49.5788 78.5502 50.1547 78.5502 50.6518C78.5502 50.7807 78.8133 51.951 79.1349 53.2524C80.3897 58.3298 80.4309 58.4853 80.3833 58.606C80.3801 58.614 80.3766 58.6218 80.373 58.6309C80.2626 58.9096 80.1436 60.0253 80.1157 61.0431C80.0925 61.8891 80.1048 62.1963 80.1797 62.6436C80.3914 63.9069 80.8154 64.4755 81.5989 64.5464C81.9136 64.5748 81.921 64.5792 81.9747 64.7682C82.0252 64.9461 82.9877 68.8444 83.6304 71.4739C83.7811 72.0905 83.9513 72.7536 84.0086 72.9476C84.1972 73.5865 84.6327 73.9981 85.2815 74.1506C85.5108 74.2044 86.2117 74.2217 88.191 74.2223C89.625 74.2228 90.7984 74.2402 90.7984 74.261C90.7984 74.2956 90.4617 76.2571 90.2137 77.6665C90.1569 77.9895 90.0602 78.542 89.9988 78.8943C89.7674 80.2217 89.7261 80.4582 89.6206 81.0564C89.561 81.3941 89.4773 81.8745 89.4345 82.1241C89.3423 82.6626 89.1966 83.4934 89.0285 84.4391C88.9201 85.0487 88.9133 85.173 88.9678 85.5459C89.1021 86.4659 89.6132 87.3535 90.539 88.2741L91.1134 88.8454L90.9023 89.5821C90.7862 89.9872 90.6436 90.4868 90.5854 90.6924C90.445 91.1885 89.796 93.7494 89.6993 94.1891C89.6573 94.3799 89.5735 94.7523 89.5132 95.0165C89.4085 95.4744 88.9267 97.7708 88.9265 97.8123C88.9264 97.8333 88.5296 97.3348 87.4021 95.8974C87.0221 95.4129 86.5297 94.7857 86.3078 94.5035C86.086 94.2214 85.6527 93.6689 85.345 93.2757C84.6843 92.4314 76.34 81.8173 71.437 75.5845C69.5431 73.1768 67.5608 70.6544 67.0318 69.9791C66.5029 69.3038 65.9461 68.5951 65.7944 68.4042C65.6428 68.2134 65.1698 67.6128 64.7435 67.0696C64.3172 66.5264 63.4873 65.4694 62.8994 64.7207C62.3114 63.972 60.0299 61.0652 57.8294 58.2612C55.6288 55.4571 53.7046 53.0448 53.5533 52.9004C53.136 52.5021 52.6945 52.3176 52.0959 52.2914C51.5076 52.2656 51.1147 52.3639 50.6952 52.6418C50.4148 52.8275 50.4066 52.8294 50.3125 52.7303C50.2596 52.6747 48.7647 50.7793 46.9904 48.5184C45.2161 46.2576 43.5712 44.1676 43.3349 43.874C42.102 42.3416 40.4634 41.0421 38.7245 40.2175C38.0288 39.8876 37.6507 39.745 36.0241 39.199C35.2178 38.9284 34.5379 38.689 34.5132 38.667C34.4884 38.6451 34.5541 38.5988 34.6592 38.5641C34.7644 38.5295 35.02 38.4188 35.2272 38.3182C35.4345 38.2175 35.6142 38.1351 35.6267 38.1351C35.6831 38.1351 36.8398 37.4517 37.1523 37.2338C38.5839 36.2354 39.9415 34.8921 40.8907 33.5353C41.1393 33.1799 41.2141 33.1123 41.5031 32.9818C44.3143 31.7126 47.2832 30.7848 50.6307 30.1295C52.6308 29.738 52.6856 29.7321 53.399 29.8315C53.7444 29.8797 54.364 29.9657 54.7758 30.0228C55.1876 30.0799 56.1143 30.2092 56.835 30.3101C57.5557 30.4111 58.7832 30.5829 59.5628 30.692C60.3423 30.801 60.9872 30.8958 60.9958 30.9026C61.0044 30.9095 60.6193 31.4316 60.14 32.0629C59.6608 32.6943 58.8805 33.7243 58.4061 34.3518C58.1672 34.6677 57.794 35.1613 57.3861 35.7008M56.1739 37.304L57.3861 35.7008M56.1739 37.304C56.548 36.8094 56.9839 36.2328 57.3861 35.7008M114.571 46.3605C115.247 46.0329 115.849 45.7718 115.909 45.7803C115.98 45.7905 116.022 45.8428 116.033 45.9334C116.048 46.0606 116.001 46.0936 115.418 46.3699C115.071 46.5344 114.209 46.9497 113.503 47.2929C111.714 48.1625 110.572 48.7157 109.759 49.1059C109.377 49.2896 108.438 49.7453 107.673 50.1186C106.908 50.4919 106.225 50.8196 106.155 50.847C105.97 50.9192 105.818 50.8562 105.838 50.716C105.85 50.6298 105.987 50.5327 106.376 50.3335C106.663 50.1867 106.897 50.0515 106.898 50.0331C106.898 50.0147 106.627 49.7954 106.296 49.5459C105.965 49.2964 105.153 48.6785 104.491 48.1729C103.829 47.6673 102.86 46.9291 102.338 46.5325C101.816 46.1359 101.389 45.7918 101.389 45.7679C101.389 45.744 101.403 45.6865 101.421 45.6401C101.486 45.4716 101.695 45.5654 102.325 46.0457C102.678 46.3148 103.364 46.8385 103.849 47.2093C104.334 47.5801 105.249 48.2765 105.881 48.7569C106.514 49.2372 107.093 49.6868 107.169 49.7561L107.307 49.8819L108.8 49.1537C109.622 48.7532 110.559 48.2991 110.882 48.1446C111.206 47.9902 111.892 47.6595 112.407 47.41C112.855 47.1927 113.651 46.8068 114.295 46.4944M114.571 46.3605L114.295 46.4944M114.571 46.3605C114.484 46.4029 114.391 46.4478 114.295 46.4944M84.9952 58.661C85.26 58.5359 85.7859 58.2867 86.1639 58.1071C86.5419 57.9276 86.8951 57.7807 86.9487 57.7807C87.0671 57.7807 87.3897 58.1465 87.5335 58.4439C87.7165 58.8224 87.8172 59.3154 87.7771 59.6359C87.5831 61.1859 86.0929 62.6146 83.1983 64.0255C82.7769 64.231 82.4106 64.4062 82.3843 64.4149C82.3581 64.4236 82.4012 64.6942 82.4801 65.0162C82.7166 65.9806 83.6638 69.8185 84.0674 71.4469C84.2747 72.2834 84.476 73.0282 84.5146 73.1018C84.608 73.2795 84.8971 73.547 85.1289 73.67C85.3088 73.7655 85.6412 73.7701 93.6332 73.7853C99.5975 73.7967 102.008 73.7845 102.154 73.7421C102.547 73.6282 102.932 73.171 103.014 72.7205C103.052 72.5135 103.032 72.4245 102.158 68.8847C101.537 66.3718 100.948 63.983 100.402 61.7712C99.2451 57.0814 99.0034 56.1016 98.6278 54.5776C97.7709 51.1008 97.533 50.1784 97.4724 50.0974C97.3132 49.8844 97.0689 49.6493 96.9225 49.5683C96.7779 49.4881 96.3476 49.4767 92.5634 49.4517C82.6136 49.3862 80.1251 49.3926 79.8491 49.4844C79.3672 49.6446 78.9817 50.1455 78.9793 50.6144C78.9786 50.7395 79.2174 51.8085 79.51 52.99C79.8026 54.1715 80.2955 56.1711 80.6055 57.4337C81.2303 59.9785 81.3288 60.3432 81.3911 60.3432C81.4146 60.3432 82.1268 60.0158 82.9738 59.6157C83.4386 59.3962 83.9223 59.1677 84.3079 58.9856M84.9952 58.661L84.3079 58.9856M84.9952 58.661C84.8757 58.7174 84.625 58.8358 84.3079 58.9856M26.0005 1.56699C23.3692 2.02524 21.153 3.1579 19.2151 5.03491C14.6799 9.42761 12.8012 16.5315 14.2662 23.748C15.4111 29.3881 18.704 34.3888 22.9996 37.0107C23.4148 37.2642 23.429 37.2588 23.4795 36.8294C23.5321 36.3826 23.8762 34.7054 24.0823 33.891C24.969 30.3875 26.4444 27.2116 28.4093 24.5763C29.8587 22.6324 31.8196 20.7294 33.7693 19.3745C34.012 19.2059 34.2104 19.0519 34.2102 19.0323C34.21 19.0127 34.0361 18.9006 33.8238 18.7832C33.1294 18.399 32.864 18.2511 31.456 17.464C30.6912 17.0364 29.9451 16.6202 29.798 16.5392C29.6509 16.4581 29.2658 16.2425 28.9422 16.0602C28.3916 15.7499 27.8379 15.4404 25.5726 14.177C25.0725 13.8981 24.3986 13.5205 24.075 13.3379C23.7514 13.1553 23.3182 12.9143 23.1123 12.8025C22.3997 12.4155 22.3284 12.3595 22.3468 12.2008C22.3736 11.9687 22.5489 11.9921 23.0985 12.3014C24.1423 12.889 27.3082 14.6594 27.819 14.9412C27.9661 15.0223 28.3512 15.238 28.6748 15.4203C28.9984 15.6027 29.6843 15.9866 30.1991 16.2735C31.1866 16.8238 31.8421 17.1903 33.328 18.0223C33.8281 18.3024 34.3297 18.5829 34.4426 18.6457L34.6478 18.76L35.5123 18.2416C37.4808 17.0614 39.5483 16.1252 41.9839 15.3112C42.9732 14.9806 43.1667 14.8994 43.1533 14.8205C43.1147 14.595 42.7295 13.4882 42.433 12.7507C40.9774 9.13069 38.6289 6.05386 35.7812 4.0357C33.6784 2.54547 31.2565 1.62608 28.9422 1.43939C28.279 1.38585 26.6295 1.45744 26.0005 1.56699ZM25.4122 8.15001C26.0282 8.49616 28.6815 9.98079 29.1027 10.2151C29.5292 10.4523 31.6617 11.6444 32.4455 12.0836C33.2791 12.5508 34.172 13.0488 35.804 13.9567C36.4879 14.3372 36.5143 14.3583 36.4993 14.5124C36.4745 14.767 36.3208 14.7382 35.6233 14.3479C35.2728 14.1519 34.7815 13.8778 34.5315 13.7387C34.2814 13.5997 33.5714 13.2031 32.9536 12.8572C31.3965 11.9855 29.6945 11.0356 29.3434 10.8423C29.1816 10.7532 28.8085 10.5437 28.5143 10.3768C28.2201 10.21 27.5101 9.81241 26.9365 9.49344C24.6658 8.23073 24.467 8.12349 24.4507 7.99342C24.4487 7.97748 24.4494 7.9612 24.4494 7.9424C24.4494 7.67516 24.6401 7.71626 25.4122 8.15001ZM79.2885 8.00262C79.4444 8.04452 79.6224 8.1057 79.6839 8.13853C79.9096 8.25913 80.2751 8.64297 80.4136 8.90487C80.5401 9.14425 80.5559 9.23287 80.5559 9.70778C80.5559 10.1662 80.5381 10.2749 80.4299 10.4775C79.7419 11.7651 77.9158 11.7618 77.27 10.4718C77.1303 10.1928 77.1061 10.0846 77.1061 9.73895C77.1061 9.23703 77.1533 9.0678 77.3935 8.70911C77.6245 8.36408 77.9902 8.11051 78.4143 8.00139C78.7971 7.90295 78.9181 7.90311 79.2885 8.00262ZM126.688 11.3372C126.741 11.4357 126.709 11.5234 126.46 11.9677C126.222 12.3922 126.146 12.4867 126.031 12.5003C125.938 12.5114 125.874 12.4838 125.839 12.4169C125.796 12.3376 125.844 12.2074 126.07 11.7865C126.304 11.3498 126.378 11.253 126.49 11.2394C126.586 11.2278 126.645 11.2572 126.688 11.3372ZM123.916 12.3258C124.439 12.6229 124.564 12.7632 124.439 12.9134C124.336 13.0371 124.23 13.0069 123.724 12.71C123.165 12.3818 123.092 12.2971 123.235 12.1399C123.289 12.0794 123.349 12.0302 123.366 12.0305C123.384 12.0308 123.631 12.1637 123.916 12.3258ZM135.873 13.4461C136.805 13.916 137.028 15.2029 136.302 15.9275C135.955 16.274 135.718 16.372 135.218 16.3767C134.835 16.3803 134.76 16.3635 134.496 16.2154C133.436 15.6196 133.391 14.1306 134.413 13.4992C134.642 13.3582 134.732 13.3359 135.134 13.3213C135.543 13.3064 135.623 13.32 135.873 13.4461ZM134.85 13.7712C134.526 13.8816 134.258 14.1577 134.144 14.499C133.931 15.1391 134.38 15.8475 135.068 15.9573C135.698 16.0578 136.31 15.5164 136.314 14.8565C136.315 14.5529 136.1 14.1033 135.877 13.9452C135.719 13.8323 135.351 13.6955 135.188 13.6885C135.141 13.6865 134.989 13.7237 134.85 13.7712ZM127.03 14.1261C127.556 14.4347 127.656 14.5397 127.564 14.6859C127.531 14.7373 127.471 14.7859 127.43 14.7939C127.389 14.802 127.127 14.6781 126.848 14.5185C126.47 14.303 126.335 14.1972 126.321 14.1065C126.305 14.0002 126.427 13.8435 126.524 13.8458C126.54 13.8462 126.768 13.9723 127.03 14.1261ZM124.91 14.3876C125.009 14.4871 124.993 14.5565 124.779 14.951C124.462 15.535 124.395 15.615 124.235 15.5964C124.004 15.5697 124.034 15.3732 124.351 14.8327C124.635 14.3498 124.767 14.2448 124.91 14.3876ZM42.6752 15.5315C41.0599 16.0209 39.0146 16.8556 37.4211 17.6758C30.7505 21.1093 26.3975 26.5842 24.5286 33.891C24.2061 35.1519 23.8343 37.039 23.8343 37.415C23.8343 37.564 25.3232 38.2156 26.3482 38.5152C27.5087 38.8544 28.3568 38.9872 29.6108 39.026C32.8407 39.126 35.8713 37.9744 38.4092 35.6827C41.0288 33.3173 43.0153 29.5812 43.7331 25.6698C44.0199 24.1071 44.0732 23.4681 44.076 21.5592C44.0788 19.6202 44.022 18.8833 43.7549 17.3952C43.4908 15.9234 43.3311 15.3177 43.2185 15.3608C43.1774 15.3766 42.9328 15.4534 42.6752 15.5315ZM48.3997 16.5808C48.723 16.9229 48.8128 17.0513 48.8008 17.1549C48.7894 17.2539 48.7495 17.2926 48.6465 17.3045C48.5327 17.3177 48.4335 17.242 48.0983 16.8864C47.6931 16.4565 47.6286 16.329 47.7531 16.2047C47.8775 16.0806 47.9871 16.1444 48.3997 16.5808ZM51.2903 16.283C51.3986 16.391 51.2952 16.5741 50.9103 16.956C50.4956 17.3675 50.3883 17.4255 50.267 17.3044C50.1442 17.1818 50.2052 17.0699 50.6185 16.6599C51.0013 16.28 51.1845 16.1773 51.2903 16.283ZM64.3243 19.7174C64.2617 20.1725 64.1771 20.7731 64.1362 21.052C64.0954 21.331 64.0123 21.9195 63.9515 22.3599C63.7836 23.5777 63.4205 26.1725 63.3102 26.9423C63.2562 27.3191 63.1912 27.6471 63.1658 27.671C63.1404 27.6949 62.578 27.7901 61.9161 27.8825C60.5056 28.0795 58.3516 28.3783 57.2896 28.5242C56.3532 28.6528 54.7867 28.8714 53.8398 29.0055C53.4427 29.0618 52.9733 29.1243 52.7968 29.1444C52.6203 29.1646 52.4278 29.2003 52.3689 29.2238C52.2774 29.2603 52.2842 29.267 52.4158 29.2699C52.5004 29.2717 52.7892 29.308 53.0576 29.3505C53.326 29.393 53.9067 29.477 54.3479 29.5374C56.2548 29.7981 56.774 29.8697 58.0384 30.0463C58.7739 30.149 59.7246 30.2815 60.1511 30.341C62.8524 30.717 63.2102 30.7569 63.2509 30.892C63.2599 30.9221 63.2533 30.9569 63.2533 31.0012C63.2533 31.1045 63.4087 32.242 63.8449 35.3324C63.9319 35.949 64.0511 36.8018 64.1099 37.2276C64.1686 37.6533 64.3112 38.6743 64.4267 39.4964C64.5422 40.3186 64.6536 41.1327 64.6742 41.3056C64.7203 41.6934 64.7689 41.6139 64.85 41.0179C64.9378 40.3723 65.1085 39.1411 65.2311 38.2686C65.2888 37.8575 65.4342 36.8125 65.5542 35.9463C65.6742 35.0802 65.8555 33.7829 65.9571 33.0636C66.0587 32.3442 66.1697 31.5572 66.2038 31.3145C66.238 31.072 66.2982 30.8467 66.3377 30.8139C66.4089 30.755 67.0548 30.6557 70.0994 30.2355C70.9673 30.1157 72.0022 29.9722 72.3993 29.9164C72.7965 29.8608 73.4102 29.7754 73.7632 29.7269C74.9946 29.5575 77.2395 29.2297 77.2014 29.2248C77.1803 29.2221 76.747 29.1613 76.2386 29.0896C75.7303 29.0179 74.857 28.8971 74.2981 28.8211C73.7392 28.7451 73.0532 28.6487 72.7737 28.607C72.4943 28.5652 71.9046 28.4821 71.4633 28.4221C71.0221 28.3622 70.0593 28.2292 69.3239 28.1266C68.5885 28.024 67.6257 27.8899 67.1845 27.8285C66.6563 27.755 66.3615 27.6904 66.3216 27.6393C66.2883 27.5966 66.2345 27.3762 66.202 27.1496C66.0451 26.0538 65.9151 25.1247 65.7412 23.8547C65.6365 23.0913 65.5042 22.1424 65.4471 21.746C65.3899 21.3496 65.2572 20.4007 65.1521 19.6373C64.8942 17.7643 64.8066 17.158 64.7662 16.9681C64.7331 16.8123 64.6692 17.2097 64.3243 19.7174ZM48.748 18.7672C48.8736 18.8926 48.8064 19.01 48.3605 19.4445C47.9724 19.8226 47.8942 19.8767 47.8052 19.8291C47.5774 19.7074 47.6167 19.6095 48.0786 19.1485C48.5235 18.7044 48.6264 18.6458 48.748 18.7672ZM50.9093 19.1954C51.3245 19.6326 51.3836 19.7453 51.2618 19.8669C51.1371 19.9913 51.0193 19.9265 50.6132 19.51C50.2118 19.0983 50.1373 18.9499 50.267 18.8205C50.3899 18.6978 50.4952 18.7593 50.9093 19.1954ZM144.08 22.8855C144.713 23.15 145.178 23.6069 145.421 24.2017C145.52 24.4445 145.541 24.597 145.541 25.0826C145.541 25.613 145.527 25.7004 145.392 25.9864C144.69 27.4826 142.837 27.8057 141.693 26.6311C141.412 26.3419 141.141 25.7993 141.066 25.3719C140.899 24.4272 141.434 23.4112 142.331 22.9702C142.669 22.8037 142.752 22.7857 143.24 22.7726C143.704 22.76 143.817 22.7751 144.08 22.8855ZM142.492 23.3595C142.12 23.5508 141.837 23.8488 141.648 24.2474C141.509 24.5419 141.488 24.6455 141.489 25.0311C141.491 25.3896 141.518 25.5321 141.626 25.7688C141.808 26.1648 142.154 26.5259 142.544 26.7269C142.831 26.8746 142.918 26.8932 143.321 26.8935C143.678 26.8938 143.833 26.8682 144.039 26.7746C144.438 26.5937 144.726 26.3286 144.929 25.9546C145.104 25.6334 145.113 25.5895 145.113 25.0826C145.113 24.6069 145.097 24.5158 144.964 24.2466C144.725 23.7608 144.313 23.4014 143.803 23.2343C143.729 23.2102 143.464 23.1976 143.214 23.2062C142.851 23.2187 142.706 23.2495 142.492 23.3595ZM107.981 27.3505C107.734 27.5007 107.309 28.1024 107.074 28.6326C106.959 28.8929 106.548 29.5687 106.11 30.2171C105.69 30.839 105.332 31.3842 105.315 31.4286C105.293 31.4867 105.372 31.5539 105.599 31.6682C106.028 31.884 106.058 31.9274 105.989 32.2331C105.858 32.8185 105.766 33.9499 105.802 34.5578C105.856 35.4889 105.961 35.6465 106.643 35.8196C107.422 36.017 108.624 35.8818 109.407 35.5086C109.601 35.4165 109.894 35.213 110.058 35.0565C110.364 34.7657 110.464 34.723 110.577 34.8359C110.699 34.9569 110.641 35.0904 110.342 35.3846C109.831 35.8863 109.03 36.1999 107.945 36.3226C107.681 36.3524 107.459 36.3824 107.452 36.3893C107.445 36.3961 107.402 36.8818 107.355 37.4686C107.208 39.3023 107.114 40.1846 107.03 40.5074C106.771 41.5001 106.201 42.4387 105.436 43.1296C105.093 43.4405 104.505 43.845 103.501 44.4609C103.178 44.6595 102.908 44.8256 102.902 44.83C102.854 44.8673 105.488 46.6677 106.283 47.1401C106.975 47.5515 107.115 47.6055 107.397 47.567C108.251 47.4501 112.287 45.8042 114.676 44.5984C115.232 44.3174 115.696 44.0606 115.707 44.0276C115.718 43.9947 115.491 43.834 115.203 43.6706C114.463 43.2505 113.463 42.6142 113.097 42.3304C112.562 41.916 112.109 41.2536 111.866 40.5315C111.715 40.0831 111.689 39.1025 111.752 36.2009C111.794 34.2755 111.81 34.0151 111.89 33.9267C111.964 33.8458 112.092 33.8201 112.565 33.7915C113.322 33.7456 113.791 33.6032 114.085 33.3302C114.286 33.1422 114.305 33.1017 114.305 32.8574C114.305 32.6345 114.279 32.563 114.148 32.4266C113.994 32.2654 113.517 32.0493 113.316 32.0493C113.126 32.0493 113.09 31.8708 113.214 31.5583C113.349 31.2198 113.407 30.5118 113.323 30.2075C113.203 29.7686 112.751 29.4052 112.157 29.2703C112.015 29.2381 111.639 29.1923 111.322 29.1685C110.618 29.1155 110.542 29.0722 109.8 28.3063C109.233 27.7204 108.94 27.4939 108.561 27.3455C108.246 27.2225 108.191 27.223 107.981 27.3505ZM118.523 31.0219C117.976 31.8459 117.345 32.4885 115.669 33.9234C113.931 35.4125 113.212 35.9481 112.561 36.2411L112.208 36.4001L112.174 36.9556C112.119 37.8365 112.134 39.7401 112.198 40.0872C112.313 40.7147 112.751 41.4627 113.262 41.908C113.798 42.3741 115.673 43.496 116.052 43.5771C116.386 43.6486 117.695 44.0411 117.939 44.1429C118.037 44.1839 118.331 44.2643 118.592 44.3216C120.142 44.6622 121.941 45.5865 123.306 46.7432C125.04 48.2125 126.497 50.3195 127.451 52.7358C127.855 53.7606 128.7 56.2973 129.193 57.9675C129.254 58.1731 129.423 58.7376 129.57 59.2221C129.716 59.7065 130.032 60.7996 130.272 61.6511C130.719 63.2349 130.876 63.7572 131.072 64.3203C131.463 65.4426 131.071 66.8306 129.904 68.4576C129.447 69.0944 129.127 69.3313 128.567 69.4475C128.214 69.5207 128.125 69.5207 127.7 69.4475C127.149 69.3526 126.716 69.1985 126.03 68.8539C125.4 68.5375 124.203 67.7483 123.455 67.1564C123.135 66.9029 122.863 66.7045 122.852 66.7156C122.841 66.7267 122.857 68.5346 122.887 70.7331C122.99 78.1673 123.06 85.2948 123.041 86.3949L123.023 87.4893L122.846 87.8987C122.403 88.9264 121.41 89.9579 119.916 90.9451L119.268 91.3728L119.236 94.3424C119.203 97.4301 119.103 100.588 118.958 103.104C118.853 104.942 118.62 108.407 118.585 108.656C118.571 108.759 118.535 109.179 118.505 109.591C118.377 111.347 117.932 115.608 117.62 118.052C117.419 119.634 117.265 120.791 117.196 121.255C117.154 121.534 117.082 122.027 117.036 122.349C116.908 123.238 116.695 124.64 116.606 125.179C116.562 125.443 116.452 126.104 116.362 126.647C116.271 127.19 116.174 127.779 116.146 127.955C116.118 128.131 116.06 128.455 116.019 128.676C115.977 128.896 115.879 129.436 115.8 129.877C115.722 130.317 115.625 130.834 115.584 131.024C115.544 131.215 115.51 131.434 115.51 131.511C115.509 131.615 116.236 132.577 118.377 135.302C119.955 137.309 121.263 138.972 121.286 138.996C121.353 139.071 122.403 137.051 123.168 135.375C124.318 132.856 125.674 129.173 126.578 126.113C126.643 125.893 126.741 125.569 126.796 125.392C126.976 124.82 127.707 122.188 127.886 121.469C127.904 121.395 128.062 120.771 128.237 120.081C128.411 119.391 128.628 118.514 128.718 118.132C128.808 117.75 128.917 117.294 128.96 117.118C129.078 116.63 129.338 115.485 129.493 114.769C129.57 114.417 129.668 113.972 129.711 113.781C129.857 113.144 130.641 109.296 130.832 108.283C130.874 108.062 130.955 107.63 131.013 107.322C131.526 104.605 131.893 102.571 132.379 99.7678C132.656 98.1693 133.854 90.9452 134.335 87.9697C134.595 86.3578 134.742 85.4604 134.85 84.82C134.894 84.5558 135.181 82.8381 135.486 81.003C135.792 79.1679 136.091 77.3902 136.15 77.0526C136.449 75.3409 136.724 73.8085 137.111 71.6874C137.775 68.0545 138.113 65.4545 138.305 62.5052C138.392 61.1686 138.392 57.0032 138.305 55.8323C137.853 49.749 136.353 44.9154 133.676 40.9111C132.404 39.0076 130.764 37.2237 128.934 35.7515C126.762 34.0048 123.812 32.3734 120.912 31.3165C120.367 31.1176 118.87 30.6102 118.824 30.6087C118.809 30.6083 118.673 30.7942 118.523 31.0219ZM10.6652 39.987C10.6922 40.0402 10.6999 40.3452 10.6823 40.6653C10.6561 41.1387 10.6327 41.2579 10.5565 41.3057C10.4885 41.3483 10.4373 41.3483 10.3693 41.3056C10.2591 41.2366 10.2186 40.6962 10.2877 40.2171C10.3261 39.9512 10.3436 39.922 10.4731 39.907C10.5691 39.8959 10.6323 39.9222 10.6652 39.987ZM30.2637 42.6909C28.4177 45.7325 27.1694 49.4929 26.619 53.6701C26.3487 55.7221 26.3229 56.2117 26.3234 59.2755C26.3241 62.3119 26.349 62.8236 26.6177 65.3079C26.8667 67.6098 27.3407 70.5015 27.8735 72.9686C27.9496 73.321 28.0337 73.7174 28.0604 73.8495C28.0872 73.9816 28.2075 74.5582 28.3278 75.1307C28.7479 77.131 29.7757 82.3226 30.2249 84.7133C30.3297 85.2711 30.4495 85.8957 30.4909 86.1013C30.5324 86.3068 30.6175 86.7512 30.68 87.0889C30.7425 87.4265 30.8405 87.943 30.8979 88.2367C30.9552 88.5303 31.183 89.7314 31.4042 90.9059C31.6253 92.0804 31.8914 93.4857 31.9954 94.0289C32.0994 94.5721 32.2325 95.2688 32.2911 95.5771C32.3497 95.8854 32.4316 96.3058 32.473 96.5113C32.5144 96.7168 32.6476 97.4015 32.7689 98.0328C33.2973 100.782 34.3408 105.912 34.7454 107.749C34.8068 108.028 34.94 108.64 35.0413 109.11C36.0728 113.89 37.2702 118.683 38.4224 122.643C38.8978 124.277 38.924 124.364 39.2281 125.341C42.2105 134.918 45.7053 141.668 49.6749 145.518C52.1312 147.901 54.5192 149.162 57.4768 149.637C57.9944 149.72 58.4014 149.736 60.0441 149.736C62.0992 149.736 62.4556 149.708 63.8416 149.436C69.5813 148.309 73.7199 144.414 76.3963 137.617C76.8588 136.443 77.2532 135.214 77.453 134.325C77.6826 133.303 78.2416 130.242 78.5238 128.462C78.7231 127.205 79.4302 123.145 79.518 122.754C79.6046 122.368 79.8748 121.874 80.1881 121.529C81.606 119.965 84.7213 119.95 86.1411 121.501C86.2885 121.662 86.4948 121.967 86.5995 122.178C86.7986 122.581 86.9518 123.283 87.9108 128.195C88.9633 133.585 89.1791 134.51 89.7225 135.963C90.1317 137.056 90.2411 137.328 90.5605 138.045C92.597 142.613 95.4068 145.82 98.8996 147.563L99.3146 147.77L99.6696 147.533C99.8649 147.403 100.031 147.29 100.038 147.283C100.046 147.276 99.6917 146.536 99.2515 145.637C98.8112 144.738 98.4143 143.916 98.3695 143.809C98.296 143.633 98.2731 143.618 98.1335 143.648C97.941 143.691 97.8882 143.627 97.0431 142.342C95.5358 140.05 93.5559 136.308 92.5371 133.827C91.4438 131.164 90.9382 129.784 90.2985 127.715C88.6865 122.501 87.8228 117.469 87.6101 112.051L87.5725 111.095L85.406 108.341C82.544 104.702 80.9516 102.677 79.6526 101.022C79.0648 100.274 78.2441 99.2286 77.8289 98.7001C77.4137 98.1716 76.7634 97.3428 76.3838 96.8583C76.0041 96.3738 75.5223 95.7612 75.3131 95.497C75.1038 95.2327 74.5839 94.5721 74.1577 94.0289C73.7316 93.4857 72.5042 91.9242 71.4302 90.5589C65.5013 83.0219 62.4177 79.0998 60.5806 76.759C59.4515 75.3202 58.3567 73.9269 58.1475 73.6626C57.9385 73.3984 57.5891 72.954 57.3712 72.675C57.1533 72.3961 56.8519 72.0117 56.7013 71.8209C56.5508 71.63 56.2018 71.1856 55.9257 70.8332C55.6497 70.4809 55.3004 70.0365 55.1496 69.8456C54.9987 69.6548 54.5359 69.0662 54.121 68.5377C53.7061 68.0092 51.7886 65.5709 49.8598 63.1192C47.8779 60.6 46.2946 58.5394 46.219 58.3806C46.0294 57.9825 45.9555 57.4498 46.0312 57.0252C46.1202 56.5254 46.3044 56.1705 46.6688 55.7964C46.8475 55.6131 46.9936 55.4557 46.9936 55.4466C46.9936 55.4375 46.243 54.4755 45.3256 53.3089C44.4082 52.1422 42.827 50.1307 41.8118 48.8388C40.7966 47.5468 39.8083 46.3116 39.6155 46.0939C39.2405 45.6702 38.5344 45.0582 38.0129 44.7047C37.6276 44.4436 36.6823 43.9391 36.3494 43.8168C35.5428 43.5207 30.8048 41.9348 30.7607 41.9462C30.7313 41.9538 30.5076 42.2889 30.2637 42.6909ZM12.8673 42.2695C12.9026 42.3119 12.9236 42.402 12.914 42.4697C12.897 42.5893 12.8786 42.5932 12.2623 42.6078C11.6277 42.6229 11.4791 42.5892 11.4791 42.4299C11.4791 42.3915 11.5169 42.3224 11.5632 42.2762C11.6803 42.1593 12.771 42.1537 12.8673 42.2695ZM9.32746 42.2549C9.41614 42.3434 9.41014 42.4347 9.30916 42.5356C9.2431 42.6014 9.10121 42.6194 8.64711 42.6194C8.02347 42.6194 7.92458 42.5796 7.95833 42.3421C7.97534 42.2224 7.99325 42.2186 8.61877 42.2042C9.0734 42.1936 9.28098 42.2085 9.32746 42.2549ZM10.5592 43.5377C10.6387 43.617 10.6469 44.5792 10.5699 44.7816C10.5271 44.8937 10.4866 44.9187 10.3693 44.9052L10.2222 44.8883L10.2071 44.2553C10.1915 43.6033 10.2244 43.4736 10.4052 43.4736C10.4546 43.4736 10.5239 43.5024 10.5592 43.5377ZM109.759 51.5293C108.816 51.7004 108.344 51.7846 106.697 52.0756C106.16 52.1705 105.721 52.2646 105.721 52.2847C105.721 52.342 106.098 52.5732 106.358 52.6756C106.915 52.895 107.943 53.0245 109.697 53.0967L110.009 53.1095L110.158 53.5633C110.353 54.1534 110.452 54.377 110.674 54.7232C111.229 55.5898 111.952 56.0332 112.944 56.1148L113.4 56.1525L114.117 57.0066C117.811 61.4129 121.288 64.942 123.986 67.0247C126.11 68.6638 127.842 69.3607 128.776 68.9511C129.202 68.7642 129.826 67.9527 130.327 66.9362C130.951 65.6698 130.954 64.7607 130.34 63.7691C129.679 62.7014 127.433 60.9059 124.429 59.0421C122.591 57.9019 119.254 55.9334 116.33 54.2649L115.093 53.5584L114.128 52.5722C113.452 51.8821 113.076 51.4976 112.62 51.328C112.046 51.1146 111.344 51.2419 109.759 51.5293ZM51.326 52.8008C51.1936 52.8472 51.0131 52.935 50.9248 52.9959C50.6486 53.1865 47.1353 55.916 46.9749 56.0646C46.7334 56.2883 46.5239 56.7024 46.4536 57.0947C46.3983 57.4037 46.4019 57.5088 46.4782 57.8173C46.5778 58.2203 46.6809 58.3936 47.2346 59.0886C47.4452 59.3529 47.9752 60.0255 48.4125 60.5834C49.7461 62.2845 50.7085 63.5105 51.8073 64.9076C53.7591 67.389 68.9023 86.6505 69.4559 87.3558C69.6518 87.6054 70.17 88.266 70.6075 88.8239C71.0449 89.3818 71.5261 89.9944 71.6769 90.1852C71.8276 90.3761 72.1768 90.8205 72.4528 91.1728C72.7289 91.5252 73.0788 91.9696 73.2304 92.1604C73.3821 92.3513 74.6009 93.9008 75.9388 95.6037C78.7502 99.1823 86.8869 109.532 87.29 110.042L87.5625 110.387L87.6013 109.508C87.7227 106.757 87.8634 104.973 88.1232 102.891C88.2691 101.722 88.5276 100.008 88.7142 98.972L88.8191 98.3898L88.5385 98.0293C88.3841 97.831 87.968 97.3003 87.6137 96.8498C87.2594 96.3993 84.2408 92.5595 80.9057 88.3167C77.5706 84.074 74.7179 80.4465 74.5664 80.2556C74.0871 79.6519 73.1358 78.4407 72.5329 77.6665C72.2128 77.2554 71.7795 76.7029 71.5699 76.4386C71.3603 76.1744 70.3586 74.9012 69.344 73.6093C68.3293 72.3173 66.091 69.4706 64.3699 67.2832C62.6489 65.0957 59.4775 61.0598 57.3223 58.3145C55.1671 55.5692 53.3153 53.2453 53.2073 53.1502C52.7018 52.7057 51.98 52.5716 51.326 52.8008ZM86.1084 58.6082C85.7097 58.799 85.3771 58.9552 85.3691 58.9552C85.3611 58.9552 84.8806 59.1834 84.3013 59.4623C83.722 59.7412 83.2405 59.9695 83.2314 59.9695C83.2222 59.9695 82.7891 60.1737 82.269 60.4232C81.7489 60.6728 81.2784 60.877 81.2235 60.877C81.0961 60.877 81.0815 60.8512 80.8446 60.2107C80.6588 59.708 80.6441 59.6855 80.6015 59.836C80.5765 59.9241 80.5562 60.5847 80.5564 61.3041C80.5568 62.5089 80.5665 62.6457 80.6798 63.0391C80.8187 63.5209 81.0106 63.8351 81.2746 64.0127C81.6206 64.2454 81.9817 64.1595 83.1806 63.5592C86.3692 61.9626 87.8034 60.284 87.2268 58.8237C87.1236 58.5626 86.937 58.2627 86.8769 58.2618C86.8528 58.2615 86.5069 58.4173 86.1084 58.6082ZM3.91539 62.1529C4.29279 62.2911 4.56643 62.4737 4.83904 62.7694C5.52067 63.5087 5.62399 64.6734 5.08379 65.5275C4.74784 66.0586 4.15688 66.436 3.48772 66.5467C2.85857 66.6507 2.15343 66.4043 1.65767 65.9071C1.02279 65.2704 0.824143 64.2685 1.16474 63.4211C1.34579 62.9704 1.81768 62.4727 2.27017 62.2551C2.5829 62.1048 2.69037 62.0816 3.13537 62.0684C3.52699 62.0568 3.70578 62.0761 3.91539 62.1529ZM2.57836 62.5882C2.1931 62.7321 1.80642 63.0855 1.60911 63.4742C1.46646 63.7551 1.45057 63.8373 1.45057 64.2936C1.45057 64.7408 1.46826 64.8367 1.59999 65.1045C2.02547 65.9693 3.0637 66.3702 3.89353 65.9903C4.29713 65.8055 4.65083 65.4709 4.83236 65.102C4.96345 64.8356 4.9804 64.7421 4.97863 64.2936C4.97687 63.8443 4.95944 63.753 4.82567 63.4929C4.63007 63.1126 4.21887 62.7255 3.86731 62.5905C3.4911 62.4461 2.96126 62.4452 2.57836 62.5882ZM5.50259 73.329C5.82585 73.6702 5.9164 73.7995 5.90485 73.9029C5.89372 74.0017 5.85409 74.0405 5.75172 74.0523C5.63881 74.0655 5.53874 73.9887 5.2035 73.6317C4.97795 73.3915 4.79341 73.1509 4.79341 73.097C4.79341 73.0082 4.9366 72.8886 5.04288 72.8886C5.06625 72.8886 5.27313 73.0868 5.50259 73.329ZM8.39477 73.0309C8.50303 73.1389 8.39969 73.322 8.01476 73.7039C7.60008 74.1154 7.49279 74.1735 7.37143 74.0523C7.24862 73.9298 7.30971 73.8178 7.72294 73.4078C8.10573 73.0279 8.28892 72.9252 8.39477 73.0309ZM5.83831 75.5259C5.9909 75.6373 5.90485 75.786 5.41936 76.2499C5.07357 76.5803 4.98671 76.6387 4.91124 76.5915C4.86113 76.5603 4.81306 76.4762 4.80439 76.4048C4.79198 76.3032 4.88038 76.1858 5.21274 75.863C5.44605 75.6364 5.65914 75.451 5.68631 75.451C5.71348 75.451 5.78188 75.4847 5.83831 75.5259ZM8.01593 75.9396C8.42756 76.3724 8.4895 76.4918 8.36627 76.6148C8.24159 76.7393 8.12376 76.6744 7.71765 76.2579C7.31629 75.8462 7.24178 75.6979 7.37143 75.5685C7.49557 75.4446 7.60521 75.5077 8.01593 75.9396ZM94.3017 90.7457V90.9059L95.2912 91.2375C97.7276 92.0538 100.496 92.5342 103.715 92.699C104.392 92.7337 104.955 92.7703 104.966 92.7803C104.978 92.7903 104.937 92.9372 104.876 93.1067C104.642 93.7595 104.104 95.5682 103.816 96.6714C102.848 100.391 102.138 104.397 101.711 108.55C101.578 109.844 101.406 111.979 101.359 112.905L101.324 113.603L103.583 116.481C104.825 118.065 105.877 119.396 105.921 119.44C105.931 119.45 105.94 119.46 105.947 119.459C106.012 119.453 105.991 118.6 105.773 108.95C105.743 107.629 105.683 104.758 105.64 102.57C105.596 100.383 105.537 97.6924 105.508 96.5914C105.479 95.4903 105.455 94.1782 105.455 93.6757L105.453 92.7618L109.837 92.7893C113.869 92.8145 114.231 92.8095 114.356 92.7275C114.5 92.6333 114.515 92.5983 114.452 92.4996C114.423 92.4548 113.092 92.4296 109.466 92.4054C106.746 92.3871 104.074 92.3487 103.529 92.3201C100.49 92.1601 97.3799 91.5965 95.1842 90.8081C94.3997 90.5264 94.3017 90.5195 94.3017 90.7457ZM143.346 93.9801C144.237 94.1135 145.03 94.6256 145.524 95.386C145.96 96.0567 146.116 97.0457 145.911 97.8382C145.561 99.1926 144.297 100.168 142.893 100.168C141.595 100.168 140.41 99.3398 139.954 98.1128C139.803 97.7081 139.749 96.8964 139.841 96.4211C140.05 95.3421 140.965 94.3619 142.04 94.0641C142.432 93.9559 142.958 93.922 143.346 93.9801ZM116.259 113.207C116.232 113.273 116.184 113.533 116.153 113.785C115.966 115.292 115.27 117.144 114.493 118.202C113.594 119.428 112.553 120.072 111.173 120.257L110.668 120.324V120.483C110.668 120.618 110.691 120.644 110.825 120.659C111.058 120.685 111.954 120.512 112.353 120.363C114.015 119.742 115.27 118.226 116.021 115.93C116.4 114.772 116.681 113.261 116.543 113.123C116.466 113.046 116.306 113.093 116.259 113.207ZM101.234 118.399C101.228 122.121 101.342 124.867 101.632 128.008L101.662 128.329L103.986 131.283C105.264 132.908 106.309 134.193 106.309 134.139C106.309 133.876 106.134 125.482 106.078 123.042L106.015 120.265L103.662 117.271L101.308 114.278L101.274 114.737C101.255 114.989 101.237 116.637 101.234 118.399ZM101.786 129.623C101.805 129.851 101.844 130.217 101.872 130.437C101.9 130.657 101.985 131.342 102.06 131.959C102.279 133.75 102.516 135.346 102.834 137.19C103.143 138.976 103.218 139.376 103.558 141.053C103.764 142.068 103.847 142.577 103.808 142.601C103.772 142.624 104.03 143.466 104.536 144.971C104.967 146.256 105.332 147.306 105.347 147.305C105.361 147.305 105.445 147.183 105.534 147.033C105.706 146.742 106.288 146.163 106.465 146.107C106.624 146.057 106.65 145.809 106.582 144.973C106.527 144.288 106.469 141.975 106.382 137.022L106.347 134.986L104.078 132.098C102.83 130.509 101.795 129.209 101.78 129.209C101.764 129.209 101.766 129.396 101.786 129.623ZM115.222 132.92C114.952 134.302 113.998 138.736 113.849 139.299C113.822 139.402 113.752 139.69 113.694 139.94C113.518 140.691 113.047 142.631 113.023 142.699C113.011 142.734 113.14 142.938 113.31 143.153C113.48 143.368 115.036 145.345 116.767 147.547C120.388 152.154 120.608 152.441 120.879 152.666C120.912 152.694 120.946 152.721 120.987 152.754C121.384 153.079 121.98 153.394 122.515 153.56C122.858 153.667 123.029 153.685 123.692 153.685C124.357 153.685 124.525 153.667 124.869 153.559C125.61 153.328 126.187 152.974 126.722 152.423C127.502 151.621 127.872 150.687 127.872 149.519C127.872 148.819 127.756 148.306 127.46 147.707C127.436 147.658 127.415 147.614 127.393 147.572C127.213 147.225 126.966 146.913 124.335 143.57C123.029 141.911 120.483 138.672 118.676 136.373C116.869 134.074 115.383 132.2 115.374 132.209C115.365 132.218 115.296 132.538 115.222 132.92ZM137.839 140.745C138.927 140.861 139.798 141.733 139.964 142.874C140.083 143.687 139.825 144.45 139.233 145.042C138.749 145.526 138.17 145.761 137.471 145.757C136.157 145.751 135.028 144.592 135.032 143.252C135.036 141.696 136.287 140.58 137.839 140.745ZM136.743 141.29C136.527 141.369 136.354 141.492 136.096 141.75C135.623 142.222 135.491 142.548 135.488 143.25C135.486 143.711 135.501 143.789 135.656 144.117C136.198 145.259 137.487 145.662 138.569 145.029C139.702 144.366 139.906 142.732 138.976 141.771C138.402 141.179 137.549 140.995 136.743 141.29ZM102.581 142.824C101.091 143.102 99.8973 143.322 99.2492 143.44C98.9697 143.49 98.7342 143.537 98.7258 143.544C98.7101 143.556 99.7828 145.776 100.238 146.673L100.499 147.187L100.662 147.14C101.22 146.981 102.458 147.055 103.528 147.313C103.923 147.408 104.774 147.65 104.952 147.717C104.996 147.734 103.6 143.45 103.347 142.794C103.309 142.693 103.271 142.695 102.581 142.824ZM112.74 143.823C112.627 144.267 112.558 144.764 112.303 146.939C112.177 148.015 112.17 148.161 112.251 148.161C112.359 148.161 113.58 147.526 114.104 147.197C114.931 146.679 115.302 146.4 115.258 146.329C115.15 146.153 112.928 143.356 112.897 143.356C112.876 143.356 112.806 143.567 112.74 143.823ZM107.034 145.879C106.983 146.713 106.899 148.728 106.898 149.149L106.898 149.522H108.467H110.036L110.246 149.668C110.559 149.885 110.634 150.055 110.725 150.76C110.769 151.107 110.812 151.411 110.819 151.436C110.837 151.497 111.423 150.725 111.461 150.59C111.478 150.531 111.518 150.219 111.55 149.896C111.583 149.573 111.701 148.492 111.814 147.494C111.927 146.495 112.016 145.675 112.012 145.67C112.008 145.666 111.44 145.622 110.749 145.573C110.057 145.524 109.107 145.452 108.636 145.414C108.165 145.376 107.62 145.341 107.424 145.338L107.068 145.332L107.034 145.879ZM106.248 146.813C105.944 147.139 105.808 147.364 105.638 147.819C105.563 148.022 105.465 148.215 105.421 148.249C105.359 148.297 105.238 148.275 104.876 148.152C103.556 147.704 102.53 147.501 101.576 147.5C101.01 147.5 100.81 147.521 100.501 147.617C99.9809 147.777 99.5846 148.069 99.3796 148.443C99.2993 148.589 98.3969 151.024 97.5649 153.339C97.4964 153.53 97.3645 153.89 97.2719 154.14C97.1793 154.39 97.047 154.75 96.9778 154.941C96.9087 155.132 96.7763 155.492 96.6837 155.742C96.5911 155.991 96.4663 156.327 96.4066 156.489C95.9294 157.778 95.8974 157.998 96.1229 158.449C96.2709 158.746 96.5333 158.978 96.8398 159.083C97.0092 159.142 97.8575 159.202 99.7305 159.288C100.23 159.311 101.995 159.238 102.231 159.184C102.326 159.162 102.351 159.119 102.351 158.979C102.351 158.818 102.564 157.697 102.649 157.41L102.684 157.291L99.8895 157.277C97.2947 157.264 97.0904 157.256 97.0356 157.17C96.9925 157.102 96.9925 157.051 97.0356 156.983C97.0904 156.896 97.2978 156.888 99.9503 156.875L102.806 156.861L102.956 156.395C103.412 154.976 104.225 153.213 105.187 151.551C105.786 150.518 106.057 150.108 106.282 149.896L106.453 149.736L106.489 148.668C106.509 148.081 106.54 147.366 106.559 147.08C106.581 146.742 106.574 146.559 106.539 146.559C106.509 146.559 106.378 146.674 106.248 146.813ZM107 149.984C106.569 150.113 106.395 150.326 105.572 151.738C104.255 153.995 103.338 156.218 102.911 158.188C102.642 159.427 102.806 160.011 103.537 160.415L103.822 160.573H108.048H112.273L112.494 160.455C112.807 160.288 113.045 160.032 113.198 159.698C113.326 159.42 113.329 159.383 113.301 158.55C113.248 157.019 112.915 155.11 112.396 153.366C112.218 152.766 111.649 151.204 111.609 151.204C111.589 151.204 111.394 151.444 111.176 151.738C110.886 152.129 110.749 152.272 110.664 152.272C110.496 152.272 110.444 152.179 110.408 151.818C110.279 150.511 110.264 150.314 110.163 150.186C110.14 150.157 110.112 150.131 110.077 150.096L109.903 149.923H108.554C107.697 149.923 107.13 149.945 107 149.984ZM112.556 158.848C112.642 158.934 112.638 159.077 112.548 159.152C112.495 159.196 111.218 159.209 107.834 159.199C103.48 159.186 103.188 159.179 103.133 159.091C103.09 159.023 103.09 158.973 103.133 158.905C103.188 158.817 103.48 158.81 107.842 158.798C111.414 158.787 112.507 158.799 112.556 158.848Z" stroke="black" stroke-width="0.7"/>
</svg>
