<svg width="147" height="159" viewBox="0 0 147 159" fill="none" xmlns="http://www.w3.org/2000/svg">
<path fill-rule="evenodd" clip-rule="evenodd" d="M40.4253 1.01017C41.8382 1.10074 43.8894 1.43665 45.3344 1.81404C54.3951 4.18062 61.5819 10.8814 64.5826 19.7606C64.8441 20.5341 64.8836 20.6673 65.1262 21.591C65.5269 23.1163 65.8243 24.9231 65.937 26.5154C66.0043 27.4674 66.0034 29.6155 65.9354 30.5492C65.3565 38.4885 61.3858 45.7613 54.991 50.5953C50.8276 53.7425 45.7185 55.6642 40.5297 56.0346C39.5899 56.1017 37.4482 56.1017 36.5084 56.0346C31.2525 55.6594 26.187 53.7377 21.9263 50.5026L21.2883 50.0182L21.2535 50.2044C21.1962 50.5103 21.2718 52.1003 21.3637 52.5255C21.5795 53.5233 22.0066 54.4712 22.8473 55.8177C24.5006 58.4661 24.8345 59.8107 24.8357 63.8253C24.8366 66.675 25.117 68.8344 25.824 71.4371C27.6361 78.1075 32.2177 85.0913 37.4653 89.1824C39.6782 90.9076 41.5847 91.7679 43.2051 91.7727C43.7512 91.7744 44.7436 91.6447 44.8928 91.5522C44.955 91.5136 44.7759 91.125 44.1333 89.9035C44.012 89.673 43.6713 89.0129 43.3762 88.4366C43.0811 87.8604 42.7258 87.1741 42.5866 86.9115C42.3501 86.4652 42.3395 86.429 42.4239 86.3566C42.4736 86.314 43.137 85.8461 43.8982 85.3168C44.6594 84.7876 46.1103 83.7761 47.1225 83.069C48.1347 82.362 49.6903 81.2767 50.5794 80.6572L52.1959 79.5309L43.4341 70.7299C34.6999 61.9567 34.6717 61.9277 34.4983 61.5397C34.35 61.2081 34.3207 61.0747 34.2997 60.6372C34.2787 60.2012 34.293 60.0676 34.3947 59.7504C34.8431 58.3516 36.4509 57.6974 37.7945 58.3672C38.0269 58.483 39.6309 60.0669 47.1363 67.5914C52.12 72.5878 56.218 76.6758 56.243 76.6758C56.3055 76.6758 58.3122 75.2648 58.3122 75.2209C58.3122 75.2014 57.7506 74.6191 57.0643 73.9268C56.0523 72.9061 55.7862 72.6076 55.657 72.3477C55.2127 71.4545 55.3761 70.3903 56.0613 69.7141C56.7578 69.0266 57.7591 68.8642 58.6609 69.2922C58.9797 69.4435 59.1851 69.6279 60.6101 71.0429L62.203 72.6244L63.2213 72.0249C67.7711 69.3467 72.983 66.8667 77.557 65.2038C78.1315 64.9949 79.0128 64.6696 79.5154 64.4809C80.0181 64.2922 80.5116 64.1078 80.6122 64.0712C81.9064 63.599 84.1868 62.7069 84.3705 62.6009C84.9621 62.2592 85.3989 61.7551 85.6705 61.1006C85.9026 60.5413 85.9157 60.3505 86.0962 54.9091C86.1258 54.0159 86.1587 53.1825 86.1693 53.0571L86.1886 52.8291L85.9146 52.8635C85.3508 52.9342 84.5572 52.9028 84.0894 52.7914C83.8398 52.7319 83.5882 52.6579 83.5305 52.6269C83.4641 52.5913 83.4029 52.5887 83.3637 52.62C83.2684 52.6959 82.1047 53.324 81.4687 53.6428C80.0505 54.3536 78.8494 54.7285 77.3481 54.9289C74.2221 55.3463 70.2331 54.831 67.1904 53.6167C63.1736 52.0137 61.1565 49.4959 61.4384 46.4364C61.5692 45.0178 62.1275 43.5362 63.0922 42.0481C64.7331 39.5168 66.9424 37.8525 69.9637 36.8717C71.1234 36.4952 72.1404 36.2709 74.5019 35.8706C76.237 35.5765 76.5909 35.5063 76.5907 35.4561C76.5906 35.4369 76.5531 35.209 76.5074 34.9497C76.3928 34.3007 76.4285 33.3841 76.584 32.98C76.8166 32.3757 77.2688 32.1153 78.0106 32.1583L78.4252 32.1824L78.394 31.4444C78.3397 30.1593 78.3445 30.1803 78.0774 30.0506C77.7204 29.8772 77.2194 29.8633 76.2256 29.999C75.2695 30.1296 74.5961 30.1227 74.0656 29.9768C71.4975 29.271 68.9899 26.2347 68.706 23.4872C68.5236 21.7226 69.2988 19.9209 71.0072 18.1383C73.8487 15.1733 78.7148 12.9566 83.2098 12.5796L83.64 12.5435L83.6927 12.3262C84.1498 10.4381 85.2074 9.06192 86.8199 8.25694C87.8572 7.7391 88.6472 7.61316 90.8743 7.61065C93.4698 7.60771 95.4712 7.86231 98.0291 8.52076C99.9912 9.02588 102.394 9.93144 103.904 10.7348C105.166 11.406 106.042 12.3146 106.604 13.5354C107.192 14.8101 107.276 15.9957 106.907 17.7668C106.805 18.2566 106.698 18.7752 106.67 18.9193C106.641 19.0634 106.455 19.9592 106.256 20.91C105.424 24.8836 105.423 24.888 105.484 24.9257C105.681 25.0475 106.831 25.0428 108.526 24.9133C110.543 24.7591 112.214 25.006 114.066 25.732C118.761 27.5726 122.78 31.7598 123.98 36.0622C124.294 37.1872 124.35 37.6312 124.349 39.0096C124.348 40.1333 124.333 40.3681 124.228 40.8956C123.855 42.7797 123.222 44.2902 122.056 46.0819C121.077 47.5846 119.362 49.3872 117.639 50.7219C115.296 52.5387 112.274 53.968 109.616 54.5178C108.155 54.8201 106.559 54.9093 105.389 54.7541C103.545 54.5093 102.359 54.1001 99.7849 52.8197C99.2857 52.5714 98.8509 52.3683 98.8187 52.3682C98.7539 52.3682 98.7563 52.6144 98.8398 54.5109C98.8682 55.1563 98.9258 56.6179 98.9679 57.7589C99.0573 60.1896 99.0776 60.4856 99.1809 60.8837C99.3584 61.5674 99.8042 62.215 100.363 62.601C100.638 62.7911 101.276 63.0924 102.651 63.6817C103.298 63.959 108.286 66.141 108.526 66.252C108.584 66.2785 109.014 66.4661 109.483 66.6689C110.592 67.1487 110.641 67.1757 110.641 67.301C110.641 67.3597 110.693 67.4276 110.759 67.4557C110.823 67.4832 111.462 67.7527 112.179 68.0546L113.481 68.6034L110.997 66.1043C108.332 63.4232 108.252 63.3277 108.025 62.5793C107.93 62.2643 107.917 62.1177 107.937 61.5975C107.957 61.0549 107.979 60.9403 108.13 60.5812C108.419 59.8922 108.969 59.2917 109.614 58.9606C109.929 58.7987 110.571 58.6547 110.978 58.6547C111.443 58.6547 111.86 58.7592 112.365 59.0019C112.751 59.1875 112.982 59.4165 128.271 74.7564C140.767 87.2949 143.814 90.3773 143.932 90.604C144.585 91.857 144.384 93.2839 143.417 94.2575C142.816 94.8622 142.095 95.1684 141.271 95.1684C140.757 95.1684 140.352 95.0701 139.835 94.8204C139.462 94.6406 139.314 94.5024 136.819 92.0067C135.376 90.5631 134.195 89.3949 134.195 89.4106C134.195 89.4263 134.566 90.1095 135.021 90.9286C135.475 91.7478 135.919 92.5493 136.006 92.7097C136.387 93.4076 137.481 95.3871 138.436 97.1067L139.469 98.9664L139.143 99.2698C138.963 99.4367 138.497 99.8113 138.107 100.102L137.398 100.631L137.441 100.899C137.711 102.613 137.939 105.292 138.013 107.638C138.255 115.303 137.017 122.05 134.426 127.18C132.19 131.608 129.103 134.654 124.705 136.772C123.95 137.135 122.487 137.759 122.389 137.759C122.357 137.759 122.347 137.828 122.364 137.929C122.786 140.396 122.908 141.245 122.848 141.303C122.628 141.516 121.025 142.797 120.277 143.358C116.928 145.87 113.936 147.7 109.701 149.827C105.244 152.065 101.239 153.763 98.0552 154.765C92.5386 156.5 87.4072 157.43 80.8472 157.884C79.3689 157.986 78.7479 158 75.468 158C71.6372 158.001 70.1285 157.944 67.2426 157.691C64.6851 157.466 61.002 157.03 60.9156 156.941C60.8969 156.922 60.9015 156.576 60.9258 156.173C60.9501 155.769 60.9952 154.815 61.0259 154.051C61.0567 153.288 61.1048 152.25 61.1328 151.746C61.1609 151.242 61.2077 150.228 61.2368 149.494C61.2659 148.759 61.3119 147.745 61.339 147.241C61.3661 146.737 61.4019 145.959 61.4186 145.512C61.4354 145.066 61.483 143.981 61.5245 143.102C61.566 142.224 61.6241 140.962 61.6537 140.3C61.6833 139.637 61.7309 138.594 61.7594 137.982C61.7879 137.369 61.835 136.356 61.8641 135.729C61.8931 135.102 61.9394 134.106 61.9671 133.516C62.0414 131.927 62.1172 130.245 62.202 128.303C62.2434 127.352 62.3016 126.067 62.3311 125.448C62.3607 124.828 62.4088 123.791 62.438 123.143C62.4673 122.495 62.5145 121.469 62.5431 120.864C62.5716 120.259 62.6416 118.703 62.6987 117.407C62.8504 113.956 62.9081 112.719 62.9289 112.469C62.9391 112.347 62.9277 112.246 62.9037 112.246C62.8632 112.246 61.5449 112.816 58.3003 114.236C57.3925 114.633 56.9953 114.783 56.9632 114.742C56.9169 114.681 56.5457 113.971 55.7271 112.377C55.4756 111.888 55.2536 111.469 55.2338 111.447C55.214 111.425 54.9527 111.515 54.653 111.648C53.4287 112.19 51.7045 112.772 50.1913 113.155C45.7942 114.268 40.4041 114.31 36.6651 113.261C34.0349 112.523 31.868 111.429 29.7975 109.792C29.1349 109.269 28.9597 109.111 28.0817 108.245C23.4661 103.693 20.3129 96.426 18.7249 86.6817C18.4177 84.7971 18.1171 82.3299 17.9938 80.6834C17.9636 80.28 17.9166 79.7142 17.8892 79.4261C17.7111 77.5515 17.5957 72.7584 17.6762 70.5782C17.709 69.6881 17.7239 68.9477 17.7092 68.9329C17.6945 68.9182 17.4296 68.8865 17.1205 68.8625C15.8158 68.7612 14.3839 68.5142 13.5586 68.248C12.8209 68.01 12.4522 67.7752 11.8305 67.1471C11.213 66.5233 10.9935 66.1498 10.7774 65.3556C10.6691 64.9573 10.6577 64.8043 10.6591 63.7624C10.6606 62.5702 10.683 62.3607 11.0482 60.1216C11.5351 57.1364 11.8511 56.1287 12.5395 55.3656C13.1967 54.6372 14.0414 54.2948 15.1743 54.2976C15.8642 54.2992 16.9696 54.5112 17.5378 54.7507C17.6466 54.7966 17.6539 54.7117 17.5716 54.359C17.2443 52.9564 17.2005 52.6566 17.1733 51.628C17.1436 50.5034 17.2003 49.8084 17.3739 49.1727C17.5381 48.5715 17.8205 48.0369 18.1598 47.6857L18.4575 47.3773L18.0291 46.8999C15.5738 44.1637 13.6252 40.8003 12.4561 37.2809C11.7999 35.3054 11.4263 33.601 11.1701 31.4136C11.0929 30.7542 11.0753 30.2077 11.0764 28.5061C11.078 26.1959 11.1401 25.4206 11.4688 23.6079C13.5134 12.3296 22.3743 3.44133 33.6099 1.39851C35.3436 1.0833 36.0683 1.02085 38.1796 1.00477C39.2424 0.996701 40.2529 0.999112 40.4253 1.01017ZM36.4562 1.44964C31.6789 1.79487 26.9403 3.50739 22.93 6.33796C20.4932 8.05793 18.0906 10.4678 16.3925 12.8948C14.0578 16.232 12.5543 19.8704 11.8358 23.9222C11.5372 25.6064 11.496 26.1646 11.496 28.5323C11.496 30.8979 11.5324 31.3898 11.8368 33.1423C12.7229 38.244 15.0289 42.9699 18.5069 46.8125L18.8125 47.1501L19.1479 47.0269C20.0397 46.6991 20.8579 47.0058 21.2225 47.8045C21.3454 48.0739 21.3547 48.1483 21.3484 48.8044C21.3418 49.4764 21.3474 49.5181 21.4568 49.6074C21.9045 49.9729 23.2418 50.9508 23.7395 51.2766C25.606 52.4985 27.6727 53.5097 29.8159 54.2497C34.9927 56.0372 40.8214 56.1611 46.138 54.5965C53.2989 52.4892 59.3789 47.3876 62.7316 40.6732C67.3256 31.473 66.3322 20.4437 60.1717 12.2544C59.3699 11.1885 58.8542 10.5878 57.8959 9.60365C55.5634 7.208 53.2058 5.50082 50.2464 4.06437C47.2455 2.60781 43.8453 1.67988 40.6718 1.45137C39.8298 1.39076 37.2857 1.38971 36.4562 1.44964ZM76.5909 7.80359C77.1849 7.97547 77.5983 8.31509 77.8336 8.8244C77.9499 9.07622 77.9716 9.19676 77.9727 9.59443C77.9738 10.0055 77.9553 10.1042 77.8284 10.364C77.6392 10.7519 77.2073 11.1491 76.8127 11.2984C76.3896 11.4584 75.786 11.428 75.3741 11.2259C74.9513 11.0184 74.5843 10.5956 74.4508 10.1623C74.2648 9.55792 74.3343 9.06569 74.6793 8.54434C75.0752 7.94629 75.934 7.61348 76.5909 7.80359ZM88.6025 8.12702C87.5336 8.3031 86.671 8.69982 85.8742 9.38174C85.0385 10.097 84.3947 11.1571 84.1496 12.2217L84.0763 12.5397L85.1252 12.5692C88.4135 12.6615 91.5577 13.6194 94.1384 15.3152C95.8855 16.4633 96.9185 17.5339 98.5256 19.8623C99.2049 20.8465 99.8062 21.6433 100.217 22.1035C101.258 23.2693 102.901 24.2739 104.514 24.7295C104.766 24.8007 104.981 24.8501 104.992 24.8393C105.012 24.8194 105.289 23.5325 105.573 22.1411C105.659 21.7233 105.813 20.9807 105.916 20.4909C106.02 20.0011 106.137 19.4353 106.178 19.2336C106.219 19.0319 106.312 18.584 106.386 18.2383C106.653 16.9863 106.725 16.5115 106.725 15.9886C106.724 14.5823 106.202 13.2752 105.226 12.2369C104.606 11.5772 103.965 11.1745 102.518 10.5346C99.1539 9.04683 96.0672 8.29277 92.2583 8.02806C91.5708 7.98034 89.0847 8.04761 88.6025 8.12702ZM46.4311 10.6485C46.8799 10.6966 48.0096 10.8889 48.4241 10.9877C51.6186 11.7487 53.7113 13.5511 54.552 16.2655C54.8722 17.2992 54.9722 17.9661 55.0052 19.286C55.0485 21.0168 54.9904 21.6343 54.5509 24.1056C54.327 25.3651 54.1453 26.4467 53.8206 28.4537C53.704 29.174 53.5373 30.1877 53.45 30.7063C53.3628 31.225 53.2684 31.7907 53.2402 31.9636C53.2119 32.1365 53.1298 32.5962 53.0577 32.9852C52.9856 33.3741 52.8946 33.8692 52.8555 34.0853C52.8163 34.3014 52.6767 34.9894 52.5451 35.6141C51.3152 41.4516 49.7939 44.6176 47.6584 45.7836C46.9587 46.1656 45.9616 46.3297 44.9261 46.2331C43.6726 46.1162 42.769 45.6873 41.9356 44.8136C41.3372 44.1863 40.9153 43.5072 40.5373 42.5629C40.2838 41.9296 40.1884 41.5516 39.8572 39.8694C39.6978 39.0602 39.5446 38.338 39.5169 38.2647C39.4239 38.0194 39.1611 37.8833 38.7802 37.8833C38.3874 37.8833 38.0992 38.0246 38.0043 38.2636C37.973 38.3426 37.8537 38.9612 37.7393 39.6383C37.398 41.6568 37.3778 41.757 37.2097 42.2662C37.0061 42.8829 36.6048 43.7355 36.2914 44.2174C35.9456 44.749 35.1364 45.5334 34.6544 45.8043C34.1068 46.1119 33.4154 46.3312 32.7682 46.4024C30.9325 46.6042 29.6034 46.073 28.4281 44.6674C26.9124 42.8547 25.7161 39.7384 24.6273 34.7663C24.5673 34.4926 24.4942 34.1634 24.4648 34.0348C24.397 33.7386 23.8447 30.9436 23.6621 29.9729C23.5862 29.5695 23.4912 29.0745 23.451 28.8728C23.4109 28.6711 23.2936 28.0582 23.1904 27.5107C23.0872 26.9633 22.896 25.985 22.7655 25.3367C22.6349 24.6884 22.4737 23.8869 22.4072 23.5555C22.0982 22.016 22.0451 21.4767 22.0436 19.8623C22.0424 18.6117 22.0591 18.2504 22.1377 17.8192C22.4858 15.91 23.1145 14.6261 24.2553 13.4949C25.6091 12.1526 27.3684 11.3567 29.9281 10.9284C30.5226 10.829 30.7466 10.8179 31.7299 10.8395C32.8791 10.8648 33.2575 10.9146 34.4162 11.1933C35.6715 11.4953 37.3429 12.1926 38.1985 12.7713L38.4262 12.9253L38.8252 12.6582C39.3994 12.2737 40.6789 11.6594 41.4876 11.38C42.9219 10.8844 44.0398 10.6706 45.3344 10.6442C45.8227 10.6342 46.3162 10.6362 46.4311 10.6485ZM44.5771 11.0891C42.6594 11.2911 40.4103 12.0834 38.974 13.0628C38.7494 13.2159 38.5085 13.3401 38.4359 13.3401C38.3637 13.3401 38.1472 13.2371 37.9549 13.1113C36.8744 12.4043 35.2846 11.7894 33.6361 11.441C32.8756 11.2802 32.8138 11.2754 31.521 11.2744C30.222 11.2735 30.1699 11.2776 29.4059 11.44C27.737 11.7946 26.5563 12.2609 25.5144 12.9767C23.9383 14.0596 23.0237 15.53 22.5839 17.6882C22.4715 18.2404 22.4612 18.4197 22.4612 19.8361C22.4611 21.5191 22.5153 22.0464 22.8563 23.6853C23.1284 24.9933 23.51 26.9297 23.7392 28.1656C23.8006 28.4969 23.8837 28.933 23.9239 29.1347C23.9641 29.3364 24.093 30.0083 24.2105 30.6278C25.209 35.8954 26.0848 39.1949 27.1152 41.5713C28.4468 44.642 29.9555 46.0183 32.0003 46.0277C33.1504 46.0329 34.1543 45.7108 34.9401 45.0844C35.9519 44.2779 36.7387 42.8232 37.0499 41.1837C37.1101 40.8668 37.2427 40.1124 37.3446 39.5073C37.5816 38.1005 37.5966 38.0491 37.8408 37.8041C38.3553 37.288 39.326 37.3408 39.7784 37.9095C39.9367 38.1084 39.9485 38.1561 40.3701 40.3C40.6523 41.735 40.7715 42.1279 41.1791 42.966C41.7427 44.1249 42.4764 44.9209 43.4021 45.3778C44.2657 45.804 45.1764 45.946 46.1587 45.8075C47.0693 45.6791 47.6308 45.4027 48.3416 44.733C49.5671 43.5784 50.5282 41.6216 51.4165 38.4721C51.9847 36.4575 52.5424 33.6997 53.22 29.5538C53.8641 25.6125 53.9374 25.1729 54.0885 24.3413C54.5069 22.0388 54.621 21.0607 54.6229 19.7575C54.6259 17.751 54.1935 15.9553 53.4127 14.7319C53.1837 14.3731 52.6425 13.6927 52.4029 13.4623C51.235 12.3396 49.4966 11.5648 47.3189 11.1965C46.3483 11.0323 45.4502 10.9972 44.5771 11.0891ZM125.724 11.2551C125.826 11.3577 125.797 11.4552 125.51 11.978C125.281 12.3935 125.213 12.4784 125.097 12.4919C125.002 12.503 124.941 12.4763 124.905 12.4085C124.862 12.3281 124.908 12.2082 125.143 11.7898C125.487 11.1762 125.569 11.1001 125.724 11.2551ZM122.842 12.3029C123.097 12.4481 123.347 12.6031 123.397 12.6473C123.52 12.7552 123.513 12.9044 123.381 12.9749C123.292 13.023 123.202 12.9915 122.827 12.7804C122.251 12.4562 122.108 12.3272 122.179 12.1943C122.273 12.0183 122.37 12.0342 122.842 12.3029ZM135.098 13.4157C136.42 13.8887 136.563 15.7306 135.329 16.3911C135.145 16.4898 135.027 16.5092 134.612 16.5093C134.166 16.5095 134.093 16.4953 133.881 16.3678C133.358 16.0533 133.095 15.6302 133.057 15.0438C133.022 14.4965 133.138 14.1825 133.511 13.8082C133.71 13.6092 133.885 13.4876 134.06 13.4279C134.368 13.323 134.824 13.3177 135.098 13.4157ZM134.109 13.8675C133.19 14.3138 133.242 15.6519 134.194 16.052C134.732 16.2781 135.412 16.005 135.662 15.4618C135.77 15.2287 135.791 14.7891 135.706 14.5615C135.458 13.8976 134.713 13.5741 134.109 13.8675ZM126.14 14.2175C126.434 14.3828 126.687 14.5561 126.702 14.6027C126.738 14.7166 126.685 14.8442 126.584 14.8827C126.486 14.9204 125.492 14.3643 125.422 14.2323C125.375 14.1446 125.481 13.9159 125.568 13.9166C125.587 13.9168 125.845 14.0522 126.14 14.2175ZM123.948 14.5031C124.042 14.5971 124.035 14.6178 123.715 15.1837C123.412 15.7215 123.327 15.8055 123.181 15.7133C123.033 15.6198 123.059 15.5122 123.362 14.9705C123.596 14.5523 123.683 14.4402 123.772 14.4402C123.834 14.4402 123.914 14.4685 123.948 14.5031ZM143.658 23.29C144.069 23.4217 144.357 23.6035 144.676 23.9313C145.371 24.6462 145.549 25.7227 145.125 26.6327C144.952 27.0022 144.447 27.5264 144.09 27.707C142.679 28.42 140.981 27.5243 140.713 25.9261C140.431 24.242 142.065 22.7791 143.658 23.29ZM89.177 23.4053C88.0197 23.5215 87.1219 23.8056 85.8827 24.4479C82.3997 26.2531 80.4659 27.0048 78.3404 27.3799C77.518 27.5249 76.1544 27.539 75.4728 27.4094C74.3248 27.1911 73.3564 26.7114 72.5408 25.9573C72.3716 25.8009 72.2861 25.7558 72.2065 25.7812C72.0135 25.8426 72.0758 26.0389 72.3737 26.308C74.1801 27.9392 76.7099 28.2939 79.9777 27.3742C81.6385 26.9068 82.9203 26.3711 85.3124 25.1446C86.9344 24.313 87.4193 24.114 88.3684 23.8902C88.9727 23.7478 89.0427 23.7427 90.4043 23.7417C91.6614 23.7408 91.8824 23.7538 92.4411 23.8611C93.4198 24.0492 94.4321 24.3405 95.2178 24.6604C95.3534 24.7156 95.3983 24.7154 95.4659 24.6592C95.6824 24.4788 95.5226 24.36 94.6787 24.0736C93.5056 23.6755 92.3441 23.4387 91.1192 23.3478C90.5227 23.3035 90.0533 23.3174 89.177 23.4053ZM142.461 23.6871C141.634 23.9334 141.03 24.8142 141.102 25.6695C141.156 26.3072 141.52 26.927 142.032 27.2511C142.734 27.6955 143.714 27.5973 144.339 27.02C144.788 26.6051 145.025 25.8855 144.912 25.2793C144.692 24.0906 143.564 23.3583 142.461 23.6871ZM89.8559 26.2597C88.071 26.4599 86.3473 26.9391 85.1035 27.581C83.9882 28.1566 83.8801 28.2076 83.3752 28.3969C82.1981 28.8383 80.8724 29.1214 79.5033 29.2239L78.6818 29.2854L78.7063 29.472C78.7198 29.5746 78.7553 30.2479 78.7852 30.9683C78.8152 31.6886 78.8621 32.6315 78.8896 33.0637C78.917 33.4959 78.9637 34.38 78.9934 35.0282C79.0231 35.6765 79.0695 36.5841 79.0967 37.0451C79.1239 37.5061 79.161 38.1839 79.1793 38.5513C79.1977 38.9187 79.2279 39.2194 79.2465 39.2196C79.2652 39.2198 79.4214 39.2424 79.5938 39.2697C80.0597 39.3438 81.7916 39.5203 83.0667 39.6237C84.6967 39.7559 88.8033 39.7557 89.9865 39.6234C91.0541 39.504 91.9915 39.3513 92.6377 39.1916C93.178 39.058 94.0292 38.7752 94.0909 38.7088C94.1253 38.6718 95.8198 36.1039 97.4073 33.6832L98.1004 32.6262L98.0252 31.4043C97.9427 30.0634 97.8537 29.6423 97.5073 28.9522C96.4269 26.8002 93.6742 25.8315 89.8559 26.2597ZM116.73 29.8738C116.552 29.9421 116.665 30.1304 117.293 30.8127C118.57 32.2007 119.654 33.7379 120.371 35.1774C121.245 36.9321 121.609 38.316 121.609 39.8916C121.609 43.2054 120.146 45.9659 117.418 47.8029C116.712 48.2781 115.976 48.6424 115.015 48.9919C114.813 49.0654 114.767 49.1055 114.767 49.2076C114.767 49.4662 115.01 49.4279 115.916 49.0269C118.904 47.7039 120.877 45.4658 121.654 42.5196C121.885 41.6404 121.947 41.0785 121.946 39.874C121.945 38.8246 121.932 38.663 121.805 38.0667C121.33 35.849 120.186 33.6514 118.367 31.4659C117.853 30.849 116.91 29.8403 116.847 29.8413C116.828 29.8417 116.775 29.8563 116.73 29.8738ZM99.7178 32.0469C99.5552 32.1032 99.3171 32.2082 99.1887 32.2801C98.6695 32.5712 98.4973 32.7901 96.9867 35.079C96.178 36.3044 95.2842 37.6587 95.0005 38.0884C94.4782 38.8797 94.3305 39.1976 94.1101 40.005C93.8507 40.9547 93.7988 41.3805 93.8003 42.5458C93.8017 43.6987 93.8622 44.1607 94.1364 45.1127C94.2721 45.5842 94.6119 46.4486 94.6614 46.4486C94.6951 46.4486 95.0921 45.84 96.9933 42.8736C97.2566 42.4628 97.6535 41.8438 97.8753 41.498L98.2786 40.8694L98.3765 40.2145C98.5218 39.2422 98.6746 37.6422 98.7137 36.6851C98.7327 36.2204 98.7714 35.8108 98.7998 35.7748C98.8281 35.7388 98.9068 35.7093 98.9745 35.7093C99.0642 35.7093 99.1072 35.747 99.1324 35.8478C99.1743 36.0155 99.1249 37.0924 99.0196 38.3024C98.9509 39.0929 98.9081 39.4558 98.8065 40.1098L98.778 40.2931L98.9707 40.1098C99.2743 39.8208 100.273 38.6704 100.744 38.0667C101.874 36.6175 102.485 35.4608 102.654 34.447C102.73 33.9954 102.678 33.6006 102.491 33.214C102.327 32.8744 101.795 32.3787 101.364 32.1649C100.793 31.881 100.299 31.8455 99.7178 32.0469ZM77.3749 32.6631C76.9744 32.8529 76.8219 33.3429 76.867 34.2948C76.9355 35.7403 77.6056 37.6235 78.4648 38.7857C78.5974 38.9651 78.725 39.1124 78.7483 39.1131C78.7895 39.1144 78.7793 38.8076 78.6754 36.9142C78.5915 35.3865 78.4723 33.0204 78.4716 32.8691C78.4702 32.5543 77.8503 32.4379 77.3749 32.6631ZM93.3747 39.4221C92.3176 39.7356 91.1059 39.9434 89.4904 40.0883C87.1327 40.2997 82.896 40.135 79.742 39.7093C79.3927 39.6621 79.0734 39.6364 79.0325 39.6522C78.8484 39.7231 78.7745 42.3759 78.9173 43.7895C79.1699 46.2909 79.7402 48.0228 80.8668 49.7092C81.8089 51.1198 82.7639 51.9378 83.9195 52.3244C84.4317 52.4958 85.4768 52.5152 86.3917 52.3703C88.2629 52.074 89.7649 51.5162 91.1615 50.5987C92.349 49.8186 93.4968 48.5737 94.1903 47.3134C94.3954 46.9408 94.4011 46.918 94.3264 46.7731C94.2835 46.6898 94.1536 46.386 94.0378 46.0979C93.1993 44.0117 93.1372 41.6277 93.862 39.3544C93.8861 39.2788 93.8741 39.2615 93.8139 39.2847C93.7699 39.3017 93.5722 39.3635 93.3747 39.4221ZM5.45039 41.1156C5.49159 41.1569 5.51308 41.3776 5.51308 41.7604C5.51308 42.4038 5.46451 42.5419 5.24902 42.5114C5.12244 42.4935 5.12128 42.488 5.10666 41.8459C5.09151 41.1793 5.12238 41.0527 5.30009 41.0527C5.3483 41.0527 5.41592 41.081 5.45039 41.1156ZM97.5807 42.7307C97.3965 43.0198 97.0906 43.4972 96.901 43.7916C95.243 46.3669 94.8969 46.9156 94.6039 47.4329C93.6235 49.1642 92.2405 50.5516 90.6226 51.427C89.6313 51.9633 88.3766 52.4137 87.258 52.6348C86.6232 52.7603 86.6183 52.7623 86.5924 52.9184C86.578 53.0048 86.5309 54.1599 86.4878 55.4853C86.3654 59.2448 86.3061 60.433 86.2237 60.7764C86.0431 61.529 85.5143 62.3067 84.8695 62.7683C84.4269 63.0851 84.7535 62.9523 79.9071 64.7852C78.2986 65.3936 76.8446 65.9459 76.676 66.0127L76.3695 66.1341L76.8849 66.5441C77.1684 66.7696 78.0819 67.4987 78.9149 68.1643C79.7478 68.8299 81.2284 70.0108 82.205 70.7885C83.1816 71.5662 84.7405 72.8082 85.6692 73.5486C86.5979 74.2889 87.3907 74.8946 87.431 74.8946C87.5152 74.8946 87.6186 74.8603 90.7438 73.794C92.022 73.358 93.7258 72.7777 94.53 72.5045C96.4022 71.8687 96.4457 71.8539 99.2042 70.9133C100.482 70.4774 101.904 69.9936 102.364 69.8382C102.823 69.6827 104.233 69.2037 105.497 68.7737C106.761 68.3436 108.23 67.8444 108.761 67.6642C109.293 67.4839 109.744 67.3217 109.765 67.3034C109.8 67.2729 108.968 66.9023 102.808 64.2047C101.616 63.6828 100.523 63.1929 100.379 63.1162C100.236 63.0395 99.9281 62.7878 99.6959 62.5569C99.3624 62.2253 99.2281 62.0438 99.0564 61.6925C98.9369 61.4479 98.8049 61.1064 98.7631 60.9335C98.6823 60.5995 98.612 59.4231 98.5253 56.9521C98.496 56.1166 98.4489 54.9732 98.4208 54.4114C98.3926 53.8495 98.3453 52.7062 98.3156 51.8706C98.2859 51.035 98.2398 49.9035 98.2132 49.3561C98.1866 48.8086 98.1505 47.8774 98.1331 47.2868C98.1156 46.6961 98.0929 46.1421 98.0825 46.0557C98.0722 45.9692 98.0338 45.0676 97.9972 44.0519C97.9605 43.0362 97.9273 42.2052 97.9232 42.2052C97.9191 42.2052 97.765 42.4417 97.5807 42.7307ZM3.52571 43.4493C4.01009 43.4664 4.15521 43.5124 4.15521 43.6486C4.15521 43.8312 4.00101 43.8816 3.44304 43.8816C3.1416 43.8816 2.8495 43.8572 2.79395 43.8274C2.59053 43.7182 2.73007 43.3841 2.96367 43.421C3.00148 43.427 3.25439 43.4397 3.52571 43.4493ZM7.75633 43.5382C7.7908 43.5799 7.81126 43.6683 7.80191 43.7347C7.78525 43.8524 7.76886 43.8558 7.13255 43.8703C6.56471 43.8831 6.4718 43.8733 6.41446 43.7948C6.32933 43.6779 6.33148 43.6444 6.43071 43.5448C6.54539 43.4298 7.66206 43.4243 7.75633 43.5382ZM5.3248 44.8403C5.39963 44.8952 5.40991 44.9963 5.39728 45.553C5.38475 46.1037 5.36871 46.2104 5.29111 46.2594C5.22462 46.3013 5.1748 46.3014 5.10832 46.2595C5.03755 46.2149 5.01323 46.1144 5.00043 45.8144C4.96669 45.0239 5.08612 44.6652 5.3248 44.8403ZM19.1094 47.4988C18.3101 47.8876 17.8185 48.7052 17.6302 49.9585C17.4574 51.1089 17.5251 52.2202 17.8599 53.7304C18.1863 55.2027 18.184 55.187 18.0858 55.2855C18.0049 55.3667 17.975 55.3631 17.6443 55.234C15.9977 54.5902 14.4865 54.5373 13.5261 55.0897C12.9481 55.4222 12.485 55.9895 12.2242 56.6846C11.9553 57.401 11.6666 58.792 11.3423 60.9335C11.0791 62.6711 11.0322 63.1104 11.0345 63.8148C11.0379 64.8688 11.2399 65.7148 11.6271 66.2964C11.9037 66.7119 12.5737 67.341 12.9551 67.5434C13.7816 67.982 15.5828 68.3521 17.5099 68.4793C17.8395 68.501 18.0645 68.54 18.0986 68.5813C18.1376 68.6283 18.1362 69.158 18.0942 70.37C17.9529 74.4405 18.2396 80.0974 18.804 84.3767C20.1822 94.8248 23.3464 102.785 28.0473 107.63C31.424 111.11 35.2248 112.935 40.2425 113.486C41.5594 113.631 44.5967 113.619 45.9943 113.464C48.3528 113.202 50.4209 112.746 52.5414 112.019C53.3321 111.748 55.0221 111.069 55.0221 111.022C55.0221 111.012 54.9554 110.877 54.8739 110.722C54.719 110.426 54.0995 109.226 53.3893 107.846C53.1595 107.399 52.8131 106.728 52.6195 106.353C52.426 105.978 52.0617 105.271 51.81 104.781C51.5582 104.292 51.2175 103.631 51.0528 103.315C50.8881 102.998 50.5591 102.361 50.3217 101.9C50.0844 101.439 49.7257 100.744 49.5248 100.355C49.3239 99.9657 48.983 99.3056 48.7672 98.8878C48.5514 98.47 48.2285 97.8453 48.0495 97.4996C47.8706 97.1538 47.4698 96.3759 47.159 95.7708C46.8482 95.1657 46.4094 94.3171 46.184 93.8849C45.9586 93.4527 45.64 92.8327 45.476 92.5072C45.2185 91.9962 45.1634 91.9196 45.0733 91.9472C44.6993 92.0619 43.7931 92.1792 43.2715 92.1805C42.2134 92.1831 41.2646 91.9358 40.0988 91.3535C38.2491 90.4297 36.6541 89.2122 34.598 87.1546C32.8887 85.4441 31.6047 83.8907 30.3099 81.9667C26.9698 77.0038 25.0056 71.7964 24.52 66.6175C24.489 66.2862 24.4435 64.966 24.4189 63.6839C24.3944 62.4017 24.3478 61.1523 24.3154 60.9074C24.181 59.8922 24.0344 59.1978 23.8344 58.6285C23.6224 58.025 23.0655 56.9454 22.5102 56.0616C20.9889 53.64 20.6518 52.2914 20.8883 49.5733C20.955 48.8064 20.9615 48.5154 20.9173 48.2709C20.7583 47.3911 19.9981 47.0665 19.1094 47.4988ZM18.6194 55.5969C19.1639 56.0075 19.5284 56.54 19.6894 57.1601C19.811 57.628 19.7915 57.8328 19.542 58.7132C19.0115 60.5848 18.8831 61.4587 18.8813 63.2102C18.8806 63.8885 18.8571 64.5429 18.8292 64.6644C18.5951 65.6821 17.567 66.5742 16.2087 66.9387C15.9399 67.0108 15.8013 66.9539 15.8013 66.7714C15.8013 66.6488 15.8425 66.6254 16.3754 66.4462C17.4705 66.0779 18.2007 65.4261 18.4136 64.6268C18.4536 64.4767 18.4809 63.8677 18.4887 62.9504C18.5017 61.4292 18.5375 61.0835 18.8079 59.8748C18.8825 59.5409 19.0288 58.9942 19.133 58.66C19.391 57.8321 19.3969 57.3697 19.1559 56.8689C18.9733 56.4897 18.5637 56.0276 18.2135 55.8059C18.0266 55.6875 17.9911 55.6393 18.0046 55.5219C18.032 55.2833 18.2365 55.3081 18.6194 55.5969ZM35.8331 58.7054C35.0233 59.0931 34.5764 59.9411 34.714 60.8288C34.8238 61.5359 34.2899 60.9667 43.7863 70.5037L52.5333 79.288L53.0335 78.9415C54.3439 78.0337 55.7844 77.0245 55.8302 76.9822C55.8618 76.953 52.4804 73.5239 46.9006 67.9267C37.4073 58.4038 37.692 58.6761 37.0969 58.5499C36.7171 58.4695 36.1906 58.5342 35.8331 58.7054ZM110.429 59.1268C109.503 59.303 108.608 60.1634 108.397 61.0793C108.33 61.3694 108.332 62.0769 108.4 62.3742C108.43 62.5038 108.528 62.7632 108.618 62.9504C108.765 63.2572 109.065 63.5773 111.648 66.1791L114.516 69.0672L115.203 69.371C121.263 72.0503 126.355 76.3926 129.975 81.9669C130.61 82.9451 130.842 83.345 132.115 85.6624C132.21 85.8366 132.543 86.4402 132.854 87.0039L133.42 88.0287L136.484 91.0935C138.169 92.779 139.653 94.2287 139.783 94.315C140.32 94.6736 141.119 94.8287 141.785 94.7036C142.548 94.5602 143.27 93.993 143.621 93.26C143.988 92.4941 143.986 91.7155 143.615 90.929C143.429 90.535 143.318 90.4218 127.988 75.0433C114.02 61.0318 112.516 59.539 112.22 59.3914C111.618 59.0916 111.053 59.0082 110.429 59.1268ZM53.6239 64.5511C54.0664 64.6587 54.4351 64.8666 54.7412 65.1811C55.9659 66.4395 55.4388 68.5214 53.7785 68.9832C52.9583 69.2113 52.1458 68.9842 51.5258 68.3533C51.2049 68.0268 51.0467 67.7425 50.925 67.2739C50.6136 66.0745 51.3511 64.8557 52.5708 64.5544C52.9778 64.4538 53.2206 64.4531 53.6239 64.5511ZM52.6162 64.9719C52.0549 65.1366 51.6457 65.4926 51.4072 66.024C51.2489 66.3768 51.2494 67.1134 51.4082 67.4573C51.7731 68.2477 52.4735 68.6946 53.2725 68.6467C54.3711 68.5808 55.1916 67.549 54.9764 66.5038C54.8845 66.0574 54.7137 65.7426 54.408 65.4557C53.8663 64.9474 53.2589 64.7835 52.6162 64.9719ZM132.602 66.7166C133.295 66.9194 133.861 67.3408 134.255 67.949C134.832 68.8365 134.831 70.1143 134.254 70.9962C133.023 72.8766 130.295 72.7412 129.291 70.7498C128.67 69.5188 129.023 68.0234 130.134 67.181C130.807 66.6699 131.802 66.4827 132.602 66.7166ZM131.118 67.1359C129.897 67.5172 129.158 68.8202 129.472 70.0375C129.765 71.1727 130.697 71.9086 131.841 71.9086C133.627 71.9086 134.806 70.0387 134.038 68.4246C133.754 67.829 133.193 67.3326 132.581 67.136C132.181 67.0079 131.528 67.0079 131.118 67.1359ZM1.74364 68.2089C2.17189 68.649 2.22443 68.7429 2.10802 68.8597C1.987 68.9811 1.87733 68.9187 1.44449 68.4823C1.06273 68.0973 1.01219 68.0249 1.04195 67.906C1.10452 67.6558 1.27853 67.731 1.74364 68.2089ZM4.71925 67.8853C4.84026 68.0067 4.77811 68.1167 4.34302 68.5509C3.95923 68.9338 3.88708 68.9845 3.76854 68.9547C3.52335 68.8929 3.59578 68.7216 4.06493 68.2535C4.49472 67.8245 4.59976 67.7654 4.71925 67.8853ZM56.9544 69.6105C56.3788 69.8621 56.0299 70.269 55.8739 70.8704C55.7973 71.1654 55.7922 71.2741 55.8412 71.5614C55.9459 72.1746 56.0434 72.3068 57.4171 73.6995L58.6927 74.9929L59.1556 74.6687C59.4102 74.4904 59.9298 74.1267 60.3102 73.8603C60.6906 73.5939 61.1822 73.262 61.4028 73.1228L61.8038 72.8696L60.2538 71.32C59.2273 70.2938 58.6259 69.7315 58.4731 69.6552C58.0207 69.4294 57.4097 69.4114 56.9544 69.6105ZM4.32855 70.9065C4.57793 71.1621 4.78191 71.3876 4.78191 71.4076C4.78191 71.5101 4.6615 71.6467 4.57115 71.6467C4.47746 71.6467 3.72505 70.9192 3.61533 70.7226C3.56769 70.6372 3.7063 70.4418 3.81441 70.4418C3.84784 70.4418 4.07924 70.6509 4.32855 70.9065ZM2.12128 70.5518C2.17392 70.6505 2.13167 70.7102 1.70943 71.1338C1.45065 71.3934 1.2097 71.596 1.17398 71.5841C1.13826 71.5721 1.0748 71.5106 1.03297 71.4474C0.960632 71.3382 0.978073 71.3107 1.39029 70.8872C1.84767 70.417 2.00972 70.3427 2.12128 70.5518ZM108.254 71.1022C107.915 71.235 107.497 71.396 107.325 71.4602C106.982 71.5881 104.366 72.5956 103.62 72.8874C103.362 72.988 102.822 73.1968 102.418 73.3515C102.015 73.5061 101.191 73.8233 100.588 74.0564C99.9849 74.2894 98.9744 74.6782 98.3424 74.9205C97.7105 75.1628 96.9467 75.4576 96.6451 75.5756C96.3435 75.6935 95.6738 75.9528 95.1567 76.1518C94.6397 76.3507 93.6292 76.7404 92.9111 77.0177C92.193 77.295 91.1824 77.684 90.6654 77.8823C90.1484 78.0807 89.2318 78.4335 88.6287 78.6665C88.0255 78.8995 87.1207 79.2464 86.618 79.4374C86.1153 79.6284 85.6747 79.8071 85.6388 79.8344C85.6029 79.8618 85.5735 79.9273 85.5735 79.98C85.5735 80.2055 85.7222 80.1788 86.8203 79.7568C89.2697 78.8153 89.8129 78.6057 90.5349 78.3238C90.9513 78.1611 91.4096 77.9847 91.5532 77.9317C91.6969 77.8787 92.1434 77.7076 92.5455 77.5514C92.9476 77.3953 93.7114 77.1001 94.2428 76.8955C94.7742 76.6909 95.7025 76.3327 96.3057 76.0996C96.9089 75.8665 97.7432 75.5454 98.1597 75.386C98.5762 75.2266 99.0579 75.0405 99.2303 74.9725C99.7064 74.7845 105.348 72.6095 108.059 71.569C109.061 71.1843 109.075 71.1772 109.075 71.0445C109.075 70.7989 109.016 70.803 108.254 71.1022ZM11.4507 78.8106C11.688 79.0627 11.8826 79.3055 11.8833 79.3502C11.8848 79.4566 11.7817 79.5571 11.6708 79.5571C11.5525 79.5571 10.7355 78.6862 10.7355 78.5601C10.7355 78.4705 10.8737 78.3522 10.9785 78.3522C11.001 78.3522 11.2135 78.5585 11.4507 78.8106ZM14.433 78.5198C14.5556 78.6428 14.4903 78.758 14.0582 79.1811C13.6194 79.6107 13.5258 79.6634 13.4094 79.5466C13.2886 79.4254 13.3503 79.3155 13.7787 78.888C14.2085 78.4591 14.3136 78.4 14.433 78.5198ZM11.7931 81.0805C11.9579 81.1768 11.8904 81.3084 11.4525 81.7454C11.0005 82.1964 10.8405 82.2684 10.7339 82.0685C10.6828 81.9727 10.7277 81.9079 11.1332 81.4922C11.3844 81.2347 11.6152 81.0246 11.6459 81.0255C11.6766 81.0264 11.7428 81.0511 11.7931 81.0805ZM14.0282 81.5085C14.4715 81.9726 14.558 82.1853 14.3327 82.257C14.2424 82.2858 14.1406 82.2113 13.7843 81.8557C13.3517 81.4241 13.2739 81.2751 13.4094 81.1392C13.5258 81.0224 13.6141 81.075 14.0282 81.5085ZM83.7028 87.4157C81.4716 87.7064 79.7766 89.6432 79.7766 91.9022C79.7766 92.4474 79.8791 92.8942 80.3761 94.5135C80.9199 96.2856 81.2979 97.4961 81.3122 97.5113C81.3224 97.5222 82.0562 97.2974 87.7669 95.5343C88.9015 95.184 89.8453 94.8818 89.8641 94.8626C89.883 94.8435 89.785 94.4624 89.6464 94.0158C89.5078 93.5693 89.1941 92.5556 88.9493 91.7632C88.3498 89.8227 88.2056 89.5145 87.5803 88.837C86.5675 87.7397 85.1643 87.2254 83.7028 87.4157ZM84.1048 89.2985C84.3743 89.3663 84.6848 89.6156 84.8259 89.8773C85.0014 90.2029 84.9799 90.694 84.7759 91.0138C84.3472 91.6861 83.3487 91.6991 82.8862 91.0384C82.7419 90.8321 82.7273 90.7735 82.7273 90.4012C82.7273 90.0288 82.7419 89.9702 82.8862 89.7639C83.1553 89.3795 83.6604 89.1866 84.1048 89.2985ZM102.599 91.375C101.522 91.7083 99.6898 92.2745 98.528 92.6332C97.3663 92.9919 96.4118 93.2907 96.4069 93.2971C96.376 93.3376 96.9975 95.2425 97.0471 95.2591C97.0986 95.2763 98.1847 94.9605 98.6297 94.7989C99.2385 94.5778 101.698 93.864 101.771 93.8872C101.836 93.908 101.918 94.0915 102.045 94.5033C103.203 98.2539 104.474 102.379 104.557 102.66C104.595 102.789 104.936 103.897 105.315 105.122C105.693 106.346 106.035 107.454 106.073 107.584C106.111 107.714 106.452 108.822 106.83 110.046C107.208 111.271 107.56 112.414 107.612 112.587C107.665 112.76 108.053 114.021 108.475 115.39C108.897 116.758 109.555 118.9 109.939 120.149C110.322 121.399 110.646 122.432 110.659 122.445C110.715 122.501 112.315 121.599 113.296 120.959C114.24 120.342 114.872 119.861 114.872 119.758C114.872 119.715 114.717 119.18 114.528 118.569C113.781 116.157 112.659 112.518 112.57 112.22C112.519 112.047 112.121 110.751 111.685 109.339C111.25 107.927 110.556 105.676 110.144 104.336C109.732 102.996 109.086 100.898 108.709 99.6736C108.331 98.4491 107.729 96.4924 107.372 95.3255C106.172 91.4143 106.23 91.5742 105.92 91.2638C105.608 90.9504 105.214 90.7744 104.818 90.7712C104.629 90.7696 104.022 90.9347 102.599 91.375ZM91.7621 92.4548C90.7281 92.771 89.8626 93.0483 89.8389 93.071C89.8152 93.0937 89.854 93.2979 89.9252 93.5248C89.9963 93.7517 90.1277 94.1711 90.2171 94.4568C90.3065 94.7426 90.3668 95.0171 90.3511 95.0668C90.3122 95.1895 90.3566 95.1741 87.5842 96.0279C86.2341 96.4436 84.2381 97.0598 83.1485 97.3973C81.7272 97.8374 81.1443 97.9967 81.0856 97.9609C81.0094 97.9146 80.8715 97.5298 80.5329 96.4194L80.3952 95.9678L79.9945 96.0967C79.7741 96.1676 78.9156 96.4355 78.0867 96.6921C77.2577 96.9488 76.4637 97.222 76.3221 97.2992C75.7403 97.6169 75.3783 98.2171 75.3467 98.9164C75.3281 99.3278 75.3416 99.3837 75.9112 101.248C76.2321 102.298 76.512 103.175 76.5333 103.198C76.5546 103.22 76.9581 103.118 77.4301 102.971C77.902 102.824 79.5455 102.314 81.0822 101.838C85.442 100.489 88.6727 99.4882 91.3704 98.6521C92.7348 98.2293 94.5646 97.6629 95.4367 97.3933C96.3087 97.1237 97.0308 96.8945 97.0413 96.8839C97.0518 96.8734 96.9805 96.6068 96.8829 96.2916C96.7852 95.9764 96.5242 95.1291 96.303 94.4087C96.0816 93.6884 95.859 93.0166 95.8082 92.9157C95.4619 92.2283 94.6233 91.7749 93.8511 91.8576C93.7362 91.8699 92.7962 92.1386 91.7621 92.4548ZM100.118 94.7764C97.1707 95.6759 97.1674 95.677 97.1674 95.7652C97.1674 95.7983 97.2495 96.0842 97.3498 96.4006C97.5467 97.0218 97.5518 97.0483 97.4906 97.145C97.4681 97.1804 96.499 97.5027 95.3371 97.8612C93.043 98.5689 90.2375 99.4384 86.3569 100.644C84.9925 101.068 83.7352 101.458 83.5629 101.509C83.3905 101.561 82.2507 101.914 81.03 102.293C79.8092 102.673 78.7047 103.015 78.5754 103.054C78.4462 103.092 77.9174 103.256 77.4003 103.417C76.8833 103.577 76.4149 103.703 76.3595 103.695C76.2482 103.68 76.1619 103.488 75.9385 102.76L75.8005 102.31L74.4592 102.727C72.9359 103.2 72.7086 103.27 71.9356 103.505C71.3859 103.671 71.3805 103.674 71.4247 103.808C71.474 103.957 72.4748 107.215 72.6248 107.715C72.6767 107.888 73.0242 109.019 73.3971 110.23C73.7699 111.44 74.4158 113.538 74.8325 114.892C75.2491 116.246 75.9465 118.509 76.3823 119.921C76.8181 121.333 77.4278 123.313 77.7373 124.322L78.2998 126.155L78.6856 126.144C79.7106 126.116 80.0082 125.767 79.8023 124.834C79.7102 124.417 79.3788 123.444 78.9945 122.462C78.2663 120.601 78.1852 119.563 78.7036 118.739L78.8717 118.471L78.7756 118.179C78.7228 118.019 78.6855 117.882 78.6927 117.877C78.7095 117.863 79.4401 117.635 81.7089 116.933C87.2811 115.21 88.6289 114.793 91.266 113.975C98.5029 111.73 103.452 110.203 103.494 110.203C103.512 110.203 103.543 110.268 103.562 110.347C103.612 110.554 104.004 111.818 104.091 112.049C104.157 112.225 104.155 112.248 104.073 112.292C104.023 112.318 102.972 112.652 101.737 113.033C100.502 113.414 98.4691 114.043 97.2196 114.431C95.9701 114.818 94.8421 115.167 94.7128 115.206C94.5836 115.245 93.479 115.587 92.2583 115.967C91.0375 116.346 89.933 116.688 89.8037 116.727C89.6744 116.765 88.5346 117.118 87.2708 117.512C86.007 117.905 84.8672 118.259 84.7379 118.297C83.9676 118.527 80.8977 119.486 80.8824 119.502C80.8657 119.518 81.0577 119.841 81.8648 121.152C82.0155 121.397 82.987 122.985 84.0236 124.682C86.1668 128.189 85.8789 127.842 86.8577 128.093C88.6767 128.558 91.704 128.389 95.4179 127.616C99.3349 126.801 105.607 124.772 109.154 123.174C110.4 122.613 110.298 122.688 110.203 122.406C110.129 122.187 108.675 117.468 108.525 116.961C108.487 116.832 108.146 115.724 107.768 114.499C106.878 111.617 105.535 107.258 105.445 106.955C105.406 106.826 105.069 105.73 104.696 104.519C103.102 99.3493 102.253 96.5921 101.938 95.5613C101.754 94.9562 101.592 94.4321 101.58 94.3965C101.568 94.361 101.528 94.3423 101.491 94.3549C101.454 94.3676 100.836 94.5572 100.118 94.7764ZM143.074 97.2076C144.405 97.3917 145.556 98.4316 145.894 99.7551C146.36 101.585 145.246 103.467 143.414 103.941C142.954 104.06 142.151 104.047 141.666 103.912C139.426 103.288 138.456 100.64 139.753 98.6841C140.16 98.0695 140.858 97.55 141.584 97.3216C141.953 97.2057 142.666 97.1511 143.074 97.2076ZM64.2724 98.0077C64.2129 98.5222 64.1307 99.2146 63.9007 101.14C63.8028 101.96 63.6482 103.274 63.4293 105.148C63.3755 105.609 63.2819 106.399 63.2215 106.903C62.7602 110.748 62.7456 110.901 62.8326 110.988C62.9426 111.099 63.0802 110.998 63.125 110.774C63.1447 110.676 63.1987 110.254 63.2452 109.837C63.324 109.127 63.3742 108.699 63.6387 106.484C63.6954 106.009 63.8252 104.901 63.927 104.022C64.0289 103.143 64.1582 102.047 64.2145 101.586C64.6618 97.9198 64.7002 97.5103 64.6042 97.4399C64.4143 97.3007 64.3394 97.4288 64.2724 98.0077ZM141.637 97.7437C139.885 98.3338 139.073 100.352 139.925 101.999C140.194 102.519 140.733 103.051 141.245 103.302C141.77 103.559 142.091 103.62 142.756 103.591C143.232 103.57 143.365 103.543 143.721 103.393C144.099 103.234 144.577 102.902 144.812 102.636C145.63 101.71 145.814 100.341 145.268 99.2587C144.848 98.426 144.008 97.793 143.112 97.6332C142.728 97.5646 142.009 97.6185 141.637 97.7437ZM72.9223 100.571C71.7948 100.92 70.7313 101.248 70.5589 101.301C68.5837 101.9 67.0199 102.402 66.8474 102.49C66.6187 102.608 66.3024 102.929 66.1813 103.167C66.047 103.431 65.9872 103.839 66.041 104.124C66.0684 104.269 66.3405 105.195 66.6457 106.182C66.9508 107.169 67.49 108.92 67.844 110.072C68.1978 111.225 68.7972 113.17 69.1758 114.394C69.5544 115.619 69.8954 116.727 69.9336 116.857C70.4128 118.485 71.5025 121.945 71.5706 122.054C71.8434 122.493 73.3248 123.929 74.1624 124.566C74.8414 125.083 75.6744 125.568 76.2715 125.795C76.7158 125.964 77.3968 126.128 77.6519 126.129C77.8174 126.129 77.8467 126.113 77.8241 126.037C77.7385 125.749 75.606 118.813 74.3973 114.892C73.9621 113.48 73.5745 112.219 73.5359 112.089C73.4973 111.96 73.1562 110.852 72.7778 109.627C72.3995 108.403 72.0585 107.295 72.0202 107.165C71.9818 107.035 71.715 106.165 71.4272 105.231C71.0667 104.061 70.9182 103.506 70.9497 103.447C70.9784 103.393 71.377 103.244 72.0305 103.041C75.1304 102.081 75.6143 101.928 75.6412 101.901C75.6574 101.885 75.621 101.713 75.5604 101.519C75.4997 101.325 75.3652 100.89 75.2614 100.551C75.1577 100.213 75.0501 99.9356 75.0225 99.9356C74.9949 99.9356 74.0498 100.221 72.9223 100.571ZM133.419 102.444C131.476 103.306 127.56 105.041 124.716 106.302C121.872 107.562 119.474 108.624 119.386 108.662L119.225 108.73L119.422 109.323C119.999 111.057 119.953 112.941 119.29 114.777C117.975 118.417 114.202 121.577 108.239 124.034C106.652 124.688 103.599 125.773 101.606 126.39C101.219 126.511 100.843 126.63 100.771 126.656C100.44 126.774 98.4933 127.316 97.4719 127.574C92.454 128.841 88.3722 129.132 86.2785 128.373C85.6392 128.141 85.6774 128.189 84.1933 125.76C80.3456 119.462 79.7059 118.428 79.6569 118.428C79.5954 118.428 79.2607 118.674 79.1599 118.793C78.9993 118.982 78.8317 119.433 78.8015 119.757C78.7407 120.411 78.9222 121.132 79.5679 122.802C80.1184 124.226 80.3327 125.023 80.2816 125.455C80.2203 125.974 79.9496 126.292 79.411 126.476C78.9797 126.624 77.6421 126.605 76.9594 126.443C75.5083 126.097 74.0838 125.214 72.5232 123.693C72.1387 123.319 71.6585 122.823 71.4561 122.593C71.2538 122.362 71.069 122.166 71.0455 122.156C70.9867 122.132 70.9921 122.693 71.0582 123.494C71.1195 124.235 71.3077 125.167 71.5104 125.734C71.6661 126.169 72.0586 126.977 72.2052 127.164C72.3522 127.351 72.3341 127.47 72.1251 127.686C71.9182 127.899 71.7862 128.273 71.7862 128.645C71.7862 129.226 72.1546 130.173 72.6955 130.982C72.9327 131.337 72.9336 131.34 72.9018 131.684C72.8232 132.531 73.3002 133.378 74.5606 134.627C75.2836 135.343 75.3697 135.475 75.2035 135.614C75.077 135.719 74.9719 135.956 74.9719 136.135C74.9719 136.811 76.1573 137.481 78.3143 138.023C78.7595 138.135 79.4011 138.263 79.7401 138.307C80.5218 138.409 82.1683 138.411 83.1451 138.31C84.2452 138.197 85.8094 137.925 86.3416 137.754C86.4675 137.713 86.5843 137.72 86.8117 137.78C89.0876 138.387 93.5287 139.151 97.0107 139.534C100.479 139.916 101.785 139.985 105.523 139.985C108.517 139.985 108.984 139.974 110.328 139.865C111.147 139.799 111.852 139.735 111.895 139.723C111.938 139.712 112.22 139.676 112.521 139.645C115.847 139.298 119.463 138.451 122.314 137.352C126.636 135.684 129.679 133.474 132.029 130.293C135.241 125.944 137.094 120.015 137.544 112.639C137.626 111.293 137.627 107.562 137.545 106.151C137.422 104.026 137.084 100.879 136.978 100.879C136.964 100.879 135.363 101.583 133.419 102.444ZM101.088 102.306C101.456 103.502 101.542 103.813 101.51 103.833C101.491 103.845 100.747 104.079 99.857 104.354C97.1288 105.196 88.4143 107.895 85.3385 108.851C84.1321 109.226 83.0393 109.564 82.91 109.602C82.7808 109.64 81.6762 109.982 80.4555 110.361C79.2347 110.741 78.0949 111.093 77.9226 111.146C77.7503 111.198 77.4131 111.303 77.1735 111.381C76.9338 111.458 76.7316 111.513 76.7241 111.504C76.7166 111.494 76.575 111.039 76.4094 110.492C76.2438 109.944 76.0992 109.48 76.088 109.461C76.0769 109.442 76.3794 109.329 76.7602 109.21C77.141 109.091 77.5701 108.957 77.7137 108.912C77.8573 108.866 78.7621 108.586 79.7243 108.289C80.6866 107.992 82.6254 107.392 84.0329 106.955C85.4403 106.519 87.8374 105.776 89.3598 105.305C90.8821 104.834 93.1265 104.139 94.3473 103.759C95.568 103.38 96.6726 103.038 96.8018 103C96.9311 102.961 97.8809 102.669 98.9126 102.349C99.9442 102.03 100.819 101.769 100.856 101.769C100.896 101.769 100.99 101.988 101.088 102.306ZM113.212 104.179C113.2 104.283 113.442 104.609 114.379 105.751C116.618 108.478 116.449 108.291 116.595 108.213C116.652 108.182 116.699 108.12 116.699 108.076C116.699 108.013 115.163 106.101 113.62 104.245C113.409 103.991 113.236 103.963 113.212 104.179ZM102.273 106.155C102.302 106.264 102.438 106.711 102.574 107.148C102.711 107.585 102.81 107.975 102.795 108.014C102.779 108.056 102.08 108.297 101.129 108.59C99.5796 109.067 97.7167 109.644 91.8405 111.469C90.4474 111.901 89.2018 112.286 89.0726 112.324C88.9433 112.363 87.8388 112.705 86.618 113.084C85.3973 113.464 84.2927 113.806 84.1634 113.845C84.0342 113.883 82.9296 114.225 81.7089 114.604C80.4881 114.983 79.3483 115.336 79.176 115.389C79.0036 115.441 78.6804 115.542 78.4576 115.614C78.2348 115.687 78.0405 115.726 78.0258 115.702C77.9609 115.597 77.3915 113.656 77.4204 113.639C77.4381 113.628 77.5348 113.596 77.6354 113.566C77.7359 113.537 78.8169 113.203 80.0377 112.823C81.2584 112.444 82.363 112.101 82.4923 112.061C82.6215 112.022 82.88 111.943 83.0667 111.886C83.2534 111.829 84.3932 111.476 85.5996 111.102C86.806 110.727 88.8976 110.079 90.2476 109.662C91.5976 109.244 93.8537 108.545 95.2612 108.109C97.3222 107.47 101.756 106.098 102.135 105.983C102.198 105.964 102.234 106.009 102.273 106.155ZM118.176 108.637C117.866 108.726 117.596 108.814 117.576 108.834C117.555 108.854 117.78 110.328 118.075 112.11L118.612 115.35L118.778 114.953C119.568 113.066 119.607 110.867 118.883 109.07C118.797 108.854 118.738 108.632 118.752 108.576C118.767 108.52 118.77 108.475 118.758 108.475C118.747 108.475 118.485 108.548 118.176 108.637ZM31.3407 121.278C32.4423 121.496 33.4056 122.437 33.6823 123.565C33.8522 124.258 33.7478 125.044 33.3968 125.715C33.1708 126.147 32.5886 126.734 32.164 126.957C31.7567 127.171 31.1299 127.334 30.7115 127.334C30.534 127.334 30.2072 127.287 29.9853 127.23C28.8315 126.934 27.9818 126.038 27.7395 124.861C27.6357 124.357 27.6355 124.184 27.7382 123.678C28.0765 122.008 29.6703 120.946 31.3407 121.278ZM30.1157 121.704C28.7206 122.034 27.8091 123.494 28.1536 124.848C28.5237 126.302 29.9529 127.196 31.3313 126.836C33.114 126.37 33.9149 124.332 32.9113 122.816C32.3 121.892 31.1896 121.45 30.1157 121.704ZM37.5629 127.468C37.7408 127.507 38.058 127.625 38.268 127.729C38.634 127.912 39.0292 128.3 47.9344 137.227C53.0411 142.346 57.2924 146.647 57.3819 146.786C57.9249 147.63 57.9911 148.788 57.5514 149.752C57.2347 150.446 56.528 151.072 55.7631 151.337C55.2984 151.497 54.3643 151.509 53.9253 151.36C53.1294 151.089 53.7005 151.634 43.6842 141.587C34.5483 132.424 34.3532 132.224 34.1683 131.839C33.9642 131.415 33.8183 130.826 33.8197 130.434C33.8238 129.351 34.5238 128.213 35.4829 127.73C36.1176 127.41 36.8696 127.315 37.5629 127.468ZM36.316 127.865C34.894 128.171 33.9595 129.672 34.3194 131.072C34.5187 131.847 33.961 131.257 43.9724 141.302C53.0305 150.391 53.2284 150.586 53.612 150.771C54.4114 151.158 55.1701 151.163 55.9621 150.789C56.3858 150.588 56.8536 150.148 57.0872 149.729C57.5866 148.833 57.5246 147.683 56.934 146.885C56.8337 146.749 52.6199 142.498 47.57 137.438C39.4371 129.288 38.3536 128.221 38.0831 128.091C37.5176 127.821 36.8932 127.741 36.316 127.865ZM76.4342 137.94C76.4342 137.953 76.7302 138.926 77.092 140.101C77.4538 141.276 77.7811 142.344 77.8193 142.474C77.8576 142.603 78.2097 143.747 78.6017 145.014C78.9937 146.282 79.3459 147.426 79.3845 147.555C79.58 148.212 80.7763 152.104 80.8175 152.218C80.8437 152.29 80.9298 152.561 81.0089 152.82C81.2306 153.547 81.4646 153.859 81.97 154.098C82.4946 154.347 82.6983 154.314 84.9468 153.608C86.0239 153.27 87.011 152.962 87.1403 152.924C87.2695 152.886 88.3623 152.548 89.5687 152.174C92.8205 151.165 97.1162 149.833 99.5697 149.074C100.762 148.705 102.853 148.056 104.218 147.632C105.582 147.208 106.839 146.819 107.012 146.767C107.184 146.715 108.312 146.366 109.519 145.992C112.301 145.128 116.908 143.701 118.846 143.102C119.668 142.848 120.436 142.591 120.554 142.531C121.036 142.285 121.349 141.787 121.381 141.216C121.398 140.912 121.36 140.746 121.019 139.645C120.742 138.748 120.618 138.416 120.562 138.422C120.52 138.426 120.121 138.536 119.676 138.667C118.723 138.946 117.628 139.216 116.647 139.413C116.259 139.491 115.937 139.558 115.932 139.562C115.926 139.566 115.97 139.73 116.03 139.926C116.127 140.247 116.13 140.291 116.058 140.363C115.995 140.426 113.786 141.141 112.208 141.61C112.079 141.648 110.986 141.986 109.78 142.36C105.689 143.63 101.954 144.787 99.4392 145.566C98.0604 145.992 95.8278 146.684 94.4778 147.102C93.1278 147.52 91.0597 148.16 89.882 148.523C87.4254 149.281 86.7569 149.49 85.9913 149.736C85.4092 149.923 85.2362 149.949 85.1781 149.854C85.1582 149.822 85.0183 149.392 84.8672 148.898C84.716 148.404 84.2592 146.916 83.8521 145.591C83.2039 143.481 82.8649 142.383 81.9636 139.475L81.7566 138.807H81.0649C80.3353 138.807 79.4209 138.712 78.8104 138.573C78.0579 138.401 77.4391 138.232 77.0087 138.081C76.5696 137.927 76.4342 137.894 76.4342 137.94ZM85.5735 138.361C84.764 138.533 83.7581 138.684 82.9362 138.757C82.5628 138.79 82.2478 138.826 82.2363 138.837C82.2249 138.848 82.4676 139.677 82.7758 140.679C83.0839 141.68 83.3675 142.606 83.4061 142.736C83.4446 142.865 83.7854 143.973 84.1634 145.198C84.5414 146.422 84.8929 147.566 84.9445 147.739C85.1528 148.437 85.4618 149.399 85.4851 149.422C85.4989 149.436 85.8592 149.337 86.286 149.203C86.7127 149.069 87.1677 148.927 87.2969 148.889C87.4262 148.851 88.6717 148.467 90.0648 148.035C92.5381 147.267 95.2295 146.433 100.144 144.911C101.48 144.497 103.571 143.848 104.792 143.469C106.013 143.089 107.118 142.747 107.247 142.707C107.376 142.668 107.635 142.589 107.821 142.532C108.008 142.476 109.001 142.168 110.028 141.849C111.055 141.53 112.733 141.01 113.757 140.693C114.781 140.377 115.627 140.11 115.637 140.099C115.66 140.077 115.549 139.738 115.502 139.684C115.483 139.663 115.187 139.691 114.843 139.746C111.888 140.224 109.086 140.431 105.576 140.43C100.981 140.43 96.6327 140.045 91.6316 139.194C90.3995 138.984 88.0194 138.506 87.1403 138.292C86.6906 138.183 86.4937 138.157 86.3569 138.19C86.2563 138.213 85.9038 138.291 85.5735 138.361ZM139.567 140.016C140.666 140.353 140.992 141.826 140.14 142.61C139.807 142.916 139.51 143.017 139.031 142.987C138.456 142.949 138.064 142.688 137.79 142.159C137.618 141.829 137.615 141.135 137.783 140.817C138.07 140.278 138.478 140.008 139.052 139.979C139.238 139.97 139.47 139.987 139.567 140.016ZM138.751 140.448C138.364 140.589 138.063 141.044 138.06 141.489C138.057 142.27 138.844 142.798 139.562 142.497C140.009 142.31 140.221 141.947 140.191 141.42C140.175 141.129 140.143 141.023 140.016 140.843C139.733 140.44 139.216 140.279 138.751 140.448ZM137.47 146.146C138.31 146.287 139.079 146.957 139.418 147.843C139.59 148.294 139.591 149.173 139.42 149.616C139.15 150.315 138.557 150.929 137.919 151.17C137.536 151.315 136.913 151.362 136.482 151.277C135.573 151.1 134.726 150.264 134.512 149.336C134.432 148.985 134.445 148.345 134.539 148.023C134.828 147.037 135.644 146.291 136.597 146.142C136.983 146.082 137.089 146.082 137.47 146.146ZM136.587 146.566C135.936 146.702 135.369 147.165 135.066 147.805C134.91 148.135 134.9 148.195 134.9 148.735C134.9 149.287 134.908 149.329 135.078 149.676C135.621 150.782 136.856 151.222 137.938 150.696C139.264 150.05 139.557 148.214 138.502 147.155C137.976 146.626 137.295 146.417 136.587 146.566Z" fill="black" stroke="black" stroke-width="0.6"/>
</svg>
